<svg width="1170" height="1169" viewBox="0 0 1170 1169" fill="none" xmlns="http://www.w3.org/2000/svg">
<rect width="1168.49" height="1168.49" transform="translate(0.753906)" fill="white"/>
<circle cx="462.693" cy="573.361" r="214.08" fill="#6D96FF"/>
<path d="M462.723 310.64C462.723 251.524 510.646 203.601 569.763 203.601V203.601C628.879 203.601 676.802 251.524 676.802 310.64V495.527L585.819 734.886L462.723 787.454V310.64Z" fill="#F0537D"/>
<path d="M791.427 383.627C842.623 354.069 908.087 371.61 937.646 422.806C967.204 474.003 949.663 539.467 898.466 569.026L569.805 758.778C530.74 779.864 504.379 786.862 462.766 787.459L462.766 573.38L791.427 383.627Z" fill="#FFD37C"/>
<path d="M462.723 573.389L681.539 699.833C778.881 756.082 778.805 896.621 681.403 952.766C584 1008.91 462.35 938.536 462.465 826.111L462.723 573.389Z" fill="#2EF2F2" fill-opacity="0.58"/>
</svg>
