<svg width="48" height="48" viewBox="0 0 48 48" fill="none" xmlns="http://www.w3.org/2000/svg">
<path d="M35.5059 28C36.0968 28 36.682 28.1164 37.2279 28.3425C37.7739 28.5687 38.27 28.9002 38.6878 29.318C39.1057 29.7359 39.4372 30.232 39.6633 30.7779C39.8895 31.3239 40.0059 31.9091 40.0059 32.5V34.31C40.0061 35.3911 39.7727 36.4595 39.3215 37.4419C38.8703 38.4244 38.2121 39.2977 37.3919 40.002C34.2599 42.69 29.7799 44 23.9999 44C18.2199 44 13.7439 42.688 10.6179 40C9.79878 39.2962 9.14137 38.4238 8.69056 37.4424C8.23976 36.4611 8.0062 35.3939 8.00586 34.314V32.498C8.00639 31.3049 8.48073 30.1608 9.32459 29.3173C10.1684 28.4738 11.3127 28 12.5059 28H35.5059ZM35.5059 31H12.5059C12.108 31 11.7265 31.158 11.4452 31.4393C11.1639 31.7206 11.0059 32.1022 11.0059 32.5V34.316C11.0059 35.626 11.5779 36.872 12.5739 37.728C15.0899 39.89 18.8799 41.004 23.9999 41.004C29.1199 41.004 32.9159 39.89 35.4379 37.724C35.9295 37.3017 36.3241 36.7782 36.5948 36.1894C36.8654 35.6005 37.0056 34.9601 37.0059 34.312V32.5C37.0059 32.1022 36.8478 31.7206 36.5665 31.4393C36.2852 31.158 35.9037 31 35.5059 31ZM23.7959 4.016L23.9999 4C24.3623 4.00002 24.7125 4.13129 24.9857 4.36953C25.2589 4.60778 25.4366 4.93689 25.4859 5.296L25.4999 5.5V7H32.4999C33.6933 7 34.8379 7.47411 35.6818 8.31802C36.5258 9.16193 36.9999 10.3065 36.9999 11.5V20.51C36.9999 21.7035 36.5258 22.8481 35.6818 23.692C34.8379 24.5359 33.6933 25.01 32.4999 25.01H15.4999C14.3064 25.01 13.1618 24.5359 12.3179 23.692C11.474 22.8481 10.9999 21.7035 10.9999 20.51V11.5C10.9999 10.3065 11.474 9.16193 12.3179 8.31802C13.1618 7.47411 14.3064 7 15.4999 7H22.4999V5.502C22.4999 5.13952 22.6311 4.78932 22.8694 4.51614C23.1076 4.24296 23.4368 4.0653 23.7959 4.016ZM32.4999 10H15.4999C15.102 10 14.7205 10.158 14.4392 10.4393C14.1579 10.7206 13.9999 11.1022 13.9999 11.5V20.51C13.9999 21.338 14.6719 22.01 15.4999 22.01H32.4999C32.8977 22.01 33.2792 21.852 33.5605 21.5707C33.8418 21.2894 33.9999 20.9078 33.9999 20.51V11.5C33.9999 11.1022 33.8418 10.7206 33.5605 10.4393C33.2792 10.158 32.8977 10 32.4999 10ZM19.4999 13C20.1629 13 20.7988 13.2634 21.2676 13.7322C21.7365 14.2011 21.9999 14.837 21.9999 15.5C21.9999 16.163 21.7365 16.7989 21.2676 17.2678C20.7988 17.7366 20.1629 18 19.4999 18C18.8368 18 18.2009 17.7366 17.7321 17.2678C17.2633 16.7989 16.9999 16.163 16.9999 15.5C16.9999 14.837 17.2633 14.2011 17.7321 13.7322C18.2009 13.2634 18.8368 13 19.4999 13ZM28.4839 13C28.818 12.9905 29.1506 13.0482 29.4621 13.1695C29.7735 13.2909 30.0575 13.4734 30.2972 13.7064C30.5368 13.9394 30.7273 14.2181 30.8574 14.526C30.9875 14.8339 31.0546 15.1647 31.0546 15.499C31.0546 15.8333 30.9875 16.1641 30.8574 16.472C30.7273 16.7799 30.5368 17.0586 30.2972 17.2916C30.0575 17.5246 29.7735 17.7071 29.4621 17.8285C29.1506 17.9498 28.818 18.0075 28.4839 17.998C27.8333 17.9796 27.2156 17.7082 26.762 17.2416C26.3083 16.7749 26.0546 16.1498 26.0546 15.499C26.0546 14.8482 26.3083 14.2231 26.762 13.7564C27.2156 13.2898 27.8333 13.0184 28.4839 13Z" fill="white"/>
</svg>
