<svg width="48" height="48" viewBox="0 0 48 48" fill="none" xmlns="http://www.w3.org/2000/svg">
<path d="M30.5062 4C31.6131 4.00003 32.6811 4.40801 33.5062 5.14594C34.3312 5.88387 34.8552 6.89998 34.9782 8H37.5142C38.3923 8.00054 39.238 8.33107 39.8838 8.92604C40.5295 9.52101 40.928 10.3369 41.0002 11.212L41.0122 11.5V17.5C41.0123 19.1603 40.3771 20.7577 39.2369 21.9645C38.0967 23.1713 36.5378 23.896 34.8802 23.99L34.4602 24.002C33.7937 26.08 32.5504 27.9259 30.8752 29.3245C29.2 30.7232 27.1619 31.617 24.9982 31.902V35H28.5042C30.1642 35.0004 31.761 35.6358 32.9674 36.776C34.1738 37.9162 34.8983 39.4747 34.9922 41.132L35.0042 41.5V42.5C35.0042 42.8628 34.8726 43.2132 34.6339 43.4865C34.3953 43.7597 34.0657 43.9371 33.7062 43.986L33.5042 44H13.5002C13.1374 44.0005 12.7867 43.8694 12.5131 43.6311C12.2395 43.3928 12.0616 43.0634 12.0122 42.704L12.0002 42.5V41.5C12.0001 39.8401 12.635 38.2429 13.7749 37.0362C14.9147 35.8294 16.473 35.1045 18.1302 35.01L18.5002 35H22.0002V31.902C19.8373 31.6163 17.8 30.7222 16.1256 29.3235C14.4512 27.9249 13.2085 26.0795 12.5422 24.002L12.4902 24C10.7663 24 9.11303 23.3152 7.89404 22.0962C6.67505 20.8772 5.99023 19.2239 5.99023 17.5V11.5C5.99023 9.568 7.55823 8 9.49023 8H12.0262C12.1493 6.89964 12.6736 5.88325 13.4991 5.14528C14.3245 4.4073 15.393 3.99954 16.5002 4H30.5062ZM28.5062 38H18.5002C17.7101 37.9996 16.943 38.2666 16.3239 38.7576C15.7047 39.2485 15.2699 39.9345 15.0902 40.704L15.0342 41H31.9702C31.8574 40.2192 31.4841 39.4994 30.9109 38.9574C30.3376 38.4154 29.5981 38.083 28.8122 38.014L28.5062 38ZM30.5062 7H16.5002C16.1024 7 15.7209 7.15804 15.4396 7.43934C15.1583 7.72064 15.0002 8.10218 15.0002 8.5V20.496C15.0345 22.7286 15.9454 24.8581 17.5363 26.4248C19.1272 27.9914 21.2704 28.8696 23.5032 28.8696C25.736 28.8696 27.8793 27.9914 29.4702 26.4248C31.0611 24.8581 31.972 22.7286 32.0062 20.496V8.5C32.0062 8.10218 31.8482 7.72064 31.5669 7.43934C31.2856 7.15804 30.9041 7 30.5062 7ZM37.5142 11H35.0062V20.966C35.7885 20.8548 36.5101 20.4822 37.0537 19.9089C37.5973 19.3355 37.9309 18.5951 38.0002 17.808L38.0142 17.5V11.5C38.014 11.3874 37.9758 11.2781 37.9058 11.1899C37.8357 11.1017 37.7379 11.0397 37.6282 11.014L37.5142 11ZM12.0002 11H9.49023C9.35763 11 9.23045 11.0527 9.13668 11.1464C9.04291 11.2402 8.99023 11.3674 8.99023 11.5V17.5C8.99012 18.3434 9.29459 19.1586 9.84764 19.7954C10.4007 20.4322 11.1651 20.8479 12.0002 20.966V11Z" fill="white"/>
</svg>
