<svg width="366" height="406" viewBox="0 0 366 406" fill="none" xmlns="http://www.w3.org/2000/svg">
<g filter="url(#filter0_i_4794_11134)">
<g clip-path="url(#clip0_4794_11134)">
<rect width="366" height="406" rx="24" fill="url(#paint0_linear_4794_11134)"/>
<path d="M129.95 21.5601V26.7146C130.664 25.6335 131.765 25.0737 133.251 25.0737C134.603 25.0737 135.703 25.5563 136.514 26.5023C137.325 27.4482 137.749 28.7031 137.749 30.2861C137.749 31.9078 137.325 33.182 136.495 34.1472C135.645 35.1125 134.545 35.5952 133.155 35.5952C131.572 35.5952 130.471 35.016 129.853 33.8577V35.3056H128.309V21.5601H129.95ZM133 26.4637C131.938 26.4637 131.147 26.8498 130.645 27.6027C130.143 28.3749 129.892 29.3016 129.892 30.402C129.892 31.5796 130.162 32.5063 130.722 33.2013C131.282 33.8963 132.035 34.2245 133 34.2245C133.908 34.2245 134.641 33.877 135.201 33.1627C135.761 32.4484 136.051 31.5024 136.051 30.3055C136.051 29.1471 135.761 28.2012 135.22 27.5062C134.661 26.8112 133.927 26.4637 133 26.4637ZM144.965 25.1123L144.946 26.8305C144.83 26.8112 144.695 26.8112 144.521 26.8112C144 26.8112 143.537 26.8884 143.151 27.0428C142.764 27.1973 142.475 27.4096 142.243 27.6606C142.012 27.9309 141.838 28.2398 141.683 28.6259C141.548 29.012 141.452 29.3981 141.413 29.7842C141.374 30.1703 141.355 30.6143 141.355 31.097V35.3056H139.714V25.3439H141.278V27.4869C141.934 25.9038 143.151 25.1123 144.965 25.1123ZM155.024 33.9928V35.2863C154.676 35.4021 154.309 35.4793 153.904 35.4793C152.958 35.4793 152.475 34.9774 152.456 34.0121C151.51 35.0546 150.313 35.5952 148.846 35.5952C147.861 35.5952 147.089 35.3442 146.51 34.8422C145.931 34.3403 145.66 33.6453 145.66 32.7766C145.66 31.0004 146.838 29.958 149.193 29.6684C149.348 29.6298 149.56 29.6105 149.869 29.5911C150.989 29.456 151.664 29.3016 151.935 29.1471C152.224 28.9348 152.379 28.5873 152.379 28.0853C152.379 26.9849 151.626 26.4444 150.12 26.4444C149.348 26.4444 148.749 26.5988 148.363 26.9077C147.958 27.2166 147.726 27.7378 147.649 28.4714H146.047C146.066 27.3903 146.452 26.5602 147.186 25.981C147.919 25.3826 148.923 25.093 150.217 25.093C151.607 25.093 152.649 25.4019 153.344 26.0582C153.556 26.2513 153.711 26.5216 153.827 26.8691C153.923 27.1973 153.981 27.4675 154 27.6799C154 27.8923 154.02 28.2205 154.02 28.6452C154.02 29.1278 154 29.8614 153.981 30.846C153.942 31.8499 153.942 32.5835 153.942 33.0661C153.942 33.4329 153.981 33.6839 154.078 33.8384C154.174 33.9928 154.348 34.0507 154.618 34.0507C154.715 34.0507 154.85 34.0314 155.024 33.9928ZM152.379 30.151C152.263 30.2282 152.128 30.3055 152.012 30.3827C151.877 30.4406 151.703 30.4985 151.51 30.5371C151.317 30.5757 151.182 30.595 151.105 30.6143C151.027 30.6336 150.873 30.653 150.603 30.6916C150.332 30.7302 150.178 30.7495 150.178 30.7495C149.772 30.7881 149.502 30.8267 149.386 30.846C149.271 30.8653 149.039 30.9232 148.691 31.0198C148.344 31.097 148.112 31.2128 147.977 31.3286C147.823 31.4445 147.688 31.5989 147.552 31.8306C147.417 32.0623 147.359 32.3325 147.359 32.6414C147.359 33.1434 147.533 33.5488 147.881 33.8577C148.228 34.1472 148.73 34.3017 149.348 34.3017C150.12 34.3017 150.834 34.07 151.452 33.6067C152.07 33.1434 152.379 32.5835 152.379 31.9657V30.151ZM158.115 25.3439V26.8884C158.925 25.6914 160.064 25.0737 161.512 25.0737C162.671 25.0737 163.52 25.3826 164.041 26.0003C164.563 26.6181 164.833 27.5062 164.833 28.6838V35.3056H163.192V29.4367C163.192 28.9541 163.173 28.568 163.134 28.2977C163.095 28.0274 163.018 27.7185 162.902 27.4096C162.767 27.1007 162.555 26.8691 162.246 26.7146C161.937 26.5795 161.532 26.5023 161.049 26.5023C159.157 26.5023 158.211 27.6992 158.211 30.0931V35.3056H156.57V25.3439H158.115ZM176.275 21.5601V35.3056H174.73V33.8384C174.093 34.9967 172.993 35.5758 171.448 35.5758C170.02 35.5758 168.9 35.1125 168.07 34.1665C167.24 33.2206 166.834 31.9271 166.834 30.3055C166.834 28.7996 167.22 27.5641 167.992 26.5602C168.765 25.5563 169.904 25.0544 171.371 25.0544C172.8 25.0544 173.881 25.5949 174.634 26.676V21.5601H176.275ZM171.583 26.4637C170.637 26.4637 169.884 26.8112 169.344 27.4869C168.803 28.1818 168.533 29.1085 168.533 30.2668C168.533 31.4831 168.803 32.4484 169.363 33.1627C169.923 33.877 170.676 34.2245 171.622 34.2245C172.568 34.2245 173.321 33.8963 173.861 33.2013C174.402 32.5063 174.672 31.5603 174.672 30.3248C174.672 29.2437 174.402 28.317 173.9 27.5834C173.398 26.8498 172.626 26.4637 171.583 26.4637ZM192.937 33.9928V35.2863C192.589 35.4021 192.223 35.4793 191.817 35.4793C190.871 35.4793 190.389 34.9774 190.369 34.0121C189.423 35.0546 188.226 35.5952 186.759 35.5952C185.775 35.5952 185.002 35.3442 184.423 34.8422C183.844 34.3403 183.574 33.6453 183.574 32.7766C183.574 31.0004 184.751 29.958 187.107 29.6684C187.261 29.6298 187.474 29.6105 187.782 29.5911C188.902 29.456 189.578 29.3016 189.848 29.1471C190.138 28.9348 190.292 28.5873 190.292 28.0853C190.292 26.9849 189.539 26.4444 188.033 26.4444C187.261 26.4444 186.663 26.5988 186.277 26.9077C185.871 27.2166 185.64 27.7378 185.562 28.4714H183.96C183.979 27.3903 184.365 26.5602 185.099 25.981C185.833 25.3826 186.836 25.093 188.13 25.093C189.52 25.093 190.562 25.4019 191.257 26.0582C191.47 26.2513 191.624 26.5216 191.74 26.8691C191.837 27.1973 191.894 27.4675 191.914 27.6799C191.914 27.8923 191.933 28.2205 191.933 28.6452C191.933 29.1278 191.914 29.8614 191.894 30.846C191.856 31.8499 191.856 32.5835 191.856 33.0661C191.856 33.4329 191.894 33.6839 191.991 33.8384C192.088 33.9928 192.261 34.0507 192.532 34.0507C192.628 34.0507 192.763 34.0314 192.937 33.9928ZM190.292 30.151C190.176 30.2282 190.041 30.3055 189.925 30.3827C189.79 30.4406 189.616 30.4985 189.423 30.5371C189.23 30.5757 189.095 30.595 189.018 30.6143C188.941 30.6336 188.786 30.653 188.516 30.6916C188.246 30.7302 188.091 30.7495 188.091 30.7495C187.686 30.7881 187.416 30.8267 187.3 30.846C187.184 30.8653 186.952 30.9232 186.605 31.0198C186.257 31.097 186.026 31.2128 185.89 31.3286C185.736 31.4445 185.601 31.5989 185.466 31.8306C185.331 32.0623 185.273 32.3325 185.273 32.6414C185.273 33.1434 185.446 33.5488 185.794 33.8577C186.141 34.1472 186.643 34.3017 187.261 34.3017C188.033 34.3017 188.748 34.07 189.365 33.6067C189.983 33.1434 190.292 32.5835 190.292 31.9657V30.151ZM201.878 28.2398H200.237C200.121 27.0428 199.31 26.425 197.804 26.425C197.167 26.425 196.665 26.5602 196.318 26.7919C195.951 27.0428 195.777 27.371 195.777 27.7764C195.777 27.8923 195.777 28.0081 195.816 28.1239C195.835 28.2398 195.874 28.3363 195.951 28.4135C196.028 28.4907 196.086 28.568 196.144 28.6259C196.202 28.7031 196.298 28.761 196.433 28.8189C196.569 28.8768 196.665 28.9155 196.742 28.9541C196.82 28.9927 196.935 29.0506 197.128 29.0892C197.321 29.1278 197.457 29.1664 197.534 29.1857C197.611 29.205 197.746 29.2437 197.978 29.2823C198.21 29.3402 198.345 29.3788 198.422 29.3788C198.885 29.4946 199.252 29.5718 199.484 29.6298C199.715 29.707 200.044 29.8228 200.468 29.9966C200.893 30.1703 201.202 30.3441 201.434 30.5371C201.646 30.7302 201.839 30.9811 202.013 31.3093C202.186 31.6375 202.283 32.0043 202.283 32.4097C202.283 33.375 201.897 34.1665 201.144 34.7457C200.391 35.3249 199.387 35.6145 198.152 35.6145C196.8 35.6145 195.758 35.3249 195.024 34.7264C194.29 34.1472 193.904 33.2785 193.866 32.1588H195.487C195.565 33.5681 196.472 34.2631 198.19 34.2631C198.924 34.2631 199.503 34.1279 199.947 33.8191C200.391 33.5102 200.623 33.1047 200.623 32.6028C200.623 32.2746 200.507 32.0043 200.275 31.7727C200.044 31.5603 199.773 31.4059 199.503 31.3093C199.213 31.2128 198.808 31.097 198.287 30.9618C198.21 30.9618 198.152 30.9425 198.113 30.9232C197.997 30.9039 197.746 30.846 197.36 30.7688C196.974 30.6916 196.704 30.6143 196.549 30.5564C196.375 30.5178 196.125 30.4406 195.816 30.3248C195.507 30.2089 195.275 30.0931 195.121 29.9773C194.966 29.8614 194.792 29.707 194.599 29.5139C194.406 29.3209 194.29 29.1085 194.213 28.8575C194.136 28.6066 194.097 28.317 194.097 27.9888C194.097 27.1007 194.426 26.3864 195.121 25.8459C195.816 25.3246 196.742 25.0544 197.901 25.0544C199.059 25.0544 200.024 25.3439 200.758 25.8845C201.491 26.4444 201.878 27.2359 201.878 28.2398ZM211.53 28.2398H209.889C209.773 27.0428 208.963 26.425 207.457 26.425C206.82 26.425 206.318 26.5602 205.97 26.7919C205.604 27.0428 205.43 27.371 205.43 27.7764C205.43 27.8923 205.43 28.0081 205.468 28.1239C205.488 28.2398 205.526 28.3363 205.604 28.4135C205.681 28.4907 205.739 28.568 205.797 28.6259C205.854 28.7031 205.951 28.761 206.086 28.8189C206.221 28.8768 206.318 28.9155 206.395 28.9541C206.472 28.9927 206.588 29.0506 206.781 29.0892C206.974 29.1278 207.109 29.1664 207.187 29.1857C207.264 29.205 207.399 29.2437 207.631 29.2823C207.862 29.3402 207.997 29.3788 208.075 29.3788C208.538 29.4946 208.905 29.5718 209.136 29.6298C209.368 29.707 209.696 29.8228 210.121 29.9966C210.546 30.1703 210.855 30.3441 211.086 30.5371C211.299 30.7302 211.492 30.9811 211.665 31.3093C211.839 31.6375 211.936 32.0043 211.936 32.4097C211.936 33.375 211.55 34.1665 210.797 34.7457C210.044 35.3249 209.04 35.6145 207.804 35.6145C206.453 35.6145 205.41 35.3249 204.677 34.7264C203.943 34.1472 203.557 33.2785 203.519 32.1588H205.14C205.217 33.5681 206.125 34.2631 207.843 34.2631C208.577 34.2631 209.156 34.1279 209.6 33.8191C210.044 33.5102 210.275 33.1047 210.275 32.6028C210.275 32.2746 210.16 32.0043 209.928 31.7727C209.696 31.5603 209.426 31.4059 209.156 31.3093C208.866 31.2128 208.461 31.097 207.939 30.9618C207.862 30.9618 207.804 30.9425 207.766 30.9232C207.65 30.9039 207.399 30.846 207.013 30.7688C206.627 30.6916 206.356 30.6143 206.202 30.5564C206.028 30.5178 205.777 30.4406 205.468 30.3248C205.159 30.2089 204.928 30.0931 204.773 29.9773C204.619 29.8614 204.445 29.707 204.252 29.5139C204.059 29.3209 203.943 29.1085 203.866 28.8575C203.789 28.6066 203.75 28.317 203.75 27.9888C203.75 27.1007 204.078 26.3864 204.773 25.8459C205.468 25.3246 206.395 25.0544 207.553 25.0544C208.712 25.0544 209.677 25.3439 210.411 25.8845C211.144 26.4444 211.53 27.2359 211.53 28.2398ZM222.303 32.1588C221.801 34.4754 220.353 35.6338 217.959 35.6338C216.492 35.6338 215.333 35.1897 214.503 34.2631C213.673 33.3557 213.268 32.0816 213.268 30.4599C213.268 28.8575 213.693 27.5641 214.542 26.5602C215.391 25.5563 216.511 25.0544 217.901 25.0544C219.426 25.0544 220.565 25.5756 221.299 26.6181C222.032 27.6606 222.419 28.9541 222.419 30.5371V30.7688H214.928L214.909 30.8846C214.909 31.9464 215.179 32.7766 215.739 33.375C216.279 33.9928 217.052 34.2824 218.017 34.2824C218.731 34.2824 219.291 34.1279 219.716 33.7804C220.141 33.4522 220.469 32.9117 220.7 32.1588H222.303ZM220.72 29.4367C220.642 28.4907 220.353 27.7571 219.851 27.2166C219.349 26.676 218.673 26.4057 217.862 26.4057C217.052 26.4057 216.395 26.676 215.874 27.2166C215.333 27.7571 215.025 28.51 214.928 29.4367H220.72ZM228.425 25.3439V26.6953H226.436V32.5063C226.436 32.8345 226.436 33.0468 226.436 33.1434C226.436 33.2592 226.475 33.3943 226.552 33.5681C226.61 33.7418 226.726 33.8577 226.88 33.8963C227.035 33.9542 227.247 33.9735 227.537 33.9735C227.768 33.9735 228.077 33.9542 228.425 33.9156V35.3249C227.961 35.3828 227.537 35.4021 227.17 35.4021C226.707 35.4021 226.32 35.3635 226.012 35.2477C225.703 35.1511 225.452 35.0353 225.297 34.9002C225.143 34.7843 225.027 34.5527 224.95 34.2245C224.872 33.8963 224.815 33.626 224.815 33.3943C224.795 33.1627 224.795 32.7959 224.795 32.2553V32.1781V32.0816V31.985V26.6953H223.116V25.3439H224.795V22.3902H226.436V25.3439H228.425ZM237.642 28.2398H236.001C235.885 27.0428 235.074 26.425 233.568 26.425C232.931 26.425 232.429 26.5602 232.082 26.7919C231.715 27.0428 231.541 27.371 231.541 27.7764C231.541 27.8923 231.541 28.0081 231.58 28.1239C231.599 28.2398 231.638 28.3363 231.715 28.4135C231.792 28.4907 231.85 28.568 231.908 28.6259C231.966 28.7031 232.062 28.761 232.198 28.8189C232.333 28.8768 232.429 28.9155 232.506 28.9541C232.584 28.9927 232.7 29.0506 232.893 29.0892C233.086 29.1278 233.221 29.1664 233.298 29.1857C233.375 29.205 233.51 29.2437 233.742 29.2823C233.974 29.3402 234.109 29.3788 234.186 29.3788C234.649 29.4946 235.016 29.5718 235.248 29.6298C235.479 29.707 235.808 29.8228 236.232 29.9966C236.657 30.1703 236.966 30.3441 237.198 30.5371C237.41 30.7302 237.603 30.9811 237.777 31.3093C237.951 31.6375 238.047 32.0043 238.047 32.4097C238.047 33.375 237.661 34.1665 236.908 34.7457C236.155 35.3249 235.151 35.6145 233.916 35.6145C232.564 35.6145 231.522 35.3249 230.788 34.7264C230.055 34.1472 229.669 33.2785 229.63 32.1588H231.252C231.329 33.5681 232.236 34.2631 233.954 34.2631C234.688 34.2631 235.267 34.1279 235.711 33.8191C236.155 33.5102 236.387 33.1047 236.387 32.6028C236.387 32.2746 236.271 32.0043 236.039 31.7727C235.808 31.5603 235.537 31.4059 235.267 31.3093C234.978 31.2128 234.572 31.097 234.051 30.9618C233.974 30.9618 233.916 30.9425 233.877 30.9232C233.761 30.9039 233.51 30.846 233.124 30.7688C232.738 30.6916 232.468 30.6143 232.313 30.5564C232.14 30.5178 231.889 30.4406 231.58 30.3248C231.271 30.2089 231.039 30.0931 230.885 29.9773C230.73 29.8614 230.557 29.707 230.364 29.5139C230.17 29.3209 230.055 29.1085 229.977 28.8575C229.9 28.6066 229.862 28.317 229.862 27.9888C229.862 27.1007 230.19 26.3864 230.885 25.8459C231.58 25.3246 232.506 25.0544 233.665 25.0544C234.823 25.0544 235.788 25.3439 236.522 25.8845C237.256 26.4444 237.642 27.2359 237.642 28.2398Z" fill="#D7D7D7"/>
<path d="M0 57.9164H366" stroke="#4B4A4D" stroke-width="0.804395"/>
<rect x="98.9385" y="142.213" width="145.596" height="12.8703" rx="6.43516" fill="url(#paint1_linear_4794_11134)" fill-opacity="0.12"/>
<rect x="98.9385" y="179.215" width="99.745" height="12.8703" rx="6.43516" fill="url(#paint2_linear_4794_11134)" fill-opacity="0.12"/>
<rect x="98.9385" y="216.217" width="130.312" height="12.8703" rx="6.43516" fill="url(#paint3_linear_4794_11134)" fill-opacity="0.12"/>
<rect x="98.9385" y="253.219" width="130.312" height="12.8703" rx="6.43516" fill="url(#paint4_linear_4794_11134)" fill-opacity="0.12"/>
<rect x="98.9385" y="290.221" width="145.596" height="12.8703" rx="6.43516" fill="url(#paint5_linear_4794_11134)" fill-opacity="0.12"/>
<rect x="43.4346" y="134.973" width="41.0241" height="27.3494" rx="4.02198" fill="url(#paint6_linear_4794_11134)" fill-opacity="0.12"/>
<rect x="43.4346" y="171.975" width="27.3494" height="27.3494" rx="4.02198" fill="url(#paint7_linear_4794_11134)" fill-opacity="0.12"/>
<rect x="43.4346" y="208.977" width="27.3494" height="27.3494" rx="4.02198" fill="url(#paint8_linear_4794_11134)" fill-opacity="0.12"/>
<rect x="43.4346" y="245.98" width="41.0241" height="27.3494" rx="4.02198" fill="url(#paint9_linear_4794_11134)" fill-opacity="0.12"/>
<rect x="43.4346" y="282.982" width="27.3494" height="27.3494" rx="4.02198" fill="url(#paint10_linear_4794_11134)" fill-opacity="0.12"/>
<g clip-path="url(#clip1_4794_11134)">
<path d="M37.8047 338H343.475L327.125 376.611H37.8047V338Z" fill="#006756"/>
<path d="M159.087 353.417H162.421C163.036 353.417 163.569 353.522 164.02 353.732C164.47 353.942 164.838 354.231 165.124 354.599C165.409 354.96 165.619 355.384 165.754 355.872C165.897 356.36 165.968 356.881 165.968 357.437C165.968 357.993 165.897 358.514 165.754 359.002C165.619 359.49 165.409 359.918 165.124 360.286C164.838 360.647 164.47 360.932 164.02 361.142C163.569 361.352 163.036 361.457 162.421 361.457H159.087V353.417ZM160.495 360.309H161.88C162.428 360.309 162.875 360.237 163.22 360.095C163.573 359.945 163.847 359.742 164.042 359.487C164.245 359.224 164.38 358.92 164.448 358.574C164.523 358.222 164.56 357.842 164.56 357.437C164.56 357.032 164.523 356.656 164.448 356.311C164.38 355.958 164.245 355.654 164.042 355.399C163.847 355.136 163.573 354.933 163.22 354.791C162.875 354.64 162.428 354.565 161.88 354.565H160.495V360.309ZM171.032 358.034C171.017 357.831 170.972 357.636 170.897 357.448C170.83 357.261 170.732 357.099 170.604 356.964C170.484 356.821 170.334 356.709 170.154 356.626C169.981 356.536 169.786 356.491 169.568 356.491C169.343 356.491 169.137 356.532 168.949 356.615C168.769 356.69 168.611 356.799 168.476 356.942C168.348 357.077 168.243 357.238 168.161 357.426C168.085 357.613 168.044 357.816 168.037 358.034H171.032ZM168.037 358.879C168.037 359.104 168.067 359.321 168.127 359.532C168.194 359.742 168.292 359.926 168.42 360.084C168.547 360.241 168.709 360.369 168.904 360.466C169.099 360.556 169.332 360.602 169.602 360.602C169.977 360.602 170.278 360.523 170.503 360.365C170.736 360.2 170.908 359.956 171.021 359.633H172.237C172.17 359.948 172.053 360.23 171.888 360.478C171.723 360.725 171.524 360.936 171.291 361.108C171.059 361.273 170.796 361.397 170.503 361.48C170.218 361.57 169.917 361.615 169.602 361.615C169.144 361.615 168.739 361.54 168.386 361.39C168.033 361.24 167.733 361.029 167.485 360.759C167.245 360.489 167.061 360.166 166.933 359.791C166.813 359.415 166.753 359.002 166.753 358.552C166.753 358.139 166.817 357.749 166.944 357.381C167.079 357.005 167.267 356.679 167.507 356.401C167.755 356.116 168.052 355.89 168.397 355.725C168.742 355.56 169.133 355.478 169.568 355.478C170.026 355.478 170.435 355.575 170.796 355.77C171.164 355.958 171.468 356.21 171.708 356.525C171.948 356.84 172.121 357.204 172.226 357.617C172.339 358.023 172.369 358.443 172.316 358.879H168.037ZM173.326 353.417H174.61V361.457H173.326V353.417ZM176.042 353.417H177.326V354.633H176.042V353.417ZM176.042 355.635H177.326V361.457H176.042V355.635ZM178.151 355.635H179.547L181.022 360.106H181.045L182.464 355.635H183.793L181.709 361.457H180.268L178.151 355.635ZM188.562 358.034C188.547 357.831 188.502 357.636 188.427 357.448C188.36 357.261 188.262 357.099 188.134 356.964C188.014 356.821 187.864 356.709 187.684 356.626C187.511 356.536 187.316 356.491 187.098 356.491C186.873 356.491 186.667 356.532 186.479 356.615C186.299 356.69 186.141 356.799 186.006 356.942C185.878 357.077 185.773 357.238 185.691 357.426C185.616 357.613 185.574 357.816 185.567 358.034H188.562ZM185.567 358.879C185.567 359.104 185.597 359.321 185.657 359.532C185.725 359.742 185.822 359.926 185.95 360.084C186.077 360.241 186.239 360.369 186.434 360.466C186.629 360.556 186.862 360.602 187.132 360.602C187.508 360.602 187.808 360.523 188.033 360.365C188.266 360.2 188.439 359.956 188.551 359.633H189.767C189.7 359.948 189.583 360.23 189.418 360.478C189.253 360.725 189.054 360.936 188.821 361.108C188.589 361.273 188.326 361.397 188.033 361.48C187.748 361.57 187.448 361.615 187.132 361.615C186.674 361.615 186.269 361.54 185.916 361.39C185.563 361.24 185.263 361.029 185.015 360.759C184.775 360.489 184.591 360.166 184.463 359.791C184.343 359.415 184.283 359.002 184.283 358.552C184.283 358.139 184.347 357.749 184.474 357.381C184.61 357.005 184.797 356.679 185.038 356.401C185.285 356.116 185.582 355.89 185.927 355.725C186.273 355.56 186.663 355.478 187.098 355.478C187.556 355.478 187.966 355.575 188.326 355.77C188.694 355.958 188.998 356.21 189.238 356.525C189.478 356.84 189.651 357.204 189.756 357.617C189.869 358.023 189.899 358.443 189.846 358.879H185.567ZM190.822 355.635H192.027V356.761H192.05C192.087 356.604 192.159 356.45 192.264 356.3C192.376 356.149 192.508 356.014 192.658 355.894C192.815 355.767 192.988 355.665 193.176 355.59C193.364 355.515 193.555 355.478 193.75 355.478C193.9 355.478 194.002 355.481 194.054 355.489C194.114 355.496 194.174 355.504 194.234 355.511V356.75C194.144 356.735 194.051 356.724 193.953 356.716C193.863 356.701 193.773 356.694 193.683 356.694C193.465 356.694 193.258 356.739 193.063 356.829C192.876 356.912 192.71 357.039 192.568 357.212C192.425 357.377 192.312 357.583 192.23 357.831C192.147 358.079 192.106 358.364 192.106 358.687V361.457H190.822V355.635ZM198.581 358.034C198.566 357.831 198.521 357.636 198.446 357.448C198.379 357.261 198.281 357.099 198.153 356.964C198.033 356.821 197.883 356.709 197.703 356.626C197.53 356.536 197.335 356.491 197.117 356.491C196.892 356.491 196.686 356.532 196.498 356.615C196.318 356.69 196.16 356.799 196.025 356.942C195.897 357.077 195.792 357.238 195.71 357.426C195.634 357.613 195.593 357.816 195.586 358.034H198.581ZM195.586 358.879C195.586 359.104 195.616 359.321 195.676 359.532C195.743 359.742 195.841 359.926 195.969 360.084C196.096 360.241 196.258 360.369 196.453 360.466C196.648 360.556 196.881 360.602 197.151 360.602C197.526 360.602 197.827 360.523 198.052 360.365C198.285 360.2 198.457 359.956 198.57 359.633H199.786C199.719 359.948 199.602 360.23 199.437 360.478C199.272 360.725 199.073 360.936 198.84 361.108C198.607 361.273 198.345 361.397 198.052 361.48C197.767 361.57 197.466 361.615 197.151 361.615C196.693 361.615 196.288 361.54 195.935 361.39C195.582 361.24 195.282 361.029 195.034 360.759C194.794 360.489 194.61 360.166 194.482 359.791C194.362 359.415 194.302 359.002 194.302 358.552C194.302 358.139 194.366 357.749 194.493 357.381C194.628 357.005 194.816 356.679 195.056 356.401C195.304 356.116 195.601 355.89 195.946 355.725C196.291 355.56 196.682 355.478 197.117 355.478C197.575 355.478 197.984 355.575 198.345 355.77C198.713 355.958 199.017 356.21 199.257 356.525C199.497 356.84 199.67 357.204 199.775 357.617C199.888 358.023 199.918 358.443 199.865 358.879H195.586ZM206.325 361.457H205.109V360.669H205.087C204.914 361.007 204.662 361.251 204.332 361.401C204.002 361.544 203.653 361.615 203.285 361.615C202.827 361.615 202.425 361.536 202.08 361.379C201.742 361.213 201.46 360.992 201.235 360.714C201.01 360.436 200.841 360.11 200.728 359.734C200.616 359.352 200.559 358.942 200.559 358.507C200.559 357.981 200.631 357.527 200.773 357.144C200.916 356.761 201.104 356.446 201.337 356.198C201.577 355.951 201.847 355.77 202.147 355.658C202.455 355.538 202.767 355.478 203.082 355.478C203.262 355.478 203.446 355.496 203.634 355.534C203.822 355.564 204.002 355.616 204.174 355.692C204.347 355.767 204.505 355.864 204.647 355.984C204.798 356.097 204.921 356.232 205.019 356.39H205.042V353.417H206.325V361.457ZM201.843 358.608C201.843 358.856 201.873 359.1 201.933 359.34C202.001 359.58 202.099 359.794 202.226 359.982C202.361 360.17 202.53 360.32 202.733 360.433C202.936 360.545 203.176 360.602 203.454 360.602C203.739 360.602 203.983 360.541 204.186 360.421C204.396 360.301 204.565 360.144 204.692 359.948C204.828 359.753 204.925 359.535 204.985 359.295C205.053 359.047 205.087 358.796 205.087 358.541C205.087 357.895 204.94 357.392 204.647 357.032C204.362 356.671 203.972 356.491 203.476 356.491C203.176 356.491 202.921 356.555 202.71 356.683C202.508 356.803 202.339 356.964 202.204 357.167C202.076 357.362 201.982 357.587 201.922 357.842C201.87 358.09 201.843 358.345 201.843 358.608Z" fill="white"/>
</g>
<rect x="38.2079" y="338.402" width="289.582" height="37.8066" rx="18.9033" stroke="#64FBAA" stroke-width="0.804395"/>
<g clip-path="url(#clip2_4794_11134)">
<path d="M61.3526 90.7045C60.8326 90.1844 60.2153 89.7717 59.5358 89.4902C58.8563 89.2087 58.1281 89.0638 57.3926 89.0638C56.6571 89.0638 55.9288 89.2087 55.2493 89.4902C54.5699 89.7717 53.9525 90.1844 53.4325 90.7045L45.0845 99.0517C44.3172 99.8266 43.888 100.874 43.8906 101.964C43.8933 103.055 44.3277 104.1 45.0988 104.871C45.8699 105.642 46.915 106.076 48.0055 106.079C49.0959 106.082 50.1431 105.652 50.918 104.885L57.6982 98.1033C57.9599 97.8612 58.17 97.5687 58.3159 97.2434C58.4618 96.9182 58.5406 96.5668 58.5474 96.2103C58.5543 95.8539 58.4892 95.4997 58.3559 95.1691C58.2227 94.8384 58.024 94.5381 57.7719 94.286C57.5198 94.0339 57.2194 93.8354 56.8887 93.7022C56.558 93.569 56.2038 93.5039 55.8474 93.5109C55.491 93.5178 55.1396 93.5967 54.8144 93.7426C54.4891 93.8886 54.1967 94.0988 53.9546 94.3605L49.7806 98.5305C49.7058 98.6051 49.6464 98.6938 49.6059 98.7915C49.5654 98.8891 49.5445 98.9937 49.5445 99.0994C49.5444 99.2051 49.5651 99.3098 49.6055 99.4075C49.6459 99.5051 49.7051 99.5939 49.7798 99.6687C49.8545 99.7435 49.9431 99.8028 50.0408 99.8433C50.1384 99.8839 50.243 99.9047 50.3487 99.9048C50.4544 99.9049 50.5591 99.8841 50.6568 99.8438C50.7544 99.8034 50.8432 99.7442 50.918 99.6695L55.092 95.4939C55.2887 95.3062 55.551 95.2029 55.8229 95.2061C56.0948 95.2094 56.3546 95.3188 56.5468 95.5111C56.739 95.7034 56.8483 95.9633 56.8514 96.2352C56.8544 96.507 56.751 96.7693 56.5632 96.9659L49.7806 103.748C49.3087 104.22 48.6686 104.485 48.0013 104.485C47.3339 104.485 46.6938 104.22 46.2219 103.748C45.75 103.276 45.4849 102.636 45.4849 101.968C45.4849 101.301 45.75 100.661 46.2219 100.189L54.57 91.8419C55.3186 91.0933 56.3339 90.6728 57.3926 90.6728C58.4513 90.6728 59.4666 91.0933 60.2152 91.8419C60.9638 92.5905 61.3844 93.6059 61.3844 94.6645C61.3844 95.7232 60.9638 96.7386 60.2152 97.4872L53.9546 103.748C53.8778 103.822 53.8165 103.911 53.7743 104.009C53.7322 104.107 53.71 104.213 53.7091 104.319C53.7081 104.426 53.7285 104.532 53.7689 104.631C53.8094 104.73 53.8691 104.82 53.9446 104.895C54.0201 104.971 54.11 105.03 54.2088 105.071C54.3077 105.111 54.4136 105.132 54.5204 105.131C54.6272 105.13 54.7328 105.108 54.8309 105.065C54.929 105.023 55.0178 104.962 55.092 104.885L61.3526 98.6238C61.8729 98.1039 62.2856 97.4865 62.5671 96.807C62.8487 96.1276 62.9936 95.3992 62.9936 94.6637C62.9936 93.9282 62.8487 93.1999 62.5671 92.5204C62.2856 91.841 61.8729 91.2236 61.3526 90.7037V90.7045Z" fill="#D7D7D7"/>
</g>
<path d="M79.4751 90.4217L83.5003 100.731H81.9799L80.8361 97.5744H76.5068L75.334 100.731H73.8861L77.9403 90.4217H79.4751ZM80.4307 96.4884L78.6787 91.7248L76.8978 96.4884H80.4307ZM87.5173 93.2596V94.2731H86.026V98.6313C86.026 98.8775 86.026 99.0367 86.026 99.1091C86.026 99.196 86.0549 99.2974 86.1128 99.4277C86.1563 99.558 86.2431 99.6449 86.359 99.6738C86.4748 99.7173 86.6341 99.7317 86.8513 99.7317C87.025 99.7317 87.2567 99.7173 87.5173 99.6883V100.745C87.1698 100.789 86.8513 100.803 86.5762 100.803C86.2287 100.803 85.9391 100.774 85.7074 100.687C85.4757 100.615 85.2875 100.528 85.1717 100.427C85.0559 100.34 84.969 100.166 84.9111 99.92C84.8531 99.6738 84.8097 99.4711 84.8097 99.2974C84.7952 99.1236 84.7952 98.8485 84.7952 98.4431V98.3852V98.3128V98.2404V94.2731H83.5355V93.2596H84.7952V91.0443H86.026V93.2596H87.5173ZM92.0844 93.2596V94.2731H90.5931V98.6313C90.5931 98.8775 90.5931 99.0367 90.5931 99.1091C90.5931 99.196 90.6221 99.2974 90.68 99.4277C90.7234 99.558 90.8103 99.6449 90.9261 99.6738C91.0419 99.7173 91.2012 99.7317 91.4184 99.7317C91.5922 99.7317 91.8238 99.7173 92.0844 99.6883V100.745C91.7369 100.789 91.4184 100.803 91.1433 100.803C90.7958 100.803 90.5062 100.774 90.2746 100.687C90.0429 100.615 89.8547 100.528 89.7388 100.427C89.623 100.34 89.5361 100.166 89.4782 99.92C89.4203 99.6738 89.3768 99.4711 89.3768 99.2974C89.3624 99.1236 89.3624 98.8485 89.3624 98.4431V98.3852V98.3128V98.2404V94.2731H88.1027V93.2596H89.3624V91.0443H90.5931V93.2596H92.0844ZM100.069 99.7462V100.716C99.808 100.803 99.5329 100.861 99.2289 100.861C98.5194 100.861 98.1574 100.485 98.1429 99.7607C97.4335 100.543 96.5358 100.948 95.4353 100.948C94.6969 100.948 94.1177 100.76 93.6834 100.383C93.249 100.007 93.0463 99.4856 93.0463 98.834C93.0463 97.502 93.9295 96.7201 95.696 96.5029C95.8118 96.4739 95.9711 96.4595 96.2027 96.445C97.0425 96.3436 97.5493 96.2278 97.752 96.112C97.9692 95.9527 98.085 95.6921 98.085 95.3156C98.085 94.4903 97.5203 94.0849 96.391 94.0849C95.8118 94.0849 95.3629 94.2007 95.0734 94.4324C94.7693 94.6641 94.5956 95.055 94.5376 95.6052H93.3359C93.3503 94.7944 93.6399 94.1718 94.1901 93.7374C94.7403 93.2885 95.4933 93.0714 96.4634 93.0714C97.5059 93.0714 98.2877 93.303 98.809 93.7953C98.9682 93.9401 99.0841 94.1428 99.171 94.4034C99.2433 94.6496 99.2868 94.8523 99.3013 95.0116C99.3013 95.1708 99.3157 95.417 99.3157 95.7355C99.3157 96.0975 99.3013 96.6477 99.2868 97.3861C99.2578 98.139 99.2578 98.6892 99.2578 99.0512C99.2578 99.3263 99.2868 99.5146 99.3592 99.6304C99.4316 99.7462 99.5619 99.7897 99.7646 99.7897C99.837 99.7897 99.9383 99.7752 100.069 99.7462ZM98.085 96.8649C97.9981 96.9228 97.8968 96.9807 97.8099 97.0386C97.7086 97.0821 97.5783 97.1255 97.4335 97.1545C97.2887 97.1834 97.1873 97.1979 97.1294 97.2124C97.0715 97.2269 96.9556 97.2413 96.7529 97.2703C96.5502 97.2993 96.4344 97.3137 96.4344 97.3137C96.1303 97.3427 95.9276 97.3716 95.8408 97.3861C95.7539 97.4006 95.5801 97.444 95.3195 97.5164C95.0589 97.5744 94.8851 97.6612 94.7838 97.7481C94.6679 97.835 94.5666 97.9508 94.4652 98.1246C94.3639 98.2983 94.3204 98.501 94.3204 98.7327C94.3204 99.1091 94.4508 99.4132 94.7114 99.6449C94.972 99.8621 95.3485 99.9779 95.8118 99.9779C96.391 99.9779 96.9267 99.8041 97.39 99.4566C97.8534 99.1091 98.085 98.6892 98.085 98.2259V96.8649ZM107.657 98.0087C107.541 98.9064 107.208 99.6304 106.629 100.152C106.05 100.687 105.312 100.948 104.385 100.948C103.256 100.948 102.387 100.6 101.764 99.9055C101.156 99.2105 100.838 98.2694 100.838 97.0965C100.838 95.8513 101.171 94.8668 101.808 94.1428C102.459 93.4189 103.328 93.0424 104.428 93.0424C105.355 93.0424 106.079 93.2741 106.629 93.7374C107.179 94.2007 107.513 94.8523 107.599 95.7066H106.325C106.108 94.6206 105.485 94.0849 104.457 94.0849C103.733 94.0849 103.169 94.3455 102.763 94.8668C102.343 95.388 102.141 96.112 102.141 97.0097C102.141 97.9074 102.329 98.6313 102.734 99.1526C103.125 99.6738 103.676 99.9345 104.371 99.9345C104.921 99.9345 105.384 99.7607 105.732 99.4422C106.079 99.1091 106.311 98.6313 106.412 98.0087H107.657ZM110.236 90.4217V94.3166C110.786 93.4912 111.597 93.0714 112.683 93.0714C114.363 93.0714 115.202 93.9256 115.202 95.6197V100.731H113.972V95.9093C113.972 95.3446 113.841 94.9102 113.61 94.6061C113.378 94.3021 112.944 94.1428 112.336 94.1428C111.583 94.1428 111.033 94.389 110.714 94.8668C110.395 95.3591 110.236 96.0396 110.236 96.9373V100.731H109.005V90.4217H110.236ZM118.209 93.2596L118.195 94.36C118.528 93.9111 118.875 93.5926 119.252 93.3899C119.628 93.1872 120.092 93.0858 120.627 93.0858C121.655 93.0858 122.35 93.5057 122.712 94.3745C123.349 93.5057 124.175 93.0714 125.188 93.0714C125.956 93.0714 126.535 93.2741 126.94 93.7084C127.346 94.1428 127.548 94.7365 127.548 95.5183V100.745H126.318V96.0396C126.318 95.417 126.216 94.9536 126.028 94.6351C125.825 94.3166 125.434 94.1718 124.826 94.1718C123.552 94.1718 122.915 94.9392 122.915 96.5029V100.745H121.684V95.9527C121.684 95.3735 121.583 94.9392 121.395 94.6351C121.206 94.331 120.844 94.1862 120.309 94.1862C119.541 94.1862 119.006 94.4179 118.716 94.8812C118.426 95.3446 118.282 95.9817 118.282 96.778V100.731H117.051V93.2596H118.209ZM135.78 98.3707C135.404 100.108 134.318 100.977 132.522 100.977C131.422 100.977 130.553 100.644 129.931 99.9489C129.308 99.2684 129.004 98.3128 129.004 97.0965C129.004 95.8948 129.323 94.9247 129.96 94.1718C130.597 93.4189 131.437 93.0424 132.479 93.0424C133.623 93.0424 134.477 93.4333 135.027 94.2152C135.578 94.9971 135.867 95.9672 135.867 97.1545V97.3282H130.249L130.235 97.4151C130.235 98.2114 130.437 98.834 130.857 99.2829C131.263 99.7462 131.842 99.9634 132.566 99.9634C133.102 99.9634 133.522 99.8476 133.84 99.587C134.159 99.3408 134.405 98.9354 134.578 98.3707H135.78ZM134.593 96.3292C134.535 95.6197 134.318 95.0695 133.941 94.6641C133.565 94.2586 133.058 94.0559 132.45 94.0559C131.842 94.0559 131.35 94.2586 130.959 94.6641C130.553 95.0695 130.322 95.6342 130.249 96.3292H134.593ZM138.33 93.2596V94.4179C138.938 93.5202 139.793 93.0569 140.878 93.0569C141.747 93.0569 142.384 93.2885 142.775 93.7519C143.166 94.2152 143.369 94.8812 143.369 95.7645V100.731H142.138V96.3292C142.138 95.9672 142.124 95.6776 142.095 95.4749C142.066 95.2722 142.008 95.0405 141.921 94.8088C141.82 94.5772 141.66 94.4034 141.429 94.2876C141.197 94.1862 140.893 94.1283 140.531 94.1283C139.112 94.1283 138.403 95.026 138.403 96.8214V100.731H137.172V93.2596H138.33ZM148.417 93.2596V94.2731H146.926V98.6313C146.926 98.8775 146.926 99.0367 146.926 99.1091C146.926 99.196 146.955 99.2974 147.013 99.4277C147.056 99.558 147.143 99.6449 147.259 99.6738C147.375 99.7173 147.534 99.7317 147.751 99.7317C147.925 99.7317 148.157 99.7173 148.417 99.6883V100.745C148.07 100.789 147.751 100.803 147.476 100.803C147.129 100.803 146.839 100.774 146.607 100.687C146.376 100.615 146.187 100.528 146.072 100.427C145.956 100.34 145.869 100.166 145.811 99.92C145.753 99.6738 145.71 99.4711 145.71 99.2974C145.695 99.1236 145.695 98.8485 145.695 98.4431V98.3852V98.3128V98.2404V94.2731H144.435V93.2596H145.695V91.0443H146.926V93.2596H148.417ZM155.33 95.4314H154.099C154.012 94.5337 153.404 94.0704 152.275 94.0704C151.797 94.0704 151.421 94.1718 151.16 94.3455C150.885 94.5337 150.755 94.7799 150.755 95.0839C150.755 95.1708 150.755 95.2577 150.784 95.3446C150.798 95.4314 150.827 95.5038 150.885 95.5618C150.943 95.6197 150.986 95.6776 151.03 95.721C151.073 95.7789 151.146 95.8224 151.247 95.8658C151.348 95.9093 151.421 95.9382 151.479 95.9672C151.536 95.9961 151.623 96.0396 151.768 96.0685C151.913 96.0975 152.014 96.1264 152.072 96.1409C152.13 96.1554 152.231 96.1844 152.405 96.2133C152.579 96.2568 152.68 96.2857 152.738 96.2857C153.086 96.3726 153.361 96.4305 153.535 96.4739C153.708 96.5319 153.954 96.6187 154.273 96.749C154.592 96.8794 154.823 97.0097 154.997 97.1545C155.156 97.2993 155.301 97.4875 155.431 97.7336C155.562 97.9798 155.634 98.2549 155.634 98.5589C155.634 99.2829 155.344 99.8765 154.78 100.311C154.215 100.745 153.462 100.962 152.536 100.962C151.522 100.962 150.74 100.745 150.19 100.296C149.64 99.8621 149.35 99.2105 149.321 98.3707H150.537C150.595 99.4277 151.276 99.9489 152.564 99.9489C153.115 99.9489 153.549 99.8476 153.882 99.6159C154.215 99.3842 154.389 99.0802 154.389 98.7037C154.389 98.4576 154.302 98.2549 154.128 98.0811C153.954 97.9219 153.752 97.806 153.549 97.7336C153.332 97.6612 153.028 97.5744 152.637 97.473C152.579 97.473 152.536 97.4585 152.507 97.444C152.42 97.4296 152.231 97.3861 151.942 97.3282C151.652 97.2703 151.45 97.2124 151.334 97.1689C151.203 97.14 151.015 97.0821 150.784 96.9952C150.552 96.9083 150.378 96.8214 150.262 96.7346C150.146 96.6477 150.016 96.5319 149.871 96.3871C149.727 96.2423 149.64 96.083 149.582 95.8948C149.524 95.7066 149.495 95.4894 149.495 95.2432C149.495 94.5772 149.741 94.0415 150.262 93.636C150.784 93.2451 151.479 93.0424 152.347 93.0424C153.216 93.0424 153.94 93.2596 154.49 93.665C155.04 94.0849 155.33 94.6785 155.33 95.4314Z" fill="#D7D7D7"/>
<g clip-path="url(#clip3_4794_11134)">
<path d="M259.014 134.973H414.363L406.053 159.105H259.014V134.973Z" fill="#006756"/>
<path d="M282.449 142.774L285.076 149.503H284.084L283.337 147.443H280.511L279.745 149.503H278.8L281.447 142.774H282.449ZM283.072 146.734L281.929 143.624L280.766 146.734H283.072ZM289.806 147.726C289.73 148.312 289.513 148.785 289.135 149.125C288.757 149.475 288.275 149.645 287.67 149.645C286.933 149.645 286.366 149.418 285.959 148.964C285.562 148.511 285.354 147.896 285.354 147.131C285.354 146.318 285.572 145.675 285.988 145.203C286.413 144.73 286.98 144.484 287.698 144.484C288.303 144.484 288.776 144.636 289.135 144.938C289.494 145.241 289.712 145.666 289.768 146.223H288.936C288.795 145.515 288.388 145.165 287.717 145.165C287.245 145.165 286.876 145.335 286.611 145.675C286.337 146.016 286.205 146.488 286.205 147.074C286.205 147.66 286.328 148.133 286.592 148.473C286.848 148.813 287.207 148.983 287.661 148.983C288.02 148.983 288.322 148.87 288.549 148.662C288.776 148.445 288.927 148.133 288.993 147.726H289.806ZM292.775 144.626V145.288H291.801V148.133C291.801 148.293 291.801 148.397 291.801 148.445C291.801 148.501 291.82 148.568 291.858 148.653C291.886 148.738 291.943 148.794 292.019 148.813C292.094 148.842 292.198 148.851 292.34 148.851C292.454 148.851 292.605 148.842 292.775 148.823V149.513C292.548 149.541 292.34 149.55 292.161 149.55C291.934 149.55 291.745 149.532 291.593 149.475C291.442 149.428 291.319 149.371 291.244 149.305C291.168 149.248 291.111 149.135 291.074 148.974C291.036 148.813 291.007 148.681 291.007 148.568C290.998 148.454 290.998 148.275 290.998 148.01V147.972V147.925V147.878V145.288H290.176V144.626H290.998V143.18H291.801V144.626H292.775ZM294.518 142.774V143.757H293.705V142.774H294.518ZM294.518 144.626V149.503H293.705V144.626H294.518ZM295.29 144.626H296.188L297.568 148.719L298.91 144.626H299.751L297.965 149.503H297.105L295.29 144.626ZM304.657 147.963C304.411 149.097 303.702 149.664 302.53 149.664C301.812 149.664 301.245 149.447 300.838 148.993C300.432 148.549 300.233 147.925 300.233 147.131C300.233 146.346 300.441 145.713 300.857 145.222C301.273 144.73 301.821 144.484 302.502 144.484C303.248 144.484 303.806 144.74 304.165 145.25C304.524 145.76 304.713 146.394 304.713 147.169V147.282H301.046L301.037 147.339C301.037 147.859 301.169 148.265 301.443 148.558C301.708 148.861 302.086 149.002 302.558 149.002C302.908 149.002 303.182 148.927 303.39 148.757C303.598 148.596 303.759 148.331 303.872 147.963H304.657ZM303.882 146.63C303.844 146.167 303.702 145.808 303.456 145.543C303.211 145.278 302.88 145.146 302.483 145.146C302.086 145.146 301.764 145.278 301.509 145.543C301.245 145.808 301.093 146.176 301.046 146.63H303.882Z" fill="#D7D7D7"/>
</g>
<rect x="259.265" y="135.224" width="64.3516" height="23.6291" rx="11.8146" stroke="#64FBAA" stroke-width="0.502747"/>
<g clip-path="url(#clip4_4794_11134)">
<path d="M259.014 173.584H414.363L406.053 197.716H259.014V173.584Z" fill="#2C2C2C"/>
<path d="M277.011 181.385V188.115H276.123V181.385H277.011ZM279.145 183.237V183.994C279.542 183.408 280.1 183.105 280.809 183.105C281.376 183.105 281.792 183.256 282.047 183.559C282.302 183.861 282.434 184.296 282.434 184.873V188.115H281.631V185.241C281.631 185.005 281.621 184.816 281.603 184.684C281.584 184.551 281.546 184.4 281.489 184.249C281.423 184.098 281.319 183.984 281.168 183.909C281.017 183.842 280.818 183.805 280.582 183.805C279.656 183.805 279.192 184.391 279.192 185.563V188.115H278.389V183.237H279.145ZM287.96 187.472V188.105C287.79 188.162 287.611 188.2 287.412 188.2C286.949 188.2 286.713 187.954 286.703 187.481C286.24 187.992 285.654 188.256 284.936 188.256C284.454 188.256 284.076 188.133 283.792 187.888C283.509 187.642 283.376 187.302 283.376 186.876C283.376 186.007 283.953 185.496 285.106 185.355C285.182 185.336 285.286 185.326 285.437 185.317C285.985 185.251 286.316 185.175 286.448 185.099C286.59 184.995 286.665 184.825 286.665 184.58C286.665 184.041 286.297 183.776 285.56 183.776C285.182 183.776 284.889 183.852 284.7 184.003C284.501 184.154 284.388 184.409 284.35 184.769H283.565C283.575 184.239 283.764 183.833 284.123 183.549C284.482 183.256 284.974 183.115 285.607 183.115C286.287 183.115 286.798 183.266 287.138 183.587C287.242 183.682 287.318 183.814 287.374 183.984C287.422 184.145 287.45 184.277 287.459 184.381C287.459 184.485 287.469 184.646 287.469 184.854C287.469 185.09 287.459 185.449 287.45 185.931C287.431 186.423 287.431 186.782 287.431 187.018C287.431 187.198 287.45 187.321 287.497 187.396C287.544 187.472 287.63 187.5 287.762 187.5C287.809 187.5 287.875 187.491 287.96 187.472ZM286.665 185.591C286.609 185.629 286.543 185.667 286.486 185.704C286.42 185.733 286.335 185.761 286.24 185.78C286.146 185.799 286.079 185.808 286.042 185.818C286.004 185.827 285.928 185.837 285.796 185.856C285.664 185.874 285.588 185.884 285.588 185.884C285.389 185.903 285.257 185.922 285.2 185.931C285.144 185.941 285.03 185.969 284.86 186.016C284.69 186.054 284.577 186.111 284.51 186.167C284.435 186.224 284.369 186.3 284.303 186.413C284.236 186.527 284.208 186.659 284.208 186.81C284.208 187.056 284.293 187.254 284.463 187.406C284.633 187.547 284.879 187.623 285.182 187.623C285.56 187.623 285.909 187.51 286.212 187.283C286.514 187.056 286.665 186.782 286.665 186.479V185.591ZM292.914 186.338C292.838 186.924 292.621 187.396 292.243 187.736C291.865 188.086 291.383 188.256 290.778 188.256C290.041 188.256 289.474 188.029 289.067 187.576C288.67 187.122 288.462 186.508 288.462 185.742C288.462 184.929 288.68 184.287 289.096 183.814C289.521 183.341 290.088 183.096 290.806 183.096C291.411 183.096 291.884 183.247 292.243 183.549C292.602 183.852 292.82 184.277 292.876 184.835H292.044C291.903 184.126 291.496 183.776 290.825 183.776C290.353 183.776 289.984 183.946 289.719 184.287C289.445 184.627 289.313 185.099 289.313 185.685C289.313 186.271 289.436 186.744 289.7 187.084C289.956 187.425 290.315 187.595 290.769 187.595C291.128 187.595 291.43 187.481 291.657 187.273C291.884 187.056 292.035 186.744 292.101 186.338H292.914ZM295.883 183.237V183.899H294.909V186.744C294.909 186.905 294.909 187.009 294.909 187.056C294.909 187.113 294.928 187.179 294.966 187.264C294.994 187.349 295.051 187.406 295.127 187.425C295.202 187.453 295.306 187.462 295.448 187.462C295.562 187.462 295.713 187.453 295.883 187.434V188.124C295.656 188.152 295.448 188.162 295.269 188.162C295.042 188.162 294.853 188.143 294.701 188.086C294.55 188.039 294.427 187.982 294.352 187.916C294.276 187.859 294.219 187.746 294.182 187.585C294.144 187.425 294.115 187.292 294.115 187.179C294.106 187.065 294.106 186.886 294.106 186.621V186.583V186.536V186.489V183.899H293.284V183.237H294.106V181.791H294.909V183.237H295.883ZM297.626 181.385V182.368H296.813V181.385H297.626ZM297.626 183.237V188.115H296.813V183.237H297.626ZM298.398 183.237H299.296L300.676 187.33L302.018 183.237H302.859L301.073 188.115H300.213L298.398 183.237ZM307.765 186.574C307.519 187.708 306.81 188.275 305.638 188.275C304.92 188.275 304.353 188.058 303.946 187.604C303.54 187.16 303.341 186.536 303.341 185.742C303.341 184.958 303.549 184.324 303.965 183.833C304.381 183.341 304.929 183.096 305.61 183.096C306.356 183.096 306.914 183.351 307.273 183.861C307.632 184.372 307.821 185.005 307.821 185.78V185.893H304.154L304.145 185.95C304.145 186.47 304.277 186.876 304.551 187.169C304.816 187.472 305.194 187.614 305.666 187.614C306.016 187.614 306.29 187.538 306.498 187.368C306.706 187.207 306.867 186.942 306.98 186.574H307.765ZM306.99 185.241C306.952 184.778 306.81 184.419 306.564 184.154C306.319 183.89 305.988 183.757 305.591 183.757C305.194 183.757 304.872 183.89 304.617 184.154C304.353 184.419 304.201 184.788 304.154 185.241H306.99Z" fill="#D7D7D7"/>
</g>
<rect x="259.265" y="173.835" width="64.3516" height="23.6291" rx="11.8146" stroke="#454545" stroke-width="0.502747"/>
<g clip-path="url(#clip5_4794_11134)">
<path d="M259.014 210.586H414.363L406.053 234.718H259.014V210.586Z" fill="#006756"/>
<path d="M282.449 218.387L285.076 225.117H284.084L283.337 223.056H280.511L279.745 225.117H278.8L281.447 218.387H282.449ZM283.072 222.347L281.929 219.238L280.766 222.347H283.072ZM289.806 223.34C289.73 223.926 289.513 224.398 289.135 224.739C288.757 225.088 288.275 225.258 287.67 225.258C286.933 225.258 286.366 225.032 285.959 224.578C285.562 224.124 285.354 223.51 285.354 222.744C285.354 221.931 285.572 221.289 285.988 220.816C286.413 220.344 286.98 220.098 287.698 220.098C288.303 220.098 288.776 220.249 289.135 220.552C289.494 220.854 289.712 221.279 289.768 221.837H288.936C288.795 221.128 288.388 220.778 287.717 220.778C287.245 220.778 286.876 220.949 286.611 221.289C286.337 221.629 286.205 222.102 286.205 222.688C286.205 223.274 286.328 223.746 286.592 224.086C286.848 224.427 287.207 224.597 287.661 224.597C288.02 224.597 288.322 224.483 288.549 224.275C288.776 224.058 288.927 223.746 288.993 223.34H289.806ZM292.775 220.24V220.901H291.801V223.746C291.801 223.907 291.801 224.011 291.801 224.058C291.801 224.115 291.82 224.181 291.858 224.266C291.886 224.351 291.943 224.408 292.019 224.427C292.094 224.455 292.198 224.465 292.34 224.465C292.454 224.465 292.605 224.455 292.775 224.436V225.126C292.548 225.154 292.34 225.164 292.161 225.164C291.934 225.164 291.745 225.145 291.593 225.088C291.442 225.041 291.319 224.984 291.244 224.918C291.168 224.861 291.111 224.748 291.074 224.587C291.036 224.427 291.007 224.294 291.007 224.181C290.998 224.068 290.998 223.888 290.998 223.623V223.586V223.538V223.491V220.901H290.176V220.24H290.998V218.794H291.801V220.24H292.775ZM294.518 218.387V219.37H293.705V218.387H294.518ZM294.518 220.24V225.117H293.705V220.24H294.518ZM295.29 220.24H296.188L297.568 224.332L298.91 220.24H299.751L297.965 225.117H297.105L295.29 220.24ZM304.657 223.576C304.411 224.71 303.702 225.277 302.53 225.277C301.812 225.277 301.245 225.06 300.838 224.606C300.432 224.162 300.233 223.538 300.233 222.744C300.233 221.96 300.441 221.327 300.857 220.835C301.273 220.344 301.821 220.098 302.502 220.098C303.248 220.098 303.806 220.353 304.165 220.863C304.524 221.374 304.713 222.007 304.713 222.782V222.896H301.046L301.037 222.952C301.037 223.472 301.169 223.879 301.443 224.172C301.708 224.474 302.086 224.616 302.558 224.616C302.908 224.616 303.182 224.54 303.39 224.37C303.598 224.209 303.759 223.945 303.872 223.576H304.657ZM303.882 222.243C303.844 221.78 303.702 221.421 303.456 221.156C303.211 220.892 302.88 220.759 302.483 220.759C302.086 220.759 301.764 220.892 301.509 221.156C301.245 221.421 301.093 221.79 301.046 222.243H303.882Z" fill="#D7D7D7"/>
</g>
<rect x="259.265" y="210.838" width="64.3516" height="23.6291" rx="11.8146" stroke="#64FBAA" stroke-width="0.502747"/>
<g clip-path="url(#clip6_4794_11134)">
<path d="M259.014 247.588H414.363L406.053 271.72H259.014V247.588Z" fill="#2C2C2C"/>
<path d="M277.011 255.389V262.119H276.123V255.389H277.011ZM279.145 257.241V257.998C279.542 257.412 280.1 257.109 280.809 257.109C281.376 257.109 281.792 257.26 282.047 257.563C282.302 257.865 282.434 258.3 282.434 258.877V262.119H281.631V259.245C281.631 259.009 281.621 258.82 281.603 258.688C281.584 258.555 281.546 258.404 281.489 258.253C281.423 258.102 281.319 257.988 281.168 257.913C281.017 257.846 280.818 257.809 280.582 257.809C279.656 257.809 279.192 258.395 279.192 259.567V262.119H278.389V257.241H279.145ZM287.96 261.476V262.109C287.79 262.166 287.611 262.204 287.412 262.204C286.949 262.204 286.713 261.958 286.703 261.485C286.24 261.996 285.654 262.26 284.936 262.26C284.454 262.26 284.076 262.137 283.792 261.892C283.509 261.646 283.376 261.306 283.376 260.88C283.376 260.011 283.953 259.5 285.106 259.359C285.182 259.34 285.286 259.33 285.437 259.321C285.985 259.255 286.316 259.179 286.448 259.103C286.59 258.999 286.665 258.829 286.665 258.584C286.665 258.045 286.297 257.78 285.56 257.78C285.182 257.78 284.889 257.856 284.7 258.007C284.501 258.158 284.388 258.413 284.35 258.773H283.565C283.575 258.243 283.764 257.837 284.123 257.553C284.482 257.26 284.974 257.119 285.607 257.119C286.287 257.119 286.798 257.27 287.138 257.591C287.242 257.686 287.318 257.818 287.374 257.988C287.422 258.149 287.45 258.281 287.459 258.385C287.459 258.489 287.469 258.65 287.469 258.858C287.469 259.094 287.459 259.453 287.45 259.935C287.431 260.427 287.431 260.786 287.431 261.022C287.431 261.202 287.45 261.325 287.497 261.4C287.544 261.476 287.63 261.504 287.762 261.504C287.809 261.504 287.875 261.495 287.96 261.476ZM286.665 259.595C286.609 259.633 286.543 259.671 286.486 259.708C286.42 259.737 286.335 259.765 286.24 259.784C286.146 259.803 286.079 259.812 286.042 259.822C286.004 259.831 285.928 259.841 285.796 259.86C285.664 259.878 285.588 259.888 285.588 259.888C285.389 259.907 285.257 259.926 285.2 259.935C285.144 259.945 285.03 259.973 284.86 260.02C284.69 260.058 284.577 260.115 284.51 260.171C284.435 260.228 284.369 260.304 284.303 260.417C284.236 260.531 284.208 260.663 284.208 260.814C284.208 261.06 284.293 261.258 284.463 261.41C284.633 261.551 284.879 261.627 285.182 261.627C285.56 261.627 285.909 261.514 286.212 261.287C286.514 261.06 286.665 260.786 286.665 260.483V259.595ZM292.914 260.342C292.838 260.928 292.621 261.4 292.243 261.74C291.865 262.09 291.383 262.26 290.778 262.26C290.041 262.26 289.474 262.033 289.067 261.58C288.67 261.126 288.462 260.512 288.462 259.746C288.462 258.933 288.68 258.291 289.096 257.818C289.521 257.345 290.088 257.1 290.806 257.1C291.411 257.1 291.884 257.251 292.243 257.553C292.602 257.856 292.82 258.281 292.876 258.839H292.044C291.903 258.13 291.496 257.78 290.825 257.78C290.353 257.78 289.984 257.95 289.719 258.291C289.445 258.631 289.313 259.103 289.313 259.689C289.313 260.275 289.436 260.748 289.7 261.088C289.956 261.429 290.315 261.599 290.769 261.599C291.128 261.599 291.43 261.485 291.657 261.277C291.884 261.06 292.035 260.748 292.101 260.342H292.914ZM295.883 257.241V257.903H294.909V260.748C294.909 260.909 294.909 261.013 294.909 261.06C294.909 261.117 294.928 261.183 294.966 261.268C294.994 261.353 295.051 261.41 295.127 261.429C295.202 261.457 295.306 261.466 295.448 261.466C295.562 261.466 295.713 261.457 295.883 261.438V262.128C295.656 262.156 295.448 262.166 295.269 262.166C295.042 262.166 294.853 262.147 294.701 262.09C294.55 262.043 294.427 261.986 294.352 261.92C294.276 261.863 294.219 261.75 294.182 261.589C294.144 261.429 294.115 261.296 294.115 261.183C294.106 261.069 294.106 260.89 294.106 260.625V260.587V260.54V260.493V257.903H293.284V257.241H294.106V255.795H294.909V257.241H295.883ZM297.626 255.389V256.372H296.813V255.389H297.626ZM297.626 257.241V262.119H296.813V257.241H297.626ZM298.398 257.241H299.296L300.676 261.334L302.018 257.241H302.859L301.073 262.119H300.213L298.398 257.241ZM307.765 260.578C307.519 261.712 306.81 262.279 305.638 262.279C304.92 262.279 304.353 262.062 303.946 261.608C303.54 261.164 303.341 260.54 303.341 259.746C303.341 258.962 303.549 258.328 303.965 257.837C304.381 257.345 304.929 257.1 305.61 257.1C306.356 257.1 306.914 257.355 307.273 257.865C307.632 258.376 307.821 259.009 307.821 259.784V259.897H304.154L304.145 259.954C304.145 260.474 304.277 260.88 304.551 261.173C304.816 261.476 305.194 261.618 305.666 261.618C306.016 261.618 306.29 261.542 306.498 261.372C306.706 261.211 306.867 260.947 306.98 260.578H307.765ZM306.99 259.245C306.952 258.782 306.81 258.423 306.564 258.158C306.319 257.894 305.988 257.761 305.591 257.761C305.194 257.761 304.872 257.894 304.617 258.158C304.353 258.423 304.201 258.792 304.154 259.245H306.99Z" fill="#D7D7D7"/>
</g>
<rect x="259.265" y="247.84" width="64.3516" height="23.6291" rx="11.8146" stroke="#454545" stroke-width="0.502747"/>
<g clip-path="url(#clip7_4794_11134)">
<path d="M259.014 284.591H414.363L406.053 308.722H259.014V284.591Z" fill="#2C2C2C"/>
<path d="M277.011 292.391V299.121H276.123V292.391H277.011ZM279.145 294.244V295C279.542 294.414 280.1 294.111 280.809 294.111C281.376 294.111 281.792 294.263 282.047 294.565C282.302 294.868 282.434 295.302 282.434 295.879V299.121H281.631V296.247C281.631 296.011 281.621 295.822 281.603 295.69C281.584 295.558 281.546 295.406 281.489 295.255C281.423 295.104 281.319 294.99 281.168 294.915C281.017 294.849 280.818 294.811 280.582 294.811C279.656 294.811 279.192 295.397 279.192 296.569V299.121H278.389V294.244H279.145ZM287.96 298.478V299.111C287.79 299.168 287.611 299.206 287.412 299.206C286.949 299.206 286.713 298.96 286.703 298.488C286.24 298.998 285.654 299.263 284.936 299.263C284.454 299.263 284.076 299.14 283.792 298.894C283.509 298.648 283.376 298.308 283.376 297.883C283.376 297.013 283.953 296.503 285.106 296.361C285.182 296.342 285.286 296.333 285.437 296.323C285.985 296.257 286.316 296.181 286.448 296.106C286.59 296.002 286.665 295.832 286.665 295.586C286.665 295.047 286.297 294.782 285.56 294.782C285.182 294.782 284.889 294.858 284.7 295.009C284.501 295.161 284.388 295.416 284.35 295.775H283.565C283.575 295.246 283.764 294.839 284.123 294.556C284.482 294.263 284.974 294.121 285.607 294.121C286.287 294.121 286.798 294.272 287.138 294.593C287.242 294.688 287.318 294.82 287.374 294.99C287.422 295.151 287.45 295.283 287.459 295.387C287.459 295.491 287.469 295.652 287.469 295.86C287.469 296.096 287.459 296.455 287.45 296.937C287.431 297.429 287.431 297.788 287.431 298.024C287.431 298.204 287.45 298.327 287.497 298.402C287.544 298.478 287.63 298.506 287.762 298.506C287.809 298.506 287.875 298.497 287.96 298.478ZM286.665 296.597C286.609 296.635 286.543 296.673 286.486 296.711C286.42 296.739 286.335 296.767 286.24 296.786C286.146 296.805 286.079 296.815 286.042 296.824C286.004 296.834 285.928 296.843 285.796 296.862C285.664 296.881 285.588 296.89 285.588 296.89C285.389 296.909 285.257 296.928 285.2 296.937C285.144 296.947 285.03 296.975 284.86 297.023C284.69 297.06 284.577 297.117 284.51 297.174C284.435 297.23 284.369 297.306 284.303 297.42C284.236 297.533 284.208 297.665 284.208 297.816C284.208 298.062 284.293 298.261 284.463 298.412C284.633 298.554 284.879 298.629 285.182 298.629C285.56 298.629 285.909 298.516 286.212 298.289C286.514 298.062 286.665 297.788 286.665 297.486V296.597ZM292.914 297.344C292.838 297.93 292.621 298.402 292.243 298.743C291.865 299.092 291.383 299.263 290.778 299.263C290.041 299.263 289.474 299.036 289.067 298.582C288.67 298.128 288.462 297.514 288.462 296.748C288.462 295.936 288.68 295.293 289.096 294.82C289.521 294.348 290.088 294.102 290.806 294.102C291.411 294.102 291.884 294.253 292.243 294.556C292.602 294.858 292.82 295.283 292.876 295.841H292.044C291.903 295.132 291.496 294.782 290.825 294.782C290.353 294.782 289.984 294.953 289.719 295.293C289.445 295.633 289.313 296.106 289.313 296.692C289.313 297.278 289.436 297.75 289.7 298.091C289.956 298.431 290.315 298.601 290.769 298.601C291.128 298.601 291.43 298.488 291.657 298.28C291.884 298.062 292.035 297.75 292.101 297.344H292.914ZM295.883 294.244V294.905H294.909V297.75C294.909 297.911 294.909 298.015 294.909 298.062C294.909 298.119 294.928 298.185 294.966 298.27C294.994 298.355 295.051 298.412 295.127 298.431C295.202 298.459 295.306 298.469 295.448 298.469C295.562 298.469 295.713 298.459 295.883 298.44V299.13C295.656 299.159 295.448 299.168 295.269 299.168C295.042 299.168 294.853 299.149 294.701 299.092C294.55 299.045 294.427 298.988 294.352 298.922C294.276 298.866 294.219 298.752 294.182 298.592C294.144 298.431 294.115 298.299 294.115 298.185C294.106 298.072 294.106 297.892 294.106 297.627V297.59V297.542V297.495V294.905H293.284V294.244H294.106V292.798H294.909V294.244H295.883ZM297.626 292.391V293.374H296.813V292.391H297.626ZM297.626 294.244V299.121H296.813V294.244H297.626ZM298.398 294.244H299.296L300.676 298.336L302.018 294.244H302.859L301.073 299.121H300.213L298.398 294.244ZM307.765 297.58C307.519 298.714 306.81 299.281 305.638 299.281C304.92 299.281 304.353 299.064 303.946 298.61C303.54 298.166 303.341 297.542 303.341 296.748C303.341 295.964 303.549 295.331 303.965 294.839C304.381 294.348 304.929 294.102 305.61 294.102C306.356 294.102 306.914 294.357 307.273 294.868C307.632 295.378 307.821 296.011 307.821 296.786V296.9H304.154L304.145 296.956C304.145 297.476 304.277 297.883 304.551 298.176C304.816 298.478 305.194 298.62 305.666 298.62C306.016 298.62 306.29 298.544 306.498 298.374C306.706 298.213 306.867 297.949 306.98 297.58H307.765ZM306.99 296.247C306.952 295.784 306.81 295.425 306.564 295.161C306.319 294.896 305.988 294.764 305.591 294.764C305.194 294.764 304.872 294.896 304.617 295.161C304.353 295.425 304.201 295.794 304.154 296.247H306.99Z" fill="#D7D7D7"/>
</g>
<rect x="259.265" y="284.842" width="64.3516" height="23.6291" rx="11.8146" stroke="#454545" stroke-width="0.502747"/>
</g>
</g>
<defs>
<filter id="filter0_i_4794_11134" x="0" y="0" width="366" height="407.06" filterUnits="userSpaceOnUse" color-interpolation-filters="sRGB">
<feFlood flood-opacity="0" result="BackgroundImageFix"/>
<feBlend mode="normal" in="SourceGraphic" in2="BackgroundImageFix" result="shape"/>
<feColorMatrix in="SourceAlpha" type="matrix" values="0 0 0 0 0 0 0 0 0 0 0 0 0 0 0 0 0 0 127 0" result="hardAlpha"/>
<feOffset dy="1.05987"/>
<feGaussianBlur stdDeviation="1.05987"/>
<feComposite in2="hardAlpha" operator="arithmetic" k2="-1" k3="1"/>
<feColorMatrix type="matrix" values="0 0 0 0 0.321569 0 0 0 0 0.317647 0 0 0 0 0.329412 0 0 0 1 0"/>
<feBlend mode="normal" in2="shape" result="effect1_innerShadow_4794_11134"/>
</filter>
<linearGradient id="paint0_linear_4794_11134" x1="183" y1="0" x2="183" y2="406" gradientUnits="userSpaceOnUse">
<stop stop-color="#1F1F1F"/>
<stop offset="0.69" stop-color="#111111"/>
</linearGradient>
<linearGradient id="paint1_linear_4794_11134" x1="171.736" y1="142.213" x2="171.736" y2="155.083" gradientUnits="userSpaceOnUse">
<stop stop-color="white"/>
<stop offset="0.69" stop-color="#999999"/>
</linearGradient>
<linearGradient id="paint2_linear_4794_11134" x1="148.811" y1="179.215" x2="148.811" y2="192.085" gradientUnits="userSpaceOnUse">
<stop stop-color="white"/>
<stop offset="0.69" stop-color="#999999"/>
</linearGradient>
<linearGradient id="paint3_linear_4794_11134" x1="164.094" y1="216.217" x2="164.094" y2="229.087" gradientUnits="userSpaceOnUse">
<stop stop-color="white"/>
<stop offset="0.69" stop-color="#999999"/>
</linearGradient>
<linearGradient id="paint4_linear_4794_11134" x1="164.094" y1="253.219" x2="164.094" y2="266.089" gradientUnits="userSpaceOnUse">
<stop stop-color="white"/>
<stop offset="0.69" stop-color="#999999"/>
</linearGradient>
<linearGradient id="paint5_linear_4794_11134" x1="171.736" y1="290.221" x2="171.736" y2="303.092" gradientUnits="userSpaceOnUse">
<stop stop-color="white"/>
<stop offset="0.69" stop-color="#999999"/>
</linearGradient>
<linearGradient id="paint6_linear_4794_11134" x1="63.9466" y1="134.973" x2="63.9466" y2="162.322" gradientUnits="userSpaceOnUse">
<stop stop-color="white"/>
<stop offset="0.69" stop-color="#999999"/>
</linearGradient>
<linearGradient id="paint7_linear_4794_11134" x1="57.1093" y1="171.975" x2="57.1093" y2="199.325" gradientUnits="userSpaceOnUse">
<stop stop-color="white"/>
<stop offset="0.69" stop-color="#999999"/>
</linearGradient>
<linearGradient id="paint8_linear_4794_11134" x1="57.1093" y1="208.977" x2="57.1093" y2="236.327" gradientUnits="userSpaceOnUse">
<stop stop-color="white"/>
<stop offset="0.69" stop-color="#999999"/>
</linearGradient>
<linearGradient id="paint9_linear_4794_11134" x1="63.9466" y1="245.98" x2="63.9466" y2="273.329" gradientUnits="userSpaceOnUse">
<stop stop-color="white"/>
<stop offset="0.69" stop-color="#999999"/>
</linearGradient>
<linearGradient id="paint10_linear_4794_11134" x1="57.1093" y1="282.982" x2="57.1093" y2="310.331" gradientUnits="userSpaceOnUse">
<stop stop-color="white"/>
<stop offset="0.69" stop-color="#999999"/>
</linearGradient>
<clipPath id="clip0_4794_11134">
<rect width="366" height="406" rx="24" fill="white"/>
</clipPath>
<clipPath id="clip1_4794_11134">
<rect x="37.8057" y="338" width="290.387" height="38.611" rx="19.3055" fill="white"/>
</clipPath>
<clipPath id="clip2_4794_11134">
<rect width="19.3055" height="19.3055" fill="white" transform="translate(43.4346 87.5781)"/>
</clipPath>
<clipPath id="clip3_4794_11134">
<rect x="259.014" y="134.973" width="64.8543" height="24.1319" rx="12.0659" fill="white"/>
</clipPath>
<clipPath id="clip4_4794_11134">
<rect x="259.014" y="173.584" width="64.8543" height="24.1319" rx="12.0659" fill="white"/>
</clipPath>
<clipPath id="clip5_4794_11134">
<rect x="259.014" y="210.586" width="64.8543" height="24.1319" rx="12.0659" fill="white"/>
</clipPath>
<clipPath id="clip6_4794_11134">
<rect x="259.014" y="247.588" width="64.8543" height="24.1319" rx="12.0659" fill="white"/>
</clipPath>
<clipPath id="clip7_4794_11134">
<rect x="259.014" y="284.591" width="64.8543" height="24.1319" rx="12.0659" fill="white"/>
</clipPath>
</defs>
</svg>
