<svg width="383" height="438" viewBox="0 0 383 438" fill="none" xmlns="http://www.w3.org/2000/svg">
<g filter="url(#filter0_ddi_4740_8453)">
<g clip-path="url(#clip0_4740_8453)">
<rect x="20" width="342.598" height="398.318" rx="20.2534" fill="url(#paint0_linear_4740_8453)"/>
<path d="M141.641 21.2046V26.0296C142.31 25.0176 143.34 24.4935 144.731 24.4935C145.996 24.4935 147.027 24.9453 147.786 25.8308C148.544 26.7163 148.942 27.8909 148.942 29.3727C148.942 30.8907 148.544 32.0834 147.767 32.9869C146.972 33.8905 145.942 34.3423 144.641 34.3423C143.159 34.3423 142.129 33.8001 141.551 32.7159V34.0712H140.105V21.2046H141.641ZM144.497 25.7946C143.503 25.7946 142.762 26.1561 142.292 26.8608C141.822 27.5837 141.587 28.4511 141.587 29.4812C141.587 30.5835 141.84 31.4509 142.364 32.1015C142.888 32.752 143.593 33.0592 144.497 33.0592C145.346 33.0592 146.033 32.734 146.557 32.0653C147.081 31.3967 147.352 30.5112 147.352 29.3908C147.352 28.3065 147.081 27.421 146.575 26.7705C146.051 26.1199 145.364 25.7946 144.497 25.7946ZM155.697 24.5297L155.678 26.138C155.57 26.1199 155.444 26.1199 155.281 26.1199C154.793 26.1199 154.359 26.1922 153.998 26.3368C153.636 26.4813 153.365 26.6801 153.149 26.9151C152.932 27.168 152.769 27.4572 152.624 27.8186C152.498 28.18 152.408 28.5415 152.371 28.9029C152.335 29.2643 152.317 29.6799 152.317 30.1317V34.0712H150.781V24.7465H152.245V26.7524C152.859 25.2706 153.998 24.5297 155.697 24.5297ZM165.112 32.8424V34.0531C164.786 34.1616 164.443 34.2339 164.064 34.2339C163.178 34.2339 162.726 33.764 162.708 32.8605C161.823 33.8363 160.702 34.3423 159.329 34.3423C158.407 34.3423 157.685 34.1074 157.142 33.6375C156.6 33.1677 156.347 32.5171 156.347 31.7039C156.347 30.0414 157.45 29.0655 159.654 28.7944C159.799 28.7583 159.998 28.7402 160.287 28.7222C161.335 28.5957 161.967 28.4511 162.22 28.3065C162.491 28.1077 162.636 27.7825 162.636 27.3126C162.636 26.2826 161.931 25.7766 160.522 25.7766C159.799 25.7766 159.239 25.9211 158.877 26.2103C158.498 26.4994 158.281 26.9873 158.209 27.674H156.709C156.727 26.6621 157.088 25.885 157.775 25.3429C158.462 24.7827 159.401 24.5116 160.612 24.5116C161.913 24.5116 162.889 24.8007 163.54 25.4151C163.738 25.5959 163.883 25.8489 163.991 26.1741C164.082 26.4813 164.136 26.7343 164.154 26.9331C164.154 27.1319 164.172 27.4391 164.172 27.8367C164.172 28.2885 164.154 28.9752 164.136 29.8968C164.1 30.8365 164.1 31.5232 164.1 31.975C164.1 32.3183 164.136 32.5532 164.226 32.6978C164.317 32.8424 164.479 32.8966 164.732 32.8966C164.823 32.8966 164.949 32.8785 165.112 32.8424ZM162.636 29.2462C162.528 29.3185 162.401 29.3908 162.293 29.4631C162.166 29.5173 162.004 29.5715 161.823 29.6076C161.642 29.6438 161.516 29.6619 161.443 29.6799C161.371 29.698 161.226 29.7161 160.973 29.7522C160.72 29.7884 160.576 29.8064 160.576 29.8064C160.196 29.8426 159.943 29.8787 159.835 29.8968C159.727 29.9149 159.51 29.9691 159.184 30.0594C158.859 30.1317 158.642 30.2401 158.516 30.3486C158.371 30.457 158.245 30.6016 158.118 30.8184C157.992 31.0353 157.938 31.2883 157.938 31.5774C157.938 32.0472 158.1 32.4267 158.425 32.7159C158.751 32.9869 159.221 33.1315 159.799 33.1315C160.522 33.1315 161.19 32.9147 161.769 32.481C162.347 32.0472 162.636 31.5232 162.636 30.9449V29.2462ZM168.005 24.7465V26.1922C168.764 25.0718 169.83 24.4935 171.186 24.4935C172.27 24.4935 173.065 24.7827 173.553 25.3609C174.041 25.9392 174.294 26.7705 174.294 27.8728V34.0712H172.758V28.5776C172.758 28.1258 172.74 27.7644 172.704 27.5114C172.667 27.2584 172.595 26.9693 172.487 26.6801C172.36 26.391 172.161 26.1741 171.872 26.0296C171.583 25.9031 171.204 25.8308 170.752 25.8308C168.981 25.8308 168.095 26.9512 168.095 29.192V34.0712H166.559V24.7465H168.005ZM185.004 21.2046V34.0712H183.558V32.6978C182.962 33.7821 181.932 34.3242 180.486 34.3242C179.149 34.3242 178.101 33.8905 177.324 33.005C176.547 32.1195 176.167 30.9088 176.167 29.3908C176.167 27.9812 176.529 26.8247 177.251 25.885C177.974 24.9453 179.04 24.4754 180.414 24.4754C181.751 24.4754 182.763 24.9814 183.468 25.9934V21.2046H185.004ZM180.613 25.7946C179.727 25.7946 179.022 26.1199 178.516 26.7524C178.01 27.403 177.757 28.2704 177.757 29.3547C177.757 30.4931 178.01 31.3967 178.535 32.0653C179.059 32.734 179.763 33.0592 180.649 33.0592C181.534 33.0592 182.239 32.752 182.745 32.1015C183.251 31.4509 183.504 30.5654 183.504 29.4089C183.504 28.3969 183.251 27.5295 182.781 26.8428C182.311 26.1561 181.589 25.7946 180.613 25.7946ZM200.601 32.8424V34.0531C200.276 34.1616 199.932 34.2339 199.553 34.2339C198.667 34.2339 198.216 33.764 198.198 32.8605C197.312 33.8363 196.192 34.3423 194.818 34.3423C193.897 34.3423 193.174 34.1074 192.632 33.6375C192.09 33.1677 191.837 32.5171 191.837 31.7039C191.837 30.0414 192.939 29.0655 195.144 28.7944C195.288 28.7583 195.487 28.7402 195.776 28.7222C196.824 28.5957 197.457 28.4511 197.71 28.3065C197.981 28.1077 198.125 27.7825 198.125 27.3126C198.125 26.2826 197.421 25.7766 196.011 25.7766C195.288 25.7766 194.728 25.9211 194.367 26.2103C193.987 26.4994 193.77 26.9873 193.698 27.674H192.198C192.216 26.6621 192.577 25.885 193.264 25.3429C193.951 24.7827 194.891 24.5116 196.101 24.5116C197.402 24.5116 198.378 24.8007 199.029 25.4151C199.228 25.5959 199.372 25.8489 199.481 26.1741C199.571 26.4813 199.625 26.7343 199.643 26.9331C199.643 27.1319 199.661 27.4391 199.661 27.8367C199.661 28.2885 199.643 28.9752 199.625 29.8968C199.589 30.8365 199.589 31.5232 199.589 31.975C199.589 32.3183 199.625 32.5532 199.716 32.6978C199.806 32.8424 199.969 32.8966 200.222 32.8966C200.312 32.8966 200.438 32.8785 200.601 32.8424ZM198.125 29.2462C198.017 29.3185 197.89 29.3908 197.782 29.4631C197.655 29.5173 197.493 29.5715 197.312 29.6076C197.131 29.6438 197.005 29.6619 196.933 29.6799C196.86 29.698 196.716 29.7161 196.463 29.7522C196.21 29.7884 196.065 29.8064 196.065 29.8064C195.686 29.8426 195.433 29.8787 195.324 29.8968C195.216 29.9149 194.999 29.9691 194.674 30.0594C194.348 30.1317 194.132 30.2401 194.005 30.3486C193.861 30.457 193.734 30.6016 193.608 30.8184C193.481 31.0353 193.427 31.2883 193.427 31.5774C193.427 32.0472 193.589 32.4267 193.915 32.7159C194.24 32.9869 194.71 33.1315 195.288 33.1315C196.011 33.1315 196.68 32.9147 197.258 32.481C197.836 32.0472 198.125 31.5232 198.125 30.9449V29.2462ZM208.97 27.4572H207.434C207.325 26.3368 206.566 25.7585 205.157 25.7585C204.561 25.7585 204.091 25.885 203.765 26.1019C203.422 26.3368 203.259 26.644 203.259 27.0235C203.259 27.1319 203.259 27.2403 203.296 27.3488C203.314 27.4572 203.35 27.5475 203.422 27.6198C203.494 27.6921 203.549 27.7644 203.603 27.8186C203.657 27.8909 203.747 27.9451 203.874 27.9993C204 28.0535 204.091 28.0897 204.163 28.1258C204.235 28.162 204.344 28.2162 204.524 28.2523C204.705 28.2885 204.832 28.3246 204.904 28.3427C204.976 28.3607 205.103 28.3969 205.32 28.433C205.536 28.4872 205.663 28.5234 205.735 28.5234C206.169 28.6318 206.512 28.7041 206.729 28.7583C206.946 28.8306 207.253 28.939 207.651 29.1017C208.048 29.2643 208.337 29.4269 208.554 29.6076C208.753 29.7884 208.934 30.0233 209.096 30.3305C209.259 30.6377 209.349 30.9811 209.349 31.3605C209.349 32.2641 208.988 33.005 208.283 33.5472C207.578 34.0893 206.639 34.3604 205.482 34.3604C204.217 34.3604 203.241 34.0893 202.555 33.5291C201.868 32.9869 201.507 32.1737 201.47 31.1256H202.988C203.061 32.4448 203.91 33.0954 205.518 33.0954C206.205 33.0954 206.747 32.9689 207.163 32.6797C207.578 32.3906 207.795 32.0111 207.795 31.5413C207.795 31.234 207.687 30.9811 207.47 30.7642C207.253 30.5654 207 30.4208 206.747 30.3305C206.476 30.2401 206.097 30.1317 205.609 30.0052C205.536 30.0052 205.482 29.9871 205.446 29.9691C205.338 29.951 205.103 29.8968 204.741 29.8245C204.38 29.7522 204.127 29.6799 203.982 29.6257C203.82 29.5896 203.585 29.5173 203.296 29.4089C203.006 29.3004 202.79 29.192 202.645 29.0836C202.5 28.9752 202.338 28.8306 202.157 28.6499C201.976 28.4692 201.868 28.2704 201.796 28.0355C201.723 27.8005 201.687 27.5295 201.687 27.2223C201.687 26.391 201.994 25.7224 202.645 25.2164C203.296 24.7284 204.163 24.4754 205.247 24.4754C206.332 24.4754 207.235 24.7465 207.922 25.2525C208.609 25.7766 208.97 26.5175 208.97 27.4572ZM218.006 27.4572H216.469C216.361 26.3368 215.602 25.7585 214.192 25.7585C213.596 25.7585 213.126 25.885 212.801 26.1019C212.458 26.3368 212.295 26.644 212.295 27.0235C212.295 27.1319 212.295 27.2403 212.331 27.3488C212.349 27.4572 212.385 27.5475 212.458 27.6198C212.53 27.6921 212.584 27.7644 212.638 27.8186C212.693 27.8909 212.783 27.9451 212.909 27.9993C213.036 28.0535 213.126 28.0897 213.199 28.1258C213.271 28.162 213.379 28.2162 213.56 28.2523C213.741 28.2885 213.867 28.3246 213.94 28.3427C214.012 28.3607 214.138 28.3969 214.355 28.433C214.572 28.4872 214.698 28.5234 214.771 28.5234C215.204 28.6318 215.548 28.7041 215.765 28.7583C215.982 28.8306 216.289 28.939 216.686 29.1017C217.084 29.2643 217.373 29.4269 217.59 29.6076C217.789 29.7884 217.969 30.0233 218.132 30.3305C218.295 30.6377 218.385 30.9811 218.385 31.3605C218.385 32.2641 218.024 33.005 217.319 33.5472C216.614 34.0893 215.674 34.3604 214.518 34.3604C213.253 34.3604 212.277 34.0893 211.59 33.5291C210.904 32.9869 210.542 32.1737 210.506 31.1256H212.024C212.096 32.4448 212.946 33.0954 214.554 33.0954C215.241 33.0954 215.783 32.9689 216.198 32.6797C216.614 32.3906 216.831 32.0111 216.831 31.5413C216.831 31.234 216.722 30.9811 216.506 30.7642C216.289 30.5654 216.036 30.4208 215.783 30.3305C215.512 30.2401 215.132 30.1317 214.644 30.0052C214.572 30.0052 214.518 29.9871 214.482 29.9691C214.373 29.951 214.138 29.8968 213.777 29.8245C213.415 29.7522 213.162 29.6799 213.018 29.6257C212.855 29.5896 212.62 29.5173 212.331 29.4089C212.042 29.3004 211.825 29.192 211.681 29.0836C211.536 28.9752 211.373 28.8306 211.193 28.6499C211.012 28.4692 210.904 28.2704 210.831 28.0355C210.759 27.8005 210.723 27.5295 210.723 27.2223C210.723 26.391 211.03 25.7224 211.681 25.2164C212.331 24.7284 213.199 24.4754 214.283 24.4754C215.367 24.4754 216.271 24.7465 216.957 25.2525C217.644 25.7766 218.006 26.5175 218.006 27.4572ZM228.089 31.1256C227.619 33.2942 226.264 34.3784 224.023 34.3784C222.65 34.3784 221.566 33.9628 220.788 33.0954C220.011 32.246 219.632 31.0533 219.632 29.5354C219.632 28.0355 220.029 26.8247 220.825 25.885C221.62 24.9453 222.668 24.4754 223.969 24.4754C225.397 24.4754 226.463 24.9634 227.149 25.9392C227.836 26.9151 228.198 28.1258 228.198 29.6076V29.8245H221.186L221.168 29.9329C221.168 30.9268 221.421 31.7039 221.945 32.2641C222.451 32.8424 223.174 33.1134 224.077 33.1134C224.746 33.1134 225.27 32.9689 225.668 32.6436C226.065 32.3364 226.372 31.8304 226.589 31.1256H228.089ZM226.607 28.5776C226.535 27.6921 226.264 27.0054 225.794 26.4994C225.324 25.9934 224.692 25.7404 223.933 25.7404C223.174 25.7404 222.559 25.9934 222.072 26.4994C221.566 27.0054 221.276 27.7102 221.186 28.5776H226.607ZM233.82 24.7465V26.0115H231.958V31.4509C231.958 31.7581 231.958 31.9569 231.958 32.0472C231.958 32.1557 231.995 32.2822 232.067 32.4448C232.121 32.6075 232.229 32.7159 232.374 32.752C232.519 32.8062 232.717 32.8243 232.988 32.8243C233.205 32.8243 233.494 32.8062 233.82 32.7701V34.0893C233.386 34.1435 232.988 34.1616 232.645 34.1616C232.211 34.1616 231.85 34.1254 231.561 34.017C231.272 33.9266 231.037 33.8182 230.892 33.6917C230.748 33.5833 230.639 33.3664 230.567 33.0592C230.495 32.752 230.44 32.499 230.44 32.2822C230.422 32.0653 230.422 31.722 230.422 31.216V31.1437V31.0533V30.963V26.0115H228.85V24.7465H230.422V21.9816H231.958V24.7465H233.82ZM242.447 27.4572H240.911C240.803 26.3368 240.044 25.7585 238.634 25.7585C238.038 25.7585 237.568 25.885 237.243 26.1019C236.9 26.3368 236.737 26.644 236.737 27.0235C236.737 27.1319 236.737 27.2403 236.773 27.3488C236.791 27.4572 236.827 27.5475 236.9 27.6198C236.972 27.6921 237.026 27.7644 237.08 27.8186C237.134 27.8909 237.225 27.9451 237.351 27.9993C237.478 28.0535 237.568 28.0897 237.64 28.1258C237.713 28.162 237.821 28.2162 238.002 28.2523C238.183 28.2885 238.309 28.3246 238.381 28.3427C238.454 28.3607 238.58 28.3969 238.797 28.433C239.014 28.4872 239.14 28.5234 239.213 28.5234C239.646 28.6318 239.99 28.7041 240.207 28.7583C240.423 28.8306 240.731 28.939 241.128 29.1017C241.526 29.2643 241.815 29.4269 242.032 29.6076C242.231 29.7884 242.411 30.0233 242.574 30.3305C242.737 30.6377 242.827 30.9811 242.827 31.3605C242.827 32.2641 242.465 33.005 241.761 33.5472C241.056 34.0893 240.116 34.3604 238.96 34.3604C237.695 34.3604 236.719 34.0893 236.032 33.5291C235.345 32.9869 234.984 32.1737 234.948 31.1256H236.466C236.538 32.4448 237.387 33.0954 238.996 33.0954C239.683 33.0954 240.225 32.9689 240.64 32.6797C241.056 32.3906 241.273 32.0111 241.273 31.5413C241.273 31.234 241.164 30.9811 240.948 30.7642C240.731 30.5654 240.478 30.4208 240.225 30.3305C239.954 30.2401 239.574 30.1317 239.086 30.0052C239.014 30.0052 238.96 29.9871 238.924 29.9691C238.815 29.951 238.58 29.8968 238.219 29.8245C237.857 29.7522 237.604 29.6799 237.46 29.6257C237.297 29.5896 237.062 29.5173 236.773 29.4089C236.484 29.3004 236.267 29.192 236.123 29.0836C235.978 28.9752 235.815 28.8306 235.635 28.6499C235.454 28.4692 235.345 28.2704 235.273 28.0355C235.201 27.8005 235.165 27.5295 235.165 27.2223C235.165 26.391 235.472 25.7224 236.123 25.2164C236.773 24.7284 237.64 24.4754 238.725 24.4754C239.809 24.4754 240.713 24.7465 241.399 25.2525C242.086 25.7766 242.447 26.5175 242.447 27.4572Z" fill="#D7D7D7"/>
<path d="M20 54.2133H362.598" stroke="#4B4A4D" stroke-width="0.752963"/>
<rect x="112.613" y="133.12" width="136.286" height="12.0474" rx="6.02371" fill="url(#paint1_linear_4740_8453)" fill-opacity="0.12"/>
<rect x="112.613" y="167.756" width="93.3674" height="12.0474" rx="6.02371" fill="url(#paint2_linear_4740_8453)" fill-opacity="0.12"/>
<rect x="112.613" y="202.392" width="121.98" height="12.0474" rx="6.02371" fill="url(#paint3_linear_4740_8453)" fill-opacity="0.12"/>
<rect x="112.613" y="237.029" width="121.98" height="12.0474" rx="6.02371" fill="url(#paint4_linear_4740_8453)" fill-opacity="0.12"/>
<rect x="112.613" y="271.665" width="136.286" height="12.0474" rx="6.02371" fill="url(#paint5_linear_4740_8453)" fill-opacity="0.12"/>
<rect x="60.6582" y="126.343" width="38.4011" height="25.6007" rx="3.76482" fill="url(#paint6_linear_4740_8453)" fill-opacity="0.12"/>
<rect x="60.6582" y="160.979" width="25.6007" height="25.6007" rx="3.76482" fill="url(#paint7_linear_4740_8453)" fill-opacity="0.12"/>
<rect x="60.6582" y="195.616" width="25.6007" height="25.6007" rx="3.76482" fill="url(#paint8_linear_4740_8453)" fill-opacity="0.12"/>
<rect x="60.6582" y="230.252" width="38.4011" height="25.6007" rx="3.76482" fill="url(#paint9_linear_4740_8453)" fill-opacity="0.12"/>
<rect x="60.6582" y="264.888" width="25.6007" height="25.6007" rx="3.76482" fill="url(#paint10_linear_4740_8453)" fill-opacity="0.12"/>
<g clip-path="url(#clip1_4740_8453)">
<path d="M55.3887 329.842H341.515L326.21 365.984H55.3887V329.842Z" fill="#006756"/>
<path d="M167.668 344.104H170.788C171.365 344.104 171.864 344.202 172.285 344.399C172.707 344.596 173.051 344.867 173.318 345.211C173.585 345.548 173.782 345.945 173.909 346.402C174.042 346.859 174.109 347.347 174.109 347.867C174.109 348.387 174.042 348.876 173.909 349.333C173.782 349.789 173.585 350.19 173.318 350.534C173.051 350.872 172.707 351.139 172.285 351.335C171.864 351.532 171.365 351.631 170.788 351.631H167.668V344.104ZM168.986 350.555H170.282C170.795 350.555 171.213 350.489 171.537 350.355C171.867 350.215 172.124 350.025 172.306 349.786C172.496 349.54 172.623 349.255 172.686 348.932C172.756 348.602 172.791 348.247 172.791 347.867C172.791 347.488 172.756 347.136 172.686 346.813C172.623 346.483 172.496 346.198 172.306 345.959C172.124 345.713 171.867 345.524 171.537 345.39C171.213 345.25 170.795 345.179 170.282 345.179H168.986V350.555ZM177.605 351.778C177.17 351.778 176.78 351.708 176.435 351.567C176.098 351.42 175.81 351.22 175.571 350.967C175.339 350.714 175.16 350.411 175.033 350.06C174.914 349.709 174.854 349.322 174.854 348.9C174.854 348.486 174.914 348.103 175.033 347.751C175.16 347.4 175.339 347.098 175.571 346.845C175.81 346.592 176.098 346.395 176.435 346.254C176.78 346.107 177.17 346.033 177.605 346.033C178.041 346.033 178.428 346.107 178.765 346.254C179.109 346.395 179.397 346.592 179.629 346.845C179.868 347.098 180.047 347.4 180.167 347.751C180.293 348.103 180.357 348.486 180.357 348.9C180.357 349.322 180.293 349.709 180.167 350.06C180.047 350.411 179.868 350.714 179.629 350.967C179.397 351.22 179.109 351.42 178.765 351.567C178.428 351.708 178.041 351.778 177.605 351.778ZM177.605 350.829C177.872 350.829 178.104 350.773 178.301 350.661C178.498 350.548 178.659 350.401 178.786 350.218C178.912 350.035 179.004 349.832 179.06 349.607C179.123 349.375 179.155 349.139 179.155 348.9C179.155 348.668 179.123 348.437 179.06 348.205C179.004 347.973 178.912 347.769 178.786 347.593C178.659 347.411 178.498 347.263 178.301 347.151C178.104 347.038 177.872 346.982 177.605 346.982C177.338 346.982 177.106 347.038 176.91 347.151C176.713 347.263 176.551 347.411 176.425 347.593C176.298 347.769 176.203 347.973 176.14 348.205C176.084 348.437 176.056 348.668 176.056 348.9C176.056 349.139 176.084 349.375 176.14 349.607C176.203 349.832 176.298 350.035 176.425 350.218C176.551 350.401 176.713 350.548 176.91 350.661C177.106 350.773 177.338 350.829 177.605 350.829ZM180.86 346.181H182.136L183.2 350.25H183.221L184.244 346.181H185.456L186.437 350.25H186.458L187.565 346.181H188.787L187.08 351.631H185.846L184.834 347.583H184.813L183.812 351.631H182.547L180.86 346.181ZM189.56 346.181H190.699V346.982L190.72 347.003C190.903 346.701 191.142 346.465 191.437 346.297C191.732 346.121 192.059 346.033 192.417 346.033C193.014 346.033 193.485 346.188 193.83 346.497C194.174 346.806 194.346 347.27 194.346 347.888V351.631H193.144V348.205C193.13 347.776 193.039 347.467 192.87 347.277C192.702 347.08 192.438 346.982 192.08 346.982C191.876 346.982 191.693 347.021 191.532 347.098C191.37 347.168 191.233 347.27 191.12 347.404C191.008 347.53 190.92 347.681 190.857 347.857C190.794 348.032 190.762 348.219 190.762 348.415V351.631H189.56V346.181ZM195.645 344.104H196.847V351.631H195.645V344.104ZM200.654 351.778C200.219 351.778 199.829 351.708 199.484 351.567C199.147 351.42 198.859 351.22 198.62 350.967C198.388 350.714 198.209 350.411 198.082 350.06C197.963 349.709 197.903 349.322 197.903 348.9C197.903 348.486 197.963 348.103 198.082 347.751C198.209 347.4 198.388 347.098 198.62 346.845C198.859 346.592 199.147 346.395 199.484 346.254C199.829 346.107 200.219 346.033 200.654 346.033C201.09 346.033 201.477 346.107 201.814 346.254C202.158 346.395 202.447 346.592 202.678 346.845C202.917 347.098 203.097 347.4 203.216 347.751C203.343 348.103 203.406 348.486 203.406 348.9C203.406 349.322 203.343 349.709 203.216 350.06C203.097 350.411 202.917 350.714 202.678 350.967C202.447 351.22 202.158 351.42 201.814 351.567C201.477 351.708 201.09 351.778 200.654 351.778ZM200.654 350.829C200.922 350.829 201.153 350.773 201.35 350.661C201.547 350.548 201.709 350.401 201.835 350.218C201.962 350.035 202.053 349.832 202.109 349.607C202.172 349.375 202.204 349.139 202.204 348.9C202.204 348.668 202.172 348.437 202.109 348.205C202.053 347.973 201.962 347.769 201.835 347.593C201.709 347.411 201.547 347.263 201.35 347.151C201.153 347.038 200.922 346.982 200.654 346.982C200.387 346.982 200.156 347.038 199.959 347.151C199.762 347.263 199.6 347.411 199.474 347.593C199.347 347.769 199.252 347.973 199.189 348.205C199.133 348.437 199.105 348.668 199.105 348.9C199.105 349.139 199.133 349.375 199.189 349.607C199.252 349.832 199.347 350.035 199.474 350.218C199.6 350.401 199.762 350.548 199.959 350.661C200.156 350.773 200.387 350.829 200.654 350.829ZM208.969 350.418C208.969 350.566 208.987 350.671 209.022 350.735C209.064 350.798 209.142 350.829 209.254 350.829C209.289 350.829 209.331 350.829 209.38 350.829C209.43 350.829 209.486 350.822 209.549 350.808V351.641C209.507 351.655 209.451 351.669 209.38 351.683C209.317 351.704 209.25 351.722 209.18 351.736C209.11 351.75 209.04 351.761 208.969 351.768C208.899 351.775 208.839 351.778 208.79 351.778C208.544 351.778 208.34 351.729 208.179 351.631C208.017 351.532 207.912 351.36 207.862 351.114C207.624 351.346 207.328 351.515 206.977 351.62C206.633 351.726 206.299 351.778 205.976 351.778C205.73 351.778 205.494 351.743 205.269 351.673C205.044 351.61 204.844 351.515 204.668 351.388C204.5 351.255 204.363 351.09 204.257 350.893C204.159 350.689 204.11 350.454 204.11 350.186C204.11 349.849 204.169 349.575 204.289 349.364C204.415 349.153 204.577 348.988 204.774 348.869C204.978 348.749 205.203 348.665 205.448 348.616C205.701 348.56 205.954 348.517 206.207 348.489C206.425 348.447 206.633 348.419 206.829 348.405C207.026 348.384 207.198 348.352 207.346 348.31C207.501 348.268 207.62 348.205 207.704 348.12C207.796 348.029 207.841 347.895 207.841 347.72C207.841 347.565 207.803 347.439 207.725 347.34C207.655 347.242 207.564 347.168 207.451 347.119C207.346 347.063 207.226 347.028 207.093 347.013C206.959 346.992 206.833 346.982 206.713 346.982C206.376 346.982 206.099 347.052 205.881 347.193C205.663 347.333 205.54 347.551 205.512 347.846H204.31C204.331 347.495 204.415 347.203 204.563 346.971C204.711 346.739 204.897 346.553 205.122 346.413C205.354 346.272 205.614 346.174 205.902 346.117C206.19 346.061 206.485 346.033 206.787 346.033C207.054 346.033 207.318 346.061 207.578 346.117C207.838 346.174 208.07 346.265 208.274 346.392C208.484 346.518 208.653 346.683 208.78 346.887C208.906 347.084 208.969 347.326 208.969 347.614V350.418ZM207.768 348.9C207.585 349.02 207.36 349.094 207.093 349.122C206.826 349.143 206.559 349.178 206.292 349.227C206.165 349.248 206.042 349.28 205.923 349.322C205.803 349.357 205.698 349.41 205.607 349.48C205.515 349.543 205.441 349.631 205.385 349.744C205.336 349.849 205.311 349.979 205.311 350.134C205.311 350.267 205.35 350.38 205.427 350.471C205.505 350.562 205.596 350.636 205.701 350.692C205.814 350.742 205.933 350.777 206.06 350.798C206.193 350.819 206.313 350.829 206.418 350.829C206.552 350.829 206.696 350.812 206.85 350.777C207.005 350.742 207.149 350.682 207.283 350.598C207.423 350.513 207.539 350.408 207.631 350.281C207.722 350.148 207.768 349.986 207.768 349.796V348.9ZM215.396 351.631H214.258V350.893H214.237C214.075 351.209 213.839 351.437 213.53 351.578C213.221 351.711 212.894 351.778 212.55 351.778C212.121 351.778 211.745 351.704 211.422 351.557C211.106 351.402 210.842 351.195 210.631 350.935C210.421 350.675 210.262 350.369 210.157 350.018C210.052 349.659 209.999 349.276 209.999 348.869C209.999 348.377 210.066 347.952 210.199 347.593C210.333 347.235 210.508 346.94 210.726 346.708C210.951 346.476 211.204 346.307 211.485 346.202C211.773 346.089 212.065 346.033 212.36 346.033C212.529 346.033 212.701 346.051 212.877 346.086C213.052 346.114 213.221 346.163 213.383 346.233C213.544 346.304 213.692 346.395 213.825 346.507C213.966 346.613 214.082 346.739 214.173 346.887H214.194V344.104H215.396V351.631ZM211.201 348.964C211.201 349.196 211.229 349.424 211.285 349.649C211.348 349.874 211.44 350.074 211.559 350.25C211.686 350.425 211.844 350.566 212.033 350.671C212.223 350.777 212.448 350.829 212.708 350.829C212.975 350.829 213.203 350.773 213.393 350.661C213.59 350.548 213.748 350.401 213.868 350.218C213.994 350.035 214.085 349.832 214.142 349.607C214.205 349.375 214.237 349.139 214.237 348.9C214.237 348.296 214.1 347.825 213.825 347.488C213.558 347.151 213.193 346.982 212.729 346.982C212.448 346.982 212.209 347.042 212.012 347.161C211.823 347.273 211.664 347.425 211.538 347.614C211.418 347.797 211.331 348.008 211.274 348.247C211.225 348.479 211.201 348.718 211.201 348.964Z" fill="white"/>
</g>
<rect x="55.7652" y="330.218" width="271.067" height="35.3893" rx="17.6946" stroke="#64FBAA" stroke-width="0.752963"/>
<g clip-path="url(#clip2_4740_8453)">
<path d="M77.0701 84.5444C76.5834 84.0575 76.0055 83.6712 75.3695 83.4077C74.7334 83.1442 74.0517 83.0086 73.3633 83.0086C72.6748 83.0086 71.9931 83.1442 71.3571 83.4077C70.721 83.6712 70.1432 84.0575 69.6564 84.5444L61.8422 92.3579C61.1239 93.0832 60.7221 94.0634 60.7246 95.0842C60.7271 96.105 61.1337 97.0832 61.8555 97.805C62.5773 98.5268 63.5556 98.9334 64.5763 98.9359C65.5971 98.9384 66.5773 98.5366 67.3027 97.8184L73.6494 91.4701C73.8943 91.2435 74.091 90.9697 74.2275 90.6652C74.3641 90.3607 74.4379 90.0318 74.4443 89.6982C74.4507 89.3645 74.3898 89.033 74.265 88.7235C74.1403 88.414 73.9543 88.1328 73.7183 87.8969C73.4823 87.6609 73.2012 87.4751 72.8916 87.3504C72.5821 87.2257 72.2505 87.1648 71.9169 87.1713C71.5832 87.1778 71.2543 87.2516 70.9499 87.3883C70.6454 87.5249 70.3717 87.7216 70.1451 87.9666L66.238 91.87C66.168 91.9399 66.1124 92.0229 66.0745 92.1143C66.0366 92.2056 66.017 92.3036 66.0169 92.4025C66.0169 92.5015 66.0363 92.5994 66.0741 92.6909C66.1119 92.7823 66.1673 92.8654 66.2372 92.9354C66.3071 93.0054 66.3901 93.061 66.4815 93.0989C66.5729 93.1368 66.6709 93.1564 66.7698 93.1564C66.8687 93.1565 66.9667 93.1371 67.0581 93.0993C67.1496 93.0615 67.2327 93.0061 67.3027 92.9361L71.2098 89.0275C71.3939 88.8518 71.6395 88.7552 71.894 88.7582C72.1484 88.7612 72.3916 88.8637 72.5715 89.0437C72.7514 89.2237 72.8538 89.4669 72.8567 89.7214C72.8595 89.9759 72.7627 90.2214 72.587 90.4054L66.238 96.7537C65.7962 97.1954 65.1971 97.4436 64.5724 97.4436C63.9477 97.4436 63.3486 97.1954 62.9069 96.7537C62.4651 96.3119 62.217 95.7128 62.217 95.0881C62.217 94.4634 62.4651 93.8643 62.9069 93.4226L70.7211 85.6091C71.4219 84.9083 72.3723 84.5146 73.3633 84.5146C74.3543 84.5146 75.3047 84.9083 76.0054 85.6091C76.7062 86.3098 77.0998 87.2602 77.0998 88.2512C77.0998 89.2422 76.7062 90.1926 76.0054 90.8934L70.1451 96.7537C70.0732 96.8231 70.0158 96.9062 69.9764 96.9981C69.9369 97.0899 69.9161 97.1887 69.9153 97.2887C69.9144 97.3887 69.9334 97.4879 69.9713 97.5804C70.0092 97.6729 70.0651 97.757 70.1358 97.8277C70.2065 97.8984 70.2905 97.9543 70.3831 97.9922C70.4756 98.03 70.5748 98.0491 70.6747 98.0482C70.7747 98.0473 70.8735 98.0266 70.9654 97.9871C71.0572 97.9476 71.1403 97.8903 71.2098 97.8184L77.0701 91.9573C77.5571 91.4706 77.9434 90.8927 78.207 90.2567C78.4705 89.6207 78.6062 88.9389 78.6062 88.2505C78.6062 87.562 78.4705 86.8802 78.207 86.2442C77.9434 85.6082 77.5571 85.0303 77.0701 84.5436V84.5444Z" fill="#D7D7D7"/>
</g>
<path d="M94.3946 84.364L98.1625 94.014H96.7394L95.6687 91.0594H91.6162L90.5184 94.014H89.1631L92.958 84.364H94.3946ZM95.2892 90.0429L93.6492 85.5838L91.9822 90.0429H95.2892ZM101.923 87.0205V87.9692H100.527V92.0488C100.527 92.2792 100.527 92.4283 100.527 92.496C100.527 92.5773 100.554 92.6722 100.608 92.7942C100.649 92.9162 100.73 92.9975 100.838 93.0246C100.947 93.0653 101.096 93.0788 101.299 93.0788C101.462 93.0788 101.679 93.0653 101.923 93.0382V94.0276C101.597 94.0682 101.299 94.0818 101.042 94.0818C100.716 94.0818 100.445 94.0547 100.229 93.9733C100.012 93.9056 99.8355 93.8243 99.727 93.7294C99.6186 93.6481 99.5373 93.4854 99.4831 93.255C99.4289 93.0246 99.3882 92.8349 99.3882 92.6722C99.3747 92.5096 99.3747 92.2521 99.3747 91.8726V91.8184V91.7506V91.6828V87.9692H98.1955V87.0205H99.3747V84.9468H100.527V87.0205H101.923ZM106.198 87.0205V87.9692H104.802V92.0488C104.802 92.2792 104.802 92.4283 104.802 92.496C104.802 92.5773 104.829 92.6722 104.883 92.7942C104.924 92.9162 105.005 92.9975 105.114 93.0246C105.222 93.0653 105.371 93.0788 105.574 93.0788C105.737 93.0788 105.954 93.0653 106.198 93.0382V94.0276C105.873 94.0682 105.574 94.0818 105.317 94.0818C104.992 94.0818 104.72 94.0547 104.504 93.9733C104.287 93.9056 104.111 93.8243 104.002 93.7294C103.894 93.6481 103.812 93.4854 103.758 93.255C103.704 93.0246 103.663 92.8349 103.663 92.6722C103.65 92.5096 103.65 92.2521 103.65 91.8726V91.8184V91.7506V91.6828V87.9692H102.471V87.0205H103.65V84.9468H104.802V87.0205H106.198ZM113.672 93.0924V94.0005C113.428 94.0818 113.17 94.136 112.885 94.136C112.221 94.136 111.882 93.7836 111.869 93.1059C111.205 93.8378 110.365 94.2173 109.334 94.2173C108.643 94.2173 108.101 94.0411 107.694 93.6887C107.288 93.3363 107.098 92.8484 107.098 92.2385C107.098 90.9916 107.925 90.2597 109.578 90.0564C109.687 90.0293 109.836 90.0158 110.053 90.0022C110.839 89.9073 111.313 89.7989 111.503 89.6905C111.706 89.5414 111.815 89.2974 111.815 88.9451C111.815 88.1725 111.286 87.793 110.229 87.793C109.687 87.793 109.267 87.9014 108.996 88.1183C108.711 88.3352 108.548 88.7011 108.494 89.2161H107.369C107.383 88.4571 107.654 87.8743 108.169 87.4677C108.684 87.0476 109.389 86.8443 110.297 86.8443C111.273 86.8443 112.004 87.0611 112.492 87.522C112.641 87.6575 112.75 87.8472 112.831 88.0912C112.899 88.3216 112.94 88.5113 112.953 88.6604C112.953 88.8095 112.967 89.0399 112.967 89.3381C112.967 89.6769 112.953 90.192 112.94 90.8832C112.913 91.588 112.913 92.103 112.913 92.4418C112.913 92.6993 112.94 92.8755 113.007 92.9839C113.075 93.0924 113.197 93.133 113.387 93.133C113.455 93.133 113.55 93.1195 113.672 93.0924ZM111.815 90.3953C111.733 90.4495 111.639 90.5037 111.557 90.5579C111.462 90.5986 111.34 90.6392 111.205 90.6663C111.069 90.6934 110.974 90.707 110.92 90.7205C110.866 90.7341 110.758 90.7476 110.568 90.7748C110.378 90.8019 110.27 90.8154 110.27 90.8154C109.985 90.8425 109.795 90.8696 109.714 90.8832C109.633 90.8967 109.47 90.9374 109.226 91.0052C108.982 91.0594 108.819 91.1407 108.725 91.222C108.616 91.3033 108.521 91.4118 108.426 91.5744C108.332 91.737 108.291 91.9268 108.291 92.1436C108.291 92.496 108.413 92.7806 108.657 92.9975C108.901 93.2008 109.253 93.3092 109.687 93.3092C110.229 93.3092 110.73 93.1466 111.164 92.8213C111.598 92.496 111.815 92.103 111.815 91.6693V90.3953ZM120.775 91.466C120.667 92.3063 120.355 92.9839 119.813 93.4719C119.271 93.9733 118.579 94.2173 117.712 94.2173C116.655 94.2173 115.842 93.892 115.259 93.2415C114.69 92.5909 114.391 91.7099 114.391 90.6121C114.391 89.4465 114.703 88.5249 115.299 87.8472C115.909 87.1696 116.723 86.8172 117.753 86.8172C118.62 86.8172 119.298 87.034 119.813 87.4677C120.328 87.9014 120.639 88.5113 120.721 89.311H119.528C119.325 88.2945 118.742 87.793 117.78 87.793C117.102 87.793 116.573 88.037 116.194 88.5249C115.801 89.0128 115.611 89.6905 115.611 90.5308C115.611 91.3711 115.787 92.0488 116.167 92.5367C116.533 93.0246 117.048 93.2686 117.698 93.2686C118.213 93.2686 118.647 93.1059 118.972 92.8078C119.298 92.496 119.514 92.0488 119.609 91.466H120.775ZM123.189 84.364V88.0099C123.704 87.2373 124.463 86.8443 125.479 86.8443C127.052 86.8443 127.838 87.6439 127.838 89.2297V94.014H126.686V89.5007C126.686 88.9722 126.564 88.5656 126.347 88.2809C126.13 87.9963 125.723 87.8472 125.154 87.8472C124.449 87.8472 123.934 88.0776 123.636 88.5249C123.338 88.9857 123.189 89.6227 123.189 90.463V94.014H122.037V84.364H123.189ZM130.652 87.0205L130.639 88.0505C130.95 87.6304 131.276 87.3322 131.628 87.1425C131.98 86.9527 132.414 86.8578 132.916 86.8578C133.878 86.8578 134.529 87.2509 134.867 88.0641C135.464 87.2509 136.236 86.8443 137.185 86.8443C137.903 86.8443 138.445 87.034 138.825 87.4406C139.204 87.8472 139.394 88.4029 139.394 89.1348V94.0276H138.242V89.6227C138.242 89.0399 138.147 88.6062 137.971 88.308C137.781 88.0099 137.415 87.8743 136.846 87.8743C135.653 87.8743 135.057 88.5927 135.057 90.0564V94.0276H133.905V89.5414C133.905 88.9993 133.81 88.5927 133.634 88.308C133.458 88.0234 133.119 87.8879 132.618 87.8879C131.899 87.8879 131.398 88.1047 131.127 88.5385C130.856 88.9722 130.72 89.5685 130.72 90.3139V94.014H129.568V87.0205H130.652ZM147.1 91.8048C146.747 93.4312 145.731 94.2444 144.05 94.2444C143.02 94.2444 142.207 93.9327 141.624 93.2821C141.041 92.6451 140.757 91.7506 140.757 90.6121C140.757 89.4872 141.055 88.5791 141.651 87.8743C142.248 87.1696 143.034 86.8172 144.01 86.8172C145.08 86.8172 145.88 87.1831 146.395 87.915C146.91 88.6469 147.181 89.555 147.181 90.6663V90.829H141.922L141.909 90.9103C141.909 91.6557 142.099 92.2385 142.492 92.6587C142.871 93.0924 143.413 93.2957 144.091 93.2957C144.592 93.2957 144.985 93.1872 145.284 92.9433C145.582 92.7129 145.812 92.3334 145.975 91.8048H147.1ZM145.988 89.8938C145.934 89.2297 145.731 88.7146 145.379 88.3352C145.026 87.9557 144.552 87.7659 143.983 87.7659C143.413 87.7659 142.952 87.9557 142.587 88.3352C142.207 88.7146 141.99 89.2432 141.922 89.8938H145.988ZM149.487 87.0205V88.1047C150.056 87.2644 150.856 86.8307 151.872 86.8307C152.685 86.8307 153.282 87.0476 153.648 87.4813C154.013 87.915 154.203 88.5385 154.203 89.3652V94.014H153.051V89.8938C153.051 89.555 153.038 89.2839 153.011 89.0941C152.983 88.9044 152.929 88.6875 152.848 88.4707C152.753 88.2538 152.604 88.0912 152.387 87.9828C152.17 87.8879 151.886 87.8337 151.547 87.8337C150.219 87.8337 149.554 88.674 149.554 90.3546V94.014H148.402V87.0205H149.487ZM158.929 87.0205V87.9692H157.533V92.0488C157.533 92.2792 157.533 92.4283 157.533 92.496C157.533 92.5773 157.56 92.6722 157.614 92.7942C157.655 92.9162 157.736 92.9975 157.845 93.0246C157.953 93.0653 158.102 93.0788 158.305 93.0788C158.468 93.0788 158.685 93.0653 158.929 93.0382V94.0276C158.603 94.0682 158.305 94.0818 158.048 94.0818C157.723 94.0818 157.451 94.0547 157.235 93.9733C157.018 93.9056 156.842 93.8243 156.733 93.7294C156.625 93.6481 156.543 93.4854 156.489 93.255C156.435 93.0246 156.394 92.8349 156.394 92.6722C156.381 92.5096 156.381 92.2521 156.381 91.8726V91.8184V91.7506V91.6828V87.9692H155.202V87.0205H156.381V84.9468H157.533V87.0205H158.929ZM165.4 89.0535H164.248C164.166 88.2132 163.597 87.7795 162.54 87.7795C162.093 87.7795 161.74 87.8743 161.496 88.037C161.239 88.2132 161.117 88.4436 161.117 88.7282C161.117 88.8095 161.117 88.8908 161.144 88.9722C161.157 89.0535 161.184 89.1212 161.239 89.1755C161.293 89.2297 161.334 89.2839 161.374 89.3245C161.415 89.3788 161.483 89.4194 161.577 89.4601C161.672 89.5007 161.74 89.5278 161.794 89.555C161.849 89.5821 161.93 89.6227 162.065 89.6498C162.201 89.6769 162.296 89.704 162.35 89.7176C162.404 89.7311 162.499 89.7583 162.662 89.7854C162.824 89.826 162.919 89.8531 162.973 89.8531C163.299 89.9344 163.556 89.9887 163.719 90.0293C163.882 90.0835 164.112 90.1649 164.41 90.2868C164.708 90.4088 164.925 90.5308 165.088 90.6663C165.237 90.8019 165.372 90.9781 165.494 91.2085C165.616 91.4389 165.684 91.6964 165.684 91.981C165.684 92.6587 165.413 93.2144 164.885 93.621C164.356 94.0276 163.651 94.2309 162.784 94.2309C161.835 94.2309 161.103 94.0276 160.588 93.6074C160.073 93.2008 159.802 92.5909 159.775 91.8048H160.913C160.968 92.7942 161.605 93.2821 162.811 93.2821C163.326 93.2821 163.732 93.1872 164.044 92.9704C164.356 92.7535 164.519 92.4689 164.519 92.1165C164.519 91.8861 164.437 91.6964 164.275 91.5337C164.112 91.3847 163.922 91.2762 163.732 91.2085C163.529 91.1407 163.245 91.0594 162.879 90.9645C162.824 90.9645 162.784 90.9509 162.757 90.9374C162.675 90.9238 162.499 90.8832 162.228 90.829C161.957 90.7748 161.767 90.7205 161.659 90.6799C161.537 90.6528 161.361 90.5986 161.144 90.5172C160.927 90.4359 160.764 90.3546 160.656 90.2733C160.547 90.192 160.425 90.0835 160.29 89.948C160.154 89.8125 160.073 89.6634 160.019 89.4872C159.965 89.311 159.938 89.1077 159.938 88.8773C159.938 88.2538 160.168 87.7524 160.656 87.3729C161.144 87.0069 161.794 86.8172 162.608 86.8172C163.421 86.8172 164.098 87.0205 164.613 87.4C165.128 87.793 165.4 88.3487 165.4 89.0535Z" fill="#D7D7D7"/>
<g clip-path="url(#clip3_4740_8453)">
<path d="M262.453 126.343H407.869L400.091 148.932H262.453V126.343Z" fill="#006756"/>
<path d="M284.253 134.22L286.713 140.52H285.784L285.085 138.591H282.44L281.723 140.52H280.838L283.315 134.22H284.253ZM284.837 137.927L283.767 135.017L282.678 137.927H284.837ZM291.14 138.856C291.07 139.405 290.866 139.847 290.512 140.166C290.158 140.493 289.707 140.652 289.141 140.652C288.451 140.652 287.92 140.44 287.539 140.015C287.168 139.591 286.973 139.016 286.973 138.299C286.973 137.538 287.177 136.936 287.566 136.494C287.964 136.052 288.495 135.822 289.167 135.822C289.734 135.822 290.176 135.963 290.512 136.246C290.848 136.529 291.052 136.928 291.105 137.45H290.326C290.194 136.786 289.813 136.459 289.185 136.459C288.743 136.459 288.398 136.618 288.15 136.936C287.893 137.255 287.769 137.697 287.769 138.246C287.769 138.794 287.884 139.237 288.132 139.555C288.371 139.874 288.707 140.033 289.132 140.033C289.468 140.033 289.751 139.927 289.964 139.732C290.176 139.529 290.317 139.237 290.379 138.856H291.14ZM293.919 135.954V136.574H293.008V139.237C293.008 139.387 293.008 139.484 293.008 139.529C293.008 139.582 293.026 139.644 293.061 139.723C293.088 139.803 293.141 139.856 293.212 139.874C293.282 139.9 293.38 139.909 293.512 139.909C293.619 139.909 293.76 139.9 293.919 139.883V140.528C293.707 140.555 293.512 140.564 293.344 140.564C293.132 140.564 292.955 140.546 292.813 140.493C292.672 140.449 292.557 140.396 292.486 140.334C292.415 140.281 292.362 140.175 292.327 140.024C292.291 139.874 292.265 139.75 292.265 139.644C292.256 139.538 292.256 139.369 292.256 139.122V139.086V139.042V138.998V136.574H291.486V135.954H292.256V134.601H293.008V135.954H293.919ZM295.551 134.22V135.14H294.79V134.22H295.551ZM295.551 135.954V140.52H294.79V135.954H295.551ZM296.274 135.954H297.114L298.406 139.785L299.662 135.954H300.45L298.777 140.52H297.972L296.274 135.954ZM305.041 139.078C304.811 140.139 304.148 140.67 303.051 140.67C302.378 140.67 301.847 140.467 301.467 140.042C301.087 139.626 300.901 139.042 300.901 138.299C300.901 137.565 301.095 136.972 301.485 136.512C301.874 136.052 302.387 135.822 303.024 135.822C303.723 135.822 304.245 136.061 304.581 136.538C304.918 137.016 305.094 137.609 305.094 138.334V138.441H301.662L301.653 138.494C301.653 138.98 301.777 139.361 302.033 139.635C302.281 139.918 302.635 140.051 303.077 140.051C303.405 140.051 303.661 139.98 303.856 139.821C304.05 139.67 304.201 139.423 304.307 139.078H305.041ZM304.316 137.83C304.281 137.397 304.148 137.06 303.918 136.813C303.688 136.565 303.378 136.441 303.006 136.441C302.635 136.441 302.334 136.565 302.095 136.813C301.847 137.06 301.706 137.405 301.662 137.83H304.316Z" fill="#D7D7D7"/>
</g>
<rect x="262.688" y="126.578" width="60.2371" height="22.1183" rx="11.0591" stroke="#64FBAA" stroke-width="0.470602"/>
<g clip-path="url(#clip4_4740_8453)">
<path d="M262.453 162.485H407.869L400.091 185.074H262.453V162.485Z" fill="#2C2C2C"/>
<path d="M279.355 170.363V176.662H278.523V170.363H279.355ZM281.352 172.097V172.805C281.724 172.256 282.246 171.973 282.91 171.973C283.44 171.973 283.83 172.115 284.068 172.398C284.307 172.681 284.431 173.088 284.431 173.628V176.662H283.679V173.973C283.679 173.751 283.67 173.574 283.653 173.451C283.635 173.327 283.6 173.185 283.547 173.044C283.485 172.902 283.387 172.796 283.246 172.725C283.104 172.663 282.918 172.628 282.697 172.628C281.83 172.628 281.397 173.176 281.397 174.273V176.662H280.645V172.097H281.352ZM289.604 176.061V176.653C289.445 176.706 289.277 176.742 289.091 176.742C288.657 176.742 288.436 176.512 288.427 176.069C287.994 176.547 287.445 176.795 286.773 176.795C286.322 176.795 285.968 176.68 285.702 176.45C285.437 176.22 285.313 175.901 285.313 175.503C285.313 174.689 285.853 174.211 286.932 174.079C287.003 174.061 287.1 174.052 287.242 174.043C287.755 173.981 288.065 173.911 288.188 173.84C288.321 173.743 288.392 173.583 288.392 173.353C288.392 172.849 288.047 172.601 287.357 172.601C287.003 172.601 286.729 172.672 286.552 172.814C286.366 172.955 286.26 173.194 286.224 173.53H285.49C285.499 173.035 285.676 172.654 286.012 172.389C286.348 172.115 286.808 171.982 287.401 171.982C288.038 171.982 288.516 172.123 288.834 172.424C288.932 172.513 289.002 172.637 289.055 172.796C289.1 172.946 289.126 173.07 289.135 173.167C289.135 173.265 289.144 173.415 289.144 173.61C289.144 173.831 289.135 174.167 289.126 174.618C289.109 175.078 289.109 175.415 289.109 175.636C289.109 175.804 289.126 175.919 289.17 175.99C289.215 176.061 289.294 176.087 289.418 176.087C289.462 176.087 289.524 176.078 289.604 176.061ZM288.392 174.3C288.339 174.335 288.277 174.371 288.224 174.406C288.162 174.433 288.082 174.459 287.994 174.477C287.905 174.495 287.843 174.503 287.808 174.512C287.773 174.521 287.702 174.53 287.578 174.548C287.454 174.565 287.383 174.574 287.383 174.574C287.197 174.592 287.074 174.61 287.021 174.618C286.967 174.627 286.861 174.654 286.702 174.698C286.543 174.733 286.437 174.787 286.375 174.84C286.304 174.893 286.242 174.963 286.18 175.07C286.118 175.176 286.092 175.3 286.092 175.441C286.092 175.671 286.171 175.857 286.33 175.999C286.49 176.131 286.72 176.202 287.003 176.202C287.357 176.202 287.684 176.096 287.967 175.884C288.25 175.671 288.392 175.415 288.392 175.132V174.3ZM294.241 174.999C294.17 175.547 293.967 175.99 293.613 176.308C293.259 176.636 292.808 176.795 292.241 176.795C291.551 176.795 291.02 176.583 290.64 176.158C290.268 175.733 290.074 175.158 290.074 174.441C290.074 173.681 290.277 173.079 290.667 172.637C291.065 172.194 291.596 171.964 292.268 171.964C292.834 171.964 293.277 172.106 293.613 172.389C293.949 172.672 294.152 173.07 294.206 173.592H293.427C293.294 172.929 292.914 172.601 292.286 172.601C291.843 172.601 291.498 172.76 291.251 173.079C290.994 173.397 290.87 173.84 290.87 174.388C290.87 174.937 290.985 175.379 291.233 175.698C291.472 176.016 291.808 176.176 292.233 176.176C292.569 176.176 292.852 176.069 293.064 175.875C293.277 175.671 293.418 175.379 293.48 174.999H294.241ZM297.02 172.097V172.716H296.109V175.379C296.109 175.53 296.109 175.627 296.109 175.671C296.109 175.724 296.126 175.786 296.162 175.866C296.188 175.946 296.241 175.999 296.312 176.016C296.383 176.043 296.48 176.052 296.613 176.052C296.719 176.052 296.861 176.043 297.02 176.025V176.671C296.808 176.698 296.613 176.706 296.445 176.706C296.233 176.706 296.056 176.689 295.914 176.636C295.772 176.591 295.657 176.538 295.587 176.476C295.516 176.423 295.463 176.317 295.427 176.167C295.392 176.016 295.365 175.892 295.365 175.786C295.357 175.68 295.357 175.512 295.357 175.264V175.229V175.185V175.14V172.716H294.587V172.097H295.357V170.743H296.109V172.097H297.02ZM298.652 170.363V171.283H297.891V170.363H298.652ZM298.652 172.097V176.662H297.891V172.097H298.652ZM299.374 172.097H300.215L301.507 175.928L302.763 172.097H303.55L301.878 176.662H301.073L299.374 172.097ZM308.142 175.22C307.912 176.282 307.248 176.813 306.151 176.813C305.479 176.813 304.948 176.609 304.568 176.184C304.187 175.769 304.001 175.185 304.001 174.441C304.001 173.707 304.196 173.114 304.585 172.654C304.975 172.194 305.488 171.964 306.125 171.964C306.824 171.964 307.346 172.203 307.682 172.681C308.018 173.159 308.195 173.751 308.195 174.477V174.583H304.762L304.753 174.636C304.753 175.123 304.877 175.503 305.134 175.777C305.382 176.061 305.736 176.193 306.178 176.193C306.505 176.193 306.762 176.122 306.956 175.963C307.151 175.813 307.301 175.565 307.408 175.22H308.142ZM307.417 173.973C307.381 173.539 307.248 173.203 307.018 172.955C306.788 172.707 306.479 172.584 306.107 172.584C305.736 172.584 305.435 172.707 305.196 172.955C304.948 173.203 304.807 173.548 304.762 173.973H307.417Z" fill="#D7D7D7"/>
</g>
<rect x="262.688" y="162.721" width="60.2371" height="22.1183" rx="11.0591" stroke="#454545" stroke-width="0.470602"/>
<g clip-path="url(#clip5_4740_8453)">
<path d="M262.453 197.122H407.869L400.091 219.711H262.453V197.122Z" fill="#006756"/>
<path d="M284.253 204.999L286.713 211.298H285.784L285.085 209.37H282.44L281.723 211.298H280.838L283.315 204.999H284.253ZM284.837 208.706L283.767 205.795L282.678 208.706H284.837ZM291.14 209.635C291.07 210.184 290.866 210.626 290.512 210.945C290.158 211.272 289.707 211.431 289.141 211.431C288.451 211.431 287.92 211.219 287.539 210.794C287.168 210.37 286.973 209.794 286.973 209.078C286.973 208.317 287.177 207.715 287.566 207.273C287.964 206.831 288.495 206.601 289.167 206.601C289.734 206.601 290.176 206.742 290.512 207.025C290.848 207.308 291.052 207.706 291.105 208.228H290.326C290.194 207.565 289.813 207.238 289.185 207.238C288.743 207.238 288.398 207.397 288.15 207.715C287.893 208.034 287.769 208.476 287.769 209.025C287.769 209.573 287.884 210.016 288.132 210.334C288.371 210.653 288.707 210.812 289.132 210.812C289.468 210.812 289.751 210.706 289.964 210.511C290.176 210.308 290.317 210.016 290.379 209.635H291.14ZM293.919 206.733V207.353H293.008V210.016C293.008 210.166 293.008 210.263 293.008 210.308C293.008 210.361 293.026 210.423 293.061 210.502C293.088 210.582 293.141 210.635 293.212 210.653C293.282 210.679 293.38 210.688 293.512 210.688C293.619 210.688 293.76 210.679 293.919 210.661V211.307C293.707 211.334 293.512 211.343 293.344 211.343C293.132 211.343 292.955 211.325 292.813 211.272C292.672 211.228 292.557 211.175 292.486 211.113C292.415 211.06 292.362 210.953 292.327 210.803C292.291 210.653 292.265 210.529 292.265 210.423C292.256 210.316 292.256 210.148 292.256 209.901V209.865V209.821V209.777V207.353H291.486V206.733H292.256V205.38H293.008V206.733H293.919ZM295.551 204.999V205.919H294.79V204.999H295.551ZM295.551 206.733V211.298H294.79V206.733H295.551ZM296.274 206.733H297.114L298.406 210.564L299.662 206.733H300.45L298.777 211.298H297.972L296.274 206.733ZM305.041 209.856C304.811 210.918 304.148 211.449 303.051 211.449C302.378 211.449 301.847 211.245 301.467 210.821C301.087 210.405 300.901 209.821 300.901 209.078C300.901 208.343 301.095 207.751 301.485 207.291C301.874 206.831 302.387 206.601 303.024 206.601C303.723 206.601 304.245 206.839 304.581 207.317C304.918 207.795 305.094 208.388 305.094 209.113V209.219H301.662L301.653 209.272C301.653 209.759 301.777 210.139 302.033 210.414C302.281 210.697 302.635 210.83 303.077 210.83C303.405 210.83 303.661 210.759 303.856 210.6C304.05 210.449 304.201 210.201 304.307 209.856H305.041ZM304.316 208.609C304.281 208.175 304.148 207.839 303.918 207.591C303.688 207.344 303.378 207.22 303.006 207.22C302.635 207.22 302.334 207.344 302.095 207.591C301.847 207.839 301.706 208.184 301.662 208.609H304.316Z" fill="#D7D7D7"/>
</g>
<rect x="262.688" y="197.357" width="60.2371" height="22.1183" rx="11.0591" stroke="#64FBAA" stroke-width="0.470602"/>
<g clip-path="url(#clip6_4740_8453)">
<path d="M262.453 231.758H407.869L400.091 254.347H262.453V231.758Z" fill="#2C2C2C"/>
<path d="M279.355 239.635V245.935H278.523V239.635H279.355ZM281.352 241.369V242.077C281.724 241.529 282.246 241.245 282.91 241.245C283.44 241.245 283.83 241.387 284.068 241.67C284.307 241.953 284.431 242.36 284.431 242.9V245.935H283.679V243.245C283.679 243.024 283.67 242.847 283.653 242.723C283.635 242.599 283.6 242.458 283.547 242.316C283.485 242.174 283.387 242.068 283.246 241.997C283.104 241.936 282.918 241.9 282.697 241.9C281.83 241.9 281.397 242.449 281.397 243.546V245.935H280.645V241.369H281.352ZM289.604 245.333V245.926C289.445 245.979 289.277 246.014 289.091 246.014C288.657 246.014 288.436 245.784 288.427 245.342C287.994 245.819 287.445 246.067 286.773 246.067C286.322 246.067 285.968 245.952 285.702 245.722C285.437 245.492 285.313 245.174 285.313 244.776C285.313 243.962 285.853 243.484 286.932 243.351C287.003 243.333 287.1 243.325 287.242 243.316C287.755 243.254 288.065 243.183 288.188 243.112C288.321 243.015 288.392 242.856 288.392 242.626C288.392 242.121 288.047 241.874 287.357 241.874C287.003 241.874 286.729 241.944 286.552 242.086C286.366 242.227 286.26 242.466 286.224 242.803H285.49C285.499 242.307 285.676 241.927 286.012 241.661C286.348 241.387 286.808 241.254 287.401 241.254C288.038 241.254 288.516 241.396 288.834 241.697C288.932 241.785 289.002 241.909 289.055 242.068C289.1 242.219 289.126 242.342 289.135 242.44C289.135 242.537 289.144 242.688 289.144 242.882C289.144 243.103 289.135 243.44 289.126 243.891C289.109 244.351 289.109 244.687 289.109 244.908C289.109 245.076 289.126 245.191 289.17 245.262C289.215 245.333 289.294 245.359 289.418 245.359C289.462 245.359 289.524 245.351 289.604 245.333ZM288.392 243.572C288.339 243.608 288.277 243.643 288.224 243.678C288.162 243.705 288.082 243.732 287.994 243.749C287.905 243.767 287.843 243.776 287.808 243.785C287.773 243.793 287.702 243.802 287.578 243.82C287.454 243.838 287.383 243.847 287.383 243.847C287.197 243.864 287.074 243.882 287.021 243.891C286.967 243.9 286.861 243.926 286.702 243.97C286.543 244.006 286.437 244.059 286.375 244.112C286.304 244.165 286.242 244.236 286.18 244.342C286.118 244.448 286.092 244.572 286.092 244.714C286.092 244.944 286.171 245.129 286.33 245.271C286.49 245.404 286.72 245.474 287.003 245.474C287.357 245.474 287.684 245.368 287.967 245.156C288.25 244.944 288.392 244.687 288.392 244.404V243.572ZM294.241 244.271C294.17 244.82 293.967 245.262 293.613 245.581C293.259 245.908 292.808 246.067 292.241 246.067C291.551 246.067 291.02 245.855 290.64 245.43C290.268 245.006 290.074 244.43 290.074 243.714C290.074 242.953 290.277 242.351 290.667 241.909C291.065 241.467 291.596 241.237 292.268 241.237C292.834 241.237 293.277 241.378 293.613 241.661C293.949 241.944 294.152 242.342 294.206 242.864H293.427C293.294 242.201 292.914 241.874 292.286 241.874C291.843 241.874 291.498 242.033 291.251 242.351C290.994 242.67 290.87 243.112 290.87 243.661C290.87 244.209 290.985 244.652 291.233 244.97C291.472 245.289 291.808 245.448 292.233 245.448C292.569 245.448 292.852 245.342 293.064 245.147C293.277 244.944 293.418 244.652 293.48 244.271H294.241ZM297.02 241.369V241.989H296.109V244.652C296.109 244.802 296.109 244.899 296.109 244.944C296.109 244.997 296.126 245.059 296.162 245.138C296.188 245.218 296.241 245.271 296.312 245.289C296.383 245.315 296.48 245.324 296.613 245.324C296.719 245.324 296.861 245.315 297.02 245.298V245.943C296.808 245.97 296.613 245.979 296.445 245.979C296.233 245.979 296.056 245.961 295.914 245.908C295.772 245.864 295.657 245.811 295.587 245.749C295.516 245.696 295.463 245.589 295.427 245.439C295.392 245.289 295.365 245.165 295.365 245.059C295.357 244.952 295.357 244.784 295.357 244.537V244.501V244.457V244.413V241.989H294.587V241.369H295.357V240.016H296.109V241.369H297.02ZM298.652 239.635V240.555H297.891V239.635H298.652ZM298.652 241.369V245.935H297.891V241.369H298.652ZM299.374 241.369H300.215L301.507 245.2L302.763 241.369H303.55L301.878 245.935H301.073L299.374 241.369ZM308.142 244.492C307.912 245.554 307.248 246.085 306.151 246.085C305.479 246.085 304.948 245.881 304.568 245.457C304.187 245.041 304.001 244.457 304.001 243.714C304.001 242.98 304.196 242.387 304.585 241.927C304.975 241.467 305.488 241.237 306.125 241.237C306.824 241.237 307.346 241.475 307.682 241.953C308.018 242.431 308.195 243.024 308.195 243.749V243.855H304.762L304.753 243.908C304.753 244.395 304.877 244.776 305.134 245.05C305.382 245.333 305.736 245.466 306.178 245.466C306.505 245.466 306.762 245.395 306.956 245.236C307.151 245.085 307.301 244.837 307.408 244.492H308.142ZM307.417 243.245C307.381 242.811 307.248 242.475 307.018 242.227C306.788 241.98 306.479 241.856 306.107 241.856C305.736 241.856 305.435 241.98 305.196 242.227C304.948 242.475 304.807 242.82 304.762 243.245H307.417Z" fill="#D7D7D7"/>
</g>
<rect x="262.688" y="231.993" width="60.2371" height="22.1183" rx="11.0591" stroke="#454545" stroke-width="0.470602"/>
<g clip-path="url(#clip7_4740_8453)">
<path d="M262.453 266.394H407.869L400.091 288.983H262.453V266.394Z" fill="#2C2C2C"/>
<path d="M279.355 274.272V280.571H278.523V274.272H279.355ZM281.352 276.006V276.713C281.724 276.165 282.246 275.882 282.91 275.882C283.44 275.882 283.83 276.023 284.068 276.306C284.307 276.59 284.431 276.997 284.431 277.536V280.571H283.679V277.881C283.679 277.66 283.67 277.483 283.653 277.359C283.635 277.235 283.6 277.094 283.547 276.952C283.485 276.811 283.387 276.705 283.246 276.634C283.104 276.572 282.918 276.537 282.697 276.537C281.83 276.537 281.397 277.085 281.397 278.182V280.571H280.645V276.006H281.352ZM289.604 279.969V280.562C289.445 280.615 289.277 280.651 289.091 280.651C288.657 280.651 288.436 280.42 288.427 279.978C287.994 280.456 287.445 280.704 286.773 280.704C286.322 280.704 285.968 280.589 285.702 280.359C285.437 280.129 285.313 279.81 285.313 279.412C285.313 278.598 285.853 278.12 286.932 277.987C287.003 277.97 287.1 277.961 287.242 277.952C287.755 277.89 288.065 277.819 288.188 277.749C288.321 277.651 288.392 277.492 288.392 277.262C288.392 276.758 288.047 276.51 287.357 276.51C287.003 276.51 286.729 276.581 286.552 276.722C286.366 276.864 286.26 277.103 286.224 277.439H285.49C285.499 276.943 285.676 276.563 286.012 276.298C286.348 276.023 286.808 275.891 287.401 275.891C288.038 275.891 288.516 276.032 288.834 276.333C288.932 276.421 289.002 276.545 289.055 276.705C289.1 276.855 289.126 276.979 289.135 277.076C289.135 277.174 289.144 277.324 289.144 277.519C289.144 277.74 289.135 278.076 289.126 278.527C289.109 278.987 289.109 279.323 289.109 279.545C289.109 279.713 289.126 279.828 289.17 279.898C289.215 279.969 289.294 279.996 289.418 279.996C289.462 279.996 289.524 279.987 289.604 279.969ZM288.392 278.209C288.339 278.244 288.277 278.279 288.224 278.315C288.162 278.341 288.082 278.368 287.994 278.386C287.905 278.403 287.843 278.412 287.808 278.421C287.773 278.43 287.702 278.439 287.578 278.456C287.454 278.474 287.383 278.483 287.383 278.483C287.197 278.501 287.074 278.518 287.021 278.527C286.967 278.536 286.861 278.563 286.702 278.607C286.543 278.642 286.437 278.695 286.375 278.748C286.304 278.801 286.242 278.872 286.18 278.978C286.118 279.085 286.092 279.208 286.092 279.35C286.092 279.58 286.171 279.766 286.33 279.907C286.49 280.04 286.72 280.111 287.003 280.111C287.357 280.111 287.684 280.005 287.967 279.792C288.25 279.58 288.392 279.323 288.392 279.04V278.209ZM294.241 278.908C294.17 279.456 293.967 279.898 293.613 280.217C293.259 280.544 292.808 280.704 292.241 280.704C291.551 280.704 291.02 280.491 290.64 280.067C290.268 279.642 290.074 279.067 290.074 278.35C290.074 277.589 290.277 276.988 290.667 276.545C291.065 276.103 291.596 275.873 292.268 275.873C292.834 275.873 293.277 276.015 293.613 276.298C293.949 276.581 294.152 276.979 294.206 277.501H293.427C293.294 276.837 292.914 276.51 292.286 276.51C291.843 276.51 291.498 276.669 291.251 276.988C290.994 277.306 290.87 277.749 290.87 278.297C290.87 278.846 290.985 279.288 291.233 279.607C291.472 279.925 291.808 280.084 292.233 280.084C292.569 280.084 292.852 279.978 293.064 279.783C293.277 279.58 293.418 279.288 293.48 278.908H294.241ZM297.02 276.006V276.625H296.109V279.288C296.109 279.438 296.109 279.536 296.109 279.58C296.109 279.633 296.126 279.695 296.162 279.775C296.188 279.854 296.241 279.907 296.312 279.925C296.383 279.952 296.48 279.96 296.613 279.96C296.719 279.96 296.861 279.952 297.02 279.934V280.58C296.808 280.606 296.613 280.615 296.445 280.615C296.233 280.615 296.056 280.597 295.914 280.544C295.772 280.5 295.657 280.447 295.587 280.385C295.516 280.332 295.463 280.226 295.427 280.075C295.392 279.925 295.365 279.801 295.365 279.695C295.357 279.589 295.357 279.421 295.357 279.173V279.138V279.093V279.049V276.625H294.587V276.006H295.357V274.652H296.109V276.006H297.02ZM298.652 274.272V275.192H297.891V274.272H298.652ZM298.652 276.006V280.571H297.891V276.006H298.652ZM299.374 276.006H300.215L301.507 279.837L302.763 276.006H303.55L301.878 280.571H301.073L299.374 276.006ZM308.142 279.129C307.912 280.19 307.248 280.721 306.151 280.721C305.479 280.721 304.948 280.518 304.568 280.093C304.187 279.677 304.001 279.093 304.001 278.35C304.001 277.616 304.196 277.023 304.585 276.563C304.975 276.103 305.488 275.873 306.125 275.873C306.824 275.873 307.346 276.112 307.682 276.59C308.018 277.067 308.195 277.66 308.195 278.386V278.492H304.762L304.753 278.545C304.753 279.031 304.877 279.412 305.134 279.686C305.382 279.969 305.736 280.102 306.178 280.102C306.505 280.102 306.762 280.031 306.956 279.872C307.151 279.722 307.301 279.474 307.408 279.129H308.142ZM307.417 277.881C307.381 277.448 307.248 277.112 307.018 276.864C306.788 276.616 306.479 276.492 306.107 276.492C305.736 276.492 305.435 276.616 305.196 276.864C304.948 277.112 304.807 277.457 304.762 277.881H307.417Z" fill="#D7D7D7"/>
</g>
<rect x="262.688" y="266.63" width="60.2371" height="22.1183" rx="11.0591" stroke="#454545" stroke-width="0.470602"/>
</g>
</g>
<defs>
<filter id="filter0_ddi_4740_8453" x="0.157874" y="0" width="382.282" height="438.002" filterUnits="userSpaceOnUse" color-interpolation-filters="sRGB">
<feFlood flood-opacity="0" result="BackgroundImageFix"/>
<feColorMatrix in="SourceAlpha" type="matrix" values="0 0 0 0 0 0 0 0 0 0 0 0 0 0 0 0 0 0 127 0" result="hardAlpha"/>
<feMorphology radius="4.96053" operator="erode" in="SourceAlpha" result="effect1_dropShadow_4740_8453"/>
<feOffset dy="9.92106"/>
<feGaussianBlur stdDeviation="4.96053"/>
<feComposite in2="hardAlpha" operator="out"/>
<feColorMatrix type="matrix" values="0 0 0 0 0 0 0 0 0 0 0 0 0 0 0 0 0 0 0.9 0"/>
<feBlend mode="normal" in2="BackgroundImageFix" result="effect1_dropShadow_4740_8453"/>
<feColorMatrix in="SourceAlpha" type="matrix" values="0 0 0 0 0 0 0 0 0 0 0 0 0 0 0 0 0 0 127 0" result="hardAlpha"/>
<feMorphology radius="4.96053" operator="erode" in="SourceAlpha" result="effect2_dropShadow_4740_8453"/>
<feOffset dy="19.8421"/>
<feGaussianBlur stdDeviation="12.4013"/>
<feComposite in2="hardAlpha" operator="out"/>
<feColorMatrix type="matrix" values="0 0 0 0 0 0 0 0 0 0 0 0 0 0 0 0 0 0 0.8 0"/>
<feBlend mode="normal" in2="effect1_dropShadow_4740_8453" result="effect2_dropShadow_4740_8453"/>
<feBlend mode="normal" in="SourceGraphic" in2="effect2_dropShadow_4740_8453" result="shape"/>
<feColorMatrix in="SourceAlpha" type="matrix" values="0 0 0 0 0 0 0 0 0 0 0 0 0 0 0 0 0 0 127 0" result="hardAlpha"/>
<feOffset dy="0.992106"/>
<feGaussianBlur stdDeviation="0.992106"/>
<feComposite in2="hardAlpha" operator="arithmetic" k2="-1" k3="1"/>
<feColorMatrix type="matrix" values="0 0 0 0 0.321569 0 0 0 0 0.317647 0 0 0 0 0.329412 0 0 0 1 0"/>
<feBlend mode="normal" in2="shape" result="effect3_innerShadow_4740_8453"/>
</filter>
<linearGradient id="paint0_linear_4740_8453" x1="191.299" y1="0" x2="191.299" y2="398.318" gradientUnits="userSpaceOnUse">
<stop stop-color="#1F1F1F"/>
<stop offset="0.69" stop-color="#111111"/>
</linearGradient>
<linearGradient id="paint1_linear_4740_8453" x1="180.756" y1="133.12" x2="180.756" y2="145.167" gradientUnits="userSpaceOnUse">
<stop stop-color="white"/>
<stop offset="0.69" stop-color="#999999"/>
</linearGradient>
<linearGradient id="paint2_linear_4740_8453" x1="159.297" y1="167.756" x2="159.297" y2="179.803" gradientUnits="userSpaceOnUse">
<stop stop-color="white"/>
<stop offset="0.69" stop-color="#999999"/>
</linearGradient>
<linearGradient id="paint3_linear_4740_8453" x1="173.603" y1="202.392" x2="173.603" y2="214.44" gradientUnits="userSpaceOnUse">
<stop stop-color="white"/>
<stop offset="0.69" stop-color="#999999"/>
</linearGradient>
<linearGradient id="paint4_linear_4740_8453" x1="173.603" y1="237.029" x2="173.603" y2="249.076" gradientUnits="userSpaceOnUse">
<stop stop-color="white"/>
<stop offset="0.69" stop-color="#999999"/>
</linearGradient>
<linearGradient id="paint5_linear_4740_8453" x1="180.756" y1="271.665" x2="180.756" y2="283.713" gradientUnits="userSpaceOnUse">
<stop stop-color="white"/>
<stop offset="0.69" stop-color="#999999"/>
</linearGradient>
<linearGradient id="paint6_linear_4740_8453" x1="79.8588" y1="126.343" x2="79.8588" y2="151.944" gradientUnits="userSpaceOnUse">
<stop stop-color="white"/>
<stop offset="0.69" stop-color="#999999"/>
</linearGradient>
<linearGradient id="paint7_linear_4740_8453" x1="73.4586" y1="160.979" x2="73.4586" y2="186.58" gradientUnits="userSpaceOnUse">
<stop stop-color="white"/>
<stop offset="0.69" stop-color="#999999"/>
</linearGradient>
<linearGradient id="paint8_linear_4740_8453" x1="73.4586" y1="195.616" x2="73.4586" y2="221.216" gradientUnits="userSpaceOnUse">
<stop stop-color="white"/>
<stop offset="0.69" stop-color="#999999"/>
</linearGradient>
<linearGradient id="paint9_linear_4740_8453" x1="79.8588" y1="230.252" x2="79.8588" y2="255.853" gradientUnits="userSpaceOnUse">
<stop stop-color="white"/>
<stop offset="0.69" stop-color="#999999"/>
</linearGradient>
<linearGradient id="paint10_linear_4740_8453" x1="73.4586" y1="264.888" x2="73.4586" y2="290.489" gradientUnits="userSpaceOnUse">
<stop stop-color="white"/>
<stop offset="0.69" stop-color="#999999"/>
</linearGradient>
<clipPath id="clip0_4740_8453">
<rect x="20" width="342.598" height="398.318" rx="20.2534" fill="white"/>
</clipPath>
<clipPath id="clip1_4740_8453">
<rect x="55.3887" y="329.842" width="271.82" height="36.1422" rx="18.0711" fill="white"/>
</clipPath>
<clipPath id="clip2_4740_8453">
<rect width="18.0711" height="18.0711" fill="white" transform="translate(60.6582 81.9784)"/>
</clipPath>
<clipPath id="clip3_4740_8453">
<rect x="262.453" y="126.343" width="60.7077" height="22.5889" rx="11.2944" fill="white"/>
</clipPath>
<clipPath id="clip4_4740_8453">
<rect x="262.453" y="162.485" width="60.7077" height="22.5889" rx="11.2944" fill="white"/>
</clipPath>
<clipPath id="clip5_4740_8453">
<rect x="262.453" y="197.122" width="60.7077" height="22.5889" rx="11.2944" fill="white"/>
</clipPath>
<clipPath id="clip6_4740_8453">
<rect x="262.453" y="231.758" width="60.7077" height="22.5889" rx="11.2944" fill="white"/>
</clipPath>
<clipPath id="clip7_4740_8453">
<rect x="262.453" y="266.394" width="60.7077" height="22.5889" rx="11.2944" fill="white"/>
</clipPath>
</defs>
</svg>
