<svg width="14" height="15" viewBox="0 0 14 15" fill="none" xmlns="http://www.w3.org/2000/svg">
<g clip-path="url(#clip0_2585_7572)">
<path d="M7 0.5C5.61553 0.5 4.26216 0.910543 3.11101 1.67971C1.95987 2.44888 1.06266 3.54213 0.532846 4.82122C0.003033 6.1003 -0.13559 7.50777 0.134506 8.86563C0.404603 10.2235 1.07129 11.4708 2.05026 12.4497C3.02922 13.4287 4.2765 14.0954 5.63437 14.3655C6.99224 14.6356 8.39971 14.497 9.67879 13.9672C10.9579 13.4373 12.0511 12.5401 12.8203 11.389C13.5895 10.2378 14 8.88447 14 7.5C13.9978 5.64415 13.2597 3.86493 11.9474 2.55264C10.6351 1.24035 8.85586 0.502161 7 0.5ZM7 13.3333C5.84628 13.3333 4.71846 12.9912 3.75918 12.3502C2.79989 11.7093 2.05222 10.7982 1.61071 9.73232C1.16919 8.66642 1.05368 7.49353 1.27876 6.36197C1.50384 5.23042 2.05941 4.19102 2.87521 3.37521C3.69102 2.5594 4.73042 2.00383 5.86198 1.77875C6.99353 1.55367 8.16642 1.66919 9.23232 2.1107C10.2982 2.55221 11.2093 3.29989 11.8502 4.25917C12.4912 5.21846 12.8333 6.34628 12.8333 7.5C12.8316 9.04658 12.2165 10.5293 11.1229 11.6229C10.0293 12.7165 8.54658 13.3316 7 13.3333Z" fill="white"/>
<path d="M9.99484 9.7225L7.29167 7.24392V4.29167C7.29167 4.13696 7.23021 3.98858 7.12082 3.87919C7.01142 3.76979 6.86305 3.70833 6.70834 3.70833C6.55363 3.70833 6.40525 3.76979 6.29586 3.87919C6.18646 3.98858 6.125 4.13696 6.125 4.29167V7.5C6.12491 7.58094 6.14167 7.66102 6.17421 7.73513C6.20675 7.80925 6.25436 7.87578 6.314 7.9305L9.20675 10.5818C9.32145 10.6849 9.47203 10.739 9.62615 10.7323C9.78026 10.7257 9.92562 10.6588 10.031 10.5462C10.1353 10.4321 10.1901 10.2813 10.1834 10.1268C10.1766 9.97241 10.1088 9.82698 9.99484 9.7225Z" fill="white"/>
</g>
<defs>
<clipPath id="clip0_2585_7572">
<rect width="14" height="14" fill="white" transform="translate(0 0.5)"/>
</clipPath>
</defs>
</svg>
