<svg width="28" height="30" viewBox="0 0 28 30" fill="none" xmlns="http://www.w3.org/2000/svg">
<circle cx="8.06131" cy="14.6238" r="8.06131" fill="#6D96FF"/>
<path d="M8.0625 4.73085C8.0625 2.50478 9.86709 0.700195 12.0932 0.700195C14.3192 0.700195 16.1238 2.50478 16.1238 4.73085V11.6929L12.6978 20.7061L8.0625 22.6856V4.73085Z" fill="#F0537D"/>
<path d="M20.439 7.47919C22.3669 6.36616 24.832 7.02668 25.945 8.95452C27.058 10.8823 26.3975 13.3475 24.4697 14.4605L12.0938 21.6057C10.6227 22.3997 9.63007 22.6633 8.0631 22.6858L8.0631 14.6244L20.439 7.47919Z" fill="#FFD37C"/>
<path d="M8.0625 14.625L16.3022 19.3863C19.9676 21.5044 19.9648 26.7965 16.297 28.9107C12.6293 31.0249 8.04847 28.3749 8.05279 24.1414L8.0625 14.625Z" fill="#2EF2F2" fill-opacity="0.58"/>
</svg>
