<svg width="18" height="18" viewBox="0 0 18 18" fill="none" xmlns="http://www.w3.org/2000/svg">
<path d="M8.99827 0C7.24021 0 5.52163 0.521324 4.05986 1.49805C2.59809 2.47477 1.45878 3.86302 0.786005 5.48726C0.113226 7.11149 -0.0628032 8.89875 0.280176 10.623C0.623156 12.3473 1.46974 13.9311 2.71287 15.1743C3.95601 16.4174 5.53985 17.264 7.26413 17.607C8.9884 17.95 10.7757 17.7739 12.3999 17.1011C14.0241 16.4284 15.4124 15.2891 16.3891 13.8273C17.3658 12.3655 17.8872 10.6469 17.8872 8.88888C17.8872 7.72158 17.6572 6.5657 17.2105 5.48726C16.7638 4.40881 16.1091 3.4289 15.2837 2.60349C14.4582 1.77808 13.4783 1.12333 12.3999 0.676626C11.3214 0.229918 10.1656 0 8.99827 0V0ZM8.99827 1.77778C10.8247 1.77705 12.5803 2.48438 13.896 3.75111C12.5378 4.54773 11.0986 5.19733 9.60271 5.68889C8.85825 4.40606 8.00473 3.18972 7.0516 2.05333C7.68445 1.87111 8.3397 1.77836 8.99827 1.77778V1.77778ZM5.34493 2.8C6.27621 3.86534 7.11202 5.01049 7.84271 6.22222C6.09791 6.65547 4.30716 6.87633 2.50938 6.88L2.18938 6.88C2.69356 5.17301 3.81954 3.71716 5.34493 2.8V2.8ZM3.66493 13.6089C2.50827 12.31 1.87478 10.6281 1.88716 8.88888V8.63111L2.4916 8.63111C4.59593 8.61229 6.68839 8.31337 8.71382 7.74222C8.99827 8.28444 9.26493 8.84444 9.52271 9.42222C8.13737 9.91059 6.84716 10.6354 5.70938 11.5644L5.44271 11.7778C4.80904 12.3469 4.21506 12.9587 3.66493 13.6089V13.6089ZM8.99827 16C7.58146 16.0031 6.19666 15.5787 5.02493 14.7822C5.45768 14.2859 5.92079 13.8168 6.4116 13.3778L6.69604 13.1378C7.74774 12.2532 8.95291 11.5693 10.2516 11.12C10.7861 12.5653 11.2023 14.0517 11.496 15.5644C10.6959 15.8566 9.8501 16.0041 8.99827 16V16ZM13.1138 14.6755C12.823 13.3303 12.4429 12.0059 11.976 10.7111H12.2783C12.3133 10.7024 12.3499 10.7024 12.3849 10.7111L12.9983 10.7111C13.9337 10.7138 14.8621 10.873 15.7449 11.1822C15.2599 12.5959 14.3386 13.8191 13.1138 14.6755V14.6755ZM12.9983 8.88888L12.4472 8.88888C12.3321 8.87438 12.2156 8.87438 12.1005 8.88888C11.8589 8.90372 11.6184 8.93341 11.3805 8.97777L11.2916 8.97777C11.0338 8.38222 10.7672 7.80444 10.4738 7.2C12.0655 6.65338 13.5942 5.93821 15.0338 5.06666C15.748 6.21277 16.121 7.53853 16.1094 8.88888V9.34222C15.102 9.0313 14.0525 8.87838 12.9983 8.88888V8.88888Z" fill="white"/>
</svg>
