<svg width="306" height="413" viewBox="0 0 306 413" fill="none" xmlns="http://www.w3.org/2000/svg">
<g filter="url(#filter0_ddi_4497_28840)">
<g clip-path="url(#clip0_4497_28840)">
<rect x="19.2109" y="0.884277" width="267.789" height="374.763" rx="21.928" fill="url(#paint0_linear_4497_28840)"/>
<path d="M109.473 23.1134H111.071L113.077 30.3395L114.862 23.1134H116.444L118.297 30.3395L120.286 23.1134H121.782L118.977 31.8867H117.447L115.645 24.9497L113.859 31.8867H112.295L109.473 23.1134ZM130.655 29.1153C130.212 31.1556 128.937 32.1758 126.829 32.1758C125.537 32.1758 124.517 31.7847 123.786 30.9686C123.054 30.1695 122.697 29.0473 122.697 27.6191C122.697 26.2079 123.071 25.0687 123.82 24.1846C124.568 23.3005 125.554 22.8584 126.778 22.8584C128.121 22.8584 129.124 23.3175 129.77 24.2356C130.416 25.1537 130.757 26.2929 130.757 27.6871V27.8911H124.16L124.143 27.9932C124.143 28.9283 124.381 29.6594 124.874 30.1865C125.35 30.7306 126.03 30.9856 126.88 30.9856C127.509 30.9856 128.002 30.8496 128.376 30.5435C128.75 30.2545 129.039 29.7784 129.243 29.1153H130.655ZM129.26 26.718C129.192 25.8848 128.937 25.2388 128.495 24.7627C128.053 24.2866 127.458 24.0486 126.744 24.0486C126.03 24.0486 125.452 24.2866 124.993 24.7627C124.517 25.2388 124.245 25.9019 124.16 26.718H129.26ZM133.717 19.781V24.3206C134.346 23.3685 135.315 22.8754 136.624 22.8754C137.814 22.8754 138.784 23.3005 139.498 24.1336C140.212 24.9667 140.586 26.0719 140.586 27.4661C140.586 28.8943 140.212 30.0164 139.481 30.8666C138.733 31.7167 137.763 32.1418 136.539 32.1418C135.145 32.1418 134.176 31.6317 133.632 30.6115V31.8867H132.272V19.781H133.717ZM136.403 24.0996C135.468 24.0996 134.771 24.4396 134.329 25.1027C133.887 25.7828 133.666 26.599 133.666 27.5681C133.666 28.6052 133.904 29.4214 134.397 30.0335C134.89 30.6455 135.553 30.9346 136.403 30.9346C137.202 30.9346 137.848 30.6285 138.341 29.9994C138.835 29.3704 139.09 28.5372 139.09 27.4831C139.09 26.4629 138.835 25.6298 138.358 25.0177C137.865 24.4056 137.219 24.0996 136.403 24.0996ZM155.006 19.781V31.8867H153.645V30.5945C153.084 31.6147 152.115 32.1248 150.755 32.1248C149.497 32.1248 148.511 31.7167 147.779 30.8836C147.048 30.0505 146.691 28.9113 146.691 27.4831C146.691 26.1569 147.031 25.0687 147.711 24.1846C148.392 23.3005 149.395 22.8584 150.687 22.8584C151.945 22.8584 152.897 23.3345 153.56 24.2866V19.781H155.006ZM150.874 24.0996C150.041 24.0996 149.378 24.4056 148.902 25.0007C148.426 25.6128 148.188 26.4289 148.188 27.4491C148.188 28.5202 148.426 29.3704 148.919 29.9994C149.412 30.6285 150.075 30.9346 150.908 30.9346C151.741 30.9346 152.404 30.6455 152.88 30.0335C153.356 29.4214 153.594 28.5882 153.594 27.5001C153.594 26.5479 153.356 25.7318 152.914 25.0857C152.472 24.4396 151.792 24.0996 150.874 24.0996ZM164.676 29.1153C164.234 31.1556 162.959 32.1758 160.85 32.1758C159.558 32.1758 158.538 31.7847 157.807 30.9686C157.076 30.1695 156.719 29.0473 156.719 27.6191C156.719 26.2079 157.093 25.0687 157.841 24.1846C158.589 23.3005 159.575 22.8584 160.799 22.8584C162.143 22.8584 163.146 23.3175 163.792 24.2356C164.438 25.1537 164.778 26.2929 164.778 27.6871V27.8911H158.181L158.164 27.9932C158.164 28.9283 158.402 29.6594 158.895 30.1865C159.371 30.7306 160.051 30.9856 160.902 30.9856C161.531 30.9856 162.024 30.8496 162.398 30.5435C162.772 30.2545 163.061 29.7784 163.265 29.1153H164.676ZM163.282 26.718C163.214 25.8848 162.959 25.2388 162.517 24.7627C162.075 24.2866 161.48 24.0486 160.765 24.0486C160.051 24.0486 159.473 24.2866 159.014 24.7627C158.538 25.2388 158.266 25.9019 158.181 26.718H163.282ZM172.822 25.6638H171.377C171.275 24.6097 170.561 24.0656 169.235 24.0656C168.673 24.0656 168.231 24.1846 167.925 24.3886C167.602 24.6097 167.449 24.8987 167.449 25.2558C167.449 25.3578 167.449 25.4598 167.483 25.5618C167.5 25.6638 167.534 25.7488 167.602 25.8168C167.67 25.8848 167.721 25.9529 167.772 26.0039C167.823 26.0719 167.908 26.1229 168.027 26.1739C168.146 26.2249 168.231 26.2589 168.299 26.2929C168.367 26.3269 168.469 26.3779 168.639 26.4119C168.81 26.4459 168.929 26.4799 168.997 26.4969C169.065 26.5139 169.184 26.5479 169.388 26.5819C169.592 26.633 169.711 26.667 169.779 26.667C170.187 26.769 170.51 26.837 170.714 26.888C170.918 26.956 171.207 27.058 171.581 27.211C171.955 27.3641 172.227 27.5171 172.431 27.6871C172.618 27.8571 172.788 28.0782 172.941 28.3672C173.094 28.6563 173.179 28.9793 173.179 29.3363C173.179 30.1865 172.839 30.8836 172.176 31.3936C171.513 31.9037 170.629 32.1588 169.541 32.1588C168.35 32.1588 167.432 31.9037 166.786 31.3766C166.14 30.8666 165.8 30.1015 165.766 29.1153H167.194C167.262 30.3565 168.061 30.9686 169.575 30.9686C170.221 30.9686 170.731 30.8496 171.122 30.5775C171.513 30.3055 171.717 29.9484 171.717 29.5064C171.717 29.2173 171.615 28.9793 171.411 28.7753C171.207 28.5882 170.969 28.4522 170.731 28.3672C170.476 28.2822 170.119 28.1802 169.66 28.0612C169.592 28.0612 169.541 28.0442 169.507 28.0272C169.405 28.0102 169.184 27.9591 168.844 27.8911C168.503 27.8231 168.265 27.7551 168.129 27.7041C167.976 27.6701 167.755 27.6021 167.483 27.5001C167.211 27.3981 167.007 27.2961 166.871 27.194C166.735 27.092 166.582 26.956 166.412 26.786C166.242 26.616 166.14 26.4289 166.072 26.2079C166.004 25.9869 165.97 25.7318 165.97 25.4428C165.97 24.6607 166.259 24.0316 166.871 23.5555C167.483 23.0964 168.299 22.8584 169.32 22.8584C170.34 22.8584 171.19 23.1134 171.836 23.5895C172.482 24.0826 172.822 24.7797 172.822 25.6638ZM176.342 19.781V21.5492H174.879V19.781H176.342ZM176.342 23.1134V31.8867H174.879V23.1134H176.342ZM186.181 23.1134V30.9516C186.181 31.6997 186.13 32.2948 186.062 32.7028C185.977 33.1109 185.824 33.502 185.603 33.859C184.956 34.9302 183.8 35.4572 182.134 35.4572C181.148 35.4572 180.315 35.2702 179.635 34.8622C178.955 34.4541 178.563 33.791 178.444 32.8729H179.924C180.094 33.859 180.859 34.3351 182.185 34.3351C183.086 34.3351 183.732 34.114 184.14 33.655C184.548 33.2129 184.752 32.4818 184.786 31.4617L184.803 30.3905C184.242 31.4617 183.307 31.9887 181.998 31.9887C180.825 31.9887 179.89 31.5977 179.193 30.7816C178.495 29.9824 178.138 28.8943 178.138 27.5341C178.138 26.2589 178.495 25.1707 179.176 24.2526C179.873 23.3345 180.842 22.8754 182.083 22.8754C182.695 22.8754 183.239 23.0114 183.715 23.2665C184.191 23.5385 184.582 23.9126 184.854 24.3886V23.1134H186.181ZM182.151 24.1506C181.369 24.1506 180.74 24.4396 180.298 25.0517C179.856 25.6638 179.635 26.4969 179.635 27.5681C179.635 28.5202 179.856 29.3023 180.332 29.8804C180.791 30.4585 181.403 30.7646 182.185 30.7646C182.984 30.7646 183.613 30.4585 184.072 29.8464C184.531 29.2343 184.769 28.3842 184.769 27.3301C184.769 26.3269 184.531 25.5448 184.072 24.9837C183.613 24.4226 182.967 24.1506 182.151 24.1506ZM189.704 23.1134V24.4736C190.418 23.4195 191.421 22.8754 192.696 22.8754C193.716 22.8754 194.465 23.1475 194.924 23.6915C195.383 24.2356 195.621 25.0177 195.621 26.0549V31.8867H194.175V26.718C194.175 26.2929 194.158 25.9529 194.124 25.7148C194.09 25.4768 194.022 25.2048 193.92 24.9327C193.801 24.6607 193.614 24.4566 193.342 24.3206C193.07 24.2016 192.713 24.1336 192.288 24.1336C190.622 24.1336 189.789 25.1877 189.789 27.2961V31.8867H188.344V23.1134H189.704Z" fill="#D7D7D7"/>
<path d="M19.2109 51.8916H328.089" stroke="#4B4A4D" stroke-width="0.708436"/>
<circle cx="73.7619" cy="109.275" r="9.38678" fill="#393939" fill-opacity="0.5" stroke="#4B4A4D" stroke-width="1.06265"/>
<circle cx="73.7619" cy="141.863" r="9.38678" fill="#393939" fill-opacity="0.5" stroke="#4B4A4D" stroke-width="1.06265"/>
<circle cx="73.7619" cy="174.451" r="9.38678" fill="#393939" fill-opacity="0.5" stroke="#4B4A4D" stroke-width="1.06265"/>
<circle cx="73.7619" cy="207.039" r="9.38678" fill="#393939" fill-opacity="0.5" stroke="#4B4A4D" stroke-width="1.06265"/>
<circle cx="73.7619" cy="239.627" r="9.38678" fill="#393939" fill-opacity="0.5" stroke="#4B4A4D" stroke-width="1.06265"/>
<rect x="95.0137" y="103.607" width="147.355" height="11.335" rx="5.66749" fill="url(#paint1_linear_4497_28840)" fill-opacity="0.12"/>
<rect x="95.0137" y="136.196" width="100.598" height="11.335" rx="5.66749" fill="url(#paint2_linear_4497_28840)" fill-opacity="0.12"/>
<rect x="95.0137" y="168.784" width="131.769" height="11.335" rx="5.66749" fill="url(#paint3_linear_4497_28840)" fill-opacity="0.12"/>
<rect x="95.1699" y="201.268" width="147.23" height="11.4861" rx="5.74303" fill="url(#paint4_linear_4497_28840)" fill-opacity="0.12"/>
<rect x="95.0137" y="233.959" width="147.355" height="11.335" rx="5.66749" fill="url(#paint5_linear_4497_28840)" fill-opacity="0.12"/>
<g clip-path="url(#clip1_4497_28840)">
<path d="M56.0508 294.886H208.365L200.218 328.891H56.0508V294.886Z" fill="#232323"/>
<path d="M79.4022 308.284V315.346H78.4699V308.284H79.4022ZM81.6416 310.228V311.022C82.0582 310.407 82.6434 310.09 83.3872 310.09C83.9823 310.09 84.4187 310.248 84.6865 310.566C84.9543 310.883 85.0931 311.339 85.0931 311.944V315.346H84.2501V312.331C84.2501 312.083 84.2402 311.885 84.2203 311.746C84.2005 311.607 84.1608 311.448 84.1013 311.29C84.0319 311.131 83.9228 311.012 83.7641 310.933C83.6054 310.863 83.3971 310.824 83.1492 310.824C82.1772 310.824 81.6912 311.438 81.6912 312.668V315.346H80.8482V310.228H81.6416ZM89.9132 310.228V310.952C90.2801 310.367 90.8554 310.07 91.6389 310.07C92.353 310.07 92.9184 310.318 93.3349 310.794C93.7515 311.28 93.9697 311.934 93.9697 312.758C93.9697 313.591 93.7614 314.245 93.3448 314.741C92.9283 315.237 92.3729 315.475 91.6786 315.475C90.9447 315.475 90.3694 315.197 89.9628 314.632V317.32H89.1197V310.228H89.9132ZM91.51 310.774C91.0141 310.774 90.6273 310.952 90.3496 311.31C90.0719 311.667 89.933 312.153 89.933 312.767C89.933 313.392 90.0719 313.878 90.3595 314.235C90.6471 314.592 91.0438 314.771 91.5397 314.771C92.0158 314.771 92.4026 314.592 92.6803 314.235C92.958 313.878 93.0969 313.392 93.0969 312.777C93.0969 312.153 92.9481 311.667 92.6704 311.31C92.3927 310.952 92.0059 310.774 91.51 310.774ZM97.6669 310.109L97.657 310.992C97.5975 310.982 97.528 310.982 97.4388 310.982C97.171 310.982 96.9329 311.022 96.7346 311.101C96.5362 311.181 96.3874 311.29 96.2684 311.419C96.1494 311.557 96.0602 311.716 95.9808 311.915C95.9114 312.113 95.8618 312.311 95.842 312.51C95.8221 312.708 95.8122 312.936 95.8122 313.184V315.346H94.9692V310.228H95.7725V311.329C96.1097 310.516 96.7346 310.109 97.6669 310.109ZM100.369 310.08C101.142 310.08 101.738 310.318 102.174 310.794C102.6 311.26 102.819 311.915 102.819 312.758C102.819 313.63 102.6 314.305 102.174 314.781C101.738 315.267 101.133 315.505 100.359 315.505C99.5754 315.505 98.9605 315.267 98.5241 314.791C98.0778 314.315 97.8596 313.66 97.8596 312.807C97.8596 311.974 98.0778 311.31 98.534 310.814C98.9803 310.328 99.5953 310.08 100.369 310.08ZM100.349 310.794C99.8531 310.794 99.4564 310.972 99.1688 311.329C98.8712 311.696 98.7324 312.182 98.7324 312.787C98.7324 313.422 98.8712 313.908 99.1589 314.265C99.4465 314.622 99.8531 314.791 100.369 314.791C100.865 314.791 101.252 314.612 101.529 314.255C101.807 313.898 101.956 313.412 101.956 312.777C101.956 312.172 101.807 311.686 101.519 311.329C101.232 310.972 100.845 310.794 100.349 310.794ZM108.256 310.228V314.801C108.256 315.237 108.226 315.584 108.187 315.822C108.137 316.06 108.048 316.288 107.919 316.497C107.542 317.122 106.867 317.429 105.895 317.429C105.32 317.429 104.834 317.32 104.437 317.082C104.041 316.844 103.813 316.457 103.743 315.921H104.606C104.705 316.497 105.152 316.774 105.925 316.774C106.451 316.774 106.828 316.645 107.066 316.378C107.304 316.12 107.423 315.693 107.443 315.098L107.453 314.473C107.125 315.098 106.58 315.406 105.816 315.406C105.132 315.406 104.586 315.178 104.18 314.702C103.773 314.235 103.565 313.601 103.565 312.807C103.565 312.063 103.773 311.429 104.17 310.893C104.576 310.357 105.142 310.09 105.866 310.09C106.223 310.09 106.54 310.169 106.818 310.318C107.096 310.476 107.324 310.695 107.482 310.972V310.228H108.256ZM105.905 310.833C105.449 310.833 105.082 311.002 104.824 311.359C104.566 311.716 104.437 312.202 104.437 312.827C104.437 313.382 104.566 313.839 104.844 314.176C105.112 314.513 105.469 314.692 105.925 314.692C106.391 314.692 106.758 314.513 107.026 314.156C107.294 313.799 107.433 313.303 107.433 312.688C107.433 312.103 107.294 311.647 107.026 311.319C106.758 310.992 106.381 310.833 105.905 310.833ZM112.186 310.109L112.176 310.992C112.116 310.982 112.047 310.982 111.958 310.982C111.69 310.982 111.452 311.022 111.253 311.101C111.055 311.181 110.906 311.29 110.787 311.419C110.668 311.557 110.579 311.716 110.5 311.915C110.43 312.113 110.381 312.311 110.361 312.51C110.341 312.708 110.331 312.936 110.331 313.184V315.346H109.488V310.228H110.291V311.329C110.629 310.516 111.253 310.109 112.186 310.109ZM117.02 313.73C116.762 314.92 116.018 315.515 114.788 315.515C114.035 315.515 113.44 315.287 113.013 314.811C112.587 314.344 112.378 313.69 112.378 312.857C112.378 312.034 112.597 311.369 113.033 310.853C113.469 310.338 114.045 310.08 114.759 310.08C115.542 310.08 116.127 310.347 116.504 310.883C116.881 311.419 117.08 312.083 117.08 312.896V313.015H113.231L113.221 313.075C113.221 313.62 113.36 314.047 113.648 314.354C113.926 314.672 114.322 314.821 114.818 314.821C115.185 314.821 115.473 314.741 115.691 314.563C115.909 314.394 116.078 314.116 116.197 313.73H117.02ZM116.207 312.331C116.167 311.845 116.018 311.468 115.76 311.191C115.503 310.913 115.155 310.774 114.739 310.774C114.322 310.774 113.985 310.913 113.717 311.191C113.44 311.468 113.281 311.855 113.231 312.331H116.207ZM121.772 311.716H120.929C120.869 311.101 120.453 310.784 119.679 310.784C119.352 310.784 119.094 310.853 118.916 310.972C118.727 311.101 118.638 311.27 118.638 311.478C118.638 311.538 118.638 311.597 118.658 311.657C118.668 311.716 118.687 311.766 118.727 311.805C118.767 311.845 118.796 311.885 118.826 311.915C118.856 311.954 118.906 311.984 118.975 312.014C119.044 312.043 119.094 312.063 119.134 312.083C119.173 312.103 119.233 312.133 119.332 312.153C119.431 312.172 119.501 312.192 119.54 312.202C119.58 312.212 119.649 312.232 119.768 312.252C119.887 312.281 119.957 312.301 119.997 312.301C120.235 312.361 120.423 312.401 120.542 312.43C120.661 312.47 120.83 312.529 121.048 312.619C121.266 312.708 121.425 312.797 121.544 312.896C121.653 312.996 121.752 313.125 121.841 313.293C121.931 313.462 121.98 313.65 121.98 313.858C121.98 314.354 121.782 314.761 121.395 315.059C121.008 315.356 120.492 315.505 119.858 315.505C119.163 315.505 118.628 315.356 118.251 315.049C117.874 314.751 117.676 314.305 117.656 313.73H118.489C118.529 314.454 118.995 314.811 119.878 314.811C120.254 314.811 120.552 314.741 120.78 314.582C121.008 314.424 121.127 314.216 121.127 313.958C121.127 313.789 121.068 313.65 120.949 313.531C120.83 313.422 120.691 313.343 120.552 313.293C120.403 313.244 120.195 313.184 119.927 313.115C119.887 313.115 119.858 313.105 119.838 313.095C119.778 313.085 119.649 313.055 119.451 313.015C119.253 312.976 119.114 312.936 119.035 312.906C118.945 312.887 118.816 312.847 118.658 312.787C118.499 312.728 118.38 312.668 118.301 312.609C118.221 312.549 118.132 312.47 118.033 312.371C117.934 312.272 117.874 312.162 117.834 312.034C117.795 311.905 117.775 311.756 117.775 311.587C117.775 311.131 117.944 310.764 118.301 310.486C118.658 310.219 119.134 310.08 119.729 310.08C120.324 310.08 120.82 310.228 121.197 310.506C121.574 310.794 121.772 311.2 121.772 311.716ZM126.731 311.716H125.888C125.828 311.101 125.412 310.784 124.638 310.784C124.311 310.784 124.053 310.853 123.875 310.972C123.686 311.101 123.597 311.27 123.597 311.478C123.597 311.538 123.597 311.597 123.617 311.657C123.627 311.716 123.646 311.766 123.686 311.805C123.726 311.845 123.756 311.885 123.785 311.915C123.815 311.954 123.865 311.984 123.934 312.014C124.003 312.043 124.053 312.063 124.093 312.083C124.132 312.103 124.192 312.133 124.291 312.153C124.39 312.172 124.46 312.192 124.499 312.202C124.539 312.212 124.608 312.232 124.728 312.252C124.847 312.281 124.916 312.301 124.956 312.301C125.194 312.361 125.382 312.401 125.501 312.43C125.62 312.47 125.789 312.529 126.007 312.619C126.225 312.708 126.384 312.797 126.503 312.896C126.612 312.996 126.711 313.125 126.8 313.293C126.89 313.462 126.939 313.65 126.939 313.858C126.939 314.354 126.741 314.761 126.354 315.059C125.967 315.356 125.452 315.505 124.817 315.505C124.123 315.505 123.587 315.356 123.21 315.049C122.833 314.751 122.635 314.305 122.615 313.73H123.448C123.488 314.454 123.954 314.811 124.837 314.811C125.214 314.811 125.511 314.741 125.739 314.582C125.967 314.424 126.086 314.216 126.086 313.958C126.086 313.789 126.027 313.65 125.908 313.531C125.789 313.422 125.65 313.343 125.511 313.293C125.362 313.244 125.154 313.184 124.886 313.115C124.847 313.115 124.817 313.105 124.797 313.095C124.737 313.085 124.608 313.055 124.41 313.015C124.212 312.976 124.073 312.936 123.994 312.906C123.904 312.887 123.775 312.847 123.617 312.787C123.458 312.728 123.339 312.668 123.26 312.609C123.18 312.549 123.091 312.47 122.992 312.371C122.893 312.272 122.833 312.162 122.793 312.034C122.754 311.905 122.734 311.756 122.734 311.587C122.734 311.131 122.903 310.764 123.26 310.486C123.617 310.219 124.093 310.08 124.688 310.08C125.283 310.08 125.779 310.228 126.156 310.506C126.533 310.794 126.731 311.2 126.731 311.716Z" fill="white"/>
<path d="M211.18 308.906C210.876 308.906 210.618 308.999 210.407 309.184C210.195 309.363 210.089 309.624 210.089 309.968C210.089 310.298 210.192 310.553 210.397 310.731C210.602 310.903 210.863 310.989 211.18 310.989C211.498 310.989 211.759 310.903 211.964 310.731C212.169 310.553 212.271 310.298 212.271 309.968C212.271 309.624 212.165 309.363 211.954 309.184C211.742 308.999 211.484 308.906 211.18 308.906ZM211.18 315.234C210.83 315.234 210.502 315.184 210.198 315.085C209.901 314.986 209.643 314.844 209.425 314.659C209.206 314.467 209.035 314.236 208.909 313.965C208.79 313.693 208.73 313.389 208.73 313.052C208.73 312.616 208.843 312.249 209.068 311.951C209.299 311.654 209.61 311.455 210 311.356V311.336C209.682 311.217 209.438 311.035 209.266 310.791C209.101 310.539 209.018 310.245 209.018 309.908C209.018 309.313 209.203 308.85 209.573 308.52C209.95 308.182 210.486 308.014 211.18 308.014C211.874 308.014 212.407 308.182 212.777 308.52C213.154 308.85 213.342 309.313 213.342 309.908C213.342 310.245 213.256 310.539 213.084 310.791C212.919 311.035 212.678 311.217 212.36 311.336V311.356C212.751 311.455 213.058 311.654 213.283 311.951C213.514 312.249 213.63 312.616 213.63 313.052C213.63 313.389 213.567 313.693 213.441 313.965C213.322 314.236 213.154 314.467 212.936 314.659C212.717 314.844 212.456 314.986 212.152 315.085C211.855 315.184 211.531 315.234 211.18 315.234ZM211.18 314.341C211.557 314.341 211.871 314.229 212.122 314.004C212.374 313.779 212.499 313.462 212.499 313.052C212.499 312.669 212.374 312.371 212.122 312.159C211.871 311.941 211.557 311.832 211.18 311.832C210.803 311.832 210.489 311.941 210.238 312.159C209.987 312.371 209.861 312.669 209.861 313.052C209.861 313.462 209.987 313.779 210.238 314.004C210.489 314.229 210.803 314.341 211.18 314.341ZM216.691 308.014C217.187 308.014 217.591 308.129 217.901 308.361C218.219 308.586 218.463 308.877 218.635 309.234C218.814 309.584 218.933 309.971 218.992 310.394C219.058 310.817 219.091 311.227 219.091 311.624C219.091 312.021 219.058 312.431 218.992 312.854C218.933 313.277 218.814 313.667 218.635 314.024C218.463 314.374 218.219 314.665 217.901 314.897C217.591 315.122 217.187 315.234 216.691 315.234C216.195 315.234 215.789 315.122 215.471 314.897C215.161 314.665 214.916 314.374 214.737 314.024C214.565 313.667 214.446 313.277 214.38 312.854C214.321 312.431 214.291 312.021 214.291 311.624C214.291 311.227 214.321 310.817 214.38 310.394C214.446 309.971 214.565 309.584 214.737 309.234C214.916 308.877 215.161 308.586 215.471 308.361C215.789 308.129 216.195 308.014 216.691 308.014ZM216.691 314.292C216.936 314.292 217.141 314.222 217.306 314.084C217.471 313.938 217.6 313.746 217.693 313.508C217.792 313.264 217.862 312.979 217.901 312.655C217.941 312.331 217.961 311.988 217.961 311.624C217.961 311.26 217.941 310.92 217.901 310.602C217.862 310.278 217.792 309.994 217.693 309.749C217.6 309.505 217.471 309.313 217.306 309.174C217.141 309.029 216.936 308.956 216.691 308.956C216.44 308.956 216.232 309.029 216.066 309.174C215.908 309.313 215.779 309.505 215.68 309.749C215.587 309.994 215.521 310.278 215.481 310.602C215.442 310.92 215.422 311.26 215.422 311.624C215.422 311.988 215.442 312.331 215.481 312.655C215.521 312.979 215.587 313.264 215.68 313.508C215.779 313.746 215.908 313.938 216.066 314.084C216.232 314.222 216.44 314.292 216.691 314.292ZM221.151 309.987C221.151 310.173 221.164 310.348 221.191 310.513C221.217 310.672 221.26 310.811 221.32 310.93C221.379 311.049 221.455 311.145 221.548 311.217C221.647 311.283 221.766 311.316 221.905 311.316C222.044 311.316 222.163 311.283 222.262 311.217C222.361 311.145 222.44 311.049 222.5 310.93C222.559 310.811 222.602 310.672 222.629 310.513C222.662 310.348 222.678 310.173 222.678 309.987C222.678 309.822 222.665 309.66 222.639 309.501C222.619 309.343 222.579 309.201 222.52 309.075C222.46 308.949 222.381 308.85 222.282 308.777C222.183 308.698 222.057 308.658 221.905 308.658C221.753 308.658 221.627 308.698 221.528 308.777C221.429 308.85 221.349 308.949 221.29 309.075C221.237 309.201 221.201 309.343 221.181 309.501C221.161 309.66 221.151 309.822 221.151 309.987ZM221.915 311.961C221.617 311.961 221.363 311.908 221.151 311.802C220.94 311.697 220.768 311.554 220.635 311.376C220.503 311.197 220.407 310.989 220.348 310.751C220.288 310.513 220.258 310.258 220.258 309.987C220.258 309.723 220.288 309.472 220.348 309.234C220.414 308.989 220.513 308.777 220.645 308.599C220.784 308.42 220.956 308.278 221.161 308.172C221.373 308.067 221.624 308.014 221.915 308.014C222.206 308.014 222.454 308.067 222.659 308.172C222.87 308.278 223.042 308.42 223.174 308.599C223.313 308.777 223.412 308.989 223.472 309.234C223.538 309.472 223.571 309.723 223.571 309.987C223.571 310.258 223.541 310.513 223.482 310.751C223.422 310.989 223.326 311.197 223.194 311.376C223.062 311.554 222.89 311.697 222.678 311.802C222.467 311.908 222.212 311.961 221.915 311.961ZM226.13 313.26C226.13 313.446 226.143 313.621 226.17 313.786C226.196 313.945 226.239 314.084 226.299 314.203C226.358 314.322 226.434 314.417 226.527 314.49C226.626 314.556 226.745 314.589 226.884 314.589C227.023 314.589 227.142 314.556 227.241 314.49C227.34 314.417 227.419 314.322 227.479 314.203C227.538 314.084 227.581 313.945 227.608 313.786C227.641 313.621 227.657 313.446 227.657 313.26C227.657 313.095 227.644 312.933 227.618 312.774C227.598 312.616 227.558 312.474 227.499 312.348C227.439 312.222 227.36 312.123 227.261 312.05C227.161 311.971 227.036 311.931 226.884 311.931C226.732 311.931 226.606 311.971 226.507 312.05C226.408 312.123 226.328 312.222 226.269 312.348C226.216 312.474 226.18 312.616 226.16 312.774C226.14 312.933 226.13 313.095 226.13 313.26ZM226.894 315.234C226.596 315.234 226.342 315.181 226.13 315.075C225.918 314.97 225.746 314.827 225.614 314.649C225.482 314.47 225.386 314.262 225.327 314.024C225.267 313.786 225.237 313.531 225.237 313.26C225.237 312.996 225.267 312.745 225.327 312.507C225.393 312.262 225.492 312.05 225.624 311.872C225.763 311.693 225.935 311.551 226.14 311.445C226.351 311.34 226.603 311.287 226.894 311.287C227.185 311.287 227.433 311.34 227.638 311.445C227.849 311.551 228.021 311.693 228.153 311.872C228.292 312.05 228.391 312.262 228.451 312.507C228.517 312.745 228.55 312.996 228.55 313.26C228.55 313.531 228.52 313.786 228.461 314.024C228.401 314.262 228.305 314.47 228.173 314.649C228.041 314.827 227.869 314.97 227.657 315.075C227.446 315.181 227.191 315.234 226.894 315.234ZM225.882 307.915H226.636L222.797 315.333H222.024L225.882 307.915Z" fill="#D7D7D7"/>
</g>
<rect x="56.5729" y="295.408" width="193.067" height="32.9607" rx="16.4804" stroke="#4B4A4D" stroke-width="1.04419"/>
<path d="M73.5867 114.6L65.1562 100.562L73.5867 107.755L90.2168 93.7163L73.5867 114.6Z" fill="#6D6D6D"/>
<path d="M73.5867 212.754L65.1562 198.715L73.5867 205.909L90.2168 191.87L73.5867 212.754Z" fill="#6D6D6D"/>
<path d="M73.5867 245.124L65.1562 231.085L73.5867 238.278L90.2168 224.24L73.5867 245.124Z" fill="#6D6D6D"/>
<path d="M73.5867 181.428L65.1562 167.39L73.5867 174.583L90.2168 160.544L73.5867 181.428Z" fill="#6D6D6D"/>
</g>
</g>
<defs>
<filter id="filter0_ddi_4497_28840" x="0.5422" y="0.884277" width="305.127" height="412.1" filterUnits="userSpaceOnUse" color-interpolation-filters="sRGB">
<feFlood flood-opacity="0" result="BackgroundImageFix"/>
<feColorMatrix in="SourceAlpha" type="matrix" values="0 0 0 0 0 0 0 0 0 0 0 0 0 0 0 0 0 0 127 0" result="hardAlpha"/>
<feMorphology radius="4.66718" operator="erode" in="SourceAlpha" result="effect1_dropShadow_4497_28840"/>
<feOffset dy="9.33437"/>
<feGaussianBlur stdDeviation="4.66718"/>
<feComposite in2="hardAlpha" operator="out"/>
<feColorMatrix type="matrix" values="0 0 0 0 0 0 0 0 0 0 0 0 0 0 0 0 0 0 0.9 0"/>
<feBlend mode="normal" in2="BackgroundImageFix" result="effect1_dropShadow_4497_28840"/>
<feColorMatrix in="SourceAlpha" type="matrix" values="0 0 0 0 0 0 0 0 0 0 0 0 0 0 0 0 0 0 127 0" result="hardAlpha"/>
<feMorphology radius="4.66718" operator="erode" in="SourceAlpha" result="effect2_dropShadow_4497_28840"/>
<feOffset dy="18.6687"/>
<feGaussianBlur stdDeviation="11.668"/>
<feComposite in2="hardAlpha" operator="out"/>
<feColorMatrix type="matrix" values="0 0 0 0 0 0 0 0 0 0 0 0 0 0 0 0 0 0 0.8 0"/>
<feBlend mode="normal" in2="effect1_dropShadow_4497_28840" result="effect2_dropShadow_4497_28840"/>
<feBlend mode="normal" in="SourceGraphic" in2="effect2_dropShadow_4497_28840" result="shape"/>
<feColorMatrix in="SourceAlpha" type="matrix" values="0 0 0 0 0 0 0 0 0 0 0 0 0 0 0 0 0 0 127 0" result="hardAlpha"/>
<feOffset dy="0.933437"/>
<feGaussianBlur stdDeviation="0.933437"/>
<feComposite in2="hardAlpha" operator="arithmetic" k2="-1" k3="1"/>
<feColorMatrix type="matrix" values="0 0 0 0 0.321569 0 0 0 0 0.317647 0 0 0 0 0.329412 0 0 0 1 0"/>
<feBlend mode="normal" in2="shape" result="effect3_innerShadow_4497_28840"/>
</filter>
<linearGradient id="paint0_linear_4497_28840" x1="153.105" y1="0.884277" x2="153.105" y2="375.647" gradientUnits="userSpaceOnUse">
<stop stop-color="#1F1F1F"/>
<stop offset="0.69" stop-color="#111111"/>
</linearGradient>
<linearGradient id="paint1_linear_4497_28840" x1="168.691" y1="103.607" x2="168.691" y2="114.942" gradientUnits="userSpaceOnUse">
<stop stop-color="white"/>
<stop offset="0.69" stop-color="#999999"/>
</linearGradient>
<linearGradient id="paint2_linear_4497_28840" x1="145.313" y1="136.196" x2="145.313" y2="147.531" gradientUnits="userSpaceOnUse">
<stop stop-color="white"/>
<stop offset="0.69" stop-color="#999999"/>
</linearGradient>
<linearGradient id="paint3_linear_4497_28840" x1="160.898" y1="168.784" x2="160.898" y2="180.119" gradientUnits="userSpaceOnUse">
<stop stop-color="white"/>
<stop offset="0.69" stop-color="#999999"/>
</linearGradient>
<linearGradient id="paint4_linear_4497_28840" x1="168.785" y1="201.268" x2="168.785" y2="212.754" gradientUnits="userSpaceOnUse">
<stop stop-color="white"/>
<stop offset="0.69" stop-color="#999999"/>
</linearGradient>
<linearGradient id="paint5_linear_4497_28840" x1="168.691" y1="233.959" x2="168.691" y2="245.294" gradientUnits="userSpaceOnUse">
<stop stop-color="white"/>
<stop offset="0.69" stop-color="#999999"/>
</linearGradient>
<clipPath id="clip0_4497_28840">
<rect x="19.2109" y="0.884277" width="267.789" height="374.763" rx="21.928" fill="white"/>
</clipPath>
<clipPath id="clip1_4497_28840">
<rect x="56.0508" y="294.886" width="194.111" height="34.0049" rx="17.0025" fill="white"/>
</clipPath>
</defs>
</svg>
