<svg width="306" height="413" viewBox="0 0 306 413" fill="none" xmlns="http://www.w3.org/2000/svg">
<g filter="url(#filter0_ddi_4497_28818)">
<g clip-path="url(#clip0_4497_28818)">
<rect x="19" width="267.789" height="374.763" rx="21.928" fill="url(#paint0_linear_4497_28818)"/>
<path d="M88.0402 22.2292V23.4703C88.6692 22.4672 89.6554 21.9571 90.9986 21.9571C92.2228 21.9571 93.1919 22.3822 93.906 23.1983C94.6201 24.0314 94.9942 25.1536 94.9942 26.5648C94.9942 27.993 94.6371 29.1152 93.923 29.9653C93.2089 30.8154 92.2568 31.2235 91.0666 31.2235C89.8084 31.2235 88.8223 30.7474 88.1252 29.7783V34.3859H86.68V22.2292H88.0402ZM90.7775 23.1643C89.9274 23.1643 89.2643 23.4703 88.7883 24.0824C88.3122 24.6945 88.0742 25.5276 88.0742 26.5818C88.0742 27.653 88.3122 28.4861 88.8053 29.0982C89.2983 29.7103 89.9784 30.0163 90.8286 30.0163C91.6447 30.0163 92.3078 29.7103 92.7838 29.0982C93.2599 28.4861 93.4979 27.653 93.4979 26.5988C93.4979 25.5276 93.2429 24.6945 92.7668 24.0824C92.2908 23.4703 91.6277 23.1643 90.7775 23.1643ZM98.2888 18.8967V20.6649H96.8266V18.8967H98.2888ZM98.2888 22.2292V31.0024H96.8266V22.2292H98.2888ZM104.285 22.2292V23.4193H102.534V28.5371C102.534 28.8261 102.534 29.0132 102.534 29.0982C102.534 29.2002 102.568 29.3192 102.636 29.4722C102.687 29.6252 102.789 29.7273 102.925 29.7613C103.061 29.8123 103.248 29.8293 103.503 29.8293C103.707 29.8293 103.979 29.8123 104.285 29.7783V31.0194C103.877 31.0705 103.503 31.0875 103.18 31.0875C102.772 31.0875 102.432 31.0534 102.16 30.9514C101.888 30.8664 101.667 30.7644 101.531 30.6454C101.395 30.5434 101.293 30.3393 101.225 30.0503C101.157 29.7613 101.106 29.5232 101.106 29.3192C101.089 29.1152 101.089 28.7921 101.089 28.3161V28.248V28.163V28.078V23.4193H99.6095V22.2292H101.089V19.6278H102.534V22.2292H104.285ZM113.44 27.806C113.304 28.8601 112.913 29.7103 112.233 30.3223C111.553 30.9514 110.685 31.2575 109.597 31.2575C108.271 31.2575 107.251 30.8494 106.52 30.0333C105.806 29.2172 105.432 28.112 105.432 26.7348C105.432 25.2726 105.823 24.1164 106.571 23.2663C107.336 22.4162 108.356 21.9741 109.648 21.9741C110.736 21.9741 111.587 22.2462 112.233 22.7903C112.879 23.3343 113.27 24.0994 113.372 25.1026H111.876C111.621 23.8274 110.889 23.1983 109.682 23.1983C108.832 23.1983 108.169 23.5044 107.693 24.1164C107.2 24.7285 106.962 25.5787 106.962 26.6328C106.962 27.687 107.183 28.5371 107.659 29.1492C108.118 29.7613 108.764 30.0673 109.58 30.0673C110.226 30.0673 110.77 29.8633 111.179 29.4892C111.587 29.0982 111.859 28.5371 111.978 27.806H113.44ZM116.468 18.8967V23.4703C117.114 22.5012 118.066 22.0081 119.342 22.0081C121.314 22.0081 122.3 23.0113 122.3 25.0006V31.0024H120.855V25.3406C120.855 24.6775 120.702 24.1675 120.43 23.8104C120.158 23.4533 119.648 23.2663 118.933 23.2663C118.049 23.2663 117.403 23.5554 117.029 24.1164C116.655 24.6945 116.468 25.4936 116.468 26.5478V31.0024H115.023V18.8967H116.468ZM137.109 18.8967V31.0024H135.749V29.7103C135.188 30.7304 134.218 31.2405 132.858 31.2405C131.6 31.2405 130.614 30.8324 129.883 29.9993C129.152 29.1662 128.795 28.027 128.795 26.5988C128.795 25.2726 129.135 24.1845 129.815 23.3003C130.495 22.4162 131.498 21.9741 132.79 21.9741C134.048 21.9741 135.001 22.4502 135.664 23.4023V18.8967H137.109ZM132.977 23.2153C132.144 23.2153 131.481 23.5214 131.005 24.1164C130.529 24.7285 130.291 25.5447 130.291 26.5648C130.291 27.636 130.529 28.4861 131.022 29.1152C131.515 29.7443 132.178 30.0503 133.011 30.0503C133.844 30.0503 134.507 29.7613 134.984 29.1492C135.46 28.5371 135.698 27.704 135.698 26.6158C135.698 25.6637 135.46 24.8475 135.018 24.2015C134.575 23.5554 133.895 23.2153 132.977 23.2153ZM146.779 28.231C146.337 30.2713 145.062 31.2915 142.954 31.2915C141.662 31.2915 140.642 30.9004 139.91 30.0843C139.179 29.2852 138.822 28.163 138.822 26.7348C138.822 25.3236 139.196 24.1845 139.944 23.3003C140.693 22.4162 141.679 21.9741 142.903 21.9741C144.246 21.9741 145.249 22.4332 145.895 23.3513C146.541 24.2695 146.881 25.4086 146.881 26.8028V27.0069H140.284L140.267 27.1089C140.267 28.044 140.506 28.7751 140.999 29.3022C141.475 29.8463 142.155 30.1013 143.005 30.1013C143.634 30.1013 144.127 29.9653 144.501 29.6592C144.875 29.3702 145.164 28.8941 145.368 28.231H146.779ZM145.385 25.8337C145.317 25.0006 145.062 24.3545 144.62 23.8784C144.178 23.4023 143.583 23.1643 142.869 23.1643C142.155 23.1643 141.577 23.4023 141.118 23.8784C140.642 24.3545 140.369 25.0176 140.284 25.8337H145.385ZM155.963 27.806C155.827 28.8601 155.436 29.7103 154.755 30.3223C154.075 30.9514 153.208 31.2575 152.12 31.2575C150.794 31.2575 149.774 30.8494 149.043 30.0333C148.329 29.2172 147.954 28.112 147.954 26.7348C147.954 25.2726 148.346 24.1164 149.094 23.2663C149.859 22.4162 150.879 21.9741 152.171 21.9741C153.259 21.9741 154.109 22.2462 154.755 22.7903C155.402 23.3343 155.793 24.0994 155.895 25.1026H154.398C154.143 23.8274 153.412 23.1983 152.205 23.1983C151.355 23.1983 150.692 23.5044 150.216 24.1164C149.723 24.7285 149.485 25.5787 149.485 26.6328C149.485 27.687 149.706 28.5371 150.182 29.1492C150.641 29.7613 151.287 30.0673 152.103 30.0673C152.749 30.0673 153.293 29.8633 153.701 29.4892C154.109 29.0982 154.381 28.5371 154.5 27.806H155.963ZM164.925 22.2292L161.439 25.4086L165.18 31.0024H163.344L160.334 26.4118L158.957 27.687V31.0024H157.546V18.8967H158.957V26.0547L162.986 22.2292H164.925ZM179.001 18.8967V31.0024H177.64V29.7103C177.079 30.7304 176.11 31.2405 174.75 31.2405C173.492 31.2405 172.506 30.8324 171.775 29.9993C171.044 29.1662 170.686 28.027 170.686 26.5988C170.686 25.2726 171.027 24.1845 171.707 23.3003C172.387 22.4162 173.39 21.9741 174.682 21.9741C175.94 21.9741 176.892 22.4502 177.555 23.4023V18.8967H179.001ZM174.869 23.2153C174.036 23.2153 173.373 23.5214 172.897 24.1164C172.421 24.7285 172.183 25.5447 172.183 26.5648C172.183 27.636 172.421 28.4861 172.914 29.1152C173.407 29.7443 174.07 30.0503 174.903 30.0503C175.736 30.0503 176.399 29.7613 176.875 29.1492C177.351 28.5371 177.589 27.704 177.589 26.6158C177.589 25.6637 177.351 24.8475 176.909 24.2015C176.467 23.5554 175.787 23.2153 174.869 23.2153ZM188.671 28.231C188.229 30.2713 186.954 31.2915 184.846 31.2915C183.553 31.2915 182.533 30.9004 181.802 30.0843C181.071 29.2852 180.714 28.163 180.714 26.7348C180.714 25.3236 181.088 24.1845 181.836 23.3003C182.584 22.4162 183.57 21.9741 184.795 21.9741C186.138 21.9741 187.141 22.4332 187.787 23.3513C188.433 24.2695 188.773 25.4086 188.773 26.8028V27.0069H182.176L182.159 27.1089C182.159 28.044 182.397 28.7751 182.89 29.3022C183.366 29.8463 184.047 30.1013 184.897 30.1013C185.526 30.1013 186.019 29.9653 186.393 29.6592C186.767 29.3702 187.056 28.8941 187.26 28.231H188.671ZM187.277 25.8337C187.209 25.0006 186.954 24.3545 186.512 23.8784C186.07 23.4023 185.475 23.1643 184.761 23.1643C184.047 23.1643 183.468 23.4023 183.009 23.8784C182.533 24.3545 182.261 25.0176 182.176 25.8337H187.277ZM196.817 24.7795H195.372C195.27 23.7254 194.556 23.1813 193.23 23.1813C192.669 23.1813 192.227 23.3003 191.921 23.5044C191.598 23.7254 191.444 24.0144 191.444 24.3715C191.444 24.4735 191.444 24.5755 191.478 24.6775C191.496 24.7795 191.53 24.8646 191.598 24.9326C191.666 25.0006 191.717 25.0686 191.768 25.1196C191.819 25.1876 191.904 25.2386 192.023 25.2896C192.142 25.3406 192.227 25.3746 192.295 25.4086C192.363 25.4426 192.465 25.4936 192.635 25.5276C192.805 25.5617 192.924 25.5957 192.992 25.6127C193.06 25.6297 193.179 25.6637 193.383 25.6977C193.587 25.7487 193.706 25.7827 193.774 25.7827C194.182 25.8847 194.505 25.9527 194.709 26.0037C194.913 26.0717 195.202 26.1737 195.576 26.3268C195.95 26.4798 196.222 26.6328 196.426 26.8028C196.613 26.9729 196.783 27.1939 196.936 27.4829C197.089 27.772 197.174 28.095 197.174 28.4521C197.174 29.3022 196.834 29.9993 196.171 30.5094C195.508 31.0194 194.624 31.2745 193.536 31.2745C192.346 31.2745 191.427 31.0194 190.781 30.4924C190.135 29.9823 189.795 29.2172 189.761 28.231H191.189C191.257 29.4722 192.057 30.0843 193.57 30.0843C194.216 30.0843 194.726 29.9653 195.117 29.6933C195.508 29.4212 195.712 29.0642 195.712 28.6221C195.712 28.3331 195.61 28.095 195.406 27.891C195.202 27.704 194.964 27.5679 194.726 27.4829C194.471 27.3979 194.114 27.2959 193.655 27.1769C193.587 27.1769 193.536 27.1599 193.502 27.1429C193.4 27.1259 193.179 27.0749 192.839 27.0069C192.499 26.9389 192.261 26.8708 192.125 26.8198C191.972 26.7858 191.751 26.7178 191.478 26.6158C191.206 26.5138 191.002 26.4118 190.866 26.3098C190.73 26.2077 190.577 26.0717 190.407 25.9017C190.237 25.7317 190.135 25.5447 190.067 25.3236C189.999 25.1026 189.965 24.8475 189.965 24.5585C189.965 23.7764 190.254 23.1473 190.866 22.6712C191.478 22.2122 192.295 21.9741 193.315 21.9741C194.335 21.9741 195.185 22.2292 195.831 22.7052C196.477 23.1983 196.817 23.8954 196.817 24.7795ZM200.337 18.8967V20.6649H198.875V18.8967H200.337ZM200.337 22.2292V31.0024H198.875V22.2292H200.337ZM210.176 22.2292V30.0673C210.176 30.8154 210.125 31.4105 210.057 31.8186C209.972 32.2266 209.819 32.6177 209.598 32.9747C208.952 34.0459 207.795 34.573 206.129 34.573C205.143 34.573 204.31 34.3859 203.63 33.9779C202.95 33.5698 202.559 32.9067 202.44 31.9886H203.919C204.089 32.9747 204.854 33.4508 206.18 33.4508C207.081 33.4508 207.727 33.2298 208.135 32.7707C208.544 32.3286 208.748 31.5975 208.782 30.5774L208.799 29.5062C208.237 30.5774 207.302 31.1045 205.993 31.1045C204.82 31.1045 203.885 30.7134 203.188 29.8973C202.491 29.0982 202.134 28.01 202.134 26.6498C202.134 25.3746 202.491 24.2865 203.171 23.3683C203.868 22.4502 204.837 21.9911 206.078 21.9911C206.69 21.9911 207.234 22.1272 207.71 22.3822C208.186 22.6542 208.578 23.0283 208.85 23.5044V22.2292H210.176ZM206.146 23.2663C205.364 23.2663 204.735 23.5554 204.293 24.1675C203.851 24.7795 203.63 25.6127 203.63 26.6838C203.63 27.636 203.851 28.4181 204.327 28.9962C204.786 29.5742 205.398 29.8803 206.18 29.8803C206.979 29.8803 207.608 29.5742 208.067 28.9621C208.527 28.3501 208.765 27.4999 208.765 26.4458C208.765 25.4426 208.527 24.6605 208.067 24.0994C207.608 23.5384 206.962 23.2663 206.146 23.2663ZM213.699 22.2292V23.5894C214.413 22.5352 215.416 21.9911 216.691 21.9911C217.712 21.9911 218.46 22.2632 218.919 22.8073C219.378 23.3513 219.616 24.1334 219.616 25.1706V31.0024H218.171V25.8337C218.171 25.4086 218.154 25.0686 218.12 24.8305C218.086 24.5925 218.018 24.3205 217.916 24.0484C217.797 23.7764 217.61 23.5724 217.338 23.4363C217.065 23.3173 216.708 23.2493 216.283 23.2493C214.617 23.2493 213.784 24.3035 213.784 26.4118V31.0024H212.339V22.2292H213.699Z" fill="#D7D7D7"/>
<path d="M19 51.0073H327.878" stroke="#4B4A4D" stroke-width="0.708436"/>
<circle cx="73.549" cy="108.391" r="9.38678" fill="#393939" fill-opacity="0.5" stroke="#4B4A4D" stroke-width="1.06265"/>
<circle cx="73.549" cy="140.979" r="9.38678" fill="#393939" fill-opacity="0.5" stroke="#4B4A4D" stroke-width="1.06265"/>
<circle cx="73.549" cy="173.567" r="9.38678" fill="#393939" fill-opacity="0.5" stroke="#4B4A4D" stroke-width="1.06265"/>
<circle cx="73.549" cy="206.155" r="9.38678" fill="#393939" fill-opacity="0.5" stroke="#4B4A4D" stroke-width="1.06265"/>
<circle cx="73.549" cy="238.743" r="9.38678" fill="#393939" fill-opacity="0.5" stroke="#4B4A4D" stroke-width="1.06265"/>
<rect x="94.8027" y="102.723" width="147.355" height="11.335" rx="5.66749" fill="url(#paint1_linear_4497_28818)" fill-opacity="0.12"/>
<rect x="94.8027" y="135.311" width="100.598" height="11.335" rx="5.66749" fill="url(#paint2_linear_4497_28818)" fill-opacity="0.12"/>
<rect x="94.8027" y="167.899" width="131.769" height="11.335" rx="5.66749" fill="url(#paint3_linear_4497_28818)" fill-opacity="0.12"/>
<rect x="94.8027" y="200.487" width="131.769" height="11.335" rx="5.66749" fill="url(#paint4_linear_4497_28818)" fill-opacity="0.12"/>
<rect x="94.8027" y="233.076" width="147.355" height="11.335" rx="5.66749" fill="url(#paint5_linear_4497_28818)" fill-opacity="0.12"/>
<g clip-path="url(#clip1_4497_28818)">
<path d="M55.8379 294.001H249.949V328.006H55.8379V294.001Z" fill="#232323"/>
<path d="M84.4808 311.793C84.4015 312.686 84.0841 313.39 83.5485 313.886C83.0129 314.382 82.2988 314.63 81.4161 314.63C80.4144 314.63 79.6209 314.302 79.0358 313.638C78.4407 312.973 78.1531 312.071 78.1531 310.94C78.1531 309.889 78.4407 309.006 79.0358 308.302C79.6309 307.598 80.4441 307.241 81.4955 307.241C82.2393 307.241 82.8939 307.449 83.4592 307.846C84.0345 308.252 84.3519 308.808 84.4114 309.522H83.4791C83.3799 309.065 83.1419 308.699 82.7848 308.441C82.4278 308.183 81.9914 308.044 81.4657 308.044C80.6822 308.044 80.0871 308.322 79.6904 308.877C79.2936 309.432 79.0953 310.117 79.0953 310.93C79.0953 311.833 79.3036 312.537 79.73 313.053C80.1466 313.568 80.7318 313.826 81.4657 313.826C82.0608 313.826 82.5468 313.658 82.9038 313.31C83.2609 312.963 83.4692 312.457 83.5485 311.793H84.4808ZM87.7506 309.194C88.5242 309.194 89.1193 309.432 89.5557 309.909C89.9822 310.375 90.2004 311.029 90.2004 311.872C90.2004 312.745 89.9822 313.42 89.5557 313.896C89.1193 314.382 88.5143 314.62 87.7407 314.62C86.9572 314.62 86.3422 314.382 85.9058 313.906C85.4595 313.429 85.2413 312.775 85.2413 311.922C85.2413 311.089 85.4595 310.424 85.9158 309.928C86.3621 309.442 86.977 309.194 87.7506 309.194ZM87.7308 309.909C87.2349 309.909 86.8381 310.087 86.5505 310.444C86.253 310.811 86.1141 311.297 86.1141 311.902C86.1141 312.537 86.253 313.023 86.5406 313.38C86.8282 313.737 87.2349 313.906 87.7506 313.906C88.2465 313.906 88.6333 313.727 88.911 313.37C89.1887 313.013 89.3375 312.527 89.3375 311.892C89.3375 311.287 89.1887 310.801 88.9011 310.444C88.6135 310.087 88.2267 309.909 87.7308 309.909ZM91.9977 309.343L91.9878 310.097C92.2159 309.79 92.454 309.571 92.7118 309.432C92.9697 309.294 93.2871 309.224 93.6541 309.224C94.3582 309.224 94.8343 309.512 95.0823 310.107C95.5187 309.512 96.084 309.214 96.7783 309.214C97.3039 309.214 97.7006 309.353 97.9784 309.651C98.2561 309.948 98.3949 310.355 98.3949 310.89V314.471H97.5519V311.247C97.5519 310.821 97.4824 310.504 97.3535 310.285C97.2147 310.067 96.9469 309.968 96.5303 309.968C95.6575 309.968 95.2211 310.494 95.2211 311.565V314.471H94.3781V311.188C94.3781 310.791 94.3087 310.494 94.1797 310.285C94.0508 310.077 93.8028 309.978 93.4359 309.978C92.9102 309.978 92.5432 310.137 92.3449 310.454C92.1465 310.771 92.0473 311.208 92.0473 311.753V314.461H91.2043V309.343H91.9977ZM100.453 309.343V310.067C100.82 309.482 101.396 309.185 102.179 309.185C102.893 309.185 103.458 309.432 103.875 309.909C104.292 310.395 104.51 311.049 104.51 311.872C104.51 312.705 104.302 313.36 103.885 313.856C103.468 314.352 102.913 314.59 102.219 314.59C101.485 314.59 100.91 314.312 100.503 313.747V316.435H99.6599V309.343H100.453ZM102.05 309.889C101.554 309.889 101.167 310.067 100.89 310.424C100.612 310.781 100.473 311.267 100.473 311.882C100.473 312.507 100.612 312.993 100.9 313.35C101.187 313.707 101.584 313.886 102.08 313.886C102.556 313.886 102.943 313.707 103.22 313.35C103.498 312.993 103.637 312.507 103.637 311.892C103.637 311.267 103.488 310.781 103.211 310.424C102.933 310.067 102.546 309.889 102.05 309.889ZM106.432 307.399V314.461H105.579V307.399H106.432ZM112.112 312.844C111.854 314.034 111.11 314.63 109.88 314.63C109.126 314.63 108.531 314.401 108.105 313.925C107.678 313.459 107.47 312.805 107.47 311.971C107.47 311.148 107.688 310.484 108.125 309.968C108.561 309.452 109.136 309.194 109.85 309.194C110.634 309.194 111.219 309.462 111.596 309.998C111.973 310.533 112.171 311.198 112.171 312.011V312.13H108.323L108.313 312.19C108.313 312.735 108.452 313.162 108.739 313.469C109.017 313.787 109.414 313.935 109.91 313.935C110.277 313.935 110.564 313.856 110.783 313.677C111.001 313.509 111.169 313.231 111.288 312.844H112.112ZM111.298 311.446C111.259 310.96 111.11 310.583 110.852 310.305C110.594 310.028 110.247 309.889 109.83 309.889C109.414 309.889 109.077 310.028 108.809 310.305C108.531 310.583 108.372 310.97 108.323 311.446H111.298ZM115.257 309.343V310.037H114.235V313.023C114.235 313.191 114.235 313.301 114.235 313.35C114.235 313.41 114.255 313.479 114.295 313.568C114.324 313.658 114.384 313.717 114.463 313.737C114.543 313.767 114.652 313.777 114.8 313.777C114.919 313.777 115.078 313.767 115.257 313.747V314.471C115.019 314.501 114.8 314.511 114.612 314.511C114.374 314.511 114.176 314.491 114.017 314.431C113.858 314.382 113.729 314.322 113.65 314.253C113.571 314.193 113.511 314.074 113.471 313.906C113.432 313.737 113.402 313.598 113.402 313.479C113.392 313.36 113.392 313.172 113.392 312.894V312.854V312.805V312.755V310.037H112.529V309.343H113.392V307.826H114.235V309.343H115.257ZM120.567 312.844C120.309 314.034 119.565 314.63 118.336 314.63C117.582 314.63 116.987 314.401 116.56 313.925C116.134 313.459 115.925 312.805 115.925 311.971C115.925 311.148 116.144 310.484 116.58 309.968C117.016 309.452 117.592 309.194 118.306 309.194C119.089 309.194 119.675 309.462 120.051 309.998C120.428 310.533 120.627 311.198 120.627 312.011V312.13H116.778L116.769 312.19C116.769 312.735 116.907 313.162 117.195 313.469C117.473 313.787 117.869 313.935 118.365 313.935C118.732 313.935 119.02 313.856 119.238 313.677C119.456 313.509 119.625 313.231 119.744 312.844H120.567ZM119.754 311.446C119.714 310.96 119.565 310.583 119.308 310.305C119.05 310.028 118.703 309.889 118.286 309.889C117.869 309.889 117.532 310.028 117.264 310.305C116.987 310.583 116.828 310.97 116.778 311.446H119.754ZM126.132 307.399V314.461H125.339V313.707C125.012 314.302 124.446 314.6 123.653 314.6C122.919 314.6 122.344 314.362 121.917 313.876C121.491 313.39 121.282 312.725 121.282 311.892C121.282 311.119 121.481 310.484 121.877 309.968C122.274 309.452 122.859 309.194 123.613 309.194C124.347 309.194 124.902 309.472 125.289 310.028V307.399H126.132ZM123.722 309.918C123.236 309.918 122.849 310.097 122.572 310.444C122.294 310.801 122.155 311.277 122.155 311.872C122.155 312.497 122.294 312.993 122.582 313.36C122.869 313.727 123.256 313.906 123.742 313.906C124.228 313.906 124.615 313.737 124.893 313.38C125.17 313.023 125.309 312.537 125.309 311.902C125.309 311.347 125.17 310.871 124.912 310.494C124.655 310.117 124.258 309.918 123.722 309.918Z" fill="#D7D7D7"/>
<path d="M203.559 308.418C203.797 308.418 204.028 308.398 204.253 308.359C204.478 308.319 204.679 308.253 204.858 308.16C205.043 308.068 205.198 307.949 205.324 307.803C205.456 307.658 205.542 307.479 205.582 307.268H206.504V314.21H205.264V309.311H203.559V308.418ZM211.301 307.129C211.797 307.129 212.2 307.245 212.511 307.476C212.829 307.701 213.073 307.992 213.245 308.349C213.424 308.699 213.543 309.086 213.602 309.509C213.668 309.932 213.701 310.342 213.701 310.739C213.701 311.136 213.668 311.546 213.602 311.969C213.543 312.392 213.424 312.782 213.245 313.139C213.073 313.49 212.829 313.781 212.511 314.012C212.2 314.237 211.797 314.349 211.301 314.349C210.805 314.349 210.399 314.237 210.081 314.012C209.771 313.781 209.526 313.49 209.347 313.139C209.175 312.782 209.056 312.392 208.99 311.969C208.931 311.546 208.901 311.136 208.901 310.739C208.901 310.342 208.931 309.932 208.99 309.509C209.056 309.086 209.175 308.699 209.347 308.349C209.526 307.992 209.771 307.701 210.081 307.476C210.399 307.245 210.805 307.129 211.301 307.129ZM211.301 313.407C211.546 313.407 211.751 313.338 211.916 313.199C212.081 313.053 212.21 312.862 212.303 312.624C212.402 312.379 212.472 312.095 212.511 311.771C212.551 311.447 212.571 311.103 212.571 310.739C212.571 310.375 212.551 310.035 212.511 309.718C212.472 309.394 212.402 309.109 212.303 308.865C212.21 308.62 212.081 308.428 211.916 308.289C211.751 308.144 211.546 308.071 211.301 308.071C211.05 308.071 210.842 308.144 210.676 308.289C210.518 308.428 210.389 308.62 210.29 308.865C210.197 309.109 210.131 309.394 210.091 309.718C210.052 310.035 210.032 310.375 210.032 310.739C210.032 311.103 210.052 311.447 210.091 311.771C210.131 312.095 210.197 312.379 210.29 312.624C210.389 312.862 210.518 313.053 210.676 313.199C210.842 313.338 211.05 313.407 211.301 313.407ZM216.812 307.129C217.308 307.129 217.712 307.245 218.022 307.476C218.34 307.701 218.584 307.992 218.756 308.349C218.935 308.699 219.054 309.086 219.113 309.509C219.179 309.932 219.213 310.342 219.213 310.739C219.213 311.136 219.179 311.546 219.113 311.969C219.054 312.392 218.935 312.782 218.756 313.139C218.584 313.49 218.34 313.781 218.022 314.012C217.712 314.237 217.308 314.349 216.812 314.349C216.316 314.349 215.91 314.237 215.592 314.012C215.282 313.781 215.037 313.49 214.858 313.139C214.687 312.782 214.568 312.392 214.501 311.969C214.442 311.546 214.412 311.136 214.412 310.739C214.412 310.342 214.442 309.932 214.501 309.509C214.568 309.086 214.687 308.699 214.858 308.349C215.037 307.992 215.282 307.701 215.592 307.476C215.91 307.245 216.316 307.129 216.812 307.129ZM216.812 313.407C217.057 313.407 217.262 313.338 217.427 313.199C217.593 313.053 217.722 312.862 217.814 312.624C217.913 312.379 217.983 312.095 218.022 311.771C218.062 311.447 218.082 311.103 218.082 310.739C218.082 310.375 218.062 310.035 218.022 309.718C217.983 309.394 217.913 309.109 217.814 308.865C217.722 308.62 217.593 308.428 217.427 308.289C217.262 308.144 217.057 308.071 216.812 308.071C216.561 308.071 216.353 308.144 216.188 308.289C216.029 308.428 215.9 308.62 215.801 308.865C215.708 309.109 215.642 309.394 215.602 309.718C215.563 310.035 215.543 310.375 215.543 310.739C215.543 311.103 215.563 311.447 215.602 311.771C215.642 312.095 215.708 312.379 215.801 312.624C215.9 312.862 216.029 313.053 216.188 313.199C216.353 313.338 216.561 313.407 216.812 313.407ZM221.272 309.103C221.272 309.288 221.285 309.463 221.312 309.628C221.338 309.787 221.381 309.926 221.441 310.045C221.5 310.164 221.576 310.26 221.669 310.332C221.768 310.399 221.887 310.432 222.026 310.432C222.165 310.432 222.284 310.399 222.383 310.332C222.482 310.26 222.562 310.164 222.621 310.045C222.681 309.926 222.724 309.787 222.75 309.628C222.783 309.463 222.8 309.288 222.8 309.103C222.8 308.937 222.786 308.775 222.76 308.617C222.74 308.458 222.7 308.316 222.641 308.19C222.581 308.065 222.502 307.965 222.403 307.893C222.304 307.813 222.178 307.774 222.026 307.774C221.874 307.774 221.748 307.813 221.649 307.893C221.55 307.965 221.471 308.065 221.411 308.19C221.358 308.316 221.322 308.458 221.302 308.617C221.282 308.775 221.272 308.937 221.272 309.103ZM222.036 311.076C221.738 311.076 221.484 311.023 221.272 310.918C221.061 310.812 220.889 310.67 220.756 310.491C220.624 310.313 220.528 310.104 220.469 309.866C220.409 309.628 220.38 309.374 220.38 309.103C220.38 308.838 220.409 308.587 220.469 308.349C220.535 308.104 220.634 307.893 220.766 307.714C220.905 307.536 221.077 307.393 221.282 307.288C221.494 307.182 221.745 307.129 222.036 307.129C222.327 307.129 222.575 307.182 222.78 307.288C222.991 307.393 223.163 307.536 223.295 307.714C223.434 307.893 223.534 308.104 223.593 308.349C223.659 308.587 223.692 308.838 223.692 309.103C223.692 309.374 223.662 309.628 223.603 309.866C223.543 310.104 223.448 310.313 223.315 310.491C223.183 310.67 223.011 310.812 222.8 310.918C222.588 311.023 222.333 311.076 222.036 311.076ZM226.251 312.376C226.251 312.561 226.264 312.736 226.291 312.901C226.317 313.06 226.36 313.199 226.42 313.318C226.479 313.437 226.555 313.533 226.648 313.605C226.747 313.672 226.866 313.705 227.005 313.705C227.144 313.705 227.263 313.672 227.362 313.605C227.461 313.533 227.54 313.437 227.6 313.318C227.659 313.199 227.702 313.06 227.729 312.901C227.762 312.736 227.778 312.561 227.778 312.376C227.778 312.21 227.765 312.048 227.739 311.89C227.719 311.731 227.679 311.589 227.62 311.463C227.56 311.338 227.481 311.238 227.382 311.166C227.283 311.086 227.157 311.047 227.005 311.047C226.853 311.047 226.727 311.086 226.628 311.166C226.529 311.238 226.449 311.338 226.39 311.463C226.337 311.589 226.301 311.731 226.281 311.89C226.261 312.048 226.251 312.21 226.251 312.376ZM227.015 314.349C226.717 314.349 226.463 314.296 226.251 314.191C226.039 314.085 225.868 313.943 225.735 313.764C225.603 313.586 225.507 313.377 225.448 313.139C225.388 312.901 225.358 312.647 225.358 312.376C225.358 312.111 225.388 311.86 225.448 311.622C225.514 311.377 225.613 311.166 225.745 310.987C225.884 310.809 226.056 310.666 226.261 310.561C226.473 310.455 226.724 310.402 227.015 310.402C227.306 310.402 227.554 310.455 227.759 310.561C227.97 310.666 228.142 310.809 228.274 310.987C228.413 311.166 228.512 311.377 228.572 311.622C228.638 311.86 228.671 312.111 228.671 312.376C228.671 312.647 228.641 312.901 228.582 313.139C228.522 313.377 228.426 313.586 228.294 313.764C228.162 313.943 227.99 314.085 227.778 314.191C227.567 314.296 227.312 314.349 227.015 314.349ZM226.003 307.03H226.757L222.919 314.448H222.145L226.003 307.03Z" fill="#D7D7D7"/>
</g>
<path d="M73.3758 113.817L64.9453 99.7783L73.3758 106.972L90.0058 92.9331L73.3758 113.817Z" fill="#6D6D6D"/>
<path d="M73.3758 146.186L64.9453 132.148L73.3758 139.341L90.0058 125.303L73.3758 146.186Z" fill="#6D6D6D"/>
<path d="M73.3758 178.556L64.9453 164.518L73.3758 171.711L90.0058 157.672L73.3758 178.556Z" fill="#6D6D6D"/>
<path d="M73.3758 211.97L64.9453 197.932L73.3758 205.125L90.0058 191.086L73.3758 211.97Z" fill="#6D6D6D"/>
<path d="M73.3758 244.34L64.9453 230.301L73.3758 237.495L90.0058 223.456L73.3758 244.34Z" fill="#6D6D6D"/>
</g>
</g>
<defs>
<filter id="filter0_ddi_4497_28818" x="0.331263" y="0" width="305.127" height="412.1" filterUnits="userSpaceOnUse" color-interpolation-filters="sRGB">
<feFlood flood-opacity="0" result="BackgroundImageFix"/>
<feColorMatrix in="SourceAlpha" type="matrix" values="0 0 0 0 0 0 0 0 0 0 0 0 0 0 0 0 0 0 127 0" result="hardAlpha"/>
<feMorphology radius="4.66718" operator="erode" in="SourceAlpha" result="effect1_dropShadow_4497_28818"/>
<feOffset dy="9.33437"/>
<feGaussianBlur stdDeviation="4.66718"/>
<feComposite in2="hardAlpha" operator="out"/>
<feColorMatrix type="matrix" values="0 0 0 0 0 0 0 0 0 0 0 0 0 0 0 0 0 0 0.9 0"/>
<feBlend mode="normal" in2="BackgroundImageFix" result="effect1_dropShadow_4497_28818"/>
<feColorMatrix in="SourceAlpha" type="matrix" values="0 0 0 0 0 0 0 0 0 0 0 0 0 0 0 0 0 0 127 0" result="hardAlpha"/>
<feMorphology radius="4.66718" operator="erode" in="SourceAlpha" result="effect2_dropShadow_4497_28818"/>
<feOffset dy="18.6687"/>
<feGaussianBlur stdDeviation="11.668"/>
<feComposite in2="hardAlpha" operator="out"/>
<feColorMatrix type="matrix" values="0 0 0 0 0 0 0 0 0 0 0 0 0 0 0 0 0 0 0.8 0"/>
<feBlend mode="normal" in2="effect1_dropShadow_4497_28818" result="effect2_dropShadow_4497_28818"/>
<feBlend mode="normal" in="SourceGraphic" in2="effect2_dropShadow_4497_28818" result="shape"/>
<feColorMatrix in="SourceAlpha" type="matrix" values="0 0 0 0 0 0 0 0 0 0 0 0 0 0 0 0 0 0 127 0" result="hardAlpha"/>
<feOffset dy="0.933437"/>
<feGaussianBlur stdDeviation="0.933437"/>
<feComposite in2="hardAlpha" operator="arithmetic" k2="-1" k3="1"/>
<feColorMatrix type="matrix" values="0 0 0 0 0.321569 0 0 0 0 0.317647 0 0 0 0 0.329412 0 0 0 1 0"/>
<feBlend mode="normal" in2="shape" result="effect3_innerShadow_4497_28818"/>
</filter>
<linearGradient id="paint0_linear_4497_28818" x1="152.894" y1="0" x2="152.894" y2="374.763" gradientUnits="userSpaceOnUse">
<stop stop-color="#1F1F1F"/>
<stop offset="0.69" stop-color="#111111"/>
</linearGradient>
<linearGradient id="paint1_linear_4497_28818" x1="168.48" y1="102.723" x2="168.48" y2="114.058" gradientUnits="userSpaceOnUse">
<stop stop-color="white"/>
<stop offset="0.69" stop-color="#999999"/>
</linearGradient>
<linearGradient id="paint2_linear_4497_28818" x1="145.102" y1="135.311" x2="145.102" y2="146.646" gradientUnits="userSpaceOnUse">
<stop stop-color="white"/>
<stop offset="0.69" stop-color="#999999"/>
</linearGradient>
<linearGradient id="paint3_linear_4497_28818" x1="160.687" y1="167.899" x2="160.687" y2="179.234" gradientUnits="userSpaceOnUse">
<stop stop-color="white"/>
<stop offset="0.69" stop-color="#999999"/>
</linearGradient>
<linearGradient id="paint4_linear_4497_28818" x1="160.687" y1="200.487" x2="160.687" y2="211.822" gradientUnits="userSpaceOnUse">
<stop stop-color="white"/>
<stop offset="0.69" stop-color="#999999"/>
</linearGradient>
<linearGradient id="paint5_linear_4497_28818" x1="168.48" y1="233.076" x2="168.48" y2="244.411" gradientUnits="userSpaceOnUse">
<stop stop-color="white"/>
<stop offset="0.69" stop-color="#999999"/>
</linearGradient>
<clipPath id="clip0_4497_28818">
<rect x="19" width="267.789" height="374.763" rx="21.928" fill="white"/>
</clipPath>
<clipPath id="clip1_4497_28818">
<rect x="55.8379" y="294.001" width="194.111" height="34.0049" rx="17.0025" fill="white"/>
</clipPath>
</defs>
</svg>
