<svg width="348" height="386" viewBox="0 0 348 386" fill="none" xmlns="http://www.w3.org/2000/svg">
<g filter="url(#filter0_i_4740_8652)">
<rect width="348" height="87" rx="13.6624" fill="url(#paint0_linear_4740_8652)"/>
<path d="M29.5375 29.8322V30.9542C30.1062 30.0473 30.9977 29.5862 32.2119 29.5862C33.3186 29.5862 34.1947 29.9705 34.8402 30.7083C35.4858 31.4614 35.8239 32.4758 35.8239 33.7516C35.8239 35.0427 35.5012 36.0571 34.8556 36.8256C34.2101 37.5941 33.3493 37.963 32.2734 37.963C31.136 37.963 30.2446 37.5326 29.6144 36.6565V40.8219H28.3079V29.8322H29.5375ZM32.0121 30.6775C31.2436 30.6775 30.6442 30.9542 30.2138 31.5075C29.7835 32.0608 29.5683 32.814 29.5683 33.7669C29.5683 34.7353 29.7835 35.4884 30.2292 36.0417C30.6749 36.595 31.2897 36.8717 32.0582 36.8717C32.796 36.8717 33.3954 36.595 33.8258 36.0417C34.2562 35.4884 34.4714 34.7353 34.4714 33.7823C34.4714 32.814 34.2408 32.0608 33.8104 31.5075C33.3801 30.9542 32.7806 30.6775 32.0121 30.6775ZM41.5535 29.6477L41.5382 31.0157C41.446 31.0003 41.3384 31.0003 41.2 31.0003C40.785 31.0003 40.4162 31.0618 40.1087 31.1847C39.8013 31.3077 39.5708 31.4768 39.3863 31.6766C39.2019 31.8918 39.0636 32.1377 38.9406 32.4451C38.833 32.7525 38.7562 33.0599 38.7254 33.3673C38.6947 33.6747 38.6793 34.0282 38.6793 34.4125V37.7632H37.3728V29.8322H38.6178V31.5383C39.1404 30.2779 40.1087 29.6477 41.5535 29.6477ZM45.7408 29.6016C46.9397 29.6016 47.8619 29.9705 48.5382 30.7083C49.1991 31.4307 49.5373 32.4451 49.5373 33.7516C49.5373 35.1041 49.1991 36.1493 48.5382 36.8871C47.8619 37.6402 46.9244 38.0091 45.7255 38.0091C44.5112 38.0091 43.5583 37.6402 42.882 36.9025C42.1903 36.1647 41.8522 35.1502 41.8522 33.8284C41.8522 32.5373 42.1903 31.5075 42.8974 30.739C43.589 29.9859 44.542 29.6016 45.7408 29.6016ZM45.7101 30.7083C44.9416 30.7083 44.3268 30.9849 43.8811 31.5383C43.4199 32.1069 43.2048 32.8601 43.2048 33.7977C43.2048 34.7814 43.4199 35.5345 43.8657 36.0878C44.3114 36.6412 44.9416 36.9025 45.7408 36.9025C46.5094 36.9025 47.1088 36.6258 47.5392 36.0725C47.9695 35.5191 48.2001 34.766 48.2001 33.7823C48.2001 32.8447 47.9695 32.0916 47.5238 31.5383C47.0781 30.9849 46.4786 30.7083 45.7101 30.7083ZM54.4899 29.8322V30.9081H52.9067V35.5345C52.9067 35.7958 52.9067 35.9649 52.9067 36.0417C52.9067 36.1339 52.9375 36.2415 52.9989 36.3799C53.0451 36.5182 53.1373 36.6104 53.2602 36.6412C53.3832 36.6873 53.5523 36.7026 53.7828 36.7026C53.9673 36.7026 54.2132 36.6873 54.4899 36.6565V37.7786C54.121 37.8247 53.7828 37.84 53.4908 37.84C53.1219 37.84 52.8145 37.8093 52.5686 37.7171C52.3227 37.6402 52.1228 37.548 51.9999 37.4404C51.8769 37.3482 51.7847 37.1637 51.7232 36.9025C51.6617 36.6412 51.6156 36.426 51.6156 36.2415C51.6003 36.0571 51.6003 35.7651 51.6003 35.3347V35.2732V35.1964V35.1195V30.9081H50.263V29.8322H51.6003V27.4805H52.9067V29.8322H54.4899ZM59.4149 29.6016C60.6138 29.6016 61.536 29.9705 62.2123 30.7083C62.8732 31.4307 63.2114 32.4451 63.2114 33.7516C63.2114 35.1041 62.8732 36.1493 62.2123 36.8871C61.536 37.6402 60.5984 38.0091 59.3996 38.0091C58.1853 38.0091 57.2324 37.6402 56.5561 36.9025C55.8644 36.1647 55.5263 35.1502 55.5263 33.8284C55.5263 32.5373 55.8644 31.5075 56.5714 30.739C57.2631 29.9859 58.216 29.6016 59.4149 29.6016ZM59.3842 30.7083C58.6157 30.7083 58.0009 30.9849 57.5551 31.5383C57.094 32.1069 56.8788 32.8601 56.8788 33.7977C56.8788 34.7814 57.094 35.5345 57.5398 36.0878C57.9855 36.6412 58.6157 36.9025 59.4149 36.9025C60.1834 36.9025 60.7829 36.6258 61.2132 36.0725C61.6436 35.5191 61.8742 34.766 61.8742 33.7823C61.8742 32.8447 61.6436 32.0916 61.1979 31.5383C60.7521 30.9849 60.1527 30.7083 59.3842 30.7083ZM68.1639 29.8322V30.9081H66.5808V35.5345C66.5808 35.7958 66.5808 35.9649 66.5808 36.0417C66.5808 36.1339 66.6115 36.2415 66.673 36.3799C66.7191 36.5182 66.8114 36.6104 66.9343 36.6412C67.0573 36.6873 67.2264 36.7026 67.4569 36.7026C67.6413 36.7026 67.8873 36.6873 68.1639 36.6565V37.7786C67.795 37.8247 67.4569 37.84 67.1649 37.84C66.796 37.84 66.4886 37.8093 66.2427 37.7171C65.9967 37.6402 65.7969 37.548 65.674 37.4404C65.551 37.3482 65.4588 37.1637 65.3973 36.9025C65.3358 36.6412 65.2897 36.426 65.2897 36.2415C65.2743 36.0571 65.2743 35.7651 65.2743 35.3347V35.2732V35.1964V35.1195V30.9081H63.9371V29.8322H65.2743V27.4805H66.5808V29.8322H68.1639ZM76.1784 29.8322L72.7816 38.7776C72.6433 39.1465 72.5203 39.4232 72.4281 39.623C72.3359 39.8228 72.1975 40.038 72.0131 40.2839C71.8286 40.5298 71.6135 40.6989 71.3675 40.8065C71.1216 40.9141 70.8296 40.9602 70.4914 40.9602C70.2301 40.9602 69.9074 40.9141 69.5231 40.8219V39.6537C69.892 39.7767 70.184 39.8228 70.3685 39.8228C70.7988 39.8228 71.1062 39.6076 71.2907 39.1619L71.9055 37.7171L68.7546 29.8322H70.2301L72.5818 36.1493L74.8105 29.8322H76.1784ZM78.5301 29.8322V30.9542C79.0987 30.0473 79.9902 29.5862 81.2045 29.5862C82.3111 29.5862 83.1872 29.9705 83.8328 30.7083C84.4783 31.4614 84.8165 32.4758 84.8165 33.7516C84.8165 35.0427 84.4937 36.0571 83.8481 36.8256C83.2026 37.5941 82.3419 37.963 81.2659 37.963C80.1286 37.963 79.2371 37.5326 78.6069 36.6565V40.8219H77.3004V29.8322H78.5301ZM81.0047 30.6775C80.2361 30.6775 79.6367 30.9542 79.2063 31.5075C78.776 32.0608 78.5608 32.814 78.5608 33.7669C78.5608 34.7353 78.776 35.4884 79.2217 36.0417C79.6674 36.595 80.2823 36.8717 81.0508 36.8717C81.7885 36.8717 82.388 36.595 82.8183 36.0417C83.2487 35.4884 83.4639 34.7353 83.4639 33.7823C83.4639 32.814 83.2333 32.0608 82.803 31.5075C82.3726 30.9542 81.7732 30.6775 81.0047 30.6775ZM93.1897 35.2578C92.7901 37.1023 91.6374 38.0245 89.7314 38.0245C88.5633 38.0245 87.6411 37.671 86.9802 36.9332C86.3193 36.2108 85.9965 35.1964 85.9965 33.9053C85.9965 32.6295 86.3346 31.5997 87.0109 30.8005C87.6872 30.0012 88.5787 29.6016 89.6853 29.6016C90.8996 29.6016 91.8064 30.0166 92.3905 30.8466C92.9746 31.6766 93.282 32.7064 93.282 33.9667V34.1512H87.3183L87.303 34.2434C87.303 35.0888 87.5181 35.7497 87.9639 36.2262C88.3942 36.718 89.009 36.9486 89.7776 36.9486C90.3463 36.9486 90.792 36.8256 91.1301 36.5489C91.4683 36.2876 91.7296 35.8573 91.914 35.2578H93.1897ZM91.9294 33.0906C91.8679 32.3375 91.6374 31.7534 91.2377 31.3231C90.8381 30.8927 90.3001 30.6775 89.6546 30.6775C89.009 30.6775 88.4865 30.8927 88.0715 31.3231C87.6411 31.7534 87.3952 32.3529 87.3183 33.0906H91.9294ZM103.187 32.8447V34.1358H98.7143V32.8447H103.187ZM31.7816 47.6016C32.9805 47.6016 33.9027 47.9705 34.579 48.7083C35.2399 49.4307 35.578 50.4451 35.578 51.7516C35.578 53.1041 35.2399 54.1493 34.579 54.8871C33.9027 55.6402 32.9651 56.0091 31.7662 56.0091C30.552 56.0091 29.599 55.6402 28.9227 54.9025C28.2311 54.1647 27.8929 53.1502 27.8929 51.8284C27.8929 50.5373 28.2311 49.5075 28.9381 48.739C29.6297 47.9859 30.5827 47.6016 31.7816 47.6016ZM31.7508 48.7083C30.9823 48.7083 30.3675 48.9849 29.9218 49.5383C29.4607 50.1069 29.2455 50.8601 29.2455 51.7977C29.2455 52.7814 29.4607 53.5345 29.9064 54.0878C30.3521 54.6412 30.9823 54.9025 31.7816 54.9025C32.5501 54.9025 33.1495 54.6258 33.5799 54.0725C34.0103 53.5191 34.2408 52.766 34.2408 51.7823C34.2408 50.8447 34.0103 50.0916 33.5645 49.5383C33.1188 48.9849 32.5193 48.7083 31.7508 48.7083ZM38.3634 47.8322V49.0618C39.0089 48.1088 39.9158 47.617 41.0685 47.617C41.9908 47.617 42.667 47.8629 43.082 48.3547C43.497 48.8466 43.7122 49.5536 43.7122 50.4912V55.7632H42.4058V51.0906C42.4058 50.7064 42.3904 50.399 42.3596 50.1838C42.3289 49.9686 42.2674 49.7227 42.1752 49.4768C42.0676 49.2308 41.8985 49.0464 41.6526 48.9234C41.4067 48.8159 41.0839 48.7544 40.6997 48.7544C39.1934 48.7544 38.4402 49.7073 38.4402 51.6132V55.7632H37.1338V47.8322H38.3634ZM46.9655 44.8196V48.9234C47.5342 48.0627 48.4103 47.617 49.5938 47.617C50.6698 47.617 51.5459 48.0012 52.1914 48.7544C52.837 49.5075 53.1751 50.5066 53.1751 51.7669C53.1751 53.058 52.837 54.0725 52.176 54.841C51.4997 55.6095 50.6236 55.9937 49.517 55.9937C48.2566 55.9937 47.3805 55.5326 46.8887 54.6104V55.7632H45.6591V44.8196H46.9655ZM49.394 48.7236C48.5487 48.7236 47.9185 49.031 47.5189 49.6305C47.1192 50.2453 46.9194 50.983 46.9194 51.8592C46.9194 52.7967 47.1346 53.5345 47.5803 54.0878C48.0261 54.6412 48.6255 54.9025 49.394 54.9025C50.1164 54.9025 50.7005 54.6258 51.1462 54.0571C51.592 53.4884 51.8225 52.7353 51.8225 51.7823C51.8225 50.8601 51.592 50.1069 51.1616 49.5536C50.7159 49.0003 50.1318 48.7236 49.394 48.7236ZM58.2592 47.6016C59.458 47.6016 60.3802 47.9705 61.0565 48.7083C61.7175 49.4307 62.0556 50.4451 62.0556 51.7516C62.0556 53.1041 61.7175 54.1493 61.0565 54.8871C60.3802 55.6402 59.4427 56.0091 58.2438 56.0091C57.0295 56.0091 56.0766 55.6402 55.4003 54.9025C54.7086 54.1647 54.3705 53.1502 54.3705 51.8284C54.3705 50.5373 54.7086 49.5075 55.4157 48.739C56.1073 47.9859 57.0603 47.6016 58.2592 47.6016ZM58.2284 48.7083C57.4599 48.7083 56.8451 48.9849 56.3994 49.5383C55.9383 50.1069 55.7231 50.8601 55.7231 51.7977C55.7231 52.7814 55.9383 53.5345 56.384 54.0878C56.8297 54.6412 57.4599 54.9025 58.2592 54.9025C59.0277 54.9025 59.6271 54.6258 60.0575 54.0725C60.4878 53.5191 60.7184 52.766 60.7184 51.7823C60.7184 50.8447 60.4878 50.0916 60.0421 49.5383C59.5964 48.9849 58.9969 48.7083 58.2284 48.7083ZM70.6355 54.718V55.7478C70.3589 55.84 70.0668 55.9015 69.7441 55.9015C68.9909 55.9015 68.6067 55.5019 68.5913 54.7334C67.8382 55.5634 66.8852 55.9937 65.7171 55.9937C64.9332 55.9937 64.3184 55.7939 63.8573 55.3943C63.3962 54.9947 63.181 54.4413 63.181 53.7497C63.181 52.3356 64.1186 51.5056 65.9937 51.2751C66.1167 51.2443 66.2858 51.229 66.5317 51.2136C67.4232 51.106 67.9611 50.983 68.1763 50.8601C68.4069 50.691 68.5298 50.4144 68.5298 50.0147C68.5298 49.1386 67.9304 48.7083 66.7315 48.7083C66.1167 48.7083 65.6402 48.8312 65.3328 49.0771C65.01 49.3231 64.8256 49.7381 64.7641 50.3221H63.4884C63.5038 49.4614 63.8112 48.8005 64.3952 48.3394C64.9793 47.8629 65.7785 47.6323 66.8084 47.6323C67.915 47.6323 68.745 47.8783 69.2983 48.4009C69.4674 48.5546 69.5904 48.7697 69.6826 49.0464C69.7594 49.3077 69.8055 49.5229 69.8209 49.692C69.8209 49.861 69.8363 50.1223 69.8363 50.4605C69.8363 50.8447 69.8209 51.4288 69.8055 52.2127C69.7748 53.0119 69.7748 53.596 69.7748 53.9802C69.7748 54.2723 69.8055 54.4721 69.8824 54.595C69.9592 54.718 70.0976 54.7641 70.3128 54.7641C70.3896 54.7641 70.4972 54.7488 70.6355 54.718ZM68.5298 51.6593C68.4376 51.7208 68.33 51.7823 68.2378 51.8438C68.1302 51.8899 67.9919 51.936 67.8382 51.9667C67.6845 51.9975 67.5769 52.0129 67.5154 52.0282C67.4539 52.0436 67.3309 52.059 67.1158 52.0897C66.9006 52.1204 66.7776 52.1358 66.7776 52.1358C66.4548 52.1666 66.2397 52.1973 66.1474 52.2127C66.0552 52.228 65.8708 52.2741 65.5941 52.351C65.3174 52.4125 65.133 52.5047 65.0254 52.5969C64.9024 52.6891 64.7949 52.8121 64.6873 52.9965C64.5797 53.181 64.5336 53.3962 64.5336 53.6421C64.5336 54.0417 64.6719 54.3645 64.9486 54.6104C65.2252 54.841 65.6248 54.9639 66.1167 54.9639C66.7315 54.9639 67.3002 54.7795 67.792 54.4106C68.2839 54.0417 68.5298 53.596 68.5298 53.1041V51.6593ZM76.0014 47.6477L75.986 49.0157C75.8938 49.0003 75.7862 49.0003 75.6479 49.0003C75.2329 49.0003 74.864 49.0618 74.5566 49.1847C74.2492 49.3077 74.0187 49.4768 73.8342 49.6766C73.6498 49.8918 73.5114 50.1377 73.3885 50.4451C73.2809 50.7525 73.204 51.0599 73.1733 51.3673C73.1426 51.6747 73.1272 52.0282 73.1272 52.4125V55.7632H71.8207V47.8322H73.0657V49.5383C73.5883 48.2779 74.5566 47.6477 76.0014 47.6477ZM83.8622 44.8196V55.7632H82.6326V54.595C82.1254 55.5173 81.2493 55.9784 80.0196 55.9784C78.8822 55.9784 77.9908 55.6095 77.3299 54.8563C76.6689 54.1032 76.3462 53.0734 76.3462 51.7823C76.3462 50.5834 76.6536 49.5997 77.2684 48.8005C77.8832 48.0012 78.79 47.6016 79.9582 47.6016C81.0956 47.6016 81.9563 48.032 82.5557 48.8927V44.8196H83.8622ZM80.1272 48.7236C79.3741 48.7236 78.7747 49.0003 78.3443 49.5383C77.9139 50.0916 77.6987 50.8293 77.6987 51.7516C77.6987 52.7199 77.9139 53.4884 78.3597 54.0571C78.8054 54.6258 79.4048 54.9025 80.158 54.9025C80.9111 54.9025 81.5106 54.6412 81.9409 54.0878C82.3713 53.5345 82.5865 52.7814 82.5865 51.7977C82.5865 50.9369 82.3713 50.1992 81.9717 49.6151C81.572 49.031 80.9572 48.7236 80.1272 48.7236ZM87.2094 44.8196V46.4181H85.8876V44.8196H87.2094ZM87.2094 47.8322V55.7632H85.8876V47.8322H87.2094ZM90.463 47.8322V49.0618C91.1085 48.1088 92.0154 47.617 93.1681 47.617C94.0903 47.617 94.7666 47.8629 95.1816 48.3547C95.5966 48.8466 95.8118 49.5536 95.8118 50.4912V55.7632H94.5053V51.0906C94.5053 50.7064 94.49 50.399 94.4592 50.1838C94.4285 49.9686 94.367 49.7227 94.2748 49.4768C94.1672 49.2308 93.9981 49.0464 93.7522 48.9234C93.5063 48.8159 93.1835 48.7544 92.7992 48.7544C91.293 48.7544 90.5398 49.7073 90.5398 51.6132V55.7632H89.2334V47.8322H90.463ZM104.645 47.8322V54.9178C104.645 55.5941 104.598 56.1321 104.537 56.501C104.46 56.8698 104.322 57.2234 104.122 57.5461C103.538 58.5145 102.493 58.9909 100.986 58.9909C100.095 58.9909 99.3418 58.8219 98.727 58.453C98.1122 58.0841 97.7587 57.4846 97.6511 56.6547H98.9883C99.142 57.5461 99.8336 57.9765 101.033 57.9765C101.847 57.9765 102.431 57.7767 102.8 57.3617C103.169 56.9621 103.353 56.3011 103.384 55.3789L103.4 54.4106C102.892 55.3789 102.047 55.8554 100.863 55.8554C99.8029 55.8554 98.9575 55.5019 98.3274 54.7641C97.6972 54.0417 97.3744 53.058 97.3744 51.8284C97.3744 50.6756 97.6972 49.692 98.312 48.862C98.9422 48.032 99.8183 47.617 100.94 47.617C101.494 47.617 101.985 47.7399 102.416 47.9705C102.846 48.2164 103.2 48.5546 103.446 48.9849V47.8322H104.645ZM101.002 48.7697C100.295 48.7697 99.726 49.031 99.3264 49.5844C98.9268 50.1377 98.727 50.8908 98.727 51.8592C98.727 52.7199 98.9268 53.4269 99.3572 53.9495C99.7722 54.4721 100.325 54.7488 101.033 54.7488C101.755 54.7488 102.324 54.4721 102.739 53.9188C103.154 53.3654 103.369 52.5969 103.369 51.644C103.369 50.7371 103.154 50.0301 102.739 49.5229C102.324 49.0157 101.74 48.7697 101.002 48.7697ZM115.504 44.7889H116.811V55.7632H115.504V44.7889ZM111.416 48.9696H110.078V47.8168H111.416V46.6333C111.416 45.9877 111.6 45.5113 111.969 45.1731C112.338 44.835 112.891 44.6659 113.614 44.6659C113.737 44.6659 113.875 44.6813 114.029 44.6966C114.182 44.7274 114.336 44.7581 114.459 44.7889V45.9263C114.336 45.8955 114.213 45.8648 114.09 45.8494C113.952 45.834 113.829 45.8187 113.721 45.8187C113.398 45.8187 113.153 45.8801 112.983 46.0031C112.799 46.1261 112.722 46.372 112.722 46.7101V47.8168H114.259V48.9696H112.722V55.7632H111.416V48.9696ZM122.307 47.6016C123.506 47.6016 124.428 47.9705 125.104 48.7083C125.765 49.4307 126.103 50.4451 126.103 51.7516C126.103 53.1041 125.765 54.1493 125.104 54.8871C124.428 55.6402 123.49 56.0091 122.291 56.0091C121.077 56.0091 120.124 55.6402 119.448 54.9025C118.756 54.1647 118.418 53.1502 118.418 51.8284C118.418 50.5373 118.756 49.5075 119.463 48.739C120.155 47.9859 121.108 47.6016 122.307 47.6016ZM122.276 48.7083C121.507 48.7083 120.893 48.9849 120.447 49.5383C119.986 50.1069 119.771 50.8601 119.771 51.7977C119.771 52.7814 119.986 53.5345 120.432 54.0878C120.877 54.6412 121.507 54.9025 122.307 54.9025C123.075 54.9025 123.675 54.6258 124.105 54.0725C124.535 53.5191 124.766 52.766 124.766 51.7823C124.766 50.8447 124.535 50.0916 124.09 49.5383C123.644 48.9849 123.044 48.7083 122.276 48.7083ZM126.936 47.8322H128.381L130.195 54.3645L131.809 47.8322H133.238L134.914 54.3645L136.712 47.8322H138.065L135.528 55.7632H134.145L132.516 49.4921L130.902 55.7632H129.488L126.936 47.8322Z" fill="white"/>
<g clip-path="url(#clip0_4740_8652)">
<path d="M236.865 31.5943H401.775L392.954 57.2113H236.865V31.5943Z" fill="#3FA5E0" fill-opacity="0.44"/>
<path d="M253.364 42.2877V43.0904C253.786 42.4683 254.378 42.1472 255.13 42.1472C255.732 42.1472 256.174 42.3078 256.445 42.6288C256.716 42.9499 256.856 43.4114 256.856 44.0235V47.4649H256.003V44.4148C256.003 44.1639 255.993 43.9633 255.973 43.8228C255.953 43.6823 255.913 43.5218 255.853 43.3613C255.782 43.2007 255.672 43.0803 255.512 43.0001C255.351 42.9298 255.14 42.8897 254.89 42.8897C253.906 42.8897 253.415 43.5118 253.415 44.7559V47.4649H252.562V42.2877H253.364ZM262.562 45.8295C262.301 47.0335 261.548 47.6355 260.304 47.6355C259.542 47.6355 258.94 47.4047 258.508 46.9231C258.077 46.4515 257.866 45.7893 257.866 44.9465C257.866 44.1138 258.087 43.4415 258.528 42.9198C258.97 42.3981 259.552 42.1372 260.274 42.1372C261.067 42.1372 261.659 42.4081 262.04 42.9499C262.421 43.4917 262.622 44.1639 262.622 44.9867V45.1071H258.729L258.719 45.1673C258.719 45.7191 258.859 46.1505 259.15 46.4616C259.431 46.7826 259.833 46.9331 260.334 46.9331C260.705 46.9331 260.996 46.8529 261.217 46.6723C261.438 46.5017 261.608 46.2208 261.729 45.8295H262.562ZM261.739 44.4148C261.699 43.9231 261.548 43.5419 261.287 43.2609C261.027 42.98 260.675 42.8395 260.254 42.8395C259.833 42.8395 259.491 42.98 259.221 43.2609C258.94 43.5419 258.779 43.9332 258.729 44.4148H261.739ZM263.054 42.2877H263.998L265.181 46.5519L266.235 42.2877H267.168L268.262 46.5519L269.436 42.2877H270.319L268.663 47.4649H267.76L266.696 43.3713L265.643 47.4649H264.72L263.054 42.2877ZM276.139 42.2877V42.99H275.106V46.0101C275.106 46.1806 275.106 46.291 275.106 46.3412C275.106 46.4014 275.126 46.4716 275.166 46.5619C275.196 46.6522 275.256 46.7124 275.337 46.7325C275.417 46.7626 275.527 46.7726 275.678 46.7726C275.798 46.7726 275.959 46.7626 276.139 46.7425V47.4749C275.898 47.505 275.678 47.5151 275.487 47.5151C275.246 47.5151 275.046 47.495 274.885 47.4348C274.724 47.3846 274.594 47.3244 274.514 47.2542C274.434 47.194 274.373 47.0736 274.333 46.903C274.293 46.7325 274.263 46.592 274.263 46.4716C274.253 46.3512 274.253 46.1606 274.253 45.8796V45.8395V45.7893V45.7392V42.99H273.38V42.2877H274.253V40.7526H275.106V42.2877H276.139ZM281.672 46.7826V47.4549C281.491 47.5151 281.301 47.5552 281.09 47.5552C280.598 47.5552 280.347 47.2943 280.337 46.7927C279.846 47.3345 279.224 47.6154 278.461 47.6154C277.949 47.6154 277.548 47.485 277.247 47.2241C276.946 46.9632 276.806 46.602 276.806 46.1505C276.806 45.2275 277.418 44.6857 278.642 44.5352C278.722 44.5151 278.832 44.5051 278.993 44.495C279.575 44.4248 279.926 44.3445 280.067 44.2643C280.217 44.1539 280.297 43.9733 280.297 43.7124C280.297 43.1405 279.906 42.8596 279.123 42.8596C278.722 42.8596 278.411 42.9399 278.21 43.1004C278 43.2609 277.879 43.5318 277.839 43.9131H277.006C277.016 43.3512 277.217 42.9198 277.598 42.6188C277.98 42.3078 278.501 42.1573 279.174 42.1573C279.896 42.1573 280.438 42.3178 280.799 42.6589C280.909 42.7593 280.99 42.8997 281.05 43.0803C281.1 43.2509 281.13 43.3914 281.14 43.5017C281.14 43.6121 281.15 43.7827 281.15 44.0034C281.15 44.2542 281.14 44.6355 281.13 45.1472C281.11 45.6689 281.11 46.0502 281.11 46.301C281.11 46.4917 281.13 46.6221 281.18 46.7024C281.23 46.7826 281.321 46.8127 281.461 46.8127C281.511 46.8127 281.582 46.8027 281.672 46.7826ZM280.297 44.786C280.237 44.8261 280.167 44.8663 280.107 44.9064C280.036 44.9365 279.946 44.9666 279.846 44.9867C279.745 45.0067 279.675 45.0168 279.635 45.0268C279.595 45.0368 279.515 45.0469 279.374 45.0669C279.234 45.087 279.153 45.097 279.153 45.097C278.943 45.1171 278.802 45.1372 278.742 45.1472C278.682 45.1572 278.562 45.1873 278.381 45.2375C278.2 45.2776 278.08 45.3378 278.01 45.398C277.929 45.4582 277.859 45.5385 277.789 45.6589C277.719 45.7793 277.689 45.9198 277.689 46.0803C277.689 46.3412 277.779 46.5519 277.96 46.7124C278.14 46.8629 278.401 46.9432 278.722 46.9432C279.123 46.9432 279.495 46.8228 279.816 46.582C280.137 46.3412 280.297 46.0502 280.297 45.7291V44.786ZM286.318 43.7927H285.466C285.405 43.1706 284.984 42.8496 284.201 42.8496C283.87 42.8496 283.609 42.9198 283.429 43.0402C283.238 43.1706 283.148 43.3412 283.148 43.5519C283.148 43.6121 283.148 43.6723 283.168 43.7325C283.178 43.7927 283.198 43.8429 283.238 43.883C283.278 43.9231 283.308 43.9633 283.338 43.9934C283.369 44.0335 283.419 44.0636 283.489 44.0937C283.559 44.1238 283.609 44.1439 283.65 44.1639C283.69 44.184 283.75 44.2141 283.85 44.2342C283.951 44.2542 284.021 44.2743 284.061 44.2843C284.101 44.2944 284.171 44.3144 284.292 44.3345C284.412 44.3646 284.482 44.3847 284.522 44.3847C284.763 44.4449 284.954 44.485 285.074 44.5151C285.195 44.5552 285.365 44.6154 285.586 44.7057C285.807 44.796 285.967 44.8863 286.088 44.9867C286.198 45.087 286.298 45.2174 286.389 45.388C286.479 45.5586 286.529 45.7492 286.529 45.9599C286.529 46.4616 286.328 46.8729 285.937 47.1739C285.546 47.4749 285.024 47.6254 284.382 47.6254C283.68 47.6254 283.138 47.4749 282.757 47.1639C282.375 46.8629 282.175 46.4114 282.155 45.8295H282.997C283.037 46.5619 283.509 46.9231 284.402 46.9231C284.783 46.9231 285.084 46.8529 285.315 46.6923C285.546 46.5318 285.666 46.3211 285.666 46.0602C285.666 45.8897 285.606 45.7492 285.486 45.6288C285.365 45.5184 285.225 45.4382 285.084 45.388C284.934 45.3378 284.723 45.2776 284.452 45.2074C284.412 45.2074 284.382 45.1974 284.362 45.1873C284.302 45.1773 284.171 45.1472 283.971 45.1071C283.77 45.0669 283.629 45.0268 283.549 44.9967C283.459 44.9766 283.328 44.9365 283.168 44.8763C283.007 44.8161 282.887 44.7559 282.807 44.6957C282.726 44.6355 282.636 44.5552 282.536 44.4549C282.435 44.3546 282.375 44.2442 282.335 44.1138C282.295 43.9833 282.275 43.8328 282.275 43.6623C282.275 43.2007 282.446 42.8295 282.807 42.5486C283.168 42.2777 283.65 42.1372 284.252 42.1372C284.854 42.1372 285.355 42.2877 285.736 42.5686C286.118 42.8596 286.318 43.271 286.318 43.7927ZM291.847 42.2877L289.79 44.1639L291.997 47.4649H290.914L289.138 44.7559L288.325 45.5084V47.4649H287.492V40.3212H288.325V44.5452L290.703 42.2877H291.847Z" fill="white"/>
</g>
<rect x="237.132" y="31.8613" width="68.312" height="25.0833" rx="12.5417" stroke="#2CBCFF" stroke-width="0.533688"/>
</g>
<g filter="url(#filter1_i_4740_8652)">
<rect y="100" width="348" height="87" rx="13.6624" fill="url(#paint1_linear_4740_8652)"/>
<path d="M29.5375 129.832V130.954C30.1062 130.047 30.9977 129.586 32.2119 129.586C33.3186 129.586 34.1947 129.97 34.8402 130.708C35.4858 131.461 35.8239 132.476 35.8239 133.751C35.8239 135.042 35.5012 136.057 34.8556 136.825C34.2101 137.594 33.3493 137.963 32.2734 137.963C31.136 137.963 30.2446 137.532 29.6144 136.656V140.822H28.3079V129.832H29.5375ZM32.0121 130.677C31.2436 130.677 30.6442 130.954 30.2138 131.507C29.7835 132.061 29.5683 132.814 29.5683 133.767C29.5683 134.735 29.7835 135.488 30.2292 136.041C30.6749 136.595 31.2897 136.871 32.0582 136.871C32.796 136.871 33.3954 136.595 33.8258 136.041C34.2562 135.488 34.4714 134.735 34.4714 133.782C34.4714 132.814 34.2408 132.061 33.8104 131.507C33.3801 130.954 32.7806 130.677 32.0121 130.677ZM41.5535 129.647L41.5382 131.015C41.446 131 41.3384 131 41.2 131C40.785 131 40.4162 131.062 40.1087 131.184C39.8013 131.307 39.5708 131.477 39.3863 131.676C39.2019 131.892 39.0636 132.137 38.9406 132.445C38.833 132.752 38.7562 133.06 38.7254 133.367C38.6947 133.674 38.6793 134.028 38.6793 134.412V137.763H37.3728V129.832H38.6178V131.538C39.1404 130.278 40.1087 129.647 41.5535 129.647ZM45.7408 129.601C46.9397 129.601 47.8619 129.97 48.5382 130.708C49.1991 131.43 49.5373 132.445 49.5373 133.751C49.5373 135.104 49.1991 136.149 48.5382 136.887C47.8619 137.64 46.9244 138.009 45.7255 138.009C44.5112 138.009 43.5583 137.64 42.882 136.902C42.1903 136.164 41.8522 135.15 41.8522 133.828C41.8522 132.537 42.1903 131.507 42.8974 130.739C43.589 129.986 44.542 129.601 45.7408 129.601ZM45.7101 130.708C44.9416 130.708 44.3268 130.985 43.8811 131.538C43.4199 132.107 43.2048 132.86 43.2048 133.797C43.2048 134.781 43.4199 135.534 43.8657 136.088C44.3114 136.641 44.9416 136.902 45.7408 136.902C46.5094 136.902 47.1088 136.626 47.5392 136.072C47.9695 135.519 48.2001 134.766 48.2001 133.782C48.2001 132.844 47.9695 132.091 47.5238 131.538C47.0781 130.985 46.4786 130.708 45.7101 130.708ZM54.4899 129.832V130.908H52.9067V135.534C52.9067 135.796 52.9067 135.965 52.9067 136.041C52.9067 136.134 52.9375 136.241 52.9989 136.38C53.0451 136.518 53.1373 136.61 53.2602 136.641C53.3832 136.687 53.5523 136.702 53.7828 136.702C53.9673 136.702 54.2132 136.687 54.4899 136.656V137.778C54.121 137.824 53.7828 137.84 53.4908 137.84C53.1219 137.84 52.8145 137.809 52.5686 137.717C52.3227 137.64 52.1228 137.548 51.9999 137.44C51.8769 137.348 51.7847 137.164 51.7232 136.902C51.6617 136.641 51.6156 136.426 51.6156 136.241C51.6003 136.057 51.6003 135.765 51.6003 135.334V135.273V135.196V135.119V130.908H50.263V129.832H51.6003V127.48H52.9067V129.832H54.4899ZM59.4149 129.601C60.6138 129.601 61.536 129.97 62.2123 130.708C62.8732 131.43 63.2114 132.445 63.2114 133.751C63.2114 135.104 62.8732 136.149 62.2123 136.887C61.536 137.64 60.5984 138.009 59.3996 138.009C58.1853 138.009 57.2324 137.64 56.5561 136.902C55.8644 136.164 55.5263 135.15 55.5263 133.828C55.5263 132.537 55.8644 131.507 56.5714 130.739C57.2631 129.986 58.216 129.601 59.4149 129.601ZM59.3842 130.708C58.6157 130.708 58.0009 130.985 57.5551 131.538C57.094 132.107 56.8788 132.86 56.8788 133.797C56.8788 134.781 57.094 135.534 57.5398 136.088C57.9855 136.641 58.6157 136.902 59.4149 136.902C60.1834 136.902 60.7829 136.626 61.2132 136.072C61.6436 135.519 61.8742 134.766 61.8742 133.782C61.8742 132.844 61.6436 132.091 61.1979 131.538C60.7521 130.985 60.1527 130.708 59.3842 130.708ZM68.1639 129.832V130.908H66.5808V135.534C66.5808 135.796 66.5808 135.965 66.5808 136.041C66.5808 136.134 66.6115 136.241 66.673 136.38C66.7191 136.518 66.8114 136.61 66.9343 136.641C67.0573 136.687 67.2264 136.702 67.4569 136.702C67.6413 136.702 67.8873 136.687 68.1639 136.656V137.778C67.795 137.824 67.4569 137.84 67.1649 137.84C66.796 137.84 66.4886 137.809 66.2427 137.717C65.9967 137.64 65.7969 137.548 65.674 137.44C65.551 137.348 65.4588 137.164 65.3973 136.902C65.3358 136.641 65.2897 136.426 65.2897 136.241C65.2743 136.057 65.2743 135.765 65.2743 135.334V135.273V135.196V135.119V130.908H63.9371V129.832H65.2743V127.48H66.5808V129.832H68.1639ZM76.1784 129.832L72.7816 138.777C72.6433 139.146 72.5203 139.423 72.4281 139.623C72.3359 139.823 72.1975 140.038 72.0131 140.284C71.8286 140.53 71.6135 140.699 71.3675 140.806C71.1216 140.914 70.8296 140.96 70.4914 140.96C70.2301 140.96 69.9074 140.914 69.5231 140.822V139.653C69.892 139.776 70.184 139.823 70.3685 139.823C70.7988 139.823 71.1062 139.607 71.2907 139.162L71.9055 137.717L68.7546 129.832H70.2301L72.5818 136.149L74.8105 129.832H76.1784ZM78.5301 129.832V130.954C79.0987 130.047 79.9902 129.586 81.2045 129.586C82.3111 129.586 83.1872 129.97 83.8328 130.708C84.4783 131.461 84.8165 132.476 84.8165 133.751C84.8165 135.042 84.4937 136.057 83.8481 136.825C83.2026 137.594 82.3419 137.963 81.2659 137.963C80.1286 137.963 79.2371 137.532 78.6069 136.656V140.822H77.3004V129.832H78.5301ZM81.0047 130.677C80.2361 130.677 79.6367 130.954 79.2063 131.507C78.776 132.061 78.5608 132.814 78.5608 133.767C78.5608 134.735 78.776 135.488 79.2217 136.041C79.6674 136.595 80.2823 136.871 81.0508 136.871C81.7885 136.871 82.388 136.595 82.8183 136.041C83.2487 135.488 83.4639 134.735 83.4639 133.782C83.4639 132.814 83.2333 132.061 82.803 131.507C82.3726 130.954 81.7732 130.677 81.0047 130.677ZM93.1897 135.258C92.7901 137.102 91.6374 138.024 89.7314 138.024C88.5633 138.024 87.6411 137.671 86.9802 136.933C86.3193 136.211 85.9965 135.196 85.9965 133.905C85.9965 132.629 86.3346 131.599 87.0109 130.8C87.6872 130.001 88.5787 129.601 89.6853 129.601C90.8996 129.601 91.8064 130.016 92.3905 130.846C92.9746 131.676 93.282 132.706 93.282 133.966V134.151H87.3183L87.303 134.243C87.303 135.089 87.5181 135.749 87.9639 136.226C88.3942 136.718 89.009 136.948 89.7776 136.948C90.3463 136.948 90.792 136.825 91.1301 136.549C91.4683 136.287 91.7296 135.857 91.914 135.258H93.1897ZM91.9294 133.09C91.8679 132.337 91.6374 131.753 91.2377 131.323C90.8381 130.892 90.3001 130.677 89.6546 130.677C89.009 130.677 88.4865 130.892 88.0715 131.323C87.6411 131.753 87.3952 132.353 87.3183 133.09H91.9294ZM103.187 132.844V134.136H98.7143V132.844H103.187ZM35.3321 154.718V155.748C35.0554 155.84 34.7634 155.901 34.4406 155.901C33.6875 155.901 33.3032 155.502 33.2879 154.733C32.5347 155.563 31.5818 155.993 30.4136 155.993C29.6297 155.993 29.0149 155.794 28.5538 155.394C28.0927 154.994 27.8775 154.441 27.8775 153.749C27.8775 152.335 28.8151 151.505 30.6903 151.275C30.8133 151.244 30.9823 151.229 31.2283 151.213C32.1197 151.106 32.6577 150.983 32.8729 150.86C33.1034 150.691 33.2264 150.414 33.2264 150.014C33.2264 149.138 32.6269 148.708 31.4281 148.708C30.8133 148.708 30.3368 148.831 30.0294 149.077C29.7066 149.323 29.5222 149.738 29.4607 150.322H28.185C28.2003 149.461 28.5077 148.8 29.0918 148.339C29.6759 147.863 30.4751 147.632 31.5049 147.632C32.6116 147.632 33.4416 147.878 33.9949 148.401C34.164 148.554 34.2869 148.769 34.3791 149.046C34.456 149.307 34.5021 149.523 34.5175 149.692C34.5175 149.861 34.5328 150.122 34.5328 150.46C34.5328 150.844 34.5175 151.429 34.5021 152.212C34.4714 153.012 34.4714 153.596 34.4714 153.98C34.4714 154.272 34.5021 154.472 34.579 154.595C34.6558 154.718 34.7941 154.764 35.0093 154.764C35.0862 154.764 35.1938 154.749 35.3321 154.718ZM33.2264 151.659C33.1342 151.721 33.0266 151.782 32.9343 151.844C32.8268 151.89 32.6884 151.936 32.5347 151.966C32.381 151.997 32.2734 152.013 32.2119 152.028C32.1505 152.043 32.0275 152.059 31.8123 152.089C31.5971 152.12 31.4742 152.136 31.4742 152.136C31.1514 152.166 30.9362 152.197 30.844 152.212C30.7518 152.228 30.5673 152.274 30.2907 152.351C30.014 152.412 29.8296 152.504 29.722 152.597C29.599 152.689 29.4914 152.812 29.3838 152.996C29.2762 153.181 29.2301 153.396 29.2301 153.642C29.2301 154.041 29.3685 154.364 29.6451 154.61C29.9218 154.841 30.3214 154.964 30.8133 154.964C31.4281 154.964 31.9968 154.779 32.4886 154.41C32.9805 154.041 33.2264 153.596 33.2264 153.104V151.659ZM43.1418 147.832L43.1265 155.763H41.9122V154.518C41.2359 155.502 40.3291 155.978 39.1763 155.978C38.3463 155.978 37.6854 155.748 37.2243 155.286C36.7632 154.825 36.5327 154.164 36.5327 153.288V147.832H37.8391V152.935C37.8391 153.565 37.9621 154.041 38.208 154.364C38.4539 154.687 38.8843 154.841 39.5145 154.841C41.0515 154.841 41.8354 153.888 41.8354 151.982V147.832H43.1418ZM48.5009 147.832V148.908H46.9177V153.534C46.9177 153.796 46.9177 153.965 46.9177 154.041C46.9177 154.134 46.9485 154.241 47.01 154.38C47.0561 154.518 47.1483 154.61 47.2713 154.641C47.3942 154.687 47.5633 154.702 47.7938 154.702C47.9783 154.702 48.2242 154.687 48.5009 154.656V155.778C48.132 155.824 47.7938 155.84 47.5018 155.84C47.1329 155.84 46.8255 155.809 46.5796 155.717C46.3337 155.64 46.1339 155.548 46.0109 155.44C45.8879 155.348 45.7957 155.164 45.7342 154.902C45.6728 154.641 45.6266 154.426 45.6266 154.241C45.6113 154.057 45.6113 153.765 45.6113 153.334V153.273V153.196V153.119V148.908H44.2741V147.832H45.6113V145.48H46.9177V147.832H48.5009ZM51.2587 144.819V148.954C51.8428 148.078 52.7035 147.632 53.8563 147.632C55.6393 147.632 56.5307 148.539 56.5307 150.337V155.763H55.2243V150.645C55.2243 150.045 55.0859 149.584 54.84 149.261C54.5941 148.939 54.133 148.769 53.4874 148.769C52.6882 148.769 52.1041 149.031 51.766 149.538C51.4278 150.061 51.2587 150.783 51.2587 151.736V155.763H49.9523V144.819H51.2587ZM65.2712 153.258C64.8716 155.102 63.7188 156.024 61.8129 156.024C60.6448 156.024 59.7226 155.671 59.0616 154.933C58.4007 154.211 58.078 153.196 58.078 151.905C58.078 150.629 58.4161 149.599 59.0924 148.8C59.7687 148.001 60.6602 147.601 61.7668 147.601C62.9811 147.601 63.8879 148.016 64.472 148.846C65.056 149.676 65.3634 150.706 65.3634 151.966V152.151H59.3998L59.3844 152.243C59.3844 153.089 59.5996 153.749 60.0453 154.226C60.4757 154.718 61.0905 154.948 61.859 154.948C62.4277 154.948 62.8735 154.825 63.2116 154.549C63.5497 154.287 63.811 153.857 63.9955 153.258H65.2712ZM64.0109 151.09C63.9494 150.337 63.7188 149.753 63.3192 149.323C62.9196 148.892 62.3816 148.677 61.7361 148.677C61.0905 148.677 60.5679 148.892 60.1529 149.323C59.7226 149.753 59.4766 150.353 59.3998 151.09H64.0109ZM67.978 147.832V149.062C68.6236 148.109 69.5304 147.617 70.6832 147.617C71.6054 147.617 72.2817 147.863 72.6967 148.355C73.1117 148.846 73.3269 149.553 73.3269 150.491V155.763H72.0204V151.09C72.0204 150.706 72.005 150.399 71.9743 150.184C71.9436 149.968 71.8821 149.722 71.7899 149.477C71.6823 149.231 71.5132 149.046 71.2673 148.923C71.0213 148.816 70.6986 148.754 70.3143 148.754C68.808 148.754 68.0549 149.707 68.0549 151.613V155.763H66.7484V147.832H67.978ZM78.6859 147.832V148.908H77.1028V153.534C77.1028 153.796 77.1028 153.965 77.1028 154.041C77.1028 154.134 77.1335 154.241 77.195 154.38C77.2411 154.518 77.3333 154.61 77.4563 154.641C77.5793 154.687 77.7483 154.702 77.9789 154.702C78.1633 154.702 78.4093 154.687 78.6859 154.656V155.778C78.317 155.824 77.9789 155.84 77.6869 155.84C77.318 155.84 77.0106 155.809 76.7646 155.717C76.5187 155.64 76.3189 155.548 76.1959 155.44C76.073 155.348 75.9808 155.164 75.9193 154.902C75.8578 154.641 75.8117 154.426 75.8117 154.241C75.7963 154.057 75.7963 153.765 75.7963 153.334V153.273V153.196V153.119V148.908H74.4591V147.832H75.7963V145.48H77.1028V147.832H78.6859ZM81.5206 144.819V146.418H80.1988V144.819H81.5206ZM81.5206 147.832V155.763H80.1988V147.832H81.5206ZM90.369 152.873C90.246 153.826 89.8925 154.595 89.2777 155.148C88.6629 155.717 87.879 155.993 86.8953 155.993C85.6964 155.993 84.7742 155.625 84.1133 154.887C83.4677 154.149 83.1296 153.15 83.1296 151.905C83.1296 150.583 83.4831 149.538 84.1594 148.769C84.8511 148.001 85.7733 147.601 86.9414 147.601C87.9251 147.601 88.6936 147.847 89.2777 148.339C89.8617 148.831 90.2153 149.523 90.3075 150.429H88.9549C88.7243 149.277 88.0634 148.708 86.9721 148.708C86.2036 148.708 85.6042 148.985 85.1738 149.538C84.7281 150.091 84.5129 150.86 84.5129 151.813C84.5129 152.766 84.7127 153.534 85.1431 154.088C85.5581 154.641 86.1421 154.918 86.8799 154.918C87.464 154.918 87.9558 154.733 88.3247 154.395C88.6936 154.041 88.9395 153.534 89.0471 152.873H90.369ZM98.8242 154.718V155.748C98.5476 155.84 98.2556 155.901 97.9328 155.901C97.1796 155.901 96.7954 155.502 96.78 154.733C96.0269 155.563 95.0739 155.993 93.9058 155.993C93.1219 155.993 92.5071 155.794 92.046 155.394C91.5849 154.994 91.3697 154.441 91.3697 153.749C91.3697 152.335 92.3073 151.505 94.1824 151.275C94.3054 151.244 94.4745 151.229 94.7204 151.213C95.6119 151.106 96.1498 150.983 96.365 150.86C96.5956 150.691 96.7185 150.414 96.7185 150.014C96.7185 149.138 96.1191 148.708 94.9202 148.708C94.3054 148.708 93.8289 148.831 93.5215 149.077C93.1988 149.323 93.0143 149.738 92.9528 150.322H91.6771C91.6925 149.461 91.9999 148.8 92.5839 148.339C93.168 147.863 93.9673 147.632 94.9971 147.632C96.1037 147.632 96.9337 147.878 97.487 148.401C97.6561 148.554 97.7791 148.769 97.8713 149.046C97.9481 149.307 97.9943 149.523 98.0096 149.692C98.0096 149.861 98.025 150.122 98.025 150.46C98.025 150.844 98.0096 151.429 97.9943 152.212C97.9635 153.012 97.9635 153.596 97.9635 153.98C97.9635 154.272 97.9943 154.472 98.0711 154.595C98.148 154.718 98.2863 154.764 98.5015 154.764C98.5783 154.764 98.6859 154.749 98.8242 154.718ZM96.7185 151.659C96.6263 151.721 96.5187 151.782 96.4265 151.844C96.3189 151.89 96.1806 151.936 96.0269 151.966C95.8732 151.997 95.7656 152.013 95.7041 152.028C95.6426 152.043 95.5197 152.059 95.3045 152.089C95.0893 152.12 94.9663 152.136 94.9663 152.136C94.6436 152.166 94.4284 152.197 94.3361 152.212C94.2439 152.228 94.0595 152.274 93.7828 152.351C93.5062 152.412 93.3217 152.504 93.2141 152.597C93.0912 152.689 92.9836 152.812 92.876 152.996C92.7684 153.181 92.7223 153.396 92.7223 153.642C92.7223 154.041 92.8606 154.364 93.1373 154.61C93.4139 154.841 93.8136 154.964 94.3054 154.964C94.9202 154.964 95.4889 154.779 95.9808 154.41C96.4726 154.041 96.7185 153.596 96.7185 153.104V151.659ZM103.452 147.832V148.908H101.869V153.534C101.869 153.796 101.869 153.965 101.869 154.041C101.869 154.134 101.9 154.241 101.961 154.38C102.008 154.518 102.1 154.61 102.223 154.641C102.346 154.687 102.515 154.702 102.745 154.702C102.93 154.702 103.176 154.687 103.452 154.656V155.778C103.083 155.824 102.745 155.84 102.453 155.84C102.084 155.84 101.777 155.809 101.531 155.717C101.285 155.64 101.085 155.548 100.962 155.44C100.839 155.348 100.747 155.164 100.686 154.902C100.624 154.641 100.578 154.426 100.578 154.241C100.563 154.057 100.563 153.765 100.563 153.334V153.273V153.196V153.119V148.908H99.2256V147.832H100.563V145.48H101.869V147.832H103.452ZM106.287 144.819V146.418H104.965V144.819H106.287ZM106.287 147.832V155.763H104.965V147.832H106.287ZM111.785 147.601C112.984 147.601 113.906 147.97 114.582 148.708C115.243 149.43 115.581 150.445 115.581 151.751C115.581 153.104 115.243 154.149 114.582 154.887C113.906 155.64 112.968 156.009 111.769 156.009C110.555 156.009 109.602 155.64 108.926 154.902C108.234 154.164 107.896 153.15 107.896 151.828C107.896 150.537 108.234 149.507 108.941 148.739C109.633 147.986 110.586 147.601 111.785 147.601ZM111.754 148.708C110.985 148.708 110.371 148.985 109.925 149.538C109.464 150.107 109.249 150.86 109.249 151.797C109.249 152.781 109.464 153.534 109.91 154.088C110.355 154.641 110.985 154.902 111.785 154.902C112.553 154.902 113.153 154.626 113.583 154.072C114.013 153.519 114.244 152.766 114.244 151.782C114.244 150.844 114.013 150.091 113.568 149.538C113.122 148.985 112.522 148.708 111.754 148.708ZM118.367 147.832V149.062C119.012 148.109 119.919 147.617 121.072 147.617C121.994 147.617 122.67 147.863 123.085 148.355C123.5 148.846 123.715 149.553 123.715 150.491V155.763H122.409V151.09C122.409 150.706 122.393 150.399 122.363 150.184C122.332 149.968 122.271 149.722 122.178 149.477C122.071 149.231 121.902 149.046 121.656 148.923C121.41 148.816 121.087 148.754 120.703 148.754C119.196 148.754 118.443 149.707 118.443 151.613V155.763H117.137V147.832H118.367Z" fill="white"/>
<g clip-path="url(#clip1_4740_8652)">
<path d="M236.865 131.594H401.775L392.954 157.211H236.865V131.594Z" fill="#006756"/>
<path d="M256.095 140.321V147.465H255.292V146.702C254.961 147.304 254.389 147.605 253.586 147.605C252.844 147.605 252.262 147.364 251.83 146.873C251.399 146.381 251.188 145.709 251.188 144.866C251.188 144.083 251.389 143.441 251.79 142.92C252.192 142.398 252.784 142.137 253.546 142.137C254.289 142.137 254.85 142.418 255.242 142.98V140.321H256.095ZM253.656 142.869C253.165 142.869 252.774 143.05 252.493 143.401C252.212 143.762 252.071 144.244 252.071 144.846C252.071 145.478 252.212 145.98 252.503 146.351C252.794 146.722 253.185 146.903 253.677 146.903C254.168 146.903 254.559 146.732 254.84 146.371C255.121 146.01 255.262 145.518 255.262 144.876C255.262 144.314 255.121 143.833 254.86 143.451C254.6 143.07 254.198 142.869 253.656 142.869ZM261.801 145.829C261.54 147.033 260.788 147.635 259.544 147.635C258.781 147.635 258.179 147.404 257.748 146.923C257.316 146.451 257.106 145.789 257.106 144.946C257.106 144.114 257.326 143.441 257.768 142.92C258.209 142.398 258.791 142.137 259.514 142.137C260.306 142.137 260.898 142.408 261.279 142.95C261.661 143.491 261.861 144.164 261.861 144.986V145.107H257.968L257.958 145.167C257.958 145.719 258.099 146.15 258.39 146.461C258.671 146.782 259.072 146.933 259.574 146.933C259.945 146.933 260.236 146.853 260.457 146.672C260.677 146.501 260.848 146.221 260.968 145.829H261.801ZM260.978 144.415C260.938 143.923 260.788 143.542 260.527 143.261C260.266 142.98 259.915 142.839 259.494 142.839C259.072 142.839 258.731 142.98 258.46 143.261C258.179 143.542 258.019 143.933 257.968 144.415H260.978ZM263.669 140.321V147.465H262.806V140.321H263.669ZM265.893 140.321V141.364H265.03V140.321H265.893ZM265.893 142.287V147.465H265.03V142.287H265.893ZM266.712 142.287H267.665L269.13 146.632L270.555 142.287H271.448L269.552 147.465H268.639L266.712 142.287ZM276.655 145.829C276.394 147.033 275.642 147.635 274.398 147.635C273.635 147.635 273.033 147.404 272.602 146.923C272.17 146.451 271.96 145.789 271.96 144.946C271.96 144.114 272.18 143.441 272.622 142.92C273.063 142.398 273.645 142.137 274.368 142.137C275.16 142.137 275.752 142.408 276.134 142.95C276.515 143.491 276.715 144.164 276.715 144.986V145.107H272.823L272.812 145.167C272.812 145.719 272.953 146.15 273.244 146.461C273.525 146.782 273.926 146.933 274.428 146.933C274.799 146.933 275.09 146.853 275.311 146.672C275.532 146.501 275.702 146.221 275.822 145.829H276.655ZM275.833 144.415C275.792 143.923 275.642 143.542 275.381 143.261C275.12 142.98 274.769 142.839 274.348 142.839C273.926 142.839 273.585 142.98 273.314 143.261C273.033 143.542 272.873 143.933 272.823 144.415H275.833ZM280.319 142.167L280.308 143.06C280.248 143.05 280.178 143.05 280.088 143.05C279.817 143.05 279.576 143.09 279.375 143.17C279.175 143.251 279.024 143.361 278.904 143.491C278.783 143.632 278.693 143.792 278.613 143.993C278.543 144.194 278.492 144.394 278.472 144.595C278.452 144.796 278.442 145.027 278.442 145.277V147.465H277.589V142.287H278.402V143.401C278.743 142.578 279.375 142.167 280.319 142.167ZM285.209 145.829C284.948 147.033 284.196 147.635 282.952 147.635C282.189 147.635 281.587 147.404 281.156 146.923C280.724 146.451 280.513 145.789 280.513 144.946C280.513 144.114 280.734 143.441 281.176 142.92C281.617 142.398 282.199 142.137 282.921 142.137C283.714 142.137 284.306 142.408 284.687 142.95C285.069 143.491 285.269 144.164 285.269 144.986V145.107H281.376L281.366 145.167C281.366 145.719 281.507 146.15 281.798 146.461C282.079 146.782 282.48 146.933 282.982 146.933C283.353 146.933 283.644 146.853 283.865 146.672C284.085 146.501 284.256 146.221 284.376 145.829H285.209ZM284.386 144.415C284.346 143.923 284.196 143.542 283.935 143.261C283.674 142.98 283.323 142.839 282.901 142.839C282.48 142.839 282.139 142.98 281.868 143.261C281.587 143.542 281.427 143.933 281.376 144.415H284.386ZM290.839 140.321V147.465H290.036V146.702C289.705 147.304 289.133 147.605 288.331 147.605C287.588 147.605 287.006 147.364 286.575 146.873C286.143 146.381 285.933 145.709 285.933 144.866C285.933 144.083 286.133 143.441 286.535 142.92C286.936 142.398 287.528 142.137 288.29 142.137C289.033 142.137 289.595 142.418 289.986 142.98V140.321H290.839ZM288.401 142.869C287.909 142.869 287.518 143.05 287.237 143.401C286.956 143.762 286.815 144.244 286.815 144.846C286.815 145.478 286.956 145.98 287.247 146.351C287.538 146.722 287.929 146.903 288.421 146.903C288.912 146.903 289.304 146.732 289.585 146.371C289.866 146.01 290.006 145.518 290.006 144.876C290.006 144.314 289.866 143.833 289.605 143.451C289.344 143.07 288.943 142.869 288.401 142.869Z" fill="white"/>
</g>
<rect x="237.132" y="131.861" width="68.312" height="25.0833" rx="12.5417" stroke="#1ADBBB" stroke-width="0.533688"/>
</g>
<g filter="url(#filter2_i_4740_8652)">
<rect y="200" width="348" height="86" rx="13.6624" fill="url(#paint2_linear_4740_8652)"/>
<path d="M29.5375 229.832V230.954C30.1062 230.047 30.9977 229.586 32.2119 229.586C33.3186 229.586 34.1947 229.97 34.8402 230.708C35.4858 231.461 35.8239 232.476 35.8239 233.751C35.8239 235.043 35.5012 236.057 34.8556 236.826C34.2101 237.594 33.3493 237.963 32.2734 237.963C31.136 237.963 30.2446 237.533 29.6144 236.656V240.822H28.3079V229.832H29.5375ZM32.0121 230.677C31.2436 230.677 30.6442 230.954 30.2138 231.507C29.7835 232.061 29.5683 232.814 29.5683 233.767C29.5683 234.735 29.7835 235.488 30.2292 236.042C30.6749 236.595 31.2897 236.872 32.0582 236.872C32.796 236.872 33.3954 236.595 33.8258 236.042C34.2562 235.488 34.4714 234.735 34.4714 233.782C34.4714 232.814 34.2408 232.061 33.8104 231.507C33.3801 230.954 32.7806 230.677 32.0121 230.677ZM41.5535 229.648L41.5382 231.016C41.446 231 41.3384 231 41.2 231C40.785 231 40.4162 231.062 40.1087 231.185C39.8013 231.308 39.5708 231.477 39.3863 231.677C39.2019 231.892 39.0636 232.138 38.9406 232.445C38.833 232.752 38.7562 233.06 38.7254 233.367C38.6947 233.675 38.6793 234.028 38.6793 234.412V237.763H37.3728V229.832H38.6178V231.538C39.1404 230.278 40.1087 229.648 41.5535 229.648ZM45.7408 229.602C46.9397 229.602 47.8619 229.97 48.5382 230.708C49.1991 231.431 49.5373 232.445 49.5373 233.751C49.5373 235.104 49.1991 236.149 48.5382 236.887C47.8619 237.64 46.9244 238.009 45.7255 238.009C44.5112 238.009 43.5583 237.64 42.882 236.902C42.1903 236.165 41.8522 235.15 41.8522 233.828C41.8522 232.537 42.1903 231.507 42.8974 230.739C43.589 229.986 44.542 229.602 45.7408 229.602ZM45.7101 230.708C44.9416 230.708 44.3268 230.985 43.8811 231.538C43.4199 232.107 43.2048 232.86 43.2048 233.798C43.2048 234.781 43.4199 235.534 43.8657 236.088C44.3114 236.641 44.9416 236.902 45.7408 236.902C46.5094 236.902 47.1088 236.626 47.5392 236.072C47.9695 235.519 48.2001 234.766 48.2001 233.782C48.2001 232.845 47.9695 232.092 47.5238 231.538C47.0781 230.985 46.4786 230.708 45.7101 230.708ZM54.4899 229.832V230.908H52.9067V235.534C52.9067 235.796 52.9067 235.965 52.9067 236.042C52.9067 236.134 52.9375 236.241 52.9989 236.38C53.0451 236.518 53.1373 236.61 53.2602 236.641C53.3832 236.687 53.5523 236.703 53.7828 236.703C53.9673 236.703 54.2132 236.687 54.4899 236.656V237.778C54.121 237.825 53.7828 237.84 53.4908 237.84C53.1219 237.84 52.8145 237.809 52.5686 237.717C52.3227 237.64 52.1228 237.548 51.9999 237.44C51.8769 237.348 51.7847 237.164 51.7232 236.902C51.6617 236.641 51.6156 236.426 51.6156 236.241C51.6003 236.057 51.6003 235.765 51.6003 235.335V235.273V235.196V235.119V230.908H50.263V229.832H51.6003V227.48H52.9067V229.832H54.4899ZM59.4149 229.602C60.6138 229.602 61.536 229.97 62.2123 230.708C62.8732 231.431 63.2114 232.445 63.2114 233.751C63.2114 235.104 62.8732 236.149 62.2123 236.887C61.536 237.64 60.5984 238.009 59.3996 238.009C58.1853 238.009 57.2324 237.64 56.5561 236.902C55.8644 236.165 55.5263 235.15 55.5263 233.828C55.5263 232.537 55.8644 231.507 56.5714 230.739C57.2631 229.986 58.216 229.602 59.4149 229.602ZM59.3842 230.708C58.6157 230.708 58.0009 230.985 57.5551 231.538C57.094 232.107 56.8788 232.86 56.8788 233.798C56.8788 234.781 57.094 235.534 57.5398 236.088C57.9855 236.641 58.6157 236.902 59.4149 236.902C60.1834 236.902 60.7829 236.626 61.2132 236.072C61.6436 235.519 61.8742 234.766 61.8742 233.782C61.8742 232.845 61.6436 232.092 61.1979 231.538C60.7521 230.985 60.1527 230.708 59.3842 230.708ZM68.1639 229.832V230.908H66.5808V235.534C66.5808 235.796 66.5808 235.965 66.5808 236.042C66.5808 236.134 66.6115 236.241 66.673 236.38C66.7191 236.518 66.8114 236.61 66.9343 236.641C67.0573 236.687 67.2264 236.703 67.4569 236.703C67.6413 236.703 67.8873 236.687 68.1639 236.656V237.778C67.795 237.825 67.4569 237.84 67.1649 237.84C66.796 237.84 66.4886 237.809 66.2427 237.717C65.9967 237.64 65.7969 237.548 65.674 237.44C65.551 237.348 65.4588 237.164 65.3973 236.902C65.3358 236.641 65.2897 236.426 65.2897 236.241C65.2743 236.057 65.2743 235.765 65.2743 235.335V235.273V235.196V235.119V230.908H63.9371V229.832H65.2743V227.48H66.5808V229.832H68.1639ZM76.1784 229.832L72.7816 238.778C72.6433 239.146 72.5203 239.423 72.4281 239.623C72.3359 239.823 72.1975 240.038 72.0131 240.284C71.8286 240.53 71.6135 240.699 71.3675 240.806C71.1216 240.914 70.8296 240.96 70.4914 240.96C70.2301 240.96 69.9074 240.914 69.5231 240.822V239.654C69.892 239.777 70.184 239.823 70.3685 239.823C70.7988 239.823 71.1062 239.608 71.2907 239.162L71.9055 237.717L68.7546 229.832H70.2301L72.5818 236.149L74.8105 229.832H76.1784ZM78.5301 229.832V230.954C79.0987 230.047 79.9902 229.586 81.2045 229.586C82.3111 229.586 83.1872 229.97 83.8328 230.708C84.4783 231.461 84.8165 232.476 84.8165 233.751C84.8165 235.043 84.4937 236.057 83.8481 236.826C83.2026 237.594 82.3419 237.963 81.2659 237.963C80.1286 237.963 79.2371 237.533 78.6069 236.656V240.822H77.3004V229.832H78.5301ZM81.0047 230.677C80.2361 230.677 79.6367 230.954 79.2063 231.507C78.776 232.061 78.5608 232.814 78.5608 233.767C78.5608 234.735 78.776 235.488 79.2217 236.042C79.6674 236.595 80.2823 236.872 81.0508 236.872C81.7885 236.872 82.388 236.595 82.8183 236.042C83.2487 235.488 83.4639 234.735 83.4639 233.782C83.4639 232.814 83.2333 232.061 82.803 231.507C82.3726 230.954 81.7732 230.677 81.0047 230.677ZM93.1897 235.258C92.7901 237.102 91.6374 238.024 89.7314 238.024C88.5633 238.024 87.6411 237.671 86.9802 236.933C86.3193 236.211 85.9965 235.196 85.9965 233.905C85.9965 232.629 86.3346 231.6 87.0109 230.8C87.6872 230.001 88.5787 229.602 89.6853 229.602C90.8996 229.602 91.8064 230.017 92.3905 230.847C92.9746 231.677 93.282 232.706 93.282 233.967V234.151H87.3183L87.303 234.243C87.303 235.089 87.5181 235.75 87.9639 236.226C88.3942 236.718 89.009 236.949 89.7776 236.949C90.3463 236.949 90.792 236.826 91.1301 236.549C91.4683 236.288 91.7296 235.857 91.914 235.258H93.1897ZM91.9294 233.091C91.8679 232.337 91.6374 231.753 91.2377 231.323C90.8381 230.893 90.3001 230.677 89.6546 230.677C89.009 230.677 88.4865 230.893 88.0715 231.323C87.6411 231.753 87.3952 232.353 87.3183 233.091H91.9294ZM103.187 232.845V234.136H98.7143V232.845H103.187ZM27.5855 247.832H29.0303L30.844 254.364L32.4579 247.832H33.8873L35.5626 254.364L37.361 247.832H38.7135L36.1775 255.763H34.7941L33.1649 249.492L31.551 255.763H30.137L27.5855 247.832ZM46.9798 254.718V255.748C46.7032 255.84 46.4111 255.901 46.0884 255.901C45.3352 255.901 44.951 255.502 44.9356 254.733C44.1825 255.563 43.2295 255.994 42.0614 255.994C41.2775 255.994 40.6627 255.794 40.2016 255.394C39.7405 254.995 39.5253 254.441 39.5253 253.75C39.5253 252.336 40.4629 251.506 42.338 251.275C42.461 251.244 42.6301 251.229 42.876 251.214C43.7675 251.106 44.3054 250.983 44.5206 250.86C44.7511 250.691 44.8741 250.414 44.8741 250.015C44.8741 249.139 44.2747 248.708 43.0758 248.708C42.461 248.708 41.9845 248.831 41.6771 249.077C41.3543 249.323 41.1699 249.738 41.1084 250.322H39.8327C39.8481 249.461 40.1555 248.8 40.7395 248.339C41.3236 247.863 42.1228 247.632 43.1526 247.632C44.2593 247.632 45.0893 247.878 45.6426 248.401C45.8117 248.554 45.9347 248.77 46.0269 249.046C46.1037 249.308 46.1498 249.523 46.1652 249.692C46.1652 249.861 46.1806 250.122 46.1806 250.46C46.1806 250.845 46.1652 251.429 46.1498 252.213C46.1191 253.012 46.1191 253.596 46.1191 253.98C46.1191 254.272 46.1498 254.472 46.2267 254.595C46.3035 254.718 46.4419 254.764 46.6571 254.764C46.7339 254.764 46.8415 254.749 46.9798 254.718ZM44.8741 251.659C44.7819 251.721 44.6743 251.782 44.5821 251.844C44.4745 251.89 44.3362 251.936 44.1825 251.967C44.0287 251.997 43.9212 252.013 43.8597 252.028C43.7982 252.044 43.6752 252.059 43.4601 252.09C43.2449 252.12 43.1219 252.136 43.1219 252.136C42.7991 252.166 42.5839 252.197 42.4917 252.213C42.3995 252.228 42.2151 252.274 41.9384 252.351C41.6617 252.412 41.4773 252.505 41.3697 252.597C41.2467 252.689 41.1392 252.812 41.0316 252.996C40.924 253.181 40.8779 253.396 40.8779 253.642C40.8779 254.042 41.0162 254.364 41.2929 254.61C41.5695 254.841 41.9691 254.964 42.461 254.964C43.0758 254.964 43.6445 254.779 44.1363 254.411C44.6282 254.042 44.8741 253.596 44.8741 253.104V251.659ZM49.5944 244.82V255.763H48.2726V244.82H49.5944ZM53.0017 244.82V255.763H51.6799V244.82H53.0017ZM61.8039 253.258C61.4043 255.102 60.2515 256.024 58.3456 256.024C57.1775 256.024 56.2553 255.671 55.5943 254.933C54.9334 254.211 54.6107 253.196 54.6107 251.905C54.6107 250.629 54.9488 249.6 55.6251 248.8C56.3014 248.001 57.1928 247.602 58.2995 247.602C59.5137 247.602 60.4206 248.017 61.0047 248.847C61.5887 249.677 61.8961 250.706 61.8961 251.967V252.151H55.9325L55.9171 252.243C55.9171 253.089 56.1323 253.75 56.578 254.226C57.0084 254.718 57.6232 254.949 58.3917 254.949C58.9604 254.949 59.4062 254.826 59.7443 254.549C60.0824 254.288 60.3437 253.857 60.5282 253.258H61.8039ZM60.5436 251.091C60.4821 250.337 60.2515 249.753 59.8519 249.323C59.4523 248.893 58.9143 248.677 58.2688 248.677C57.6232 248.677 57.1006 248.893 56.6856 249.323C56.2553 249.753 56.0093 250.353 55.9325 251.091H60.5436ZM66.6779 247.832V248.908H65.0948V253.534C65.0948 253.796 65.0948 253.965 65.0948 254.042C65.0948 254.134 65.1256 254.241 65.187 254.38C65.2331 254.518 65.3254 254.61 65.4483 254.641C65.5713 254.687 65.7404 254.703 65.9709 254.703C66.1554 254.703 66.4013 254.687 66.6779 254.656V255.778C66.3091 255.825 65.9709 255.84 65.6789 255.84C65.31 255.84 65.0026 255.809 64.7567 255.717C64.5107 255.64 64.3109 255.548 64.188 255.44C64.065 255.348 63.9728 255.164 63.9113 254.902C63.8498 254.641 63.8037 254.426 63.8037 254.241C63.7883 254.057 63.7883 253.765 63.7883 253.335V253.273V253.196V253.119V248.908H62.4511V247.832H63.7883V245.48H65.0948V247.832H66.6779ZM79.2316 252.874C79.1086 253.826 78.7551 254.595 78.1403 255.148C77.5255 255.717 76.7416 255.994 75.7579 255.994C74.559 255.994 73.6368 255.625 72.9759 254.887C72.3303 254.149 71.9922 253.15 71.9922 251.905C71.9922 250.583 72.3457 249.538 73.022 248.77C73.7137 248.001 74.6359 247.602 75.804 247.602C76.7877 247.602 77.5562 247.847 78.1403 248.339C78.7243 248.831 79.0779 249.523 79.1701 250.43H77.8175C77.5869 249.277 76.926 248.708 75.8347 248.708C75.0662 248.708 74.4668 248.985 74.0364 249.538C73.5907 250.092 73.3755 250.86 73.3755 251.813C73.3755 252.766 73.5753 253.534 74.0057 254.088C74.4207 254.641 75.0048 254.918 75.7425 254.918C76.3266 254.918 76.8184 254.733 77.1873 254.395C77.5562 254.042 77.8021 253.534 77.9097 252.874H79.2316ZM84.1363 247.602C85.3352 247.602 86.2574 247.97 86.9337 248.708C87.5946 249.431 87.9328 250.445 87.9328 251.751C87.9328 253.104 87.5946 254.149 86.9337 254.887C86.2574 255.64 85.3198 256.009 84.121 256.009C82.9067 256.009 81.9538 255.64 81.2775 254.902C80.5858 254.165 80.2477 253.15 80.2477 251.828C80.2477 250.537 80.5858 249.507 81.2928 248.739C81.9845 247.986 82.9375 247.602 84.1363 247.602ZM84.1056 248.708C83.3371 248.708 82.7223 248.985 82.2765 249.538C81.8154 250.107 81.6003 250.86 81.6003 251.798C81.6003 252.781 81.8154 253.534 82.2612 254.088C82.7069 254.641 83.3371 254.902 84.1363 254.902C84.9048 254.902 85.5043 254.626 85.9347 254.072C86.365 253.519 86.5956 252.766 86.5956 251.782C86.5956 250.845 86.365 250.092 85.9193 249.538C85.4735 248.985 84.8741 248.708 84.1056 248.708ZM90.7181 247.832V249.062C91.3637 248.109 92.2705 247.617 93.4233 247.617C94.3455 247.617 95.0218 247.863 95.4368 248.355C95.8518 248.847 96.067 249.554 96.067 250.491V255.763H94.7605V251.091C94.7605 250.706 94.7451 250.399 94.7144 250.184C94.6837 249.969 94.6222 249.723 94.53 249.477C94.4224 249.231 94.2533 249.046 94.0074 248.923C93.7614 248.816 93.4387 248.754 93.0544 248.754C91.5481 248.754 90.795 249.707 90.795 251.613V255.763H89.4885V247.832H90.7181ZM99.2588 247.832V249.062C99.9044 248.109 100.811 247.617 101.964 247.617C102.886 247.617 103.562 247.863 103.977 248.355C104.392 248.847 104.608 249.554 104.608 250.491V255.763H103.301V251.091C103.301 250.706 103.286 250.399 103.255 250.184C103.224 249.969 103.163 249.723 103.071 249.477C102.963 249.231 102.794 249.046 102.548 248.923C102.302 248.816 101.979 248.754 101.595 248.754C100.089 248.754 99.3357 249.707 99.3357 251.613V255.763H98.0292V247.832H99.2588ZM113.348 253.258C112.949 255.102 111.796 256.024 109.89 256.024C108.722 256.024 107.799 255.671 107.139 254.933C106.478 254.211 106.155 253.196 106.155 251.905C106.155 250.629 106.493 249.6 107.169 248.8C107.846 248.001 108.737 247.602 109.844 247.602C111.058 247.602 111.965 248.017 112.549 248.847C113.133 249.677 113.44 250.706 113.44 251.967V252.151H107.477L107.461 252.243C107.461 253.089 107.677 253.75 108.122 254.226C108.553 254.718 109.167 254.949 109.936 254.949C110.505 254.949 110.95 254.826 111.289 254.549C111.627 254.288 111.888 253.857 112.072 253.258H113.348ZM112.088 251.091C112.026 250.337 111.796 249.753 111.396 249.323C110.996 248.893 110.459 248.677 109.813 248.677C109.167 248.677 108.645 248.893 108.23 249.323C107.799 249.753 107.554 250.353 107.477 251.091H112.088ZM121.65 252.874C121.527 253.826 121.173 254.595 120.558 255.148C119.944 255.717 119.16 255.994 118.176 255.994C116.977 255.994 116.055 255.625 115.394 254.887C114.749 254.149 114.41 253.15 114.41 251.905C114.41 250.583 114.764 249.538 115.44 248.77C116.132 248.001 117.054 247.602 118.222 247.602C119.206 247.602 119.974 247.847 120.558 248.339C121.143 248.831 121.496 249.523 121.588 250.43H120.236C120.005 249.277 119.344 248.708 118.253 248.708C117.484 248.708 116.885 248.985 116.455 249.538C116.009 250.092 115.794 250.86 115.794 251.813C115.794 252.766 115.993 253.534 116.424 254.088C116.839 254.641 117.423 254.918 118.161 254.918C118.745 254.918 119.237 254.733 119.605 254.395C119.974 254.042 120.22 253.534 120.328 252.874H121.65ZM126.478 247.832V248.908H124.895V253.534C124.895 253.796 124.895 253.965 124.895 254.042C124.895 254.134 124.925 254.241 124.987 254.38C125.033 254.518 125.125 254.61 125.248 254.641C125.371 254.687 125.54 254.703 125.771 254.703C125.955 254.703 126.201 254.687 126.478 254.656V255.778C126.109 255.825 125.771 255.84 125.479 255.84C125.11 255.84 124.802 255.809 124.556 255.717C124.31 255.64 124.111 255.548 123.988 255.44C123.865 255.348 123.772 255.164 123.711 254.902C123.65 254.641 123.603 254.426 123.603 254.241C123.588 254.057 123.588 253.765 123.588 253.335V253.273V253.196V253.119V248.908H122.251V247.832H123.588V245.48H124.895V247.832H126.478ZM129.312 244.82V246.418H127.991V244.82H129.312ZM129.312 247.832V255.763H127.991V247.832H129.312ZM134.81 247.602C136.009 247.602 136.931 247.97 137.607 248.708C138.268 249.431 138.606 250.445 138.606 251.751C138.606 253.104 138.268 254.149 137.607 254.887C136.931 255.64 135.993 256.009 134.795 256.009C133.58 256.009 132.627 255.64 131.951 254.902C131.259 254.165 130.921 253.15 130.921 251.828C130.921 250.537 131.259 249.507 131.966 248.739C132.658 247.986 133.611 247.602 134.81 247.602ZM134.779 248.708C134.011 248.708 133.396 248.985 132.95 249.538C132.489 250.107 132.274 250.86 132.274 251.798C132.274 252.781 132.489 253.534 132.935 254.088C133.381 254.641 134.011 254.902 134.81 254.902C135.578 254.902 136.178 254.626 136.608 254.072C137.039 253.519 137.269 252.766 137.269 251.782C137.269 250.845 137.039 250.092 136.593 249.538C136.147 248.985 135.548 248.708 134.779 248.708ZM141.392 247.832V249.062C142.037 248.109 142.944 247.617 144.097 247.617C145.019 247.617 145.695 247.863 146.11 248.355C146.525 248.847 146.741 249.554 146.741 250.491V255.763H145.434V251.091C145.434 250.706 145.419 250.399 145.388 250.184C145.357 249.969 145.296 249.723 145.204 249.477C145.096 249.231 144.927 249.046 144.681 248.923C144.435 248.816 144.112 248.754 143.728 248.754C142.222 248.754 141.469 249.707 141.469 251.613V255.763H140.162V247.832H141.392Z" fill="white"/>
<g clip-path="url(#clip2_4740_8652)">
<path d="M236.865 231.594H401.775L392.954 257.211H236.865V231.594Z" fill="#006756"/>
<path d="M256.095 240.321V247.465H255.292V246.702C254.961 247.304 254.389 247.605 253.586 247.605C252.844 247.605 252.262 247.365 251.83 246.873C251.399 246.381 251.188 245.709 251.188 244.866C251.188 244.084 251.389 243.441 251.79 242.92C252.192 242.398 252.784 242.137 253.546 242.137C254.289 242.137 254.85 242.418 255.242 242.98V240.321H256.095ZM253.656 242.87C253.165 242.87 252.774 243.05 252.493 243.401C252.212 243.763 252.071 244.244 252.071 244.846C252.071 245.478 252.212 245.98 252.503 246.351C252.794 246.722 253.185 246.903 253.677 246.903C254.168 246.903 254.559 246.732 254.84 246.371C255.121 246.01 255.262 245.518 255.262 244.876C255.262 244.314 255.121 243.833 254.86 243.452C254.6 243.07 254.198 242.87 253.656 242.87ZM261.801 245.829C261.54 247.033 260.788 247.635 259.544 247.635C258.781 247.635 258.179 247.405 257.748 246.923C257.316 246.451 257.106 245.789 257.106 244.946C257.106 244.114 257.326 243.441 257.768 242.92C258.209 242.398 258.791 242.137 259.514 242.137C260.306 242.137 260.898 242.408 261.279 242.95C261.661 243.492 261.861 244.164 261.861 244.987V245.107H257.968L257.958 245.167C257.958 245.719 258.099 246.15 258.39 246.462C258.671 246.783 259.072 246.933 259.574 246.933C259.945 246.933 260.236 246.853 260.457 246.672C260.677 246.502 260.848 246.221 260.968 245.829H261.801ZM260.978 244.415C260.938 243.923 260.788 243.542 260.527 243.261C260.266 242.98 259.915 242.839 259.494 242.839C259.072 242.839 258.731 242.98 258.46 243.261C258.179 243.542 258.019 243.933 257.968 244.415H260.978ZM263.669 240.321V247.465H262.806V240.321H263.669ZM265.893 240.321V241.365H265.03V240.321H265.893ZM265.893 242.288V247.465H265.03V242.288H265.893ZM266.712 242.288H267.665L269.13 246.632L270.555 242.288H271.448L269.552 247.465H268.639L266.712 242.288ZM276.655 245.829C276.394 247.033 275.642 247.635 274.398 247.635C273.635 247.635 273.033 247.405 272.602 246.923C272.17 246.451 271.96 245.789 271.96 244.946C271.96 244.114 272.18 243.441 272.622 242.92C273.063 242.398 273.645 242.137 274.368 242.137C275.16 242.137 275.752 242.408 276.134 242.95C276.515 243.492 276.715 244.164 276.715 244.987V245.107H272.823L272.812 245.167C272.812 245.719 272.953 246.15 273.244 246.462C273.525 246.783 273.926 246.933 274.428 246.933C274.799 246.933 275.09 246.853 275.311 246.672C275.532 246.502 275.702 246.221 275.822 245.829H276.655ZM275.833 244.415C275.792 243.923 275.642 243.542 275.381 243.261C275.12 242.98 274.769 242.839 274.348 242.839C273.926 242.839 273.585 242.98 273.314 243.261C273.033 243.542 272.873 243.933 272.823 244.415H275.833ZM280.319 242.167L280.308 243.06C280.248 243.05 280.178 243.05 280.088 243.05C279.817 243.05 279.576 243.09 279.375 243.171C279.175 243.251 279.024 243.361 278.904 243.492C278.783 243.632 278.693 243.793 278.613 243.993C278.543 244.194 278.492 244.395 278.472 244.595C278.452 244.796 278.442 245.027 278.442 245.278V247.465H277.589V242.288H278.402V243.401C278.743 242.579 279.375 242.167 280.319 242.167ZM285.209 245.829C284.948 247.033 284.196 247.635 282.952 247.635C282.189 247.635 281.587 247.405 281.156 246.923C280.724 246.451 280.513 245.789 280.513 244.946C280.513 244.114 280.734 243.441 281.176 242.92C281.617 242.398 282.199 242.137 282.921 242.137C283.714 242.137 284.306 242.408 284.687 242.95C285.069 243.492 285.269 244.164 285.269 244.987V245.107H281.376L281.366 245.167C281.366 245.719 281.507 246.15 281.798 246.462C282.079 246.783 282.48 246.933 282.982 246.933C283.353 246.933 283.644 246.853 283.865 246.672C284.085 246.502 284.256 246.221 284.376 245.829H285.209ZM284.386 244.415C284.346 243.923 284.196 243.542 283.935 243.261C283.674 242.98 283.323 242.839 282.901 242.839C282.48 242.839 282.139 242.98 281.868 243.261C281.587 243.542 281.427 243.933 281.376 244.415H284.386ZM290.839 240.321V247.465H290.036V246.702C289.705 247.304 289.133 247.605 288.331 247.605C287.588 247.605 287.006 247.365 286.575 246.873C286.143 246.381 285.933 245.709 285.933 244.866C285.933 244.084 286.133 243.441 286.535 242.92C286.936 242.398 287.528 242.137 288.29 242.137C289.033 242.137 289.595 242.418 289.986 242.98V240.321H290.839ZM288.401 242.87C287.909 242.87 287.518 243.05 287.237 243.401C286.956 243.763 286.815 244.244 286.815 244.846C286.815 245.478 286.956 245.98 287.247 246.351C287.538 246.722 287.929 246.903 288.421 246.903C288.912 246.903 289.304 246.732 289.585 246.371C289.866 246.01 290.006 245.518 290.006 244.876C290.006 244.314 289.866 243.833 289.605 243.452C289.344 243.07 288.943 242.87 288.401 242.87Z" fill="white"/>
</g>
<rect x="237.132" y="231.861" width="68.312" height="25.0833" rx="12.5417" stroke="#1ADBBB" stroke-width="0.533688"/>
</g>
<g filter="url(#filter3_i_4740_8652)">
<rect y="300" width="348" height="86" rx="13.6624" fill="url(#paint3_linear_4740_8652)"/>
<path d="M29.5375 329.832V330.954C30.1062 330.047 30.9977 329.586 32.2119 329.586C33.3186 329.586 34.1947 329.97 34.8402 330.708C35.4858 331.461 35.8239 332.476 35.8239 333.751C35.8239 335.043 35.5012 336.057 34.8556 336.826C34.2101 337.594 33.3493 337.963 32.2734 337.963C31.136 337.963 30.2446 337.533 29.6144 336.656V340.822H28.3079V329.832H29.5375ZM32.0121 330.677C31.2436 330.677 30.6442 330.954 30.2138 331.507C29.7835 332.061 29.5683 332.814 29.5683 333.767C29.5683 334.735 29.7835 335.488 30.2292 336.042C30.6749 336.595 31.2897 336.872 32.0582 336.872C32.796 336.872 33.3954 336.595 33.8258 336.042C34.2562 335.488 34.4714 334.735 34.4714 333.782C34.4714 332.814 34.2408 332.061 33.8104 331.507C33.3801 330.954 32.7806 330.677 32.0121 330.677ZM41.5535 329.648L41.5382 331.016C41.446 331 41.3384 331 41.2 331C40.785 331 40.4162 331.062 40.1087 331.185C39.8013 331.308 39.5708 331.477 39.3863 331.677C39.2019 331.892 39.0636 332.138 38.9406 332.445C38.833 332.752 38.7562 333.06 38.7254 333.367C38.6947 333.675 38.6793 334.028 38.6793 334.412V337.763H37.3728V329.832H38.6178V331.538C39.1404 330.278 40.1087 329.648 41.5535 329.648ZM45.7408 329.602C46.9397 329.602 47.8619 329.97 48.5382 330.708C49.1991 331.431 49.5373 332.445 49.5373 333.751C49.5373 335.104 49.1991 336.149 48.5382 336.887C47.8619 337.64 46.9244 338.009 45.7255 338.009C44.5112 338.009 43.5583 337.64 42.882 336.902C42.1903 336.165 41.8522 335.15 41.8522 333.828C41.8522 332.537 42.1903 331.507 42.8974 330.739C43.589 329.986 44.542 329.602 45.7408 329.602ZM45.7101 330.708C44.9416 330.708 44.3268 330.985 43.8811 331.538C43.4199 332.107 43.2048 332.86 43.2048 333.798C43.2048 334.781 43.4199 335.534 43.8657 336.088C44.3114 336.641 44.9416 336.902 45.7408 336.902C46.5094 336.902 47.1088 336.626 47.5392 336.072C47.9695 335.519 48.2001 334.766 48.2001 333.782C48.2001 332.845 47.9695 332.092 47.5238 331.538C47.0781 330.985 46.4786 330.708 45.7101 330.708ZM54.4899 329.832V330.908H52.9067V335.534C52.9067 335.796 52.9067 335.965 52.9067 336.042C52.9067 336.134 52.9375 336.241 52.9989 336.38C53.0451 336.518 53.1373 336.61 53.2602 336.641C53.3832 336.687 53.5523 336.703 53.7828 336.703C53.9673 336.703 54.2132 336.687 54.4899 336.656V337.778C54.121 337.825 53.7828 337.84 53.4908 337.84C53.1219 337.84 52.8145 337.809 52.5686 337.717C52.3227 337.64 52.1228 337.548 51.9999 337.44C51.8769 337.348 51.7847 337.164 51.7232 336.902C51.6617 336.641 51.6156 336.426 51.6156 336.241C51.6003 336.057 51.6003 335.765 51.6003 335.335V335.273V335.196V335.119V330.908H50.263V329.832H51.6003V327.48H52.9067V329.832H54.4899ZM59.4149 329.602C60.6138 329.602 61.536 329.97 62.2123 330.708C62.8732 331.431 63.2114 332.445 63.2114 333.751C63.2114 335.104 62.8732 336.149 62.2123 336.887C61.536 337.64 60.5984 338.009 59.3996 338.009C58.1853 338.009 57.2324 337.64 56.5561 336.902C55.8644 336.165 55.5263 335.15 55.5263 333.828C55.5263 332.537 55.8644 331.507 56.5714 330.739C57.2631 329.986 58.216 329.602 59.4149 329.602ZM59.3842 330.708C58.6157 330.708 58.0009 330.985 57.5551 331.538C57.094 332.107 56.8788 332.86 56.8788 333.798C56.8788 334.781 57.094 335.534 57.5398 336.088C57.9855 336.641 58.6157 336.902 59.4149 336.902C60.1834 336.902 60.7829 336.626 61.2132 336.072C61.6436 335.519 61.8742 334.766 61.8742 333.782C61.8742 332.845 61.6436 332.092 61.1979 331.538C60.7521 330.985 60.1527 330.708 59.3842 330.708ZM68.1639 329.832V330.908H66.5808V335.534C66.5808 335.796 66.5808 335.965 66.5808 336.042C66.5808 336.134 66.6115 336.241 66.673 336.38C66.7191 336.518 66.8114 336.61 66.9343 336.641C67.0573 336.687 67.2264 336.703 67.4569 336.703C67.6413 336.703 67.8873 336.687 68.1639 336.656V337.778C67.795 337.825 67.4569 337.84 67.1649 337.84C66.796 337.84 66.4886 337.809 66.2427 337.717C65.9967 337.64 65.7969 337.548 65.674 337.44C65.551 337.348 65.4588 337.164 65.3973 336.902C65.3358 336.641 65.2897 336.426 65.2897 336.241C65.2743 336.057 65.2743 335.765 65.2743 335.335V335.273V335.196V335.119V330.908H63.9371V329.832H65.2743V327.48H66.5808V329.832H68.1639ZM76.1784 329.832L72.7816 338.778C72.6433 339.146 72.5203 339.423 72.4281 339.623C72.3359 339.823 72.1975 340.038 72.0131 340.284C71.8286 340.53 71.6135 340.699 71.3675 340.806C71.1216 340.914 70.8296 340.96 70.4914 340.96C70.2301 340.96 69.9074 340.914 69.5231 340.822V339.654C69.892 339.777 70.184 339.823 70.3685 339.823C70.7988 339.823 71.1062 339.608 71.2907 339.162L71.9055 337.717L68.7546 329.832H70.2301L72.5818 336.149L74.8105 329.832H76.1784ZM78.5301 329.832V330.954C79.0987 330.047 79.9902 329.586 81.2045 329.586C82.3111 329.586 83.1872 329.97 83.8328 330.708C84.4783 331.461 84.8165 332.476 84.8165 333.751C84.8165 335.043 84.4937 336.057 83.8481 336.826C83.2026 337.594 82.3419 337.963 81.2659 337.963C80.1286 337.963 79.2371 337.533 78.6069 336.656V340.822H77.3004V329.832H78.5301ZM81.0047 330.677C80.2361 330.677 79.6367 330.954 79.2063 331.507C78.776 332.061 78.5608 332.814 78.5608 333.767C78.5608 334.735 78.776 335.488 79.2217 336.042C79.6674 336.595 80.2823 336.872 81.0508 336.872C81.7885 336.872 82.388 336.595 82.8183 336.042C83.2487 335.488 83.4639 334.735 83.4639 333.782C83.4639 332.814 83.2333 332.061 82.803 331.507C82.3726 330.954 81.7732 330.677 81.0047 330.677ZM93.1897 335.258C92.7901 337.102 91.6374 338.024 89.7314 338.024C88.5633 338.024 87.6411 337.671 86.9802 336.933C86.3193 336.211 85.9965 335.196 85.9965 333.905C85.9965 332.629 86.3346 331.6 87.0109 330.8C87.6872 330.001 88.5787 329.602 89.6853 329.602C90.8996 329.602 91.8064 330.017 92.3905 330.847C92.9746 331.677 93.282 332.706 93.282 333.967V334.151H87.3183L87.303 334.243C87.303 335.089 87.5181 335.75 87.9639 336.226C88.3942 336.718 89.009 336.949 89.7776 336.949C90.3463 336.949 90.792 336.826 91.1301 336.549C91.4683 336.288 91.7296 335.857 91.914 335.258H93.1897ZM91.9294 333.091C91.8679 332.337 91.6374 331.753 91.2377 331.323C90.8381 330.893 90.3001 330.677 89.6546 330.677C89.009 330.677 88.4865 330.893 88.0715 331.323C87.6411 331.753 87.3952 332.353 87.3183 333.091H91.9294ZM103.187 332.845V334.136H98.7143V332.845H103.187ZM35.4551 344.82V355.763H34.2254V354.595C33.7182 355.517 32.8421 355.978 31.6125 355.978C30.4751 355.978 29.5836 355.609 28.9227 354.856C28.2618 354.103 27.939 353.073 27.939 351.782C27.939 350.583 28.2464 349.6 28.8612 348.8C29.476 348.001 30.3829 347.602 31.551 347.602C32.6884 347.602 33.5492 348.032 34.1486 348.893V344.82H35.4551ZM31.7201 348.724C30.967 348.724 30.3675 349 29.9372 349.538C29.5068 350.092 29.2916 350.829 29.2916 351.751C29.2916 352.72 29.5068 353.488 29.9525 354.057C30.3983 354.626 30.9977 354.902 31.7508 354.902C32.504 354.902 33.1034 354.641 33.5338 354.088C33.9641 353.534 34.1793 352.781 34.1793 351.798C34.1793 350.937 33.9641 350.199 33.5645 349.615C33.1649 349.031 32.5501 348.724 31.7201 348.724ZM44.4431 354.718V355.748C44.1665 355.84 43.8744 355.901 43.5517 355.901C42.7985 355.901 42.4143 355.502 42.3989 354.733C41.6458 355.563 40.6928 355.994 39.5247 355.994C38.7408 355.994 38.126 355.794 37.6649 355.394C37.2038 354.995 36.9886 354.441 36.9886 353.75C36.9886 352.336 37.9262 351.506 39.8013 351.275C39.9243 351.244 40.0934 351.229 40.3393 351.214C41.2308 351.106 41.7687 350.983 41.9839 350.86C42.2145 350.691 42.3374 350.414 42.3374 350.015C42.3374 349.139 41.738 348.708 40.5391 348.708C39.9243 348.708 39.4478 348.831 39.1404 349.077C38.8176 349.323 38.6332 349.738 38.5717 350.322H37.296C37.3114 349.461 37.6188 348.8 38.2028 348.339C38.7869 347.863 39.5862 347.632 40.616 347.632C41.7226 347.632 42.5526 347.878 43.1059 348.401C43.275 348.554 43.398 348.77 43.4902 349.046C43.567 349.308 43.6132 349.523 43.6285 349.692C43.6285 349.861 43.6439 350.122 43.6439 350.46C43.6439 350.845 43.6285 351.429 43.6132 352.213C43.5824 353.012 43.5824 353.596 43.5824 353.98C43.5824 354.272 43.6132 354.472 43.69 354.595C43.7669 354.718 43.9052 354.764 44.1204 354.764C44.1972 354.764 44.3048 354.749 44.4431 354.718ZM42.3374 351.659C42.2452 351.721 42.1376 351.782 42.0454 351.844C41.9378 351.89 41.7995 351.936 41.6458 351.967C41.4921 351.997 41.3845 352.013 41.323 352.028C41.2615 352.044 41.1386 352.059 40.9234 352.09C40.7082 352.12 40.5852 352.136 40.5852 352.136C40.2624 352.166 40.0473 352.197 39.955 352.213C39.8628 352.228 39.6784 352.274 39.4017 352.351C39.1251 352.412 38.9406 352.505 38.833 352.597C38.7101 352.689 38.6025 352.812 38.4949 352.996C38.3873 353.181 38.3412 353.396 38.3412 353.642C38.3412 354.042 38.4795 354.364 38.7562 354.61C39.0328 354.841 39.4325 354.964 39.9243 354.964C40.5391 354.964 41.1078 354.779 41.5997 354.411C42.0915 354.042 42.3374 353.596 42.3374 353.104V351.659ZM51.5612 350.138H50.2548C50.1625 349.185 49.517 348.693 48.3181 348.693C47.8109 348.693 47.4113 348.8 47.1346 348.985C46.8426 349.185 46.7042 349.446 46.7042 349.769C46.7042 349.861 46.7042 349.953 46.735 350.045C46.7504 350.138 46.7811 350.214 46.8426 350.276C46.9041 350.337 46.9502 350.399 46.9963 350.445C47.0424 350.507 47.1192 350.553 47.2268 350.599C47.3344 350.645 47.4113 350.676 47.4728 350.706C47.5342 350.737 47.6265 350.783 47.7802 350.814C47.9339 350.845 48.0415 350.875 48.1029 350.891C48.1644 350.906 48.272 350.937 48.4564 350.968C48.6409 351.014 48.7485 351.044 48.81 351.044C49.1788 351.137 49.4709 351.198 49.6553 351.244C49.8398 351.306 50.1011 351.398 50.4392 351.536C50.7773 351.675 51.0233 351.813 51.2077 351.967C51.3768 352.12 51.5305 352.32 51.6688 352.581C51.8072 352.843 51.884 353.135 51.884 353.458C51.884 354.226 51.5766 354.856 50.9772 355.317C50.3777 355.778 49.5785 356.009 48.5948 356.009C47.5189 356.009 46.6889 355.778 46.1048 355.302C45.5207 354.841 45.2133 354.149 45.1826 353.258H46.4737C46.5352 354.38 47.2576 354.933 48.6255 354.933C49.2096 354.933 49.6707 354.826 50.0242 354.58C50.3777 354.334 50.5622 354.011 50.5622 353.611C50.5622 353.35 50.4699 353.135 50.2855 352.95C50.1011 352.781 49.8859 352.658 49.6707 352.581C49.4401 352.505 49.1174 352.412 48.7024 352.305C48.6409 352.305 48.5948 352.289 48.564 352.274C48.4718 352.259 48.272 352.213 47.9646 352.151C47.6572 352.09 47.442 352.028 47.3191 351.982C47.1807 351.951 46.9809 351.89 46.735 351.798C46.4891 351.705 46.3046 351.613 46.1817 351.521C46.0587 351.429 45.9204 351.306 45.7667 351.152C45.613 350.998 45.5207 350.829 45.4593 350.629C45.3978 350.43 45.367 350.199 45.367 349.938C45.367 349.231 45.6283 348.662 46.1817 348.232C46.735 347.817 47.4728 347.602 48.395 347.602C49.3172 347.602 50.0857 347.832 50.6698 348.262C51.2538 348.708 51.5612 349.338 51.5612 350.138ZM54.666 344.82V348.954C55.2501 348.078 56.1108 347.632 57.2636 347.632C59.0465 347.632 59.938 348.539 59.938 350.337V355.763H58.6315V350.645C58.6315 350.045 58.4932 349.584 58.2473 349.262C58.0013 348.939 57.5402 348.77 56.8947 348.77C56.0954 348.77 55.5114 349.031 55.1732 349.538C54.8351 350.061 54.666 350.783 54.666 351.736V355.763H53.3595V344.82H54.666ZM63.1913 344.82V348.923C63.76 348.063 64.6361 347.617 65.8196 347.617C66.8955 347.617 67.7716 348.001 68.4172 348.754C69.0627 349.507 69.4009 350.507 69.4009 351.767C69.4009 353.058 69.0627 354.072 68.4018 354.841C67.7255 355.609 66.8494 355.994 65.7428 355.994C64.4824 355.994 63.6063 355.533 63.1145 354.61V355.763H61.8848V344.82H63.1913ZM65.6198 348.724C64.7744 348.724 64.1443 349.031 63.7446 349.63C63.345 350.245 63.1452 350.983 63.1452 351.859C63.1452 352.797 63.3604 353.534 63.8061 354.088C64.2519 354.641 64.8513 354.902 65.6198 354.902C66.3422 354.902 66.9263 354.626 67.372 354.057C67.8177 353.488 68.0483 352.735 68.0483 351.782C68.0483 350.86 67.8177 350.107 67.3874 349.554C66.9416 349 66.3576 348.724 65.6198 348.724ZM74.4849 347.602C75.6838 347.602 76.606 347.97 77.2823 348.708C77.9432 349.431 78.2814 350.445 78.2814 351.751C78.2814 353.104 77.9432 354.149 77.2823 354.887C76.606 355.64 75.6684 356.009 74.4696 356.009C73.2553 356.009 72.3024 355.64 71.6261 354.902C70.9344 354.165 70.5963 353.15 70.5963 351.828C70.5963 350.537 70.9344 349.507 71.6414 348.739C72.3331 347.986 73.2861 347.602 74.4849 347.602ZM74.4542 348.708C73.6857 348.708 73.0709 348.985 72.6251 349.538C72.164 350.107 71.9488 350.86 71.9488 351.798C71.9488 352.781 72.164 353.534 72.6098 354.088C73.0555 354.641 73.6857 354.902 74.4849 354.902C75.2534 354.902 75.8529 354.626 76.2832 354.072C76.7136 353.519 76.9442 352.766 76.9442 351.782C76.9442 350.845 76.7136 350.092 76.2679 349.538C75.8221 348.985 75.2227 348.708 74.4542 348.708ZM86.8613 354.718V355.748C86.5846 355.84 86.2926 355.901 85.9698 355.901C85.2167 355.901 84.8324 355.502 84.8171 354.733C84.0639 355.563 83.111 355.994 81.9428 355.994C81.159 355.994 80.5442 355.794 80.083 355.394C79.6219 354.995 79.4068 354.441 79.4068 353.75C79.4068 352.336 80.3443 351.506 82.2195 351.275C82.3425 351.244 82.5115 351.229 82.7575 351.214C83.6489 351.106 84.1869 350.983 84.4021 350.86C84.6326 350.691 84.7556 350.414 84.7556 350.015C84.7556 349.139 84.1561 348.708 82.9573 348.708C82.3425 348.708 81.866 348.831 81.5586 349.077C81.2358 349.323 81.0514 349.738 80.9899 350.322H79.7142C79.7295 349.461 80.0369 348.8 80.621 348.339C81.2051 347.863 82.0043 347.632 83.0341 347.632C84.1408 347.632 84.9708 347.878 85.5241 348.401C85.6932 348.554 85.8161 348.77 85.9084 349.046C85.9852 349.308 86.0313 349.523 86.0467 349.692C86.0467 349.861 86.0621 350.122 86.0621 350.46C86.0621 350.845 86.0467 351.429 86.0313 352.213C86.0006 353.012 86.0006 353.596 86.0006 353.98C86.0006 354.272 86.0313 354.472 86.1082 354.595C86.185 354.718 86.3233 354.764 86.5385 354.764C86.6154 354.764 86.723 354.749 86.8613 354.718ZM84.7556 351.659C84.6634 351.721 84.5558 351.782 84.4636 351.844C84.356 351.89 84.2176 351.936 84.0639 351.967C83.9102 351.997 83.8026 352.013 83.7412 352.028C83.6797 352.044 83.5567 352.059 83.3415 352.09C83.1263 352.12 83.0034 352.136 83.0034 352.136C82.6806 352.166 82.4654 352.197 82.3732 352.213C82.281 352.228 82.0965 352.274 81.8199 352.351C81.5432 352.412 81.3588 352.505 81.2512 352.597C81.1282 352.689 81.0206 352.812 80.913 352.996C80.8054 353.181 80.7593 353.396 80.7593 353.642C80.7593 354.042 80.8977 354.364 81.1743 354.61C81.451 354.841 81.8506 354.964 82.3425 354.964C82.9573 354.964 83.526 354.779 84.0178 354.411C84.5097 354.042 84.7556 353.596 84.7556 353.104V351.659ZM92.2272 347.648L92.2118 349.016C92.1196 349 92.012 349 91.8737 349C91.4587 349 91.0898 349.062 90.7824 349.185C90.475 349.308 90.2444 349.477 90.06 349.677C89.8755 349.892 89.7372 350.138 89.6143 350.445C89.5067 350.752 89.4298 351.06 89.3991 351.367C89.3683 351.675 89.353 352.028 89.353 352.412V355.763H88.0465V347.832H89.2915V349.538C89.8141 348.278 90.7824 347.648 92.2272 347.648ZM100.088 344.82V355.763H98.8584V354.595C98.3511 355.517 97.475 355.978 96.2454 355.978C95.108 355.978 94.2166 355.609 93.5556 354.856C92.8947 354.103 92.5719 353.073 92.5719 351.782C92.5719 350.583 92.8793 349.6 93.4942 348.8C94.109 348.001 95.0158 347.602 96.1839 347.602C97.3213 347.602 98.1821 348.032 98.7815 348.893V344.82H100.088ZM96.353 348.724C95.5999 348.724 95.0004 349 94.5701 349.538C94.1397 350.092 93.9245 350.829 93.9245 351.751C93.9245 352.72 94.1397 353.488 94.5854 354.057C95.0312 354.626 95.6306 354.902 96.3837 354.902C97.1369 354.902 97.7363 354.641 98.1667 354.088C98.5971 353.534 98.8122 352.781 98.8122 351.798C98.8122 350.937 98.5971 350.199 98.1974 349.615C97.7978 349.031 97.183 348.724 96.353 348.724ZM107.559 347.832V349.062C108.205 348.109 109.112 347.617 110.264 347.617C111.187 347.617 111.863 347.863 112.278 348.355C112.693 348.847 112.908 349.554 112.908 350.491V355.763H111.602V351.091C111.602 350.706 111.586 350.399 111.556 350.184C111.525 349.969 111.463 349.723 111.371 349.477C111.264 349.231 111.094 349.046 110.849 348.923C110.603 348.816 110.28 348.754 109.896 348.754C108.389 348.754 107.636 349.707 107.636 351.613V355.763H106.33V347.832H107.559ZM121.895 354.718V355.748C121.618 355.84 121.326 355.901 121.003 355.901C120.25 355.901 119.866 355.502 119.85 354.733C119.097 355.563 118.144 355.994 116.976 355.994C116.192 355.994 115.577 355.794 115.116 355.394C114.655 354.995 114.44 354.441 114.44 353.75C114.44 352.336 115.378 351.506 117.253 351.275C117.376 351.244 117.545 351.229 117.791 351.214C118.682 351.106 119.22 350.983 119.435 350.86C119.666 350.691 119.789 350.414 119.789 350.015C119.789 349.139 119.189 348.708 117.991 348.708C117.376 348.708 116.899 348.831 116.592 349.077C116.269 349.323 116.085 349.738 116.023 350.322H114.747C114.763 349.461 115.07 348.8 115.654 348.339C116.238 347.863 117.038 347.632 118.067 347.632C119.174 347.632 120.004 347.878 120.557 348.401C120.726 348.554 120.849 348.77 120.942 349.046C121.018 349.308 121.065 349.523 121.08 349.692C121.08 349.861 121.095 350.122 121.095 350.46C121.095 350.845 121.08 351.429 121.065 352.213C121.034 353.012 121.034 353.596 121.034 353.98C121.034 354.272 121.065 354.472 121.141 354.595C121.218 354.718 121.357 354.764 121.572 354.764C121.649 354.764 121.756 354.749 121.895 354.718ZM119.789 351.659C119.697 351.721 119.589 351.782 119.497 351.844C119.389 351.89 119.251 351.936 119.097 351.967C118.943 351.997 118.836 352.013 118.774 352.028C118.713 352.044 118.59 352.059 118.375 352.09C118.16 352.12 118.037 352.136 118.037 352.136C117.714 352.166 117.499 352.197 117.406 352.213C117.314 352.228 117.13 352.274 116.853 352.351C116.576 352.412 116.392 352.505 116.284 352.597C116.161 352.689 116.054 352.812 115.946 352.996C115.839 353.181 115.793 353.396 115.793 353.642C115.793 354.042 115.931 354.364 116.208 354.61C116.484 354.841 116.884 354.964 117.376 354.964C117.991 354.964 118.559 354.779 119.051 354.411C119.543 354.042 119.789 353.596 119.789 353.104V351.659ZM122.357 347.832H123.818L126.062 354.487L128.244 347.832H129.612L126.707 355.763H125.308L122.357 347.832Z" fill="white"/>
<g clip-path="url(#clip3_4740_8652)">
<path d="M236.865 331.594H401.775L392.954 357.211H236.865V331.594Z" fill="#006756"/>
<path d="M256.095 340.321V347.465H255.292V346.702C254.961 347.304 254.389 347.605 253.586 347.605C252.844 347.605 252.262 347.365 251.83 346.873C251.399 346.381 251.188 345.709 251.188 344.866C251.188 344.084 251.389 343.441 251.79 342.92C252.192 342.398 252.784 342.137 253.546 342.137C254.289 342.137 254.85 342.418 255.242 342.98V340.321H256.095ZM253.656 342.87C253.165 342.87 252.774 343.05 252.493 343.401C252.212 343.763 252.071 344.244 252.071 344.846C252.071 345.478 252.212 345.98 252.503 346.351C252.794 346.722 253.185 346.903 253.677 346.903C254.168 346.903 254.559 346.732 254.84 346.371C255.121 346.01 255.262 345.518 255.262 344.876C255.262 344.314 255.121 343.833 254.86 343.452C254.6 343.07 254.198 342.87 253.656 342.87ZM261.801 345.829C261.54 347.033 260.788 347.635 259.544 347.635C258.781 347.635 258.179 347.405 257.748 346.923C257.316 346.451 257.106 345.789 257.106 344.946C257.106 344.114 257.326 343.441 257.768 342.92C258.209 342.398 258.791 342.137 259.514 342.137C260.306 342.137 260.898 342.408 261.279 342.95C261.661 343.492 261.861 344.164 261.861 344.987V345.107H257.968L257.958 345.167C257.958 345.719 258.099 346.15 258.39 346.462C258.671 346.783 259.072 346.933 259.574 346.933C259.945 346.933 260.236 346.853 260.457 346.672C260.677 346.502 260.848 346.221 260.968 345.829H261.801ZM260.978 344.415C260.938 343.923 260.788 343.542 260.527 343.261C260.266 342.98 259.915 342.839 259.494 342.839C259.072 342.839 258.731 342.98 258.46 343.261C258.179 343.542 258.019 343.933 257.968 344.415H260.978ZM263.669 340.321V347.465H262.806V340.321H263.669ZM265.893 340.321V341.365H265.03V340.321H265.893ZM265.893 342.288V347.465H265.03V342.288H265.893ZM266.712 342.288H267.665L269.13 346.632L270.555 342.288H271.448L269.552 347.465H268.639L266.712 342.288ZM276.655 345.829C276.394 347.033 275.642 347.635 274.398 347.635C273.635 347.635 273.033 347.405 272.602 346.923C272.17 346.451 271.96 345.789 271.96 344.946C271.96 344.114 272.18 343.441 272.622 342.92C273.063 342.398 273.645 342.137 274.368 342.137C275.16 342.137 275.752 342.408 276.134 342.95C276.515 343.492 276.715 344.164 276.715 344.987V345.107H272.823L272.812 345.167C272.812 345.719 272.953 346.15 273.244 346.462C273.525 346.783 273.926 346.933 274.428 346.933C274.799 346.933 275.09 346.853 275.311 346.672C275.532 346.502 275.702 346.221 275.822 345.829H276.655ZM275.833 344.415C275.792 343.923 275.642 343.542 275.381 343.261C275.12 342.98 274.769 342.839 274.348 342.839C273.926 342.839 273.585 342.98 273.314 343.261C273.033 343.542 272.873 343.933 272.823 344.415H275.833ZM280.319 342.167L280.308 343.06C280.248 343.05 280.178 343.05 280.088 343.05C279.817 343.05 279.576 343.09 279.375 343.171C279.175 343.251 279.024 343.361 278.904 343.492C278.783 343.632 278.693 343.793 278.613 343.993C278.543 344.194 278.492 344.395 278.472 344.595C278.452 344.796 278.442 345.027 278.442 345.278V347.465H277.589V342.288H278.402V343.401C278.743 342.579 279.375 342.167 280.319 342.167ZM285.209 345.829C284.948 347.033 284.196 347.635 282.952 347.635C282.189 347.635 281.587 347.405 281.156 346.923C280.724 346.451 280.513 345.789 280.513 344.946C280.513 344.114 280.734 343.441 281.176 342.92C281.617 342.398 282.199 342.137 282.921 342.137C283.714 342.137 284.306 342.408 284.687 342.95C285.069 343.492 285.269 344.164 285.269 344.987V345.107H281.376L281.366 345.167C281.366 345.719 281.507 346.15 281.798 346.462C282.079 346.783 282.48 346.933 282.982 346.933C283.353 346.933 283.644 346.853 283.865 346.672C284.085 346.502 284.256 346.221 284.376 345.829H285.209ZM284.386 344.415C284.346 343.923 284.196 343.542 283.935 343.261C283.674 342.98 283.323 342.839 282.901 342.839C282.48 342.839 282.139 342.98 281.868 343.261C281.587 343.542 281.427 343.933 281.376 344.415H284.386ZM290.839 340.321V347.465H290.036V346.702C289.705 347.304 289.133 347.605 288.331 347.605C287.588 347.605 287.006 347.365 286.575 346.873C286.143 346.381 285.933 345.709 285.933 344.866C285.933 344.084 286.133 343.441 286.535 342.92C286.936 342.398 287.528 342.137 288.29 342.137C289.033 342.137 289.595 342.418 289.986 342.98V340.321H290.839ZM288.401 342.87C287.909 342.87 287.518 343.05 287.237 343.401C286.956 343.763 286.815 344.244 286.815 344.846C286.815 345.478 286.956 345.98 287.247 346.351C287.538 346.722 287.929 346.903 288.421 346.903C288.912 346.903 289.304 346.732 289.585 346.371C289.866 346.01 290.006 345.518 290.006 344.876C290.006 344.314 289.866 343.833 289.605 343.452C289.344 343.07 288.943 342.87 288.401 342.87Z" fill="white"/>
</g>
<rect x="237.132" y="331.861" width="68.312" height="25.0833" rx="12.5417" stroke="#1ADBBB" stroke-width="0.533688"/>
</g>
<defs>
<filter id="filter0_i_4740_8652" x="0" y="0" width="348" height="88.1251" filterUnits="userSpaceOnUse" color-interpolation-filters="sRGB">
<feFlood flood-opacity="0" result="BackgroundImageFix"/>
<feBlend mode="normal" in="SourceGraphic" in2="BackgroundImageFix" result="shape"/>
<feColorMatrix in="SourceAlpha" type="matrix" values="0 0 0 0 0 0 0 0 0 0 0 0 0 0 0 0 0 0 127 0" result="hardAlpha"/>
<feOffset dy="1.1251"/>
<feGaussianBlur stdDeviation="1.1251"/>
<feComposite in2="hardAlpha" operator="arithmetic" k2="-1" k3="1"/>
<feColorMatrix type="matrix" values="0 0 0 0 0.321569 0 0 0 0 0.317647 0 0 0 0 0.329412 0 0 0 1 0"/>
<feBlend mode="normal" in2="shape" result="effect1_innerShadow_4740_8652"/>
</filter>
<filter id="filter1_i_4740_8652" x="0" y="100" width="348" height="88.1251" filterUnits="userSpaceOnUse" color-interpolation-filters="sRGB">
<feFlood flood-opacity="0" result="BackgroundImageFix"/>
<feBlend mode="normal" in="SourceGraphic" in2="BackgroundImageFix" result="shape"/>
<feColorMatrix in="SourceAlpha" type="matrix" values="0 0 0 0 0 0 0 0 0 0 0 0 0 0 0 0 0 0 127 0" result="hardAlpha"/>
<feOffset dy="1.1251"/>
<feGaussianBlur stdDeviation="1.1251"/>
<feComposite in2="hardAlpha" operator="arithmetic" k2="-1" k3="1"/>
<feColorMatrix type="matrix" values="0 0 0 0 0.321569 0 0 0 0 0.317647 0 0 0 0 0.329412 0 0 0 1 0"/>
<feBlend mode="normal" in2="shape" result="effect1_innerShadow_4740_8652"/>
</filter>
<filter id="filter2_i_4740_8652" x="0" y="200" width="348" height="87.1251" filterUnits="userSpaceOnUse" color-interpolation-filters="sRGB">
<feFlood flood-opacity="0" result="BackgroundImageFix"/>
<feBlend mode="normal" in="SourceGraphic" in2="BackgroundImageFix" result="shape"/>
<feColorMatrix in="SourceAlpha" type="matrix" values="0 0 0 0 0 0 0 0 0 0 0 0 0 0 0 0 0 0 127 0" result="hardAlpha"/>
<feOffset dy="1.1251"/>
<feGaussianBlur stdDeviation="1.1251"/>
<feComposite in2="hardAlpha" operator="arithmetic" k2="-1" k3="1"/>
<feColorMatrix type="matrix" values="0 0 0 0 0.321569 0 0 0 0 0.317647 0 0 0 0 0.329412 0 0 0 1 0"/>
<feBlend mode="normal" in2="shape" result="effect1_innerShadow_4740_8652"/>
</filter>
<filter id="filter3_i_4740_8652" x="0" y="300" width="348" height="87.1251" filterUnits="userSpaceOnUse" color-interpolation-filters="sRGB">
<feFlood flood-opacity="0" result="BackgroundImageFix"/>
<feBlend mode="normal" in="SourceGraphic" in2="BackgroundImageFix" result="shape"/>
<feColorMatrix in="SourceAlpha" type="matrix" values="0 0 0 0 0 0 0 0 0 0 0 0 0 0 0 0 0 0 127 0" result="hardAlpha"/>
<feOffset dy="1.1251"/>
<feGaussianBlur stdDeviation="1.1251"/>
<feComposite in2="hardAlpha" operator="arithmetic" k2="-1" k3="1"/>
<feColorMatrix type="matrix" values="0 0 0 0 0.321569 0 0 0 0 0.317647 0 0 0 0 0.329412 0 0 0 1 0"/>
<feBlend mode="normal" in2="shape" result="effect1_innerShadow_4740_8652"/>
</filter>
<linearGradient id="paint0_linear_4740_8652" x1="174" y1="0" x2="174" y2="87" gradientUnits="userSpaceOnUse">
<stop stop-color="#1F1F1F"/>
<stop offset="0.69" stop-color="#111111"/>
</linearGradient>
<linearGradient id="paint1_linear_4740_8652" x1="174" y1="100" x2="174" y2="187" gradientUnits="userSpaceOnUse">
<stop stop-color="#1F1F1F"/>
<stop offset="0.69" stop-color="#111111"/>
</linearGradient>
<linearGradient id="paint2_linear_4740_8652" x1="174" y1="200" x2="174" y2="286" gradientUnits="userSpaceOnUse">
<stop stop-color="#1F1F1F"/>
<stop offset="0.69" stop-color="#111111"/>
</linearGradient>
<linearGradient id="paint3_linear_4740_8652" x1="174" y1="300" x2="174" y2="386" gradientUnits="userSpaceOnUse">
<stop stop-color="#1F1F1F"/>
<stop offset="0.69" stop-color="#111111"/>
</linearGradient>
<clipPath id="clip0_4740_8652">
<rect x="236.865" y="31.5944" width="68.8457" height="25.617" rx="12.8085" fill="white"/>
</clipPath>
<clipPath id="clip1_4740_8652">
<rect x="236.865" y="131.594" width="68.8457" height="25.617" rx="12.8085" fill="white"/>
</clipPath>
<clipPath id="clip2_4740_8652">
<rect x="236.865" y="231.594" width="68.8457" height="25.617" rx="12.8085" fill="white"/>
</clipPath>
<clipPath id="clip3_4740_8652">
<rect x="236.865" y="331.594" width="68.8457" height="25.617" rx="12.8085" fill="white"/>
</clipPath>
</defs>
</svg>
