<svg width="366" height="406" viewBox="0 0 366 406" fill="none" xmlns="http://www.w3.org/2000/svg">
<g filter="url(#filter0_i_4794_11133)">
<rect width="366" height="91.5" rx="24" fill="url(#paint0_linear_4794_11133)"/>
<path d="M31.0651 31.7028V32.8828C31.6632 31.9291 32.6008 31.4441 33.8778 31.4441C35.0417 31.4441 35.9632 31.8483 36.6421 32.6242C37.321 33.4163 37.6767 34.4832 37.6767 35.8249C37.6767 37.1828 37.3372 38.2497 36.6583 39.058C35.9793 39.8662 35.0741 40.2542 33.9425 40.2542C32.7463 40.2542 31.8087 39.8016 31.1459 38.8801V43.2609H29.7719V31.7028H31.0651ZM33.6677 32.5919C32.8594 32.5919 32.229 32.8828 31.7764 33.4648C31.3237 34.0467 31.0974 34.8388 31.0974 35.8411C31.0974 36.8595 31.3237 37.6516 31.7925 38.2335C32.2613 38.8155 32.9079 39.1065 33.7162 39.1065C34.4921 39.1065 35.1226 38.8155 35.5752 38.2335C36.0278 37.6516 36.2541 36.8595 36.2541 35.8572C36.2541 34.8388 36.0117 34.0467 35.559 33.4648C35.1064 32.8828 34.476 32.5919 33.6677 32.5919ZM43.7026 31.5088L43.6865 32.9475C43.5895 32.9313 43.4763 32.9313 43.3308 32.9313C42.8944 32.9313 42.5064 32.996 42.1831 33.1253C41.8598 33.2546 41.6173 33.4325 41.4233 33.6426C41.2294 33.8689 41.0839 34.1276 40.9545 34.4509C40.8414 34.7742 40.7606 35.0975 40.7282 35.4208C40.6959 35.7441 40.6797 36.1159 40.6797 36.52V40.044H39.3057V31.7028H40.6151V33.4971C41.1647 32.1716 42.1831 31.5088 43.7026 31.5088ZM48.1065 31.4603C49.3674 31.4603 50.3373 31.8483 51.0486 32.6242C51.7437 33.384 52.0993 34.4509 52.0993 35.8249C52.0993 37.2475 51.7437 38.3467 51.0486 39.1226C50.3373 39.9147 49.3512 40.3027 48.0903 40.3027C46.8133 40.3027 45.8111 39.9147 45.0998 39.1388C44.3723 38.3629 44.0167 37.296 44.0167 35.9057C44.0167 34.5479 44.3723 33.4648 45.1159 32.6565C45.8434 31.8644 46.8456 31.4603 48.1065 31.4603ZM48.0742 32.6242C47.2659 32.6242 46.6193 32.9152 46.1505 33.4971C45.6656 34.0952 45.4393 34.8873 45.4393 35.8734C45.4393 36.908 45.6656 37.7001 46.1344 38.282C46.6031 38.864 47.2659 39.1388 48.1065 39.1388C48.9148 39.1388 49.5452 38.8478 49.9978 38.2659C50.4505 37.6839 50.6929 36.8918 50.6929 35.8572C50.6929 34.8712 50.4505 34.0791 49.9817 33.4971C49.5129 32.9152 48.8824 32.6242 48.0742 32.6242ZM57.3081 31.7028V32.8344H55.643V37.7001C55.643 37.9749 55.643 38.1527 55.643 38.2335C55.643 38.3305 55.6754 38.4437 55.74 38.5892C55.7885 38.7347 55.8855 38.8316 56.0148 38.864C56.1442 38.9125 56.322 38.9286 56.5645 38.9286C56.7584 38.9286 57.0171 38.9125 57.3081 38.8801V40.0602C56.9201 40.1087 56.5645 40.1249 56.2573 40.1249C55.8694 40.1249 55.546 40.0925 55.2874 39.9955C55.0288 39.9147 54.8186 39.8177 54.6893 39.7046C54.56 39.6076 54.463 39.4136 54.3983 39.1388C54.3337 38.864 54.2852 38.6377 54.2852 38.4437C54.269 38.2497 54.269 37.9426 54.269 37.4899V37.4253V37.3444V37.2636V32.8344H52.8626V31.7028H54.269V29.2295H55.643V31.7028H57.3081ZM62.4879 31.4603C63.7488 31.4603 64.7187 31.8483 65.4299 32.6242C66.125 33.384 66.4807 34.4509 66.4807 35.8249C66.4807 37.2475 66.125 38.3467 65.4299 39.1226C64.7187 39.9147 63.7326 40.3027 62.4717 40.3027C61.1947 40.3027 60.1924 39.9147 59.4811 39.1388C58.7537 38.3629 58.3981 37.296 58.3981 35.9057C58.3981 34.5479 58.7537 33.4648 59.4973 32.6565C60.2247 31.8644 61.227 31.4603 62.4879 31.4603ZM62.4555 32.6242C61.6473 32.6242 61.0007 32.9152 60.5319 33.4971C60.0469 34.0952 59.8206 34.8873 59.8206 35.8734C59.8206 36.908 60.0469 37.7001 60.5157 38.282C60.9845 38.864 61.6473 39.1388 62.4879 39.1388C63.2961 39.1388 63.9266 38.8478 64.3792 38.2659C64.8318 37.6839 65.0743 36.8918 65.0743 35.8572C65.0743 34.8712 64.8318 34.0791 64.363 33.4971C63.8942 32.9152 63.2638 32.6242 62.4555 32.6242ZM71.6894 31.7028V32.8344H70.0244V37.7001C70.0244 37.9749 70.0244 38.1527 70.0244 38.2335C70.0244 38.3305 70.0567 38.4437 70.1214 38.5892C70.1699 38.7347 70.2669 38.8316 70.3962 38.864C70.5255 38.9125 70.7033 38.9286 70.9458 38.9286C71.1398 38.9286 71.3984 38.9125 71.6894 38.8801V40.0602C71.3014 40.1087 70.9458 40.1249 70.6387 40.1249C70.2507 40.1249 69.9274 40.0925 69.6688 39.9955C69.4101 39.9147 69.2 39.8177 69.0707 39.7046C68.9413 39.6076 68.8443 39.4136 68.7797 39.1388C68.715 38.864 68.6665 38.6377 68.6665 38.4437C68.6504 38.2497 68.6504 37.9426 68.6504 37.4899V37.4253V37.3444V37.2636V32.8344H67.244V31.7028H68.6504V29.2295H70.0244V31.7028H71.6894ZM80.1184 31.7028L76.5459 41.1109C76.4004 41.4989 76.2711 41.7899 76.1741 42C76.0771 42.2102 75.9316 42.4365 75.7377 42.6951C75.5437 42.9538 75.3174 43.1316 75.0587 43.2447C74.8001 43.3579 74.4929 43.4064 74.1373 43.4064C73.8625 43.4064 73.523 43.3579 73.1189 43.2609V42.0324C73.5069 42.1617 73.814 42.2102 74.008 42.2102C74.4606 42.2102 74.7839 41.9839 74.9779 41.5151L75.6245 39.9955L72.3106 31.7028H73.8625L76.3358 38.3467L78.6797 31.7028H80.1184ZM82.5917 31.7028V32.8828C83.1898 31.9291 84.1274 31.4441 85.4045 31.4441C86.5684 31.4441 87.4898 31.8483 88.1687 32.6242C88.8476 33.4163 89.2033 34.4832 89.2033 35.8249C89.2033 37.1828 88.8638 38.2497 88.1849 39.058C87.5059 39.8662 86.6007 40.2542 85.4691 40.2542C84.2729 40.2542 83.3353 39.8016 82.6725 38.8801V43.2609H81.2985V31.7028H82.5917ZM85.1943 32.5919C84.386 32.5919 83.7556 32.8828 83.303 33.4648C82.8504 34.0467 82.624 34.8388 82.624 35.8411C82.624 36.8595 82.8504 37.6516 83.3191 38.2335C83.7879 38.8155 84.4345 39.1065 85.2428 39.1065C86.0187 39.1065 86.6492 38.8155 87.1018 38.2335C87.5544 37.6516 87.7807 36.8595 87.7807 35.8572C87.7807 34.8388 87.5383 34.0467 87.0856 33.4648C86.633 32.8828 86.0026 32.5919 85.1943 32.5919ZM98.0097 37.4091C97.5894 39.3489 96.377 40.3188 94.3725 40.3188C93.1439 40.3188 92.174 39.947 91.4789 39.1711C90.7838 38.4114 90.4443 37.3444 90.4443 35.9866C90.4443 34.6449 90.8 33.5618 91.5112 32.7212C92.2225 31.8806 93.1601 31.4603 94.324 31.4603C95.601 31.4603 96.5548 31.8968 97.1691 32.7697C97.7833 33.6426 98.1067 34.7257 98.1067 36.0512V36.2452H91.8346L91.8184 36.3422C91.8184 37.2313 92.0447 37.9264 92.5135 38.4275C92.9661 38.9448 93.6127 39.1873 94.421 39.1873C95.0191 39.1873 95.4879 39.058 95.8435 38.767C96.1992 38.4922 96.474 38.0396 96.6679 37.4091H98.0097ZM96.6841 35.1298C96.6195 34.3377 96.377 33.7234 95.9567 33.2708C95.5364 32.8182 94.9706 32.5919 94.2917 32.5919C93.6127 32.5919 93.0631 32.8182 92.6266 33.2708C92.174 33.7234 91.9154 34.3539 91.8346 35.1298H96.6841ZM108.524 34.8712V36.229H103.82V34.8712H108.524ZM33.4252 50.4603C34.6861 50.4603 35.656 50.8483 36.3673 51.6242C37.0624 52.384 37.418 53.4509 37.418 54.8249C37.418 56.2475 37.0624 57.3467 36.3673 58.1226C35.656 58.9147 34.6699 59.3027 33.4091 59.3027C32.132 59.3027 31.1298 58.9147 30.4185 58.1388C29.6911 57.3629 29.3354 56.296 29.3354 54.9057C29.3354 53.5479 29.6911 52.4648 30.4347 51.6565C31.1621 50.8644 32.1643 50.4603 33.4252 50.4603ZM33.3929 51.6242C32.5846 51.6242 31.938 51.9152 31.4692 52.4971C30.9843 53.0952 30.758 53.8873 30.758 54.8734C30.758 55.908 30.9843 56.7001 31.4531 57.282C31.9219 57.864 32.5846 58.1388 33.4252 58.1388C34.2335 58.1388 34.8639 57.8478 35.3165 57.2659C35.7692 56.6839 36.0117 55.8918 36.0117 54.8572C36.0117 53.8712 35.7692 53.0791 35.3004 52.4971C34.8316 51.9152 34.2011 51.6242 33.3929 51.6242ZM40.3475 50.7028V51.996C41.0264 50.9938 41.9802 50.4765 43.1925 50.4765C44.1625 50.4765 44.8737 50.7351 45.3102 51.2524C45.7466 51.7697 45.973 52.5133 45.973 53.4994V59.044H44.5989V54.1298C44.5989 53.7257 44.5827 53.4024 44.5504 53.1761C44.5181 52.9498 44.4534 52.6911 44.3564 52.4325C44.2433 52.1738 44.0655 51.9798 43.8068 51.8505C43.5482 51.7374 43.2087 51.6727 42.8046 51.6727C41.2204 51.6727 40.4283 52.6749 40.4283 54.6794V59.044H39.0542V50.7028H40.3475ZM49.3946 47.5344V51.8505C49.9927 50.9453 50.9141 50.4765 52.1588 50.4765C53.2904 50.4765 54.2118 50.8806 54.8907 51.6727C55.5697 52.4648 55.9253 53.5155 55.9253 54.8411C55.9253 56.199 55.5697 57.2659 54.8746 58.0741C54.1633 58.8824 53.2419 59.2865 52.078 59.2865C50.7524 59.2865 49.831 58.8016 49.3137 57.8316V59.044H48.0205V47.5344H49.3946ZM51.9487 51.6404C51.0596 51.6404 50.3968 51.9637 49.9765 52.5941C49.5562 53.2407 49.3461 54.0167 49.3461 54.9381C49.3461 55.9242 49.5724 56.7001 50.0412 57.282C50.51 57.864 51.1404 58.1388 51.9487 58.1388C52.7084 58.1388 53.3227 57.8478 53.7915 57.2497C54.2603 56.6516 54.5028 55.8595 54.5028 54.8572C54.5028 53.8873 54.2603 53.0952 53.8077 52.5133C53.3389 51.9313 52.7246 51.6404 51.9487 51.6404ZM61.2723 50.4603C62.5332 50.4603 63.5031 50.8483 64.2144 51.6242C64.9095 52.384 65.2651 53.4509 65.2651 54.8249C65.2651 56.2475 64.9095 57.3467 64.2144 58.1226C63.5031 58.9147 62.517 59.3027 61.2562 59.3027C59.9791 59.3027 58.9769 58.9147 58.2656 58.1388C57.5382 57.3629 57.1825 56.296 57.1825 54.9057C57.1825 53.5479 57.5382 52.4648 58.2818 51.6565C59.0092 50.8644 60.0114 50.4603 61.2723 50.4603ZM61.24 51.6242C60.4317 51.6242 59.7851 51.9152 59.3163 52.4971C58.8314 53.0952 58.6051 53.8873 58.6051 54.8734C58.6051 55.908 58.8314 56.7001 59.3002 57.282C59.769 57.864 60.4317 58.1388 61.2723 58.1388C62.0806 58.1388 62.711 57.8478 63.1637 57.2659C63.6163 56.6839 63.8588 55.8918 63.8588 54.8572C63.8588 53.8712 63.6163 53.0791 63.1475 52.4971C62.6787 51.9152 62.0483 51.6242 61.24 51.6242ZM74.2889 57.9448V59.0279C73.9979 59.1249 73.6907 59.1895 73.3513 59.1895C72.5592 59.1895 72.155 58.7692 72.1389 57.961C71.3468 58.8339 70.3445 59.2865 69.116 59.2865C68.2916 59.2865 67.645 59.0764 67.16 58.6561C66.675 58.2358 66.4487 57.6538 66.4487 56.9264C66.4487 55.4392 67.4348 54.5663 69.407 54.3238C69.5363 54.2915 69.7141 54.2753 69.9727 54.2591C70.9103 54.146 71.4761 54.0167 71.7024 53.8873C71.9449 53.7095 72.0742 53.4185 72.0742 52.9982C72.0742 52.0768 71.4438 51.6242 70.1829 51.6242C69.5363 51.6242 69.0352 51.7535 68.7119 52.0122C68.3724 52.2708 68.1784 52.7073 68.1137 53.3216H66.772C66.7882 52.4163 67.1115 51.7212 67.7258 51.2362C68.3401 50.7351 69.1806 50.4926 70.2637 50.4926C71.4276 50.4926 72.3005 50.7513 72.8825 51.3009C73.0603 51.4626 73.1896 51.6889 73.2866 51.9798C73.3674 52.2546 73.4159 52.481 73.4321 52.6588C73.4321 52.8366 73.4483 53.1114 73.4483 53.467C73.4483 53.8712 73.4321 54.4854 73.4159 55.3099C73.3836 56.1505 73.3836 56.7647 73.3836 57.1689C73.3836 57.476 73.4159 57.6862 73.4968 57.8155C73.5776 57.9448 73.7231 57.9933 73.9494 57.9933C74.0302 57.9933 74.1434 57.9771 74.2889 57.9448ZM72.0742 54.7279C71.9772 54.7926 71.8641 54.8572 71.7671 54.9219C71.6539 54.9704 71.5084 55.0189 71.3468 55.0512C71.1851 55.0836 71.072 55.0997 71.0073 55.1159C70.9427 55.1321 70.8133 55.1482 70.587 55.1806C70.3607 55.2129 70.2314 55.229 70.2314 55.229C69.8919 55.2614 69.6656 55.2937 69.5686 55.3099C69.4716 55.326 69.2776 55.3745 68.9867 55.4554C68.6957 55.52 68.5017 55.617 68.3886 55.714C68.2592 55.811 68.1461 55.9403 68.0329 56.1343C67.9198 56.3283 67.8713 56.5546 67.8713 56.8132C67.8713 57.2335 68.0168 57.573 68.3077 57.8316C68.5987 58.0741 69.019 58.2034 69.5363 58.2034C70.1829 58.2034 70.781 58.0095 71.2983 57.6215C71.8156 57.2335 72.0742 56.7647 72.0742 56.2475V54.7279ZM79.9323 50.5088L79.9161 51.9475C79.8191 51.9313 79.706 51.9313 79.5605 51.9313C79.124 51.9313 78.7361 51.996 78.4128 52.1253C78.0894 52.2546 77.847 52.4325 77.653 52.6426C77.459 52.8689 77.3135 53.1276 77.1842 53.4509C77.071 53.7742 76.9902 54.0975 76.9579 54.4208C76.9256 54.7441 76.9094 55.1159 76.9094 55.52V59.044H75.5353V50.7028H76.8447V52.4971C77.3943 51.1716 78.4128 50.5088 79.9323 50.5088ZM88.1997 47.5344V59.044H86.9064V57.8155C86.373 58.7854 85.4516 59.2703 84.1583 59.2703C82.9621 59.2703 82.0245 58.8824 81.3294 58.0903C80.6343 57.2982 80.2949 56.2151 80.2949 54.8572C80.2949 53.5964 80.6182 52.5618 81.2648 51.7212C81.9114 50.8806 82.8651 50.4603 84.0937 50.4603C85.2899 50.4603 86.1952 50.9129 86.8256 51.8182V47.5344H88.1997ZM84.2715 51.6404C83.4794 51.6404 82.849 51.9313 82.3963 52.4971C81.9437 53.0791 81.7174 53.855 81.7174 54.8249C81.7174 55.8433 81.9437 56.6516 82.4125 57.2497C82.8813 57.8478 83.5117 58.1388 84.3038 58.1388C85.0959 58.1388 85.7264 57.864 86.179 57.282C86.6316 56.7001 86.8579 55.908 86.8579 54.8734C86.8579 53.9682 86.6316 53.1922 86.2113 52.578C85.791 51.9637 85.1444 51.6404 84.2715 51.6404ZM91.72 47.5344V49.2156H90.3298V47.5344H91.72ZM91.72 50.7028V59.044H90.3298V50.7028H91.72ZM95.1419 50.7028V51.996C95.8208 50.9938 96.7745 50.4765 97.9869 50.4765C98.9568 50.4765 99.6681 50.7351 100.105 51.2524C100.541 51.7697 100.767 52.5133 100.767 53.4994V59.044H99.3933V54.1298C99.3933 53.7257 99.3771 53.4024 99.3448 53.1761C99.3125 52.9498 99.2478 52.6911 99.1508 52.4325C99.0377 52.1738 98.8599 51.9798 98.6012 51.8505C98.3426 51.7374 98.0031 51.6727 97.599 51.6727C96.0148 51.6727 95.2227 52.6749 95.2227 54.6794V59.044H93.8486V50.7028H95.1419ZM110.057 50.7028V58.155C110.057 58.8662 110.008 59.432 109.944 59.82C109.863 60.2079 109.717 60.5797 109.507 60.9192C108.893 61.9376 107.794 62.4387 106.21 62.4387C105.272 62.4387 104.48 62.2609 103.833 61.8729C103.187 61.485 102.815 60.8545 102.702 59.9816H104.108C104.27 60.9192 104.997 61.3718 106.258 61.3718C107.115 61.3718 107.729 61.1617 108.117 60.7252C108.505 60.3049 108.699 59.6098 108.731 58.6399L108.748 57.6215C108.214 58.6399 107.325 59.141 106.08 59.141C104.965 59.141 104.076 58.7692 103.413 57.9933C102.75 57.2335 102.411 56.199 102.411 54.9057C102.411 53.6934 102.75 52.6588 103.397 51.7859C104.06 50.9129 104.981 50.4765 106.161 50.4765C106.743 50.4765 107.26 50.6058 107.713 50.8483C108.166 51.1069 108.537 51.4626 108.796 51.9152V50.7028H110.057ZM106.226 51.6889C105.482 51.6889 104.884 51.9637 104.464 52.5456C104.043 53.1276 103.833 53.9197 103.833 54.9381C103.833 55.8433 104.043 56.5869 104.496 57.1365C104.933 57.6862 105.514 57.9771 106.258 57.9771C107.018 57.9771 107.616 57.6862 108.052 57.1042C108.489 56.5223 108.715 55.714 108.715 54.7118C108.715 53.758 108.489 53.0144 108.052 52.481C107.616 51.9475 107.002 51.6889 106.226 51.6889ZM121.478 47.5021H122.852V59.044H121.478V47.5021ZM117.178 51.899H115.772V50.6866H117.178V49.4419C117.178 48.763 117.372 48.2618 117.76 47.9062C118.148 47.5506 118.73 47.3728 119.49 47.3728C119.619 47.3728 119.765 47.3889 119.926 47.4051C120.088 47.4374 120.25 47.4697 120.379 47.5021V48.6983C120.25 48.666 120.12 48.6336 119.991 48.6175C119.846 48.6013 119.716 48.5851 119.603 48.5851C119.264 48.5851 119.005 48.6498 118.827 48.7791C118.633 48.9084 118.552 49.1671 118.552 49.5227V50.6866H120.169V51.899H118.552V59.044H117.178V51.899ZM128.633 50.4603C129.894 50.4603 130.863 50.8483 131.575 51.6242C132.27 52.384 132.625 53.4509 132.625 54.8249C132.625 56.2475 132.27 57.3467 131.575 58.1226C130.863 58.9147 129.877 59.3027 128.616 59.3027C127.339 59.3027 126.337 58.9147 125.626 58.1388C124.898 57.3629 124.543 56.296 124.543 54.9057C124.543 53.5479 124.898 52.4648 125.642 51.6565C126.37 50.8644 127.372 50.4603 128.633 50.4603ZM128.6 51.6242C127.792 51.6242 127.145 51.9152 126.677 52.4971C126.192 53.0952 125.965 53.8873 125.965 54.8734C125.965 55.908 126.192 56.7001 126.66 57.282C127.129 57.864 127.792 58.1388 128.633 58.1388C129.441 58.1388 130.071 57.8478 130.524 57.2659C130.977 56.6839 131.219 55.8918 131.219 54.8572C131.219 53.8712 130.977 53.0791 130.508 52.4971C130.039 51.9152 129.409 51.6242 128.6 51.6242ZM133.502 50.7028H135.021L136.929 57.573L138.626 50.7028H140.13L141.892 57.573L143.783 50.7028H145.206L142.538 59.044H141.083L139.37 52.4486L137.673 59.044H136.185L133.502 50.7028Z" fill="white"/>
<g clip-path="url(#clip0_4794_11133)">
<path d="M249.117 33.2285H422.557L413.28 60.1705H249.117V33.2285Z" fill="#3FA5E0" fill-opacity="0.44"/>
<path d="M266.409 44.9578V45.802C266.852 45.1477 267.475 44.8101 268.266 44.8101C268.899 44.8101 269.364 44.9789 269.649 45.3166C269.934 45.6542 270.081 46.1396 270.081 46.7833V50.4028H269.184V47.1949C269.184 46.9311 269.174 46.72 269.153 46.5723C269.132 46.4246 269.089 46.2557 269.026 46.0869C268.952 45.918 268.836 45.7914 268.667 45.707C268.498 45.6331 268.277 45.5909 268.013 45.5909C266.979 45.5909 266.462 46.2452 266.462 47.5537V50.4028H265.565V44.9578H266.409ZM276.082 48.6827C275.808 49.949 275.016 50.5822 273.708 50.5822C272.906 50.5822 272.273 50.3395 271.819 49.8329C271.365 49.337 271.144 48.6405 271.144 47.7541C271.144 46.8783 271.376 46.1713 271.84 45.6226C272.304 45.0739 272.916 44.7995 273.676 44.7995C274.51 44.7995 275.132 45.0844 275.533 45.6542C275.934 46.2241 276.145 46.9311 276.145 47.7964V47.923H272.051L272.04 47.9863C272.04 48.5667 272.188 49.0204 272.494 49.3475C272.79 49.6852 273.212 49.8435 273.739 49.8435C274.13 49.8435 274.436 49.7591 274.668 49.5691C274.9 49.3898 275.08 49.0943 275.206 48.6827H276.082ZM275.217 47.1949C275.174 46.6778 275.016 46.2768 274.742 45.9814C274.467 45.6859 274.098 45.5382 273.655 45.5382C273.212 45.5382 272.853 45.6859 272.568 45.9814C272.273 46.2768 272.104 46.6884 272.051 47.1949H275.217ZM276.6 44.9578H277.592L278.837 49.4425L279.945 44.9578H280.927L282.077 49.4425L283.311 44.9578H284.24L282.499 50.4028H281.549L280.431 46.0974L279.323 50.4028H278.352L276.6 44.9578ZM290.362 44.9578V45.6964H289.275V48.8727C289.275 49.0521 289.275 49.1682 289.275 49.2209C289.275 49.2842 289.296 49.3581 289.338 49.4531C289.37 49.548 289.433 49.6113 289.518 49.6325C289.602 49.6641 289.718 49.6747 289.876 49.6747C290.003 49.6747 290.172 49.6641 290.362 49.643V50.4133C290.109 50.445 289.876 50.4555 289.676 50.4555C289.423 50.4555 289.212 50.4344 289.043 50.3711C288.874 50.3184 288.737 50.255 288.652 50.1812C288.568 50.1179 288.505 49.9912 288.462 49.8118C288.42 49.6325 288.389 49.4847 288.389 49.3581C288.378 49.2315 288.378 49.031 288.378 48.7355V48.6933V48.6405V48.5878V45.6964H287.46V44.9578H288.378V43.3433H289.275V44.9578H290.362ZM296.181 49.6852V50.3922C295.991 50.4555 295.79 50.4977 295.569 50.4977C295.052 50.4977 294.788 50.2234 294.777 49.6958C294.26 50.2656 293.606 50.5611 292.804 50.5611C292.266 50.5611 291.844 50.4239 291.527 50.1495C291.211 49.8752 291.063 49.4953 291.063 49.0204C291.063 48.0496 291.706 47.4798 292.994 47.3215C293.078 47.3004 293.194 47.2898 293.363 47.2793C293.975 47.2054 294.345 47.121 294.492 47.0366C294.651 46.9205 294.735 46.7306 294.735 46.4562C294.735 45.8547 294.323 45.5593 293.5 45.5593C293.078 45.5593 292.751 45.6437 292.54 45.8125C292.319 45.9814 292.192 46.2663 292.15 46.6673H291.274C291.284 46.0763 291.495 45.6226 291.896 45.306C292.297 44.9789 292.846 44.8206 293.553 44.8206C294.313 44.8206 294.883 44.9894 295.263 45.3482C295.379 45.4537 295.463 45.6015 295.526 45.7914C295.579 45.9708 295.611 46.1185 295.621 46.2346C295.621 46.3507 295.632 46.5301 295.632 46.7622C295.632 47.026 295.621 47.427 295.611 47.9652C295.59 48.5139 295.59 48.9149 295.59 49.1787C295.59 49.3792 295.611 49.5164 295.664 49.6008C295.716 49.6852 295.811 49.7169 295.959 49.7169C296.012 49.7169 296.086 49.7063 296.181 49.6852ZM294.735 47.5853C294.672 47.6275 294.598 47.6697 294.534 47.7119C294.461 47.7436 294.366 47.7752 294.26 47.7964C294.155 47.8175 294.081 47.828 294.039 47.8386C293.996 47.8491 293.912 47.8597 293.764 47.8808C293.616 47.9019 293.532 47.9124 293.532 47.9124C293.31 47.9335 293.163 47.9546 293.099 47.9652C293.036 47.9757 292.909 48.0074 292.719 48.0602C292.53 48.1024 292.403 48.1657 292.329 48.229C292.245 48.2923 292.171 48.3767 292.097 48.5034C292.023 48.63 291.991 48.7777 291.991 48.9466C291.991 49.2209 292.086 49.4425 292.276 49.6113C292.466 49.7696 292.741 49.8541 293.078 49.8541C293.5 49.8541 293.891 49.7274 294.228 49.4742C294.566 49.2209 294.735 48.9149 294.735 48.5772V47.5853ZM301.068 46.5406H300.171C300.107 45.8864 299.664 45.5487 298.841 45.5487C298.493 45.5487 298.218 45.6226 298.028 45.7492C297.828 45.8864 297.733 46.0658 297.733 46.2874C297.733 46.3507 297.733 46.414 297.754 46.4773C297.765 46.5406 297.786 46.5934 297.828 46.6356C297.87 46.6778 297.902 46.72 297.933 46.7517C297.965 46.7939 298.018 46.8255 298.092 46.8572C298.166 46.8889 298.218 46.91 298.261 46.9311C298.303 46.9522 298.366 46.9838 298.472 47.0049C298.577 47.026 298.651 47.0471 298.693 47.0577C298.735 47.0682 298.809 47.0893 298.936 47.1105C299.063 47.1421 299.136 47.1632 299.179 47.1632C299.432 47.2265 299.632 47.2687 299.759 47.3004C299.886 47.3426 300.065 47.4059 300.297 47.5009C300.529 47.5959 300.698 47.6908 300.825 47.7964C300.941 47.9019 301.046 48.0391 301.141 48.2184C301.236 48.3978 301.289 48.5983 301.289 48.8199C301.289 49.3475 301.078 49.7802 300.667 50.0968C300.255 50.4133 299.706 50.5716 299.031 50.5716C298.292 50.5716 297.722 50.4133 297.321 50.0862C296.92 49.7696 296.709 49.2948 296.688 48.6827H297.575C297.617 49.4531 298.113 49.8329 299.052 49.8329C299.453 49.8329 299.77 49.7591 300.012 49.5902C300.255 49.4214 300.382 49.1998 300.382 48.9254C300.382 48.7461 300.318 48.5983 300.192 48.4717C300.065 48.3556 299.917 48.2712 299.77 48.2184C299.611 48.1657 299.39 48.1024 299.105 48.0285C299.063 48.0285 299.031 48.018 299.01 48.0074C298.947 47.9968 298.809 47.9652 298.598 47.923C298.387 47.8808 298.24 47.8386 298.155 47.8069C298.06 47.7858 297.923 47.7436 297.754 47.6803C297.585 47.617 297.459 47.5537 297.374 47.4903C297.29 47.427 297.195 47.3426 297.089 47.2371C296.984 47.1316 296.92 47.0155 296.878 46.8783C296.836 46.7411 296.815 46.5828 296.815 46.4035C296.815 45.918 296.994 45.5276 297.374 45.2321C297.754 44.9472 298.261 44.7995 298.894 44.7995C299.527 44.7995 300.054 44.9578 300.455 45.2532C300.856 45.5593 301.068 45.9919 301.068 46.5406ZM306.882 44.9578L304.719 46.9311L307.04 50.4028H305.9L304.033 47.5537L303.178 48.3451V50.4028H302.302V42.8895H303.178V47.3321L305.679 44.9578H306.882Z" fill="white"/>
</g>
<rect x="249.398" y="33.5093" width="71.8454" height="26.3807" rx="13.1904" stroke="#2CBCFF" stroke-width="0.561292"/>
</g>
<g filter="url(#filter1_i_4794_11133)">
<rect y="105.172" width="366" height="91.5" rx="24" fill="url(#paint1_linear_4794_11133)"/>
<path d="M31.0651 136.875V138.055C31.6632 137.101 32.6008 136.616 33.8778 136.616C35.0417 136.616 35.9632 137.02 36.6421 137.796C37.321 138.588 37.6767 139.655 37.6767 140.997C37.6767 142.355 37.3372 143.422 36.6583 144.23C35.9793 145.038 35.0741 145.426 33.9425 145.426C32.7463 145.426 31.8087 144.974 31.1459 144.052V148.433H29.7719V136.875H31.0651ZM33.6677 137.764C32.8594 137.764 32.229 138.055 31.7764 138.637C31.3237 139.219 31.0974 140.011 31.0974 141.013C31.0974 142.032 31.3237 142.824 31.7925 143.406C32.2613 143.988 32.9079 144.279 33.7162 144.279C34.4921 144.279 35.1226 143.988 35.5752 143.406C36.0278 142.824 36.2541 142.032 36.2541 141.029C36.2541 140.011 36.0117 139.219 35.559 138.637C35.1064 138.055 34.476 137.764 33.6677 137.764ZM43.7026 136.681L43.6865 138.12C43.5895 138.104 43.4763 138.104 43.3308 138.104C42.8944 138.104 42.5064 138.168 42.1831 138.297C41.8598 138.427 41.6173 138.605 41.4233 138.815C41.2294 139.041 41.0839 139.3 40.9545 139.623C40.8414 139.946 40.7606 140.27 40.7282 140.593C40.6959 140.916 40.6797 141.288 40.6797 141.692V145.216H39.3057V136.875H40.6151V138.669C41.1647 137.344 42.1831 136.681 43.7026 136.681ZM48.1065 136.632C49.3674 136.632 50.3373 137.02 51.0486 137.796C51.7437 138.556 52.0993 139.623 52.0993 140.997C52.0993 142.42 51.7437 143.519 51.0486 144.295C50.3373 145.087 49.3512 145.475 48.0903 145.475C46.8133 145.475 45.8111 145.087 45.0998 144.311C44.3723 143.535 44.0167 142.468 44.0167 141.078C44.0167 139.72 44.3723 138.637 45.1159 137.829C45.8434 137.037 46.8456 136.632 48.1065 136.632ZM48.0742 137.796C47.2659 137.796 46.6193 138.087 46.1505 138.669C45.6656 139.267 45.4393 140.059 45.4393 141.046C45.4393 142.08 45.6656 142.872 46.1344 143.454C46.6031 144.036 47.2659 144.311 48.1065 144.311C48.9148 144.311 49.5452 144.02 49.9978 143.438C50.4505 142.856 50.6929 142.064 50.6929 141.029C50.6929 140.043 50.4505 139.251 49.9817 138.669C49.5129 138.087 48.8824 137.796 48.0742 137.796ZM57.3081 136.875V138.007H55.643V142.872C55.643 143.147 55.643 143.325 55.643 143.406C55.643 143.503 55.6754 143.616 55.74 143.761C55.7885 143.907 55.8855 144.004 56.0148 144.036C56.1442 144.085 56.322 144.101 56.5645 144.101C56.7584 144.101 57.0171 144.085 57.3081 144.052V145.232C56.9201 145.281 56.5645 145.297 56.2573 145.297C55.8694 145.297 55.546 145.265 55.2874 145.168C55.0288 145.087 54.8186 144.99 54.6893 144.877C54.56 144.78 54.463 144.586 54.3983 144.311C54.3337 144.036 54.2852 143.81 54.2852 143.616C54.269 143.422 54.269 143.115 54.269 142.662V142.597V142.517V142.436V138.007H52.8626V136.875H54.269V134.402H55.643V136.875H57.3081ZM62.4879 136.632C63.7488 136.632 64.7187 137.02 65.4299 137.796C66.125 138.556 66.4807 139.623 66.4807 140.997C66.4807 142.42 66.125 143.519 65.4299 144.295C64.7187 145.087 63.7326 145.475 62.4717 145.475C61.1947 145.475 60.1924 145.087 59.4811 144.311C58.7537 143.535 58.3981 142.468 58.3981 141.078C58.3981 139.72 58.7537 138.637 59.4973 137.829C60.2247 137.037 61.227 136.632 62.4879 136.632ZM62.4555 137.796C61.6473 137.796 61.0007 138.087 60.5319 138.669C60.0469 139.267 59.8206 140.059 59.8206 141.046C59.8206 142.08 60.0469 142.872 60.5157 143.454C60.9845 144.036 61.6473 144.311 62.4879 144.311C63.2961 144.311 63.9266 144.02 64.3792 143.438C64.8318 142.856 65.0743 142.064 65.0743 141.029C65.0743 140.043 64.8318 139.251 64.363 138.669C63.8942 138.087 63.2638 137.796 62.4555 137.796ZM71.6894 136.875V138.007H70.0244V142.872C70.0244 143.147 70.0244 143.325 70.0244 143.406C70.0244 143.503 70.0567 143.616 70.1214 143.761C70.1699 143.907 70.2669 144.004 70.3962 144.036C70.5255 144.085 70.7033 144.101 70.9458 144.101C71.1398 144.101 71.3984 144.085 71.6894 144.052V145.232C71.3014 145.281 70.9458 145.297 70.6387 145.297C70.2507 145.297 69.9274 145.265 69.6688 145.168C69.4101 145.087 69.2 144.99 69.0707 144.877C68.9413 144.78 68.8443 144.586 68.7797 144.311C68.715 144.036 68.6665 143.81 68.6665 143.616C68.6504 143.422 68.6504 143.115 68.6504 142.662V142.597V142.517V142.436V138.007H67.244V136.875H68.6504V134.402H70.0244V136.875H71.6894ZM80.1184 136.875L76.5459 146.283C76.4004 146.671 76.2711 146.962 76.1741 147.172C76.0771 147.382 75.9316 147.609 75.7377 147.867C75.5437 148.126 75.3174 148.304 75.0587 148.417C74.8001 148.53 74.4929 148.579 74.1373 148.579C73.8625 148.579 73.523 148.53 73.1189 148.433V147.205C73.5069 147.334 73.814 147.382 74.008 147.382C74.4606 147.382 74.7839 147.156 74.9779 146.687L75.6245 145.168L72.3106 136.875H73.8625L76.3358 143.519L78.6797 136.875H80.1184ZM82.5917 136.875V138.055C83.1898 137.101 84.1274 136.616 85.4045 136.616C86.5684 136.616 87.4898 137.02 88.1687 137.796C88.8476 138.588 89.2033 139.655 89.2033 140.997C89.2033 142.355 88.8638 143.422 88.1849 144.23C87.5059 145.038 86.6007 145.426 85.4691 145.426C84.2729 145.426 83.3353 144.974 82.6725 144.052V148.433H81.2985V136.875H82.5917ZM85.1943 137.764C84.386 137.764 83.7556 138.055 83.303 138.637C82.8504 139.219 82.624 140.011 82.624 141.013C82.624 142.032 82.8504 142.824 83.3191 143.406C83.7879 143.988 84.4345 144.279 85.2428 144.279C86.0187 144.279 86.6492 143.988 87.1018 143.406C87.5544 142.824 87.7807 142.032 87.7807 141.029C87.7807 140.011 87.5383 139.219 87.0856 138.637C86.633 138.055 86.0026 137.764 85.1943 137.764ZM98.0097 142.581C97.5894 144.521 96.377 145.491 94.3725 145.491C93.1439 145.491 92.174 145.119 91.4789 144.343C90.7838 143.584 90.4443 142.517 90.4443 141.159C90.4443 139.817 90.8 138.734 91.5112 137.893C92.2225 137.053 93.1601 136.632 94.324 136.632C95.601 136.632 96.5548 137.069 97.1691 137.942C97.7833 138.815 98.1067 139.898 98.1067 141.223V141.417H91.8346L91.8184 141.514C91.8184 142.403 92.0447 143.099 92.5135 143.6C92.9661 144.117 93.6127 144.359 94.421 144.359C95.0191 144.359 95.4879 144.23 95.8435 143.939C96.1992 143.664 96.474 143.212 96.6679 142.581H98.0097ZM96.6841 140.302C96.6195 139.51 96.377 138.896 95.9567 138.443C95.5364 137.99 94.9706 137.764 94.2917 137.764C93.6127 137.764 93.0631 137.99 92.6266 138.443C92.174 138.896 91.9154 139.526 91.8346 140.302H96.6841ZM108.524 140.043V141.401H103.82V140.043H108.524ZM37.1594 163.117V164.2C36.8684 164.297 36.5613 164.362 36.2218 164.362C35.4297 164.362 35.0256 163.941 35.0094 163.133C34.2173 164.006 33.2151 164.459 31.9865 164.459C31.1621 164.459 30.5155 164.249 30.0305 163.828C29.5456 163.408 29.3193 162.826 29.3193 162.099C29.3193 160.611 30.3053 159.738 32.2775 159.496C32.4068 159.464 32.5846 159.447 32.8433 159.431C33.7809 159.318 34.3466 159.189 34.5729 159.059C34.8154 158.882 34.9447 158.591 34.9447 158.17C34.9447 157.249 34.3143 156.796 33.0534 156.796C32.4068 156.796 31.9057 156.926 31.5824 157.184C31.2429 157.443 31.0489 157.879 30.9843 158.494H29.6426C29.6587 157.588 29.982 156.893 30.5963 156.408C31.2106 155.907 32.0512 155.665 33.1342 155.665C34.2981 155.665 35.1711 155.923 35.753 156.473C35.9308 156.635 36.0601 156.861 36.1571 157.152C36.238 157.427 36.2865 157.653 36.3026 157.831C36.3026 158.009 36.3188 158.284 36.3188 158.639C36.3188 159.043 36.3026 159.658 36.2865 160.482C36.2541 161.323 36.2541 161.937 36.2541 162.341C36.2541 162.648 36.2865 162.858 36.3673 162.988C36.4481 163.117 36.5936 163.165 36.8199 163.165C36.9007 163.165 37.0139 163.149 37.1594 163.117ZM34.9447 159.9C34.8478 159.965 34.7346 160.029 34.6376 160.094C34.5245 160.143 34.379 160.191 34.2173 160.223C34.0557 160.256 33.9425 160.272 33.8778 160.288C33.8132 160.304 33.6839 160.32 33.4575 160.353C33.2312 160.385 33.1019 160.401 33.1019 160.401C32.7624 160.434 32.5361 160.466 32.4391 160.482C32.3421 160.498 32.1482 160.547 31.8572 160.628C31.5662 160.692 31.3722 160.789 31.2591 160.886C31.1298 160.983 31.0166 161.112 30.9034 161.306C30.7903 161.5 30.7418 161.727 30.7418 161.985C30.7418 162.406 30.8873 162.745 31.1783 163.004C31.4692 163.246 31.8895 163.376 32.4068 163.376C33.0534 163.376 33.6515 163.182 34.1688 162.794C34.6861 162.406 34.9447 161.937 34.9447 161.42V159.9ZM45.3731 155.875L45.3569 164.216H44.0799V162.907C43.3686 163.941 42.4148 164.443 41.2025 164.443C40.3295 164.443 39.6344 164.2 39.1495 163.715C38.6645 163.23 38.422 162.535 38.422 161.614V155.875H39.7961V161.242C39.7961 161.905 39.9254 162.406 40.184 162.745C40.4427 163.085 40.8953 163.246 41.5581 163.246C43.1746 163.246 43.999 162.244 43.999 160.24V155.875H45.3731ZM51.0093 155.875V157.007H49.3443V161.872C49.3443 162.147 49.3443 162.325 49.3443 162.406C49.3443 162.503 49.3766 162.616 49.4413 162.761C49.4898 162.907 49.5868 163.004 49.7161 163.036C49.8454 163.085 50.0232 163.101 50.2657 163.101C50.4597 163.101 50.7183 163.085 51.0093 163.052V164.232C50.6213 164.281 50.2657 164.297 49.9586 164.297C49.5706 164.297 49.2473 164.265 48.9887 164.168C48.73 164.087 48.5199 163.99 48.3905 163.877C48.2612 163.78 48.1642 163.586 48.0996 163.311C48.0349 163.036 47.9864 162.81 47.9864 162.616C47.9702 162.422 47.9702 162.115 47.9702 161.662V161.597V161.517V161.436V157.007H46.5639V155.875H47.9702V153.402H49.3443V155.875H51.0093ZM53.9098 152.707V157.055C54.5241 156.134 55.4294 155.665 56.6417 155.665C58.5169 155.665 59.4545 156.619 59.4545 158.51V164.216H58.0804V158.833C58.0804 158.203 57.935 157.718 57.6763 157.378C57.4177 157.039 56.9327 156.861 56.2538 156.861C55.4132 156.861 54.7989 157.136 54.4433 157.669C54.0876 158.219 53.9098 158.979 53.9098 159.981V164.216H52.5358V152.707H53.9098ZM68.6471 161.581C68.2268 163.521 67.0144 164.491 65.0099 164.491C63.7813 164.491 62.8114 164.119 62.1163 163.343C61.4212 162.584 61.0817 161.517 61.0817 160.159C61.0817 158.817 61.4374 157.734 62.1487 156.893C62.8599 156.053 63.7975 155.632 64.9614 155.632C66.2385 155.632 67.1922 156.069 67.8065 156.942C68.4208 157.815 68.7441 158.898 68.7441 160.223V160.417H62.472L62.4558 160.514C62.4558 161.403 62.6821 162.099 63.1509 162.6C63.6035 163.117 64.2501 163.359 65.0584 163.359C65.6565 163.359 66.1253 163.23 66.4809 162.939C66.8366 162.664 67.1114 162.212 67.3054 161.581H68.6471ZM67.3215 159.302C67.2569 158.51 67.0144 157.896 66.5941 157.443C66.1738 156.99 65.608 156.764 64.9291 156.764C64.2501 156.764 63.7005 156.99 63.2641 157.443C62.8114 157.896 62.5528 158.526 62.472 159.302H67.3215ZM71.4939 155.875V157.168C72.1729 156.166 73.1266 155.649 74.339 155.649C75.3089 155.649 76.0202 155.907 76.4566 156.425C76.8931 156.942 77.1194 157.685 77.1194 158.672V164.216H75.7454V159.302C75.7454 158.898 75.7292 158.575 75.6969 158.348C75.6645 158.122 75.5999 157.863 75.5029 157.605C75.3897 157.346 75.2119 157.152 74.9533 157.023C74.6946 156.91 74.3552 156.845 73.951 156.845C72.3668 156.845 71.5747 157.847 71.5747 159.852V164.216H70.2007V155.875H71.4939ZM82.7556 155.875V157.007H81.0906V161.872C81.0906 162.147 81.0906 162.325 81.0906 162.406C81.0906 162.503 81.123 162.616 81.1876 162.761C81.2361 162.907 81.3331 163.004 81.4624 163.036C81.5917 163.085 81.7696 163.101 82.012 163.101C82.206 163.101 82.4647 163.085 82.7556 163.052V164.232C82.3677 164.281 82.012 164.297 81.7049 164.297C81.3169 164.297 80.9936 164.265 80.735 164.168C80.4763 164.087 80.2662 163.99 80.1369 163.877C80.0076 163.78 79.9106 163.586 79.8459 163.311C79.7812 163.036 79.7327 162.81 79.7327 162.616C79.7166 162.422 79.7166 162.115 79.7166 161.662V161.597V161.517V161.436V157.007H78.3102V155.875H79.7166V153.402H81.0906V155.875H82.7556ZM85.737 152.707V154.388H84.3468V152.707H85.737ZM85.737 155.875V164.216H84.3468V155.875H85.737ZM95.043 161.177C94.9136 162.179 94.5418 162.988 93.8952 163.57C93.2486 164.168 92.4242 164.459 91.3896 164.459C90.1287 164.459 89.1588 164.071 88.4637 163.295C87.7848 162.519 87.4292 161.468 87.4292 160.159C87.4292 158.769 87.801 157.669 88.5122 156.861C89.2397 156.053 90.2096 155.632 91.4381 155.632C92.4727 155.632 93.281 155.891 93.8952 156.408C94.5095 156.926 94.8813 157.653 94.9783 158.607H93.5558C93.3133 157.394 92.6182 156.796 91.4705 156.796C90.6622 156.796 90.0318 157.087 89.5791 157.669C89.1103 158.251 88.884 159.059 88.884 160.062C88.884 161.064 89.0942 161.872 89.5468 162.454C89.9833 163.036 90.5975 163.327 91.3735 163.327C91.9877 163.327 92.505 163.133 92.893 162.777C93.281 162.406 93.5396 161.872 93.6528 161.177H95.043ZM103.936 163.117V164.2C103.645 164.297 103.337 164.362 102.998 164.362C102.206 164.362 101.802 163.941 101.786 163.133C100.994 164.006 99.9913 164.459 98.7627 164.459C97.9383 164.459 97.2917 164.249 96.8067 163.828C96.3218 163.408 96.0955 162.826 96.0955 162.099C96.0955 160.611 97.0816 159.738 99.0537 159.496C99.183 159.464 99.3608 159.447 99.6195 159.431C100.557 159.318 101.123 159.189 101.349 159.059C101.592 158.882 101.721 158.591 101.721 158.17C101.721 157.249 101.091 156.796 99.8296 156.796C99.183 156.796 98.6819 156.926 98.3586 157.184C98.0191 157.443 97.8252 157.879 97.7605 158.494H96.4188C96.4349 157.588 96.7582 156.893 97.3725 156.408C97.9868 155.907 98.8274 155.665 99.9105 155.665C101.074 155.665 101.947 155.923 102.529 156.473C102.707 156.635 102.836 156.861 102.933 157.152C103.014 157.427 103.063 157.653 103.079 157.831C103.079 158.009 103.095 158.284 103.095 158.639C103.095 159.043 103.079 159.658 103.063 160.482C103.03 161.323 103.03 161.937 103.03 162.341C103.03 162.648 103.063 162.858 103.144 162.988C103.224 163.117 103.37 163.165 103.596 163.165C103.677 163.165 103.79 163.149 103.936 163.117ZM101.721 159.9C101.624 159.965 101.511 160.029 101.414 160.094C101.301 160.143 101.155 160.191 100.994 160.223C100.832 160.256 100.719 160.272 100.654 160.288C100.589 160.304 100.46 160.32 100.234 160.353C100.007 160.385 99.8781 160.401 99.8781 160.401C99.5387 160.434 99.3124 160.466 99.2154 160.482C99.1184 160.498 98.9244 160.547 98.6334 160.628C98.3424 160.692 98.1485 160.789 98.0353 160.886C97.906 160.983 97.7928 161.112 97.6797 161.306C97.5665 161.5 97.518 161.727 97.518 161.985C97.518 162.406 97.6635 162.745 97.9545 163.004C98.2454 163.246 98.6657 163.376 99.183 163.376C99.8296 163.376 100.428 163.182 100.945 162.794C101.462 162.406 101.721 161.937 101.721 161.42V159.9ZM108.803 155.875V157.007H107.138V161.872C107.138 162.147 107.138 162.325 107.138 162.406C107.138 162.503 107.17 162.616 107.235 162.761C107.284 162.907 107.381 163.004 107.51 163.036C107.639 163.085 107.817 163.101 108.06 163.101C108.253 163.101 108.512 163.085 108.803 163.052V164.232C108.415 164.281 108.06 164.297 107.752 164.297C107.364 164.297 107.041 164.265 106.782 164.168C106.524 164.087 106.314 163.99 106.184 163.877C106.055 163.78 105.958 163.586 105.893 163.311C105.829 163.036 105.78 162.81 105.78 162.616C105.764 162.422 105.764 162.115 105.764 161.662V161.597V161.517V161.436V157.007H104.358V155.875H105.764V153.402H107.138V155.875H108.803ZM111.784 152.707V154.388H110.394V152.707H111.784ZM111.784 155.875V164.216H110.394V155.875H111.784ZM117.566 155.632C118.827 155.632 119.797 156.02 120.508 156.796C121.204 157.556 121.559 158.623 121.559 159.997C121.559 161.42 121.204 162.519 120.508 163.295C119.797 164.087 118.811 164.475 117.55 164.475C116.273 164.475 115.271 164.087 114.56 163.311C113.832 162.535 113.477 161.468 113.477 160.078C113.477 158.72 113.832 157.637 114.576 156.829C115.303 156.037 116.306 155.632 117.566 155.632ZM117.534 156.796C116.726 156.796 116.079 157.087 115.61 157.669C115.125 158.267 114.899 159.059 114.899 160.046C114.899 161.08 115.125 161.872 115.594 162.454C116.063 163.036 116.726 163.311 117.566 163.311C118.375 163.311 119.005 163.02 119.458 162.438C119.91 161.856 120.153 161.064 120.153 160.029C120.153 159.043 119.91 158.251 119.442 157.669C118.973 157.087 118.342 156.796 117.534 156.796ZM124.489 155.875V157.168C125.168 156.166 126.121 155.649 127.334 155.649C128.304 155.649 129.015 155.907 129.451 156.425C129.888 156.942 130.114 157.685 130.114 158.672V164.216H128.74V159.302C128.74 158.898 128.724 158.575 128.692 158.348C128.659 158.122 128.595 157.863 128.498 157.605C128.384 157.346 128.207 157.152 127.948 157.023C127.689 156.91 127.35 156.845 126.946 156.845C125.362 156.845 124.569 157.847 124.569 159.852V164.216H123.195V155.875H124.489Z" fill="white"/>
<g clip-path="url(#clip1_4794_11133)">
<path d="M249.117 138.401H422.557L413.28 165.343H249.117V138.401Z" fill="#006756"/>
<path d="M269.281 148.062V155.575H268.436V154.773C268.088 155.406 267.487 155.723 266.642 155.723C265.862 155.723 265.25 155.469 264.796 154.952C264.342 154.435 264.12 153.728 264.12 152.842C264.12 152.019 264.332 151.343 264.754 150.795C265.176 150.246 265.798 149.972 266.6 149.972C267.381 149.972 267.972 150.267 268.384 150.858V148.062H269.281ZM266.716 150.742C266.199 150.742 265.788 150.932 265.492 151.301C265.197 151.681 265.049 152.188 265.049 152.821C265.049 153.486 265.197 154.013 265.503 154.404C265.809 154.794 266.22 154.984 266.737 154.984C267.255 154.984 267.666 154.805 267.962 154.425C268.257 154.045 268.405 153.528 268.405 152.852C268.405 152.262 268.257 151.755 267.983 151.354C267.708 150.953 267.286 150.742 266.716 150.742ZM275.282 153.855C275.008 155.121 274.217 155.754 272.908 155.754C272.106 155.754 271.473 155.512 271.019 155.005C270.566 154.509 270.344 153.813 270.344 152.926C270.344 152.05 270.576 151.343 271.04 150.795C271.505 150.246 272.117 149.972 272.877 149.972C273.71 149.972 274.333 150.257 274.734 150.826C275.135 151.396 275.346 152.103 275.346 152.969V153.095H271.251L271.241 153.158C271.241 153.739 271.389 154.193 271.695 154.52C271.99 154.857 272.412 155.016 272.94 155.016C273.33 155.016 273.636 154.931 273.868 154.741C274.101 154.562 274.28 154.266 274.407 153.855H275.282ZM274.417 152.367C274.375 151.85 274.217 151.449 273.942 151.154C273.668 150.858 273.299 150.71 272.855 150.71C272.412 150.71 272.053 150.858 271.769 151.154C271.473 151.449 271.304 151.861 271.251 152.367H274.417ZM277.246 148.062V155.575H276.339V148.062H277.246ZM279.586 148.062V149.159H278.678V148.062H279.586ZM279.586 150.13V155.575H278.678V150.13H279.586ZM280.447 150.13H281.45L282.991 154.699L284.489 150.13H285.428L283.434 155.575H282.473L280.447 150.13ZM290.905 153.855C290.63 155.121 289.839 155.754 288.531 155.754C287.729 155.754 287.095 155.512 286.642 155.005C286.188 154.509 285.966 153.813 285.966 152.926C285.966 152.05 286.198 151.343 286.663 150.795C287.127 150.246 287.739 149.972 288.499 149.972C289.332 149.972 289.955 150.257 290.356 150.826C290.757 151.396 290.968 152.103 290.968 152.969V153.095H286.874L286.863 153.158C286.863 153.739 287.011 154.193 287.317 154.52C287.612 154.857 288.035 155.016 288.562 155.016C288.953 155.016 289.259 154.931 289.491 154.741C289.723 154.562 289.902 154.266 290.029 153.855H290.905ZM290.039 152.367C289.997 151.85 289.839 151.449 289.565 151.154C289.29 150.858 288.921 150.71 288.478 150.71C288.035 150.71 287.676 150.858 287.391 151.154C287.095 151.449 286.927 151.861 286.874 152.367H290.039ZM294.758 150.003L294.747 150.943C294.684 150.932 294.61 150.932 294.515 150.932C294.23 150.932 293.977 150.974 293.766 151.059C293.555 151.143 293.396 151.259 293.27 151.396C293.143 151.544 293.048 151.713 292.964 151.924C292.89 152.135 292.837 152.346 292.816 152.557C292.795 152.768 292.784 153.011 292.784 153.275V155.575H291.887V150.13H292.742V151.301C293.101 150.436 293.766 150.003 294.758 150.003ZM299.901 153.855C299.627 155.121 298.835 155.754 297.527 155.754C296.725 155.754 296.092 155.512 295.638 155.005C295.184 154.509 294.963 153.813 294.963 152.926C294.963 152.05 295.195 151.343 295.659 150.795C296.123 150.246 296.735 149.972 297.495 149.972C298.329 149.972 298.951 150.257 299.352 150.826C299.753 151.396 299.964 152.103 299.964 152.969V153.095H295.87L295.859 153.158C295.859 153.739 296.007 154.193 296.313 154.52C296.609 154.857 297.031 155.016 297.558 155.016C297.949 155.016 298.255 154.931 298.487 154.741C298.719 154.562 298.899 154.266 299.025 153.855H299.901ZM299.036 152.367C298.994 151.85 298.835 151.449 298.561 151.154C298.287 150.858 297.917 150.71 297.474 150.71C297.031 150.71 296.672 150.858 296.387 151.154C296.092 151.449 295.923 151.861 295.87 152.367H299.036ZM305.822 148.062V155.575H304.978V154.773C304.63 155.406 304.028 155.723 303.184 155.723C302.403 155.723 301.791 155.469 301.337 154.952C300.884 154.435 300.662 153.728 300.662 152.842C300.662 152.019 300.873 151.343 301.295 150.795C301.717 150.246 302.34 149.972 303.142 149.972C303.923 149.972 304.514 150.267 304.925 150.858V148.062H305.822ZM303.258 150.742C302.741 150.742 302.329 150.932 302.034 151.301C301.738 151.681 301.591 152.188 301.591 152.821C301.591 153.486 301.738 154.013 302.044 154.404C302.35 154.794 302.762 154.984 303.279 154.984C303.796 154.984 304.208 154.805 304.503 154.425C304.798 154.045 304.946 153.528 304.946 152.852C304.946 152.262 304.798 151.755 304.524 151.354C304.25 150.953 303.828 150.742 303.258 150.742Z" fill="white"/>
</g>
<rect x="249.398" y="138.681" width="71.8454" height="26.3807" rx="13.1904" stroke="#1ADBBB" stroke-width="0.561292"/>
</g>
<g filter="url(#filter2_i_4794_11133)">
<rect y="210.345" width="366" height="90.4483" rx="24" fill="url(#paint2_linear_4794_11133)"/>
<path d="M31.0651 242.048V243.228C31.6632 242.274 32.6008 241.789 33.8778 241.789C35.0417 241.789 35.9632 242.193 36.6421 242.969C37.321 243.761 37.6767 244.828 37.6767 246.17C37.6767 247.528 37.3372 248.595 36.6583 249.403C35.9793 250.211 35.0741 250.599 33.9425 250.599C32.7463 250.599 31.8087 250.146 31.1459 249.225V253.606H29.7719V242.048H31.0651ZM33.6677 242.937C32.8594 242.937 32.229 243.228 31.7764 243.81C31.3237 244.392 31.0974 245.184 31.0974 246.186C31.0974 247.204 31.3237 247.996 31.7925 248.578C32.2613 249.16 32.9079 249.451 33.7162 249.451C34.4921 249.451 35.1226 249.16 35.5752 248.578C36.0278 247.996 36.2541 247.204 36.2541 246.202C36.2541 245.184 36.0117 244.392 35.559 243.81C35.1064 243.228 34.476 242.937 33.6677 242.937ZM43.7026 241.854L43.6865 243.292C43.5895 243.276 43.4763 243.276 43.3308 243.276C42.8944 243.276 42.5064 243.341 42.1831 243.47C41.8598 243.599 41.6173 243.777 41.4233 243.987C41.2294 244.214 41.0839 244.472 40.9545 244.796C40.8414 245.119 40.7606 245.442 40.7282 245.766C40.6959 246.089 40.6797 246.461 40.6797 246.865V250.389H39.3057V242.048H40.6151V243.842C41.1647 242.516 42.1831 241.854 43.7026 241.854ZM48.1065 241.805C49.3674 241.805 50.3373 242.193 51.0486 242.969C51.7437 243.729 52.0993 244.796 52.0993 246.17C52.0993 247.592 51.7437 248.691 51.0486 249.467C50.3373 250.26 49.3512 250.647 48.0903 250.647C46.8133 250.647 45.8111 250.26 45.0998 249.484C44.3723 248.708 44.0167 247.641 44.0167 246.251C44.0167 244.893 44.3723 243.81 45.1159 243.001C45.8434 242.209 46.8456 241.805 48.1065 241.805ZM48.0742 242.969C47.2659 242.969 46.6193 243.26 46.1505 243.842C45.6656 244.44 45.4393 245.232 45.4393 246.218C45.4393 247.253 45.6656 248.045 46.1344 248.627C46.6031 249.209 47.2659 249.484 48.1065 249.484C48.9148 249.484 49.5452 249.193 49.9978 248.611C50.4505 248.029 50.6929 247.237 50.6929 246.202C50.6929 245.216 50.4505 244.424 49.9817 243.842C49.5129 243.26 48.8824 242.969 48.0742 242.969ZM57.3081 242.048V243.179H55.643V248.045C55.643 248.32 55.643 248.498 55.643 248.578C55.643 248.675 55.6754 248.788 55.74 248.934C55.7885 249.079 55.8855 249.176 56.0148 249.209C56.1442 249.257 56.322 249.273 56.5645 249.273C56.7584 249.273 57.0171 249.257 57.3081 249.225V250.405C56.9201 250.454 56.5645 250.47 56.2573 250.47C55.8694 250.47 55.546 250.437 55.2874 250.34C55.0288 250.26 54.8186 250.163 54.6893 250.049C54.56 249.952 54.463 249.758 54.3983 249.484C54.3337 249.209 54.2852 248.982 54.2852 248.788C54.269 248.595 54.269 248.287 54.269 247.835V247.77V247.689V247.608V243.179H52.8626V242.048H54.269V239.574H55.643V242.048H57.3081ZM62.4879 241.805C63.7488 241.805 64.7187 242.193 65.4299 242.969C66.125 243.729 66.4807 244.796 66.4807 246.17C66.4807 247.592 66.125 248.691 65.4299 249.467C64.7187 250.26 63.7326 250.647 62.4717 250.647C61.1947 250.647 60.1924 250.26 59.4811 249.484C58.7537 248.708 58.3981 247.641 58.3981 246.251C58.3981 244.893 58.7537 243.81 59.4973 243.001C60.2247 242.209 61.227 241.805 62.4879 241.805ZM62.4555 242.969C61.6473 242.969 61.0007 243.26 60.5319 243.842C60.0469 244.44 59.8206 245.232 59.8206 246.218C59.8206 247.253 60.0469 248.045 60.5157 248.627C60.9845 249.209 61.6473 249.484 62.4879 249.484C63.2961 249.484 63.9266 249.193 64.3792 248.611C64.8318 248.029 65.0743 247.237 65.0743 246.202C65.0743 245.216 64.8318 244.424 64.363 243.842C63.8942 243.26 63.2638 242.969 62.4555 242.969ZM71.6894 242.048V243.179H70.0244V248.045C70.0244 248.32 70.0244 248.498 70.0244 248.578C70.0244 248.675 70.0567 248.788 70.1214 248.934C70.1699 249.079 70.2669 249.176 70.3962 249.209C70.5255 249.257 70.7033 249.273 70.9458 249.273C71.1398 249.273 71.3984 249.257 71.6894 249.225V250.405C71.3014 250.454 70.9458 250.47 70.6387 250.47C70.2507 250.47 69.9274 250.437 69.6688 250.34C69.4101 250.26 69.2 250.163 69.0707 250.049C68.9413 249.952 68.8443 249.758 68.7797 249.484C68.715 249.209 68.6665 248.982 68.6665 248.788C68.6504 248.595 68.6504 248.287 68.6504 247.835V247.77V247.689V247.608V243.179H67.244V242.048H68.6504V239.574H70.0244V242.048H71.6894ZM80.1184 242.048L76.5459 251.456C76.4004 251.844 76.2711 252.135 76.1741 252.345C76.0771 252.555 75.9316 252.781 75.7377 253.04C75.5437 253.299 75.3174 253.476 75.0587 253.59C74.8001 253.703 74.4929 253.751 74.1373 253.751C73.8625 253.751 73.523 253.703 73.1189 253.606V252.377C73.5069 252.506 73.814 252.555 74.008 252.555C74.4606 252.555 74.7839 252.329 74.9779 251.86L75.6245 250.34L72.3106 242.048H73.8625L76.3358 248.691L78.6797 242.048H80.1184ZM82.5917 242.048V243.228C83.1898 242.274 84.1274 241.789 85.4045 241.789C86.5684 241.789 87.4898 242.193 88.1687 242.969C88.8476 243.761 89.2033 244.828 89.2033 246.17C89.2033 247.528 88.8638 248.595 88.1849 249.403C87.5059 250.211 86.6007 250.599 85.4691 250.599C84.2729 250.599 83.3353 250.146 82.6725 249.225V253.606H81.2985V242.048H82.5917ZM85.1943 242.937C84.386 242.937 83.7556 243.228 83.303 243.81C82.8504 244.392 82.624 245.184 82.624 246.186C82.624 247.204 82.8504 247.996 83.3191 248.578C83.7879 249.16 84.4345 249.451 85.2428 249.451C86.0187 249.451 86.6492 249.16 87.1018 248.578C87.5544 247.996 87.7807 247.204 87.7807 246.202C87.7807 245.184 87.5383 244.392 87.0856 243.81C86.633 243.228 86.0026 242.937 85.1943 242.937ZM98.0097 247.754C97.5894 249.694 96.377 250.664 94.3725 250.664C93.1439 250.664 92.174 250.292 91.4789 249.516C90.7838 248.756 90.4443 247.689 90.4443 246.331C90.4443 244.99 90.8 243.907 91.5112 243.066C92.2225 242.225 93.1601 241.805 94.324 241.805C95.601 241.805 96.5548 242.242 97.1691 243.115C97.7833 243.987 98.1067 245.07 98.1067 246.396V246.59H91.8346L91.8184 246.687C91.8184 247.576 92.0447 248.271 92.5135 248.772C92.9661 249.29 93.6127 249.532 94.421 249.532C95.0191 249.532 95.4879 249.403 95.8435 249.112C96.1992 248.837 96.474 248.384 96.6679 247.754H98.0097ZM96.6841 245.475C96.6195 244.683 96.377 244.068 95.9567 243.616C95.5364 243.163 94.9706 242.937 94.2917 242.937C93.6127 242.937 93.0631 243.163 92.6266 243.616C92.174 244.068 91.9154 244.699 91.8346 245.475H96.6841ZM108.524 245.216V246.574H103.82V245.216H108.524ZM29.0121 261.048H30.5316L32.4391 267.918L34.1365 261.048H35.6399L37.4019 267.918L39.2932 261.048H40.7157L38.0485 269.389H36.5936L34.8801 262.793L33.1827 269.389H31.6955L29.0121 261.048ZM49.4096 268.29V269.373C49.1186 269.47 48.8115 269.534 48.472 269.534C47.6799 269.534 47.2758 269.114 47.2596 268.306C46.4675 269.179 45.4653 269.631 44.2367 269.631C43.4123 269.631 42.7657 269.421 42.2807 269.001C41.7958 268.581 41.5695 267.999 41.5695 267.271C41.5695 265.784 42.5555 264.911 44.5277 264.669C44.657 264.636 44.8348 264.62 45.0935 264.604C46.0311 264.491 46.5968 264.361 46.8231 264.232C47.0656 264.054 47.1949 263.763 47.1949 263.343C47.1949 262.422 46.5645 261.969 45.3036 261.969C44.657 261.969 44.1559 262.098 43.8326 262.357C43.4931 262.616 43.2991 263.052 43.2345 263.666H41.8928C41.9089 262.761 42.2322 262.066 42.8465 261.581C43.4608 261.08 44.3014 260.837 45.3844 260.837C46.5483 260.837 47.4213 261.096 48.0032 261.646C48.181 261.807 48.3103 262.034 48.4073 262.325C48.4882 262.599 48.5367 262.826 48.5528 263.004C48.5528 263.181 48.569 263.456 48.569 263.812C48.569 264.216 48.5528 264.83 48.5367 265.655C48.5043 266.495 48.5043 267.11 48.5043 267.514C48.5043 267.821 48.5367 268.031 48.6175 268.16C48.6983 268.29 48.8438 268.338 49.0701 268.338C49.1509 268.338 49.2641 268.322 49.4096 268.29ZM47.1949 265.073C47.098 265.137 46.9848 265.202 46.8878 265.267C46.7747 265.315 46.6292 265.364 46.4675 265.396C46.3059 265.428 46.1927 265.445 46.128 265.461C46.0634 265.477 45.9341 265.493 45.7077 265.525C45.4814 265.558 45.3521 265.574 45.3521 265.574C45.0126 265.606 44.7863 265.639 44.6893 265.655C44.5923 265.671 44.3984 265.719 44.1074 265.8C43.8164 265.865 43.6224 265.962 43.5093 266.059C43.38 266.156 43.2668 266.285 43.1536 266.479C43.0405 266.673 42.992 266.899 42.992 267.158C42.992 267.578 43.1375 267.918 43.4285 268.176C43.7194 268.419 44.1397 268.548 44.657 268.548C45.3036 268.548 45.9017 268.354 46.419 267.966C46.9363 267.578 47.1949 267.11 47.1949 266.592V265.073ZM52.1594 257.879V269.389H50.7692V257.879H52.1594ZM55.7429 257.879V269.389H54.3527V257.879H55.7429ZM65.0004 266.754C64.5801 268.694 63.3677 269.664 61.3632 269.664C60.1347 269.664 59.1648 269.292 58.4697 268.516C57.7746 267.756 57.4351 266.689 57.4351 265.331C57.4351 263.99 57.7907 262.907 58.502 262.066C59.2133 261.225 60.1509 260.805 61.3148 260.805C62.5918 260.805 63.5456 261.242 64.1598 262.115C64.7741 262.987 65.0974 264.07 65.0974 265.396V265.59H58.8253L58.8091 265.687C58.8091 266.576 59.0355 267.271 59.5043 267.772C59.9569 268.29 60.6035 268.532 61.4117 268.532C62.0099 268.532 62.4786 268.403 62.8343 268.112C63.1899 267.837 63.4647 267.384 63.6587 266.754H65.0004ZM63.6749 264.475C63.6102 263.683 63.3677 263.068 62.9474 262.616C62.5271 262.163 61.9614 261.937 61.2824 261.937C60.6035 261.937 60.0539 262.163 59.6174 262.616C59.1648 263.068 58.9061 263.699 58.8253 264.475H63.6749ZM70.1266 261.048V262.179H68.4615V267.045C68.4615 267.32 68.4615 267.498 68.4615 267.578C68.4615 267.675 68.4939 267.788 68.5585 267.934C68.607 268.079 68.704 268.176 68.8333 268.209C68.9627 268.257 69.1405 268.273 69.383 268.273C69.5769 268.273 69.8356 268.257 70.1266 268.225V269.405C69.7386 269.454 69.383 269.47 69.0758 269.47C68.6879 269.47 68.3646 269.437 68.1059 269.34C67.8473 269.26 67.6371 269.163 67.5078 269.049C67.3785 268.952 67.2815 268.758 67.2168 268.484C67.1522 268.209 67.1037 267.982 67.1037 267.788C67.0875 267.595 67.0875 267.287 67.0875 266.835V266.77V266.689V266.608V262.179H65.6811V261.048H67.0875V258.574H68.4615V261.048H70.1266ZM83.3295 266.35C83.2002 267.352 82.8284 268.16 82.1818 268.742C81.5352 269.34 80.7107 269.631 79.6762 269.631C78.4153 269.631 77.4454 269.243 76.7503 268.467C76.0713 267.691 75.7157 266.641 75.7157 265.331C75.7157 263.941 76.0875 262.842 76.7988 262.034C77.5262 261.225 78.4961 260.805 79.7247 260.805C80.7592 260.805 81.5675 261.064 82.1818 261.581C82.796 262.098 83.1678 262.826 83.2648 263.78H81.8423C81.5998 262.567 80.9047 261.969 79.757 261.969C78.9487 261.969 78.3183 262.26 77.8657 262.842C77.3969 263.424 77.1706 264.232 77.1706 265.234C77.1706 266.237 77.3807 267.045 77.8333 267.627C78.2698 268.209 78.8841 268.5 79.66 268.5C80.2743 268.5 80.7916 268.306 81.1795 267.95C81.5675 267.578 81.8261 267.045 81.9393 266.35H83.3295ZM88.488 260.805C89.7489 260.805 90.7188 261.193 91.43 261.969C92.1251 262.729 92.4808 263.796 92.4808 265.17C92.4808 266.592 92.1251 267.691 91.43 268.467C90.7188 269.26 89.7327 269.647 88.4718 269.647C87.1948 269.647 86.1925 269.26 85.4812 268.484C84.7538 267.708 84.3982 266.641 84.3982 265.251C84.3982 263.893 84.7538 262.81 85.4974 262.001C86.2248 261.209 87.2271 260.805 88.488 260.805ZM88.4556 261.969C87.6474 261.969 87.0008 262.26 86.532 262.842C86.047 263.44 85.8207 264.232 85.8207 265.218C85.8207 266.253 86.047 267.045 86.5158 267.627C86.9846 268.209 87.6474 268.484 88.488 268.484C89.2962 268.484 89.9267 268.193 90.3793 267.611C90.8319 267.029 91.0744 266.237 91.0744 265.202C91.0744 264.216 90.8319 263.424 90.3631 262.842C89.8943 262.26 89.2639 261.969 88.4556 261.969ZM95.4102 261.048V262.341C96.0892 261.339 97.0429 260.821 98.2553 260.821C99.2252 260.821 99.9365 261.08 100.373 261.597C100.809 262.115 101.036 262.858 101.036 263.844V269.389H99.6617V264.475C99.6617 264.07 99.6455 263.747 99.6132 263.521C99.5808 263.295 99.5162 263.036 99.4192 262.777C99.306 262.519 99.1282 262.325 98.8696 262.195C98.6109 262.082 98.2715 262.018 97.8673 262.018C96.2831 262.018 95.491 263.02 95.491 265.024V269.389H94.117V261.048H95.4102ZM104.393 261.048V262.341C105.072 261.339 106.025 260.821 107.238 260.821C108.208 260.821 108.919 261.08 109.355 261.597C109.792 262.115 110.018 262.858 110.018 263.844V269.389H108.644V264.475C108.644 264.07 108.628 263.747 108.596 263.521C108.563 263.295 108.499 263.036 108.402 262.777C108.288 262.519 108.111 262.325 107.852 262.195C107.593 262.082 107.254 262.018 106.85 262.018C105.266 262.018 104.473 263.02 104.473 265.024V269.389H103.099V261.048H104.393ZM119.211 266.754C118.79 268.694 117.578 269.664 115.574 269.664C114.345 269.664 113.375 269.292 112.68 268.516C111.985 267.756 111.645 266.689 111.645 265.331C111.645 263.99 112.001 262.907 112.712 262.066C113.424 261.225 114.361 260.805 115.525 260.805C116.802 260.805 117.756 261.242 118.37 262.115C118.984 262.987 119.308 264.07 119.308 265.396V265.59H113.036L113.019 265.687C113.019 266.576 113.246 267.271 113.715 267.772C114.167 268.29 114.814 268.532 115.622 268.532C116.22 268.532 116.689 268.403 117.045 268.112C117.4 267.837 117.675 267.384 117.869 266.754H119.211ZM117.885 264.475C117.821 263.683 117.578 263.068 117.158 262.616C116.737 262.163 116.172 261.937 115.493 261.937C114.814 261.937 114.264 262.163 113.828 262.616C113.375 263.068 113.116 263.699 113.036 264.475H117.885ZM127.942 266.35C127.812 267.352 127.441 268.16 126.794 268.742C126.147 269.34 125.323 269.631 124.288 269.631C123.027 269.631 122.058 269.243 121.362 268.467C120.684 267.691 120.328 266.641 120.328 265.331C120.328 263.941 120.7 262.842 121.411 262.034C122.138 261.225 123.108 260.805 124.337 260.805C125.371 260.805 126.18 261.064 126.794 261.581C127.408 262.098 127.78 262.826 127.877 263.78H126.455C126.212 262.567 125.517 261.969 124.369 261.969C123.561 261.969 122.93 262.26 122.478 262.842C122.009 263.424 121.783 264.232 121.783 265.234C121.783 266.237 121.993 267.045 122.446 267.627C122.882 268.209 123.496 268.5 124.272 268.5C124.886 268.5 125.404 268.306 125.792 267.95C126.18 267.578 126.438 267.045 126.551 266.35H127.942ZM133.019 261.048V262.179H131.354V267.045C131.354 267.32 131.354 267.498 131.354 267.578C131.354 267.675 131.387 267.788 131.451 267.934C131.5 268.079 131.597 268.176 131.726 268.209C131.855 268.257 132.033 268.273 132.276 268.273C132.47 268.273 132.728 268.257 133.019 268.225V269.405C132.631 269.454 132.276 269.47 131.969 269.47C131.581 269.47 131.257 269.437 130.999 269.34C130.74 269.26 130.53 269.163 130.401 269.049C130.271 268.952 130.174 268.758 130.11 268.484C130.045 268.209 129.996 267.982 129.996 267.788C129.98 267.595 129.98 267.287 129.98 266.835V266.77V266.689V266.608V262.179H128.574V261.048H129.98V258.574H131.354V261.048H133.019ZM136.001 257.879V259.56H134.61V257.879H136.001ZM136.001 261.048V269.389H134.61V261.048H136.001ZM141.783 260.805C143.044 260.805 144.013 261.193 144.725 261.969C145.42 262.729 145.775 263.796 145.775 265.17C145.775 266.592 145.42 267.691 144.725 268.467C144.013 269.26 143.027 269.647 141.766 269.647C140.489 269.647 139.487 269.26 138.776 268.484C138.048 267.708 137.693 266.641 137.693 265.251C137.693 263.893 138.048 262.81 138.792 262.001C139.52 261.209 140.522 260.805 141.783 260.805ZM141.75 261.969C140.942 261.969 140.295 262.26 139.827 262.842C139.342 263.44 139.115 264.232 139.115 265.218C139.115 266.253 139.342 267.045 139.811 267.627C140.279 268.209 140.942 268.484 141.783 268.484C142.591 268.484 143.221 268.193 143.674 267.611C144.127 267.029 144.369 266.237 144.369 265.202C144.369 264.216 144.127 263.424 143.658 262.842C143.189 262.26 142.559 261.969 141.75 261.969ZM148.705 261.048V262.341C149.384 261.339 150.338 260.821 151.55 260.821C152.52 260.821 153.231 261.08 153.668 261.597C154.104 262.115 154.33 262.858 154.33 263.844V269.389H152.956V264.475C152.956 264.07 152.94 263.747 152.908 263.521C152.876 263.295 152.811 263.036 152.714 262.777C152.601 262.519 152.423 262.325 152.164 262.195C151.906 262.082 151.566 262.018 151.162 262.018C149.578 262.018 148.786 263.02 148.786 265.024V269.389H147.412V261.048H148.705Z" fill="white"/>
<g clip-path="url(#clip2_4794_11133)">
<path d="M249.117 243.573H422.557L413.28 270.515H249.117V243.573Z" fill="#006756"/>
<path d="M269.281 253.234V260.748H268.436V259.946C268.088 260.579 267.487 260.895 266.642 260.895C265.862 260.895 265.25 260.642 264.796 260.125C264.342 259.608 264.12 258.901 264.12 258.014C264.12 257.191 264.332 256.516 264.754 255.967C265.176 255.419 265.798 255.144 266.6 255.144C267.381 255.144 267.972 255.44 268.384 256.031V253.234H269.281ZM266.716 255.915C266.199 255.915 265.788 256.105 265.492 256.474C265.197 256.854 265.049 257.36 265.049 257.993C265.049 258.658 265.197 259.186 265.503 259.576C265.809 259.967 266.22 260.157 266.737 260.157C267.255 260.157 267.666 259.977 267.962 259.597C268.257 259.217 268.405 258.7 268.405 258.025C268.405 257.434 268.257 256.928 267.983 256.527C267.708 256.126 267.286 255.915 266.716 255.915ZM275.282 259.027C275.008 260.294 274.217 260.927 272.908 260.927C272.106 260.927 271.473 260.684 271.019 260.178C270.566 259.682 270.344 258.985 270.344 258.099C270.344 257.223 270.576 256.516 271.04 255.967C271.505 255.419 272.117 255.144 272.877 255.144C273.71 255.144 274.333 255.429 274.734 255.999C275.135 256.569 275.346 257.276 275.346 258.141V258.268H271.251L271.241 258.331C271.241 258.911 271.389 259.365 271.695 259.692C271.99 260.03 272.412 260.188 272.94 260.188C273.33 260.188 273.636 260.104 273.868 259.914C274.101 259.734 274.28 259.439 274.407 259.027H275.282ZM274.417 257.54C274.375 257.023 274.217 256.622 273.942 256.326C273.668 256.031 273.299 255.883 272.855 255.883C272.412 255.883 272.053 256.031 271.769 256.326C271.473 256.622 271.304 257.033 271.251 257.54H274.417ZM277.246 253.234V260.748H276.339V253.234H277.246ZM279.586 253.234V254.332H278.678V253.234H279.586ZM279.586 255.303V260.748H278.678V255.303H279.586ZM280.447 255.303H281.45L282.991 259.872L284.489 255.303H285.428L283.434 260.748H282.473L280.447 255.303ZM290.905 259.027C290.63 260.294 289.839 260.927 288.531 260.927C287.729 260.927 287.095 260.684 286.642 260.178C286.188 259.682 285.966 258.985 285.966 258.099C285.966 257.223 286.198 256.516 286.663 255.967C287.127 255.419 287.739 255.144 288.499 255.144C289.332 255.144 289.955 255.429 290.356 255.999C290.757 256.569 290.968 257.276 290.968 258.141V258.268H286.874L286.863 258.331C286.863 258.911 287.011 259.365 287.317 259.692C287.612 260.03 288.035 260.188 288.562 260.188C288.953 260.188 289.259 260.104 289.491 259.914C289.723 259.734 289.902 259.439 290.029 259.027H290.905ZM290.039 257.54C289.997 257.023 289.839 256.622 289.565 256.326C289.29 256.031 288.921 255.883 288.478 255.883C288.035 255.883 287.676 256.031 287.391 256.326C287.095 256.622 286.927 257.033 286.874 257.54H290.039ZM294.758 255.176L294.747 256.115C294.684 256.105 294.61 256.105 294.515 256.105C294.23 256.105 293.977 256.147 293.766 256.231C293.555 256.316 293.396 256.432 293.27 256.569C293.143 256.717 293.048 256.885 292.964 257.096C292.89 257.307 292.837 257.519 292.816 257.73C292.795 257.941 292.784 258.183 292.784 258.447V260.748H291.887V255.303H292.742V256.474C293.101 255.609 293.766 255.176 294.758 255.176ZM299.901 259.027C299.627 260.294 298.835 260.927 297.527 260.927C296.725 260.927 296.092 260.684 295.638 260.178C295.184 259.682 294.963 258.985 294.963 258.099C294.963 257.223 295.195 256.516 295.659 255.967C296.123 255.419 296.735 255.144 297.495 255.144C298.329 255.144 298.951 255.429 299.352 255.999C299.753 256.569 299.964 257.276 299.964 258.141V258.268H295.87L295.859 258.331C295.859 258.911 296.007 259.365 296.313 259.692C296.609 260.03 297.031 260.188 297.558 260.188C297.949 260.188 298.255 260.104 298.487 259.914C298.719 259.734 298.899 259.439 299.025 259.027H299.901ZM299.036 257.54C298.994 257.023 298.835 256.622 298.561 256.326C298.287 256.031 297.917 255.883 297.474 255.883C297.031 255.883 296.672 256.031 296.387 256.326C296.092 256.622 295.923 257.033 295.87 257.54H299.036ZM305.822 253.234V260.748H304.978V259.946C304.63 260.579 304.028 260.895 303.184 260.895C302.403 260.895 301.791 260.642 301.337 260.125C300.884 259.608 300.662 258.901 300.662 258.014C300.662 257.191 300.873 256.516 301.295 255.967C301.717 255.419 302.34 255.144 303.142 255.144C303.923 255.144 304.514 255.44 304.925 256.031V253.234H305.822ZM303.258 255.915C302.741 255.915 302.329 256.105 302.034 256.474C301.738 256.854 301.591 257.36 301.591 257.993C301.591 258.658 301.738 259.186 302.044 259.576C302.35 259.967 302.762 260.157 303.279 260.157C303.796 260.157 304.208 259.977 304.503 259.597C304.798 259.217 304.946 258.7 304.946 258.025C304.946 257.434 304.798 256.928 304.524 256.527C304.25 256.126 303.828 255.915 303.258 255.915Z" fill="white"/>
</g>
<rect x="249.398" y="243.854" width="71.8454" height="26.3807" rx="13.1904" stroke="#1ADBBB" stroke-width="0.561292"/>
</g>
<g filter="url(#filter3_i_4794_11133)">
<rect y="315.517" width="366" height="90.4483" rx="24" fill="url(#paint3_linear_4794_11133)"/>
<path d="M31.0651 347.22V348.4C31.6632 347.446 32.6008 346.961 33.8778 346.961C35.0417 346.961 35.9632 347.365 36.6421 348.141C37.321 348.934 37.6767 350 37.6767 351.342C37.6767 352.7 37.3372 353.767 36.6583 354.575C35.9793 355.383 35.0741 355.771 33.9425 355.771C32.7463 355.771 31.8087 355.319 31.1459 354.397V358.778H29.7719V347.22H31.0651ZM33.6677 348.109C32.8594 348.109 32.229 348.4 31.7764 348.982C31.3237 349.564 31.0974 350.356 31.0974 351.358C31.0974 352.377 31.3237 353.169 31.7925 353.751C32.2613 354.333 32.9079 354.624 33.7162 354.624C34.4921 354.624 35.1226 354.333 35.5752 353.751C36.0278 353.169 36.2541 352.377 36.2541 351.374C36.2541 350.356 36.0117 349.564 35.559 348.982C35.1064 348.4 34.476 348.109 33.6677 348.109ZM43.7026 347.026L43.6865 348.465C43.5895 348.449 43.4763 348.449 43.3308 348.449C42.8944 348.449 42.5064 348.513 42.1831 348.643C41.8598 348.772 41.6173 348.95 41.4233 349.16C41.2294 349.386 41.0839 349.645 40.9545 349.968C40.8414 350.291 40.7606 350.615 40.7282 350.938C40.6959 351.261 40.6797 351.633 40.6797 352.037V355.561H39.3057V347.22H40.6151V349.014C41.1647 347.689 42.1831 347.026 43.7026 347.026ZM48.1065 346.978C49.3674 346.978 50.3373 347.365 51.0486 348.141C51.7437 348.901 52.0993 349.968 52.0993 351.342C52.0993 352.765 51.7437 353.864 51.0486 354.64C50.3373 355.432 49.3512 355.82 48.0903 355.82C46.8133 355.82 45.8111 355.432 45.0998 354.656C44.3723 353.88 44.0167 352.813 44.0167 351.423C44.0167 350.065 44.3723 348.982 45.1159 348.174C45.8434 347.382 46.8456 346.978 48.1065 346.978ZM48.0742 348.141C47.2659 348.141 46.6193 348.432 46.1505 349.014C45.6656 349.612 45.4393 350.405 45.4393 351.391C45.4393 352.425 45.6656 353.217 46.1344 353.799C46.6031 354.381 47.2659 354.656 48.1065 354.656C48.9148 354.656 49.5452 354.365 49.9978 353.783C50.4505 353.201 50.6929 352.409 50.6929 351.374C50.6929 350.388 50.4505 349.596 49.9817 349.014C49.5129 348.432 48.8824 348.141 48.0742 348.141ZM57.3081 347.22V348.352H55.643V353.217C55.643 353.492 55.643 353.67 55.643 353.751C55.643 353.848 55.6754 353.961 55.74 354.106C55.7885 354.252 55.8855 354.349 56.0148 354.381C56.1442 354.43 56.322 354.446 56.5645 354.446C56.7584 354.446 57.0171 354.43 57.3081 354.397V355.577C56.9201 355.626 56.5645 355.642 56.2573 355.642C55.8694 355.642 55.546 355.61 55.2874 355.513C55.0288 355.432 54.8186 355.335 54.6893 355.222C54.56 355.125 54.463 354.931 54.3983 354.656C54.3337 354.381 54.2852 354.155 54.2852 353.961C54.269 353.767 54.269 353.46 54.269 353.007V352.942V352.862V352.781V348.352H52.8626V347.22H54.269V344.747H55.643V347.22H57.3081ZM62.4879 346.978C63.7488 346.978 64.7187 347.365 65.4299 348.141C66.125 348.901 66.4807 349.968 66.4807 351.342C66.4807 352.765 66.125 353.864 65.4299 354.64C64.7187 355.432 63.7326 355.82 62.4717 355.82C61.1947 355.82 60.1924 355.432 59.4811 354.656C58.7537 353.88 58.3981 352.813 58.3981 351.423C58.3981 350.065 58.7537 348.982 59.4973 348.174C60.2247 347.382 61.227 346.978 62.4879 346.978ZM62.4555 348.141C61.6473 348.141 61.0007 348.432 60.5319 349.014C60.0469 349.612 59.8206 350.405 59.8206 351.391C59.8206 352.425 60.0469 353.217 60.5157 353.799C60.9845 354.381 61.6473 354.656 62.4879 354.656C63.2961 354.656 63.9266 354.365 64.3792 353.783C64.8318 353.201 65.0743 352.409 65.0743 351.374C65.0743 350.388 64.8318 349.596 64.363 349.014C63.8942 348.432 63.2638 348.141 62.4555 348.141ZM71.6894 347.22V348.352H70.0244V353.217C70.0244 353.492 70.0244 353.67 70.0244 353.751C70.0244 353.848 70.0567 353.961 70.1214 354.106C70.1699 354.252 70.2669 354.349 70.3962 354.381C70.5255 354.43 70.7033 354.446 70.9458 354.446C71.1398 354.446 71.3984 354.43 71.6894 354.397V355.577C71.3014 355.626 70.9458 355.642 70.6387 355.642C70.2507 355.642 69.9274 355.61 69.6688 355.513C69.4101 355.432 69.2 355.335 69.0707 355.222C68.9413 355.125 68.8443 354.931 68.7797 354.656C68.715 354.381 68.6665 354.155 68.6665 353.961C68.6504 353.767 68.6504 353.46 68.6504 353.007V352.942V352.862V352.781V348.352H67.244V347.22H68.6504V344.747H70.0244V347.22H71.6894ZM80.1184 347.22L76.5459 356.628C76.4004 357.016 76.2711 357.307 76.1741 357.517C76.0771 357.727 75.9316 357.954 75.7377 358.212C75.5437 358.471 75.3174 358.649 75.0587 358.762C74.8001 358.875 74.4929 358.924 74.1373 358.924C73.8625 358.924 73.523 358.875 73.1189 358.778V357.55C73.5069 357.679 73.814 357.727 74.008 357.727C74.4606 357.727 74.7839 357.501 74.9779 357.032L75.6245 355.513L72.3106 347.22H73.8625L76.3358 353.864L78.6797 347.22H80.1184ZM82.5917 347.22V348.4C83.1898 347.446 84.1274 346.961 85.4045 346.961C86.5684 346.961 87.4898 347.365 88.1687 348.141C88.8476 348.934 89.2033 350 89.2033 351.342C89.2033 352.7 88.8638 353.767 88.1849 354.575C87.5059 355.383 86.6007 355.771 85.4691 355.771C84.2729 355.771 83.3353 355.319 82.6725 354.397V358.778H81.2985V347.22H82.5917ZM85.1943 348.109C84.386 348.109 83.7556 348.4 83.303 348.982C82.8504 349.564 82.624 350.356 82.624 351.358C82.624 352.377 82.8504 353.169 83.3191 353.751C83.7879 354.333 84.4345 354.624 85.2428 354.624C86.0187 354.624 86.6492 354.333 87.1018 353.751C87.5544 353.169 87.7807 352.377 87.7807 351.374C87.7807 350.356 87.5383 349.564 87.0856 348.982C86.633 348.4 86.0026 348.109 85.1943 348.109ZM98.0097 352.926C97.5894 354.866 96.377 355.836 94.3725 355.836C93.1439 355.836 92.174 355.464 91.4789 354.688C90.7838 353.929 90.4443 352.862 90.4443 351.504C90.4443 350.162 90.8 349.079 91.5112 348.238C92.2225 347.398 93.1601 346.978 94.324 346.978C95.601 346.978 96.5548 347.414 97.1691 348.287C97.7833 349.16 98.1067 350.243 98.1067 351.568V351.762H91.8346L91.8184 351.859C91.8184 352.748 92.0447 353.444 92.5135 353.945C92.9661 354.462 93.6127 354.704 94.421 354.704C95.0191 354.704 95.4879 354.575 95.8435 354.284C96.1992 354.009 96.474 353.557 96.6679 352.926H98.0097ZM96.6841 350.647C96.6195 349.855 96.377 349.241 95.9567 348.788C95.5364 348.335 94.9706 348.109 94.2917 348.109C93.6127 348.109 93.0631 348.335 92.6266 348.788C92.174 349.241 91.9154 349.871 91.8346 350.647H96.6841ZM108.524 350.388V351.746H103.82V350.388H108.524ZM37.2887 363.052V374.561H35.9955V373.333C35.462 374.303 34.5406 374.788 33.2474 374.788C32.0512 374.788 31.1136 374.4 30.4185 373.607C29.7234 372.815 29.3839 371.732 29.3839 370.374C29.3839 369.114 29.7072 368.079 30.3538 367.238C31.0004 366.398 31.9542 365.978 33.1827 365.978C34.379 365.978 35.2842 366.43 35.9147 367.335V363.052H37.2887ZM33.3606 367.158C32.5685 367.158 31.938 367.449 31.4854 368.014C31.0328 368.596 30.8065 369.372 30.8065 370.342C30.8065 371.361 31.0328 372.169 31.5016 372.767C31.9703 373.365 32.6008 373.656 33.3929 373.656C34.185 373.656 34.8154 373.381 35.2681 372.799C35.7207 372.217 35.947 371.425 35.947 370.391C35.947 369.485 35.7207 368.709 35.3004 368.095C34.8801 367.481 34.2335 367.158 33.3606 367.158ZM46.7417 373.462V374.545C46.4507 374.642 46.1436 374.707 45.8041 374.707C45.012 374.707 44.6079 374.286 44.5917 373.478C43.7996 374.351 42.7974 374.804 41.5688 374.804C40.7444 374.804 40.0978 374.594 39.6128 374.173C39.1279 373.753 38.9016 373.171 38.9016 372.444C38.9016 370.956 39.8876 370.083 41.8598 369.841C41.9891 369.809 42.1669 369.793 42.4256 369.776C43.3632 369.663 43.9289 369.534 44.1553 369.405C44.3977 369.227 44.5271 368.936 44.5271 368.515C44.5271 367.594 43.8966 367.141 42.6357 367.141C41.9891 367.141 41.488 367.271 41.1647 367.529C40.8252 367.788 40.6312 368.224 40.5666 368.839H39.2249C39.241 367.934 39.5643 367.238 40.1786 366.753C40.7929 366.252 41.6335 366.01 42.7166 366.01C43.8804 366.01 44.7534 366.268 45.3353 366.818C45.5131 366.98 45.6425 367.206 45.7394 367.497C45.8203 367.772 45.8688 367.998 45.8849 368.176C45.8849 368.354 45.9011 368.629 45.9011 368.984C45.9011 369.388 45.8849 370.003 45.8688 370.827C45.8364 371.668 45.8364 372.282 45.8364 372.686C45.8364 372.993 45.8688 373.203 45.9496 373.333C46.0304 373.462 46.1759 373.511 46.4022 373.511C46.483 373.511 46.5962 373.494 46.7417 373.462ZM44.5271 370.245C44.4301 370.31 44.3169 370.374 44.2199 370.439C44.1068 370.488 43.9613 370.536 43.7996 370.568C43.638 370.601 43.5248 370.617 43.4602 370.633C43.3955 370.649 43.2662 370.665 43.0399 370.698C42.8135 370.73 42.6842 370.746 42.6842 370.746C42.3448 370.779 42.1184 370.811 42.0214 370.827C41.9245 370.843 41.7305 370.892 41.4395 370.973C41.1485 371.037 40.9545 371.134 40.8414 371.231C40.7121 371.328 40.5989 371.458 40.4858 371.652C40.3726 371.845 40.3241 372.072 40.3241 372.33C40.3241 372.751 40.4696 373.09 40.7606 373.349C41.0515 373.591 41.4718 373.721 41.9891 373.721C42.6357 373.721 43.2338 373.527 43.7511 373.139C44.2684 372.751 44.5271 372.282 44.5271 371.765V370.245ZM54.228 368.645H52.8539C52.7569 367.643 52.078 367.125 50.8171 367.125C50.2836 367.125 49.8633 367.238 49.5724 367.432C49.2652 367.643 49.1197 367.917 49.1197 368.257C49.1197 368.354 49.1197 368.451 49.1521 368.548C49.1682 368.645 49.2006 368.726 49.2652 368.79C49.3299 368.855 49.3784 368.92 49.4269 368.968C49.4754 369.033 49.5562 369.081 49.6694 369.13C49.7825 369.178 49.8633 369.211 49.928 369.243C49.9927 369.275 50.0897 369.324 50.2513 369.356C50.413 369.388 50.5261 369.421 50.5908 369.437C50.6554 369.453 50.7686 369.485 50.9626 369.518C51.1566 369.566 51.2697 369.599 51.3344 369.599C51.7223 369.696 52.0295 369.76 52.2235 369.809C52.4174 369.873 52.6923 369.97 53.0479 370.116C53.4035 370.261 53.6622 370.407 53.8562 370.568C54.034 370.73 54.1956 370.94 54.3411 371.215C54.4866 371.49 54.5674 371.797 54.5674 372.136C54.5674 372.945 54.2441 373.607 53.6137 374.092C52.9832 374.577 52.1426 374.82 51.1081 374.82C49.9765 374.82 49.1036 374.577 48.4893 374.076C47.875 373.591 47.5517 372.864 47.5194 371.926H48.8773C48.9419 373.106 49.7017 373.688 51.1404 373.688C51.7547 373.688 52.2396 373.575 52.6114 373.317C52.9832 373.058 53.1772 372.718 53.1772 372.298C53.1772 372.023 53.0802 371.797 52.8862 371.603C52.6923 371.425 52.4659 371.296 52.2396 371.215C51.9972 371.134 51.6577 371.037 51.2212 370.924C51.1566 370.924 51.1081 370.908 51.0757 370.892C50.9787 370.876 50.7686 370.827 50.4453 370.762C50.122 370.698 49.8957 370.633 49.7664 370.585C49.6209 370.552 49.4107 370.488 49.1521 370.391C48.8934 370.294 48.6994 370.197 48.5701 370.1C48.4408 370.003 48.2953 369.873 48.1337 369.712C47.972 369.55 47.875 369.372 47.8104 369.162C47.7457 368.952 47.7134 368.709 47.7134 368.435C47.7134 367.691 47.9882 367.093 48.5701 366.64C49.1521 366.204 49.928 365.978 50.8979 365.978C51.8678 365.978 52.6761 366.22 53.2904 366.673C53.9046 367.141 54.228 367.804 54.228 368.645ZM57.4933 363.052V367.4C58.1076 366.479 59.0129 366.01 60.2252 366.01C62.1004 366.01 63.038 366.964 63.038 368.855V374.561H61.6639V369.178C61.6639 368.548 61.5185 368.063 61.2598 367.723C61.0012 367.384 60.5162 367.206 59.8373 367.206C58.9967 367.206 58.3824 367.481 58.0268 368.014C57.6711 368.564 57.4933 369.324 57.4933 370.326V374.561H56.1193V363.052H57.4933ZM66.4596 363.052V367.368C67.0577 366.462 67.9791 365.994 69.2238 365.994C70.3554 365.994 71.2768 366.398 71.9558 367.19C72.6347 367.982 72.9903 369.033 72.9903 370.358C72.9903 371.716 72.6347 372.783 71.9396 373.591C71.2283 374.4 70.3069 374.804 69.143 374.804C67.8175 374.804 66.896 374.319 66.3788 373.349V374.561H65.0855V363.052H66.4596ZM69.0137 367.158C68.1246 367.158 67.4618 367.481 67.0415 368.111C66.6212 368.758 66.4111 369.534 66.4111 370.455C66.4111 371.441 66.6374 372.217 67.1062 372.799C67.575 373.381 68.2054 373.656 69.0137 373.656C69.7735 373.656 70.3877 373.365 70.8565 372.767C71.3253 372.169 71.5678 371.377 71.5678 370.374C71.5678 369.405 71.3253 368.612 70.8727 368.03C70.4039 367.449 69.7896 367.158 69.0137 367.158ZM78.3374 365.978C79.5982 365.978 80.5682 366.365 81.2794 367.141C81.9745 367.901 82.3302 368.968 82.3302 370.342C82.3302 371.765 81.9745 372.864 81.2794 373.64C80.5682 374.432 79.5821 374.82 78.3212 374.82C77.0441 374.82 76.0419 374.432 75.3306 373.656C74.6032 372.88 74.2476 371.813 74.2476 370.423C74.2476 369.065 74.6032 367.982 75.3468 367.174C76.0742 366.382 77.0765 365.978 78.3374 365.978ZM78.305 367.141C77.4968 367.141 76.8502 367.432 76.3814 368.014C75.8964 368.612 75.6701 369.405 75.6701 370.391C75.6701 371.425 75.8964 372.217 76.3652 372.799C76.834 373.381 77.4968 373.656 78.3374 373.656C79.1456 373.656 79.7761 373.365 80.2287 372.783C80.6813 372.201 80.9238 371.409 80.9238 370.374C80.9238 369.388 80.6813 368.596 80.2125 368.014C79.7437 367.432 79.1133 367.141 78.305 367.141ZM91.3539 373.462V374.545C91.0629 374.642 90.7558 374.707 90.4163 374.707C89.6242 374.707 89.2201 374.286 89.2039 373.478C88.4118 374.351 87.4096 374.804 86.181 374.804C85.3566 374.804 84.71 374.594 84.225 374.173C83.7401 373.753 83.5138 373.171 83.5138 372.444C83.5138 370.956 84.4998 370.083 86.472 369.841C86.6013 369.809 86.7791 369.793 87.0378 369.776C87.9754 369.663 88.5411 369.534 88.7675 369.405C89.0099 369.227 89.1393 368.936 89.1393 368.515C89.1393 367.594 88.5088 367.141 87.2479 367.141C86.6013 367.141 86.1002 367.271 85.7769 367.529C85.4374 367.788 85.2434 368.224 85.1788 368.839H83.8371C83.8532 367.934 84.1765 367.238 84.7908 366.753C85.4051 366.252 86.2457 366.01 87.3288 366.01C88.4926 366.01 89.3656 366.268 89.9475 366.818C90.1253 366.98 90.2547 367.206 90.3516 367.497C90.4325 367.772 90.481 367.998 90.4971 368.176C90.4971 368.354 90.5133 368.629 90.5133 368.984C90.5133 369.388 90.4971 370.003 90.481 370.827C90.4486 371.668 90.4486 372.282 90.4486 372.686C90.4486 372.993 90.481 373.203 90.5618 373.333C90.6426 373.462 90.7881 373.511 91.0144 373.511C91.0952 373.511 91.2084 373.494 91.3539 373.462ZM89.1393 370.245C89.0423 370.31 88.9291 370.374 88.8321 370.439C88.719 370.488 88.5735 370.536 88.4118 370.568C88.2502 370.601 88.137 370.617 88.0724 370.633C88.0077 370.649 87.8784 370.665 87.6521 370.698C87.4257 370.73 87.2964 370.746 87.2964 370.746C86.957 370.779 86.7306 370.811 86.6336 370.827C86.5367 370.843 86.3427 370.892 86.0517 370.973C85.7607 371.037 85.5667 371.134 85.4536 371.231C85.3243 371.328 85.2111 371.458 85.098 371.652C84.9848 371.845 84.9363 372.072 84.9363 372.33C84.9363 372.751 85.0818 373.09 85.3728 373.349C85.6637 373.591 86.084 373.721 86.6013 373.721C87.2479 373.721 87.846 373.527 88.3633 373.139C88.8806 372.751 89.1393 372.282 89.1393 371.765V370.245ZM96.9973 366.026L96.9812 367.465C96.8842 367.449 96.771 367.449 96.6255 367.449C96.1891 367.449 95.8011 367.513 95.4778 367.643C95.1545 367.772 94.912 367.95 94.718 368.16C94.524 368.386 94.3786 368.645 94.2492 368.968C94.1361 369.291 94.0552 369.615 94.0229 369.938C93.9906 370.261 93.9744 370.633 93.9744 371.037V374.561H92.6004V366.22H93.9098V368.014C94.4594 366.689 95.4778 366.026 96.9973 366.026ZM105.265 363.052V374.561H103.971V373.333C103.438 374.303 102.517 374.788 101.223 374.788C100.027 374.788 99.0896 374.4 98.3945 373.607C97.6994 372.815 97.3599 371.732 97.3599 370.374C97.3599 369.114 97.6832 368.079 98.3298 367.238C98.9764 366.398 99.9302 365.978 101.159 365.978C102.355 365.978 103.26 366.43 103.891 367.335V363.052H105.265ZM101.337 367.158C100.544 367.158 99.914 367.449 99.4614 368.014C99.0087 368.596 98.7824 369.372 98.7824 370.342C98.7824 371.361 99.0087 372.169 99.4775 372.767C99.9463 373.365 100.577 373.656 101.369 373.656C102.161 373.656 102.791 373.381 103.244 372.799C103.697 372.217 103.923 371.425 103.923 370.391C103.923 369.485 103.697 368.709 103.276 368.095C102.856 367.481 102.209 367.158 101.337 367.158ZM113.122 366.22V367.513C113.801 366.511 114.755 365.994 115.968 365.994C116.937 365.994 117.649 366.252 118.085 366.77C118.522 367.287 118.748 368.03 118.748 369.017V374.561H117.374V369.647C117.374 369.243 117.358 368.92 117.325 368.693C117.293 368.467 117.228 368.208 117.131 367.95C117.018 367.691 116.84 367.497 116.582 367.368C116.323 367.255 115.984 367.19 115.58 367.19C113.995 367.19 113.203 368.192 113.203 370.197V374.561H111.829V366.22H113.122ZM128.199 373.462V374.545C127.908 374.642 127.601 374.707 127.262 374.707C126.47 374.707 126.065 374.286 126.049 373.478C125.257 374.351 124.255 374.804 123.026 374.804C122.202 374.804 121.555 374.594 121.07 374.173C120.585 373.753 120.359 373.171 120.359 372.444C120.359 370.956 121.345 370.083 123.317 369.841C123.447 369.809 123.624 369.793 123.883 369.776C124.821 369.663 125.386 369.534 125.613 369.405C125.855 369.227 125.985 368.936 125.985 368.515C125.985 367.594 125.354 367.141 124.093 367.141C123.447 367.141 122.946 367.271 122.622 367.529C122.283 367.788 122.089 368.224 122.024 368.839H120.682C120.699 367.934 121.022 367.238 121.636 366.753C122.25 366.252 123.091 366.01 124.174 366.01C125.338 366.01 126.211 366.268 126.793 366.818C126.971 366.98 127.1 367.206 127.197 367.497C127.278 367.772 127.326 367.998 127.342 368.176C127.342 368.354 127.359 368.629 127.359 368.984C127.359 369.388 127.342 370.003 127.326 370.827C127.294 371.668 127.294 372.282 127.294 372.686C127.294 372.993 127.326 373.203 127.407 373.333C127.488 373.462 127.633 373.511 127.86 373.511C127.941 373.511 128.054 373.494 128.199 373.462ZM125.985 370.245C125.888 370.31 125.774 370.374 125.677 370.439C125.564 370.488 125.419 370.536 125.257 370.568C125.095 370.601 124.982 370.617 124.918 370.633C124.853 370.649 124.724 370.665 124.497 370.698C124.271 370.73 124.142 370.746 124.142 370.746C123.802 370.779 123.576 370.811 123.479 370.827C123.382 370.843 123.188 370.892 122.897 370.973C122.606 371.037 122.412 371.134 122.299 371.231C122.17 371.328 122.056 371.458 121.943 371.652C121.83 371.845 121.782 372.072 121.782 372.33C121.782 372.751 121.927 373.09 122.218 373.349C122.509 373.591 122.929 373.721 123.447 373.721C124.093 373.721 124.691 373.527 125.209 373.139C125.726 372.751 125.985 372.282 125.985 371.765V370.245ZM128.686 366.22H130.222L132.582 373.22L134.877 366.22H136.316L133.261 374.561H131.79L128.686 366.22Z" fill="white"/>
<g clip-path="url(#clip3_4794_11133)">
<path d="M249.117 348.746H422.557L413.28 375.688H249.117V348.746Z" fill="#006756"/>
<path d="M269.281 358.407V365.92H268.436V365.118C268.088 365.751 267.487 366.068 266.642 366.068C265.862 366.068 265.25 365.814 264.796 365.297C264.342 364.78 264.12 364.073 264.12 363.187C264.12 362.364 264.332 361.688 264.754 361.14C265.176 360.591 265.798 360.317 266.6 360.317C267.381 360.317 267.972 360.612 268.384 361.203V358.407H269.281ZM266.716 361.087C266.199 361.087 265.788 361.277 265.492 361.646C265.197 362.026 265.049 362.533 265.049 363.166C265.049 363.831 265.197 364.358 265.503 364.749C265.809 365.139 266.22 365.329 266.737 365.329C267.255 365.329 267.666 365.15 267.962 364.77C268.257 364.39 268.405 363.873 268.405 363.197C268.405 362.607 268.257 362.1 267.983 361.699C267.708 361.298 267.286 361.087 266.716 361.087ZM275.282 364.2C275.008 365.466 274.217 366.099 272.908 366.099C272.106 366.099 271.473 365.857 271.019 365.35C270.566 364.854 270.344 364.158 270.344 363.271C270.344 362.395 270.576 361.688 271.04 361.14C271.505 360.591 272.117 360.317 272.877 360.317C273.71 360.317 274.333 360.602 274.734 361.171C275.135 361.741 275.346 362.448 275.346 363.314V363.44H271.251L271.241 363.503C271.241 364.084 271.389 364.538 271.695 364.865C271.99 365.202 272.412 365.361 272.94 365.361C273.33 365.361 273.636 365.276 273.868 365.086C274.101 364.907 274.28 364.611 274.407 364.2H275.282ZM274.417 362.712C274.375 362.195 274.217 361.794 273.942 361.499C273.668 361.203 273.299 361.055 272.855 361.055C272.412 361.055 272.053 361.203 271.769 361.499C271.473 361.794 271.304 362.206 271.251 362.712H274.417ZM277.246 358.407V365.92H276.339V358.407H277.246ZM279.586 358.407V359.504H278.678V358.407H279.586ZM279.586 360.475V365.92H278.678V360.475H279.586ZM280.447 360.475H281.45L282.991 365.044L284.489 360.475H285.428L283.434 365.92H282.473L280.447 360.475ZM290.905 364.2C290.63 365.466 289.839 366.099 288.531 366.099C287.729 366.099 287.095 365.857 286.642 365.35C286.188 364.854 285.966 364.158 285.966 363.271C285.966 362.395 286.198 361.688 286.663 361.14C287.127 360.591 287.739 360.317 288.499 360.317C289.332 360.317 289.955 360.602 290.356 361.171C290.757 361.741 290.968 362.448 290.968 363.314V363.44H286.874L286.863 363.503C286.863 364.084 287.011 364.538 287.317 364.865C287.612 365.202 288.035 365.361 288.562 365.361C288.953 365.361 289.259 365.276 289.491 365.086C289.723 364.907 289.902 364.611 290.029 364.2H290.905ZM290.039 362.712C289.997 362.195 289.839 361.794 289.565 361.499C289.29 361.203 288.921 361.055 288.478 361.055C288.035 361.055 287.676 361.203 287.391 361.499C287.095 361.794 286.927 362.206 286.874 362.712H290.039ZM294.758 360.348L294.747 361.287C294.684 361.277 294.61 361.277 294.515 361.277C294.23 361.277 293.977 361.319 293.766 361.404C293.555 361.488 293.396 361.604 293.27 361.741C293.143 361.889 293.048 362.058 292.964 362.269C292.89 362.48 292.837 362.691 292.816 362.902C292.795 363.113 292.784 363.356 292.784 363.62V365.92H291.887V360.475H292.742V361.646C293.101 360.781 293.766 360.348 294.758 360.348ZM299.901 364.2C299.627 365.466 298.835 366.099 297.527 366.099C296.725 366.099 296.092 365.857 295.638 365.35C295.184 364.854 294.963 364.158 294.963 363.271C294.963 362.395 295.195 361.688 295.659 361.14C296.123 360.591 296.735 360.317 297.495 360.317C298.329 360.317 298.951 360.602 299.352 361.171C299.753 361.741 299.964 362.448 299.964 363.314V363.44H295.87L295.859 363.503C295.859 364.084 296.007 364.538 296.313 364.865C296.609 365.202 297.031 365.361 297.558 365.361C297.949 365.361 298.255 365.276 298.487 365.086C298.719 364.907 298.899 364.611 299.025 364.2H299.901ZM299.036 362.712C298.994 362.195 298.835 361.794 298.561 361.499C298.287 361.203 297.917 361.055 297.474 361.055C297.031 361.055 296.672 361.203 296.387 361.499C296.092 361.794 295.923 362.206 295.87 362.712H299.036ZM305.822 358.407V365.92H304.978V365.118C304.63 365.751 304.028 366.068 303.184 366.068C302.403 366.068 301.791 365.814 301.337 365.297C300.884 364.78 300.662 364.073 300.662 363.187C300.662 362.364 300.873 361.688 301.295 361.14C301.717 360.591 302.34 360.317 303.142 360.317C303.923 360.317 304.514 360.612 304.925 361.203V358.407H305.822ZM303.258 361.087C302.741 361.087 302.329 361.277 302.034 361.646C301.738 362.026 301.591 362.533 301.591 363.166C301.591 363.831 301.738 364.358 302.044 364.749C302.35 365.139 302.762 365.329 303.279 365.329C303.796 365.329 304.208 365.15 304.503 364.77C304.798 364.39 304.946 363.873 304.946 363.197C304.946 362.607 304.798 362.1 304.524 361.699C304.25 361.298 303.828 361.087 303.258 361.087Z" fill="white"/>
</g>
<rect x="249.398" y="349.026" width="71.8454" height="26.3807" rx="13.1904" stroke="#1ADBBB" stroke-width="0.561292"/>
</g>
<defs>
<filter id="filter0_i_4794_11133" x="0" y="0" width="366" height="92.6833" filterUnits="userSpaceOnUse" color-interpolation-filters="sRGB">
<feFlood flood-opacity="0" result="BackgroundImageFix"/>
<feBlend mode="normal" in="SourceGraphic" in2="BackgroundImageFix" result="shape"/>
<feColorMatrix in="SourceAlpha" type="matrix" values="0 0 0 0 0 0 0 0 0 0 0 0 0 0 0 0 0 0 127 0" result="hardAlpha"/>
<feOffset dy="1.1833"/>
<feGaussianBlur stdDeviation="1.1833"/>
<feComposite in2="hardAlpha" operator="arithmetic" k2="-1" k3="1"/>
<feColorMatrix type="matrix" values="0 0 0 0 0.321569 0 0 0 0 0.317647 0 0 0 0 0.329412 0 0 0 1 0"/>
<feBlend mode="normal" in2="shape" result="effect1_innerShadow_4794_11133"/>
</filter>
<filter id="filter1_i_4794_11133" x="0" y="105.172" width="366" height="92.6833" filterUnits="userSpaceOnUse" color-interpolation-filters="sRGB">
<feFlood flood-opacity="0" result="BackgroundImageFix"/>
<feBlend mode="normal" in="SourceGraphic" in2="BackgroundImageFix" result="shape"/>
<feColorMatrix in="SourceAlpha" type="matrix" values="0 0 0 0 0 0 0 0 0 0 0 0 0 0 0 0 0 0 127 0" result="hardAlpha"/>
<feOffset dy="1.1833"/>
<feGaussianBlur stdDeviation="1.1833"/>
<feComposite in2="hardAlpha" operator="arithmetic" k2="-1" k3="1"/>
<feColorMatrix type="matrix" values="0 0 0 0 0.321569 0 0 0 0 0.317647 0 0 0 0 0.329412 0 0 0 1 0"/>
<feBlend mode="normal" in2="shape" result="effect1_innerShadow_4794_11133"/>
</filter>
<filter id="filter2_i_4794_11133" x="0" y="210.345" width="366" height="91.6316" filterUnits="userSpaceOnUse" color-interpolation-filters="sRGB">
<feFlood flood-opacity="0" result="BackgroundImageFix"/>
<feBlend mode="normal" in="SourceGraphic" in2="BackgroundImageFix" result="shape"/>
<feColorMatrix in="SourceAlpha" type="matrix" values="0 0 0 0 0 0 0 0 0 0 0 0 0 0 0 0 0 0 127 0" result="hardAlpha"/>
<feOffset dy="1.1833"/>
<feGaussianBlur stdDeviation="1.1833"/>
<feComposite in2="hardAlpha" operator="arithmetic" k2="-1" k3="1"/>
<feColorMatrix type="matrix" values="0 0 0 0 0.321569 0 0 0 0 0.317647 0 0 0 0 0.329412 0 0 0 1 0"/>
<feBlend mode="normal" in2="shape" result="effect1_innerShadow_4794_11133"/>
</filter>
<filter id="filter3_i_4794_11133" x="0" y="315.517" width="366" height="91.6316" filterUnits="userSpaceOnUse" color-interpolation-filters="sRGB">
<feFlood flood-opacity="0" result="BackgroundImageFix"/>
<feBlend mode="normal" in="SourceGraphic" in2="BackgroundImageFix" result="shape"/>
<feColorMatrix in="SourceAlpha" type="matrix" values="0 0 0 0 0 0 0 0 0 0 0 0 0 0 0 0 0 0 127 0" result="hardAlpha"/>
<feOffset dy="1.1833"/>
<feGaussianBlur stdDeviation="1.1833"/>
<feComposite in2="hardAlpha" operator="arithmetic" k2="-1" k3="1"/>
<feColorMatrix type="matrix" values="0 0 0 0 0.321569 0 0 0 0 0.317647 0 0 0 0 0.329412 0 0 0 1 0"/>
<feBlend mode="normal" in2="shape" result="effect1_innerShadow_4794_11133"/>
</filter>
<linearGradient id="paint0_linear_4794_11133" x1="183" y1="0" x2="183" y2="91.5" gradientUnits="userSpaceOnUse">
<stop stop-color="#1F1F1F"/>
<stop offset="0.69" stop-color="#111111"/>
</linearGradient>
<linearGradient id="paint1_linear_4794_11133" x1="183" y1="105.172" x2="183" y2="196.672" gradientUnits="userSpaceOnUse">
<stop stop-color="#1F1F1F"/>
<stop offset="0.69" stop-color="#111111"/>
</linearGradient>
<linearGradient id="paint2_linear_4794_11133" x1="183" y1="210.345" x2="183" y2="300.793" gradientUnits="userSpaceOnUse">
<stop stop-color="#1F1F1F"/>
<stop offset="0.69" stop-color="#111111"/>
</linearGradient>
<linearGradient id="paint3_linear_4794_11133" x1="183" y1="315.517" x2="183" y2="405.966" gradientUnits="userSpaceOnUse">
<stop stop-color="#1F1F1F"/>
<stop offset="0.69" stop-color="#111111"/>
</linearGradient>
<clipPath id="clip0_4794_11133">
<rect x="249.117" y="33.2286" width="72.4067" height="26.942" rx="13.471" fill="white"/>
</clipPath>
<clipPath id="clip1_4794_11133">
<rect x="249.117" y="138.401" width="72.4067" height="26.942" rx="13.471" fill="white"/>
</clipPath>
<clipPath id="clip2_4794_11133">
<rect x="249.117" y="243.573" width="72.4067" height="26.942" rx="13.471" fill="white"/>
</clipPath>
<clipPath id="clip3_4794_11133">
<rect x="249.117" y="348.746" width="72.4067" height="26.942" rx="13.471" fill="white"/>
</clipPath>
</defs>
</svg>
