<svg width="48" height="48" viewBox="0 0 48 48" fill="none" xmlns="http://www.w3.org/2000/svg">
<path d="M24.0001 3.998C35.0481 3.998 44.0041 12.954 44.0041 24.002C44.0041 35.048 35.0481 44.004 24.0001 44.004C12.9521 44.004 3.99609 35.048 3.99609 24.002C3.99609 12.954 12.9521 3.998 24.0001 3.998ZM24.0001 6.998C21.7517 6.97362 19.5208 7.3954 17.4365 8.23895C15.3522 9.08249 13.456 10.331 11.8574 11.9123C10.2589 13.4936 8.98984 15.3763 8.12374 17.4513C7.25764 19.5263 6.81168 21.7525 6.81168 24.001C6.81168 26.2495 7.25764 28.4757 8.12374 30.5507C8.98984 32.6257 10.2589 34.5084 11.8574 36.0897C13.456 37.671 15.3522 38.9195 17.4365 39.7631C19.5208 40.6066 21.7517 41.0284 24.0001 41.004C28.4641 40.9355 32.7222 39.1141 35.8548 35.9331C38.9874 32.752 40.7433 28.4666 40.7433 24.002C40.7433 19.5374 38.9874 15.252 35.8548 12.0709C32.7222 8.88987 28.4641 7.06647 24.0001 6.998ZM16.9241 29.568C17.7656 30.64 18.84 31.5065 20.066 32.1018C21.2919 32.6971 22.6373 33.0056 24.0001 33.004C25.3612 33.0055 26.7049 32.6977 27.9297 32.1039C29.1545 31.51 30.2283 30.6456 31.0701 29.576C31.3167 29.2638 31.6773 29.0625 32.0724 29.0161C32.4676 28.9698 32.8649 29.0824 33.1771 29.329C33.4893 29.5757 33.6906 29.9362 33.737 30.3313C33.7833 30.7265 33.6707 31.1238 33.4241 31.436C32.3016 32.8612 30.8701 34.0128 29.2376 34.8041C27.6051 35.5954 25.8142 36.0057 24.0001 36.004C22.1836 36.0055 20.3906 35.5939 18.7565 34.8005C17.1225 34.007 15.6902 32.8524 14.5681 31.424C14.3325 31.1107 14.2289 30.7176 14.2794 30.3289C14.33 29.9402 14.5308 29.5867 14.8387 29.3441C15.1466 29.1016 15.5373 28.9892 15.927 29.031C16.3168 29.0728 16.6747 29.2656 16.9241 29.568ZM18.0001 17.5C18.3342 17.4905 18.6668 17.5482 18.9783 17.6695C19.2898 17.7909 19.5737 17.9734 19.8134 18.2064C20.0531 18.4394 20.2436 18.7181 20.3737 19.026C20.5038 19.3339 20.5708 19.6647 20.5708 19.999C20.5708 20.3333 20.5038 20.6641 20.3737 20.972C20.2436 21.2799 20.0531 21.5586 19.8134 21.7916C19.5737 22.0246 19.2898 22.2071 18.9783 22.3285C18.6668 22.4498 18.3342 22.5075 18.0001 22.498C17.3496 22.4796 16.7318 22.2082 16.2782 21.7416C15.8246 21.2749 15.5708 20.6498 15.5708 19.999C15.5708 19.3482 15.8246 18.7231 16.2782 18.2564C16.7318 17.7898 17.3496 17.5184 18.0001 17.5ZM30.0001 17.5C30.3342 17.4905 30.6668 17.5482 30.9783 17.6695C31.2898 17.7909 31.5737 17.9734 31.8134 18.2064C32.0531 18.4394 32.2436 18.7181 32.3737 19.026C32.5038 19.3339 32.5708 19.6647 32.5708 19.999C32.5708 20.3333 32.5038 20.6641 32.3737 20.972C32.2436 21.2799 32.0531 21.5586 31.8134 21.7916C31.5737 22.0246 31.2898 22.2071 30.9783 22.3285C30.6668 22.4498 30.3342 22.5075 30.0001 22.498C29.3496 22.4796 28.7318 22.2082 28.2782 21.7416C27.8246 21.2749 27.5708 20.6498 27.5708 19.999C27.5708 19.3482 27.8246 18.7231 28.2782 18.2564C28.7318 17.7898 29.3496 17.5184 30.0001 17.5Z" fill="white"/>
</svg>
