<svg width="366" height="406" viewBox="0 0 366 406" fill="none" xmlns="http://www.w3.org/2000/svg">
<g filter="url(#filter0_i_4794_11064)">
<rect width="366" height="406" rx="24" fill="url(#paint0_linear_4794_11064)" fill-opacity="0.7"/>
<circle cx="22.3542" cy="34.4344" r="3.43915" fill="#1ADBBB"/>
<path d="M36.6202 29.9487V31.0785C37.1928 30.1654 38.0904 29.7011 39.313 29.7011C40.4273 29.7011 41.3095 30.088 41.9595 30.8308C42.6095 31.5892 42.9499 32.6106 42.9499 33.8951C42.9499 35.1951 42.6249 36.2166 41.9749 36.9904C41.3249 37.7642 40.4583 38.1356 39.3749 38.1356C38.2297 38.1356 37.3321 37.7023 36.6976 36.8201V41.0142H35.3821V29.9487H36.6202ZM39.1118 30.7999C38.338 30.7999 37.7345 31.0785 37.3011 31.6356C36.8678 32.1927 36.6511 32.9511 36.6511 33.9106C36.6511 34.8856 36.8678 35.6439 37.3166 36.2011C37.7654 36.7582 38.3845 37.0368 39.1583 37.0368C39.9011 37.0368 40.5047 36.7582 40.938 36.2011C41.3714 35.6439 41.588 34.8856 41.588 33.9261C41.588 32.9511 41.3559 32.1927 40.9226 31.6356C40.4892 31.0785 39.8857 30.7999 39.1118 30.7999ZM48.7191 29.763L48.7036 31.1404C48.6107 31.1249 48.5024 31.1249 48.3631 31.1249C47.9452 31.1249 47.5738 31.1868 47.2643 31.3106C46.9548 31.4344 46.7226 31.6047 46.5369 31.8058C46.3512 32.0225 46.2119 32.2701 46.0881 32.5797C45.9798 32.8892 45.9024 33.1987 45.8714 33.5082C45.8405 33.8178 45.825 34.1737 45.825 34.5606V37.9344H44.5095V29.9487H45.7631V31.6666C46.2893 30.3975 47.2643 29.763 48.7191 29.763ZM52.9352 29.7166C54.1424 29.7166 55.0709 30.088 55.7519 30.8308C56.4174 31.5582 56.7578 32.5797 56.7578 33.8951C56.7578 35.257 56.4174 36.3094 55.7519 37.0523C55.0709 37.8106 54.1269 38.182 52.9197 38.182C51.6971 38.182 50.7376 37.8106 50.0567 37.0678C49.3602 36.3249 49.0197 35.3035 49.0197 33.9725C49.0197 32.6725 49.3602 31.6356 50.0721 30.8618C50.7686 30.1035 51.7281 29.7166 52.9352 29.7166ZM52.9043 30.8308C52.1305 30.8308 51.5114 31.1094 51.0626 31.6666C50.5983 32.2392 50.3817 32.9975 50.3817 33.9416C50.3817 34.932 50.5983 35.6904 51.0471 36.2475C51.4959 36.8047 52.1305 37.0678 52.9352 37.0678C53.709 37.0678 54.3126 36.7892 54.7459 36.232C55.1793 35.6749 55.4114 34.9166 55.4114 33.9261C55.4114 32.982 55.1793 32.2237 54.7305 31.6666C54.2817 31.1094 53.6781 30.8308 52.9043 30.8308ZM61.7446 29.9487V31.032H60.1505V35.6904C60.1505 35.9535 60.1505 36.1237 60.1505 36.2011C60.1505 36.2939 60.1815 36.4023 60.2434 36.5416C60.2898 36.6808 60.3827 36.7737 60.5065 36.8047C60.6303 36.8511 60.8005 36.8666 61.0327 36.8666C61.2184 36.8666 61.466 36.8511 61.7446 36.8201V37.9499C61.3731 37.9963 61.0327 38.0118 60.7386 38.0118C60.3672 38.0118 60.0577 37.9808 59.81 37.888C59.5624 37.8106 59.3612 37.7178 59.2374 37.6094C59.1136 37.5166 59.0208 37.3308 58.9589 37.0678C58.8969 36.8047 58.8505 36.588 58.8505 36.4023C58.835 36.2166 58.835 35.9225 58.835 35.4892V35.4273V35.3499V35.2725V31.032H57.4886V29.9487H58.835V27.5808H60.1505V29.9487H61.7446ZM66.7036 29.7166C67.9107 29.7166 68.8393 30.088 69.5203 30.8308C70.1857 31.5582 70.5262 32.5797 70.5262 33.8951C70.5262 35.257 70.1857 36.3094 69.5203 37.0523C68.8393 37.8106 67.8953 38.182 66.6881 38.182C65.4655 38.182 64.506 37.8106 63.825 37.0678C63.1286 36.3249 62.7881 35.3035 62.7881 33.9725C62.7881 32.6725 63.1286 31.6356 63.8405 30.8618C64.5369 30.1035 65.4965 29.7166 66.7036 29.7166ZM66.6726 30.8308C65.8988 30.8308 65.2798 31.1094 64.831 31.6666C64.3667 32.2392 64.15 32.9975 64.15 33.9416C64.15 34.932 64.3667 35.6904 64.8155 36.2475C65.2643 36.8047 65.8988 37.0678 66.7036 37.0678C67.4774 37.0678 68.081 36.7892 68.5143 36.232C68.9476 35.6749 69.1798 34.9166 69.1798 33.9261C69.1798 32.982 68.9476 32.2237 68.4988 31.6666C68.05 31.1094 67.4465 30.8308 66.6726 30.8308ZM75.5129 29.9487V31.032H73.9189V35.6904C73.9189 35.9535 73.9189 36.1237 73.9189 36.2011C73.9189 36.2939 73.9498 36.4023 74.0117 36.5416C74.0582 36.6808 74.151 36.7737 74.2748 36.8047C74.3987 36.8511 74.5689 36.8666 74.801 36.8666C74.9867 36.8666 75.2344 36.8511 75.5129 36.8201V37.9499C75.1415 37.9963 74.801 38.0118 74.507 38.0118C74.1356 38.0118 73.826 37.9808 73.5784 37.888C73.3308 37.8106 73.1296 37.7178 73.0058 37.6094C72.882 37.5166 72.7891 37.3308 72.7272 37.0678C72.6653 36.8047 72.6189 36.588 72.6189 36.4023C72.6034 36.2166 72.6034 35.9225 72.6034 35.4892V35.4273V35.3499V35.2725V31.032H71.257V29.9487H72.6034V27.5808H73.9189V29.9487H75.5129ZM83.5827 29.9487L80.1624 38.9558C80.0232 39.3273 79.8993 39.6058 79.8065 39.807C79.7136 40.0082 79.5743 40.2249 79.3886 40.4725C79.2029 40.7201 78.9863 40.8904 78.7386 40.9987C78.491 41.107 78.197 41.1535 77.8565 41.1535C77.5934 41.1535 77.2684 41.107 76.8815 41.0142V39.838C77.2529 39.9618 77.547 40.0082 77.7327 40.0082C78.166 40.0082 78.4755 39.7916 78.6613 39.3428L79.2803 37.888L76.1077 29.9487H77.5934L79.9613 36.3094L82.2053 29.9487H83.5827ZM85.9505 29.9487V31.0785C86.5232 30.1654 87.4208 29.7011 88.6434 29.7011C89.7577 29.7011 90.6398 30.088 91.2898 30.8308C91.9398 31.5892 92.2803 32.6106 92.2803 33.8951C92.2803 35.1951 91.9553 36.2166 91.3053 36.9904C90.6553 37.7642 89.7886 38.1356 88.7053 38.1356C87.5601 38.1356 86.6624 37.7023 86.0279 36.8201V41.0142H84.7124V29.9487H85.9505ZM88.4422 30.7999C87.6684 30.7999 87.0648 31.0785 86.6315 31.6356C86.1982 32.1927 85.9815 32.9511 85.9815 33.9106C85.9815 34.8856 86.1982 35.6439 86.647 36.2011C87.0958 36.7582 87.7148 37.0368 88.4886 37.0368C89.2315 37.0368 89.8351 36.7582 90.2684 36.2011C90.7017 35.6439 90.9184 34.8856 90.9184 33.9261C90.9184 32.9511 90.6863 32.1927 90.2529 31.6356C89.8196 31.0785 89.216 30.7999 88.4422 30.7999ZM100.711 35.4118C100.309 37.2689 99.1482 38.1975 97.2292 38.1975C96.053 38.1975 95.1244 37.8416 94.4589 37.0987C93.7935 36.3713 93.4685 35.3499 93.4685 34.0499C93.4685 32.7654 93.8089 31.7285 94.4899 30.9237C95.1708 30.1189 96.0685 29.7166 97.1828 29.7166C98.4054 29.7166 99.3185 30.1344 99.9066 30.9701C100.495 31.8058 100.804 32.8427 100.804 34.1118V34.2975H94.7994L94.7839 34.3904C94.7839 35.2416 95.0006 35.907 95.4494 36.3868C95.8828 36.882 96.5018 37.1142 97.2756 37.1142C97.8482 37.1142 98.297 36.9904 98.6375 36.7118C98.978 36.4487 99.2411 36.0154 99.4268 35.4118H100.711ZM99.4423 33.2297C99.3804 32.4713 99.1482 31.8832 98.7458 31.4499C98.3435 31.0166 97.8018 30.7999 97.1518 30.7999C96.5018 30.7999 95.9756 31.0166 95.5578 31.4499C95.1244 31.8832 94.8768 32.4868 94.7994 33.2297H99.4423ZM110.778 32.982V34.282H106.274V32.982H110.778ZM120.326 29.7166C121.533 29.7166 122.462 30.088 123.143 30.8308C123.808 31.5582 124.149 32.5797 124.149 33.8951C124.149 35.257 123.808 36.3094 123.143 37.0523C122.462 37.8106 121.518 38.182 120.311 38.182C119.088 38.182 118.129 37.8106 117.448 37.0678C116.751 36.3249 116.411 35.3035 116.411 33.9725C116.411 32.6725 116.751 31.6356 117.463 30.8618C118.16 30.1035 119.119 29.7166 120.326 29.7166ZM120.295 30.8308C119.521 30.8308 118.902 31.1094 118.454 31.6666C117.989 32.2392 117.773 32.9975 117.773 33.9416C117.773 34.932 117.989 35.6904 118.438 36.2475C118.887 36.8047 119.521 37.0678 120.326 37.0678C121.1 37.0678 121.704 36.7892 122.137 36.232C122.57 35.6749 122.802 34.9166 122.802 33.9261C122.802 32.982 122.57 32.2237 122.121 31.6666C121.673 31.1094 121.069 30.8308 120.295 30.8308ZM126.953 29.9487V31.1868C127.603 30.2273 128.516 29.732 129.677 29.732C130.606 29.732 131.287 29.9797 131.705 30.4749C132.122 30.9701 132.339 31.682 132.339 32.6261V37.9344H131.024V33.2297C131.024 32.8427 131.008 32.5332 130.977 32.3166C130.946 32.0999 130.884 31.8523 130.791 31.6047C130.683 31.357 130.513 31.1713 130.265 31.0475C130.018 30.9392 129.693 30.8773 129.306 30.8773C127.789 30.8773 127.031 31.8368 127.031 33.7558V37.9344H125.715V29.9487H126.953ZM135.615 26.9154V31.0475C136.187 30.1808 137.07 29.732 138.261 29.732C139.345 29.732 140.227 30.1189 140.877 30.8773C141.527 31.6356 141.867 32.6416 141.867 33.9106C141.867 35.2106 141.527 36.232 140.861 37.0058C140.18 37.7797 139.298 38.1666 138.184 38.1666C136.915 38.1666 136.033 37.7023 135.537 36.7737V37.9344H134.299V26.9154H135.615ZM138.06 30.8463C137.209 30.8463 136.574 31.1558 136.172 31.7594C135.77 32.3785 135.568 33.1213 135.568 34.0035C135.568 34.9475 135.785 35.6904 136.234 36.2475C136.683 36.8047 137.286 37.0678 138.06 37.0678C138.787 37.0678 139.376 36.7892 139.824 36.2166C140.273 35.6439 140.505 34.8856 140.505 33.9261C140.505 32.9975 140.273 32.2392 139.84 31.682C139.391 31.1249 138.803 30.8463 138.06 30.8463ZM146.986 29.7166C148.193 29.7166 149.122 30.088 149.803 30.8308C150.468 31.5582 150.809 32.5797 150.809 33.8951C150.809 35.257 150.468 36.3094 149.803 37.0523C149.122 37.8106 148.178 38.182 146.971 38.182C145.748 38.182 144.789 37.8106 144.108 37.0678C143.411 36.3249 143.071 35.3035 143.071 33.9725C143.071 32.6725 143.411 31.6356 144.123 30.8618C144.82 30.1035 145.779 29.7166 146.986 29.7166ZM146.955 30.8308C146.182 30.8308 145.563 31.1094 145.114 31.6666C144.649 32.2392 144.433 32.9975 144.433 33.9416C144.433 34.932 144.649 35.6904 145.098 36.2475C145.547 36.8047 146.182 37.0678 146.986 37.0678C147.76 37.0678 148.364 36.7892 148.797 36.232C149.23 35.6749 149.463 34.9166 149.463 33.9261C149.463 32.982 149.23 32.2237 148.782 31.6666C148.333 31.1094 147.729 30.8308 146.955 30.8308ZM159.448 36.882V37.9189C159.17 38.0118 158.875 38.0737 158.55 38.0737C157.792 38.0737 157.405 37.6713 157.39 36.8975C156.631 37.7332 155.672 38.1666 154.496 38.1666C153.706 38.1666 153.087 37.9654 152.623 37.563C152.159 37.1606 151.942 36.6035 151.942 35.907C151.942 34.4832 152.886 33.6475 154.774 33.4154C154.898 33.3844 155.068 33.3689 155.316 33.3535C156.214 33.2451 156.755 33.1213 156.972 32.9975C157.204 32.8273 157.328 32.5487 157.328 32.1463C157.328 31.2642 156.724 30.8308 155.517 30.8308C154.898 30.8308 154.418 30.9547 154.109 31.2023C153.784 31.4499 153.598 31.8677 153.536 32.4558H152.252C152.267 31.5892 152.577 30.9237 153.165 30.4594C153.753 29.9797 154.558 29.7475 155.595 29.7475C156.709 29.7475 157.545 29.9951 158.102 30.5213C158.272 30.6761 158.396 30.8927 158.489 31.1713C158.566 31.4344 158.612 31.6511 158.628 31.8213C158.628 31.9916 158.643 32.2547 158.643 32.5951C158.643 32.982 158.628 33.5701 158.612 34.3594C158.581 35.1642 158.581 35.7523 158.581 36.1392C158.581 36.4332 158.612 36.6344 158.69 36.7582C158.767 36.882 158.906 36.9285 159.123 36.9285C159.2 36.9285 159.309 36.913 159.448 36.882ZM157.328 33.8023C157.235 33.8642 157.127 33.9261 157.034 33.988C156.925 34.0344 156.786 34.0808 156.631 34.1118C156.477 34.1428 156.368 34.1582 156.306 34.1737C156.245 34.1892 156.121 34.2047 155.904 34.2356C155.687 34.2666 155.564 34.282 155.564 34.282C155.239 34.313 155.022 34.3439 154.929 34.3594C154.836 34.3749 154.65 34.4213 154.372 34.4987C154.093 34.5606 153.908 34.6535 153.799 34.7463C153.675 34.8392 153.567 34.963 153.459 35.1487C153.35 35.3344 153.304 35.5511 153.304 35.7987C153.304 36.2011 153.443 36.5261 153.722 36.7737C154 37.0058 154.403 37.1297 154.898 37.1297C155.517 37.1297 156.09 36.9439 156.585 36.5725C157.08 36.2011 157.328 35.7523 157.328 35.257V33.8023ZM164.851 29.763L164.835 31.1404C164.743 31.1249 164.634 31.1249 164.495 31.1249C164.077 31.1249 163.706 31.1868 163.396 31.3106C163.087 31.4344 162.855 31.6047 162.669 31.8058C162.483 32.0225 162.344 32.2701 162.22 32.5797C162.112 32.8892 162.034 33.1987 162.003 33.5082C161.972 33.8178 161.957 34.1737 161.957 34.5606V37.9344H160.641V29.9487H161.895V31.6666C162.421 30.3975 163.396 29.763 164.851 29.763ZM172.766 26.9154V37.9344H171.528V36.7582C171.017 37.6868 170.135 38.1511 168.897 38.1511C167.752 38.1511 166.854 37.7797 166.189 37.0213C165.523 36.263 165.198 35.2261 165.198 33.9261C165.198 32.7189 165.508 31.7285 166.127 30.9237C166.746 30.1189 167.659 29.7166 168.835 29.7166C169.98 29.7166 170.847 30.1499 171.45 31.0166V26.9154H172.766ZM169.005 30.8463C168.247 30.8463 167.643 31.1249 167.21 31.6666C166.777 32.2237 166.56 32.9666 166.56 33.8951C166.56 34.8701 166.777 35.6439 167.225 36.2166C167.674 36.7892 168.278 37.0678 169.036 37.0678C169.795 37.0678 170.398 36.8047 170.831 36.2475C171.265 35.6904 171.481 34.932 171.481 33.9416C171.481 33.0749 171.265 32.332 170.862 31.7439C170.46 31.1558 169.841 30.8463 169.005 30.8463ZM176.136 26.9154V28.5249H174.805V26.9154H176.136ZM176.136 29.9487V37.9344H174.805V29.9487H176.136ZM179.412 29.9487V31.1868C180.062 30.2273 180.975 29.732 182.136 29.732C183.065 29.732 183.746 29.9797 184.163 30.4749C184.581 30.9701 184.798 31.682 184.798 32.6261V37.9344H183.482V33.2297C183.482 32.8427 183.467 32.5332 183.436 32.3166C183.405 32.0999 183.343 31.8523 183.25 31.6047C183.142 31.357 182.972 31.1713 182.724 31.0475C182.477 30.9392 182.152 30.8773 181.765 30.8773C180.248 30.8773 179.49 31.8368 179.49 33.7558V37.9344H178.174V29.9487H179.412ZM193.692 29.9487V37.0832C193.692 37.7642 193.645 38.3058 193.583 38.6773C193.506 39.0487 193.367 39.4047 193.165 39.7297C192.577 40.7047 191.525 41.1844 190.008 41.1844C189.111 41.1844 188.352 41.0142 187.733 40.6428C187.114 40.2713 186.758 39.6678 186.65 38.832H187.996C188.151 39.7297 188.848 40.163 190.055 40.163C190.875 40.163 191.463 39.9618 191.834 39.5439C192.206 39.1416 192.392 38.4761 192.423 37.5475L192.438 36.5725C191.927 37.5475 191.076 38.0273 189.884 38.0273C188.817 38.0273 187.965 37.6713 187.331 36.9285C186.696 36.2011 186.371 35.2106 186.371 33.9725C186.371 32.8118 186.696 31.8213 187.315 30.9856C187.95 30.1499 188.832 29.732 189.962 29.732C190.519 29.732 191.014 29.8558 191.448 30.088C191.881 30.3356 192.237 30.6761 192.484 31.1094V29.9487H193.692ZM190.024 30.8927C189.312 30.8927 188.739 31.1558 188.337 31.713C187.934 32.2701 187.733 33.0285 187.733 34.0035C187.733 34.8701 187.934 35.582 188.368 36.1082C188.786 36.6344 189.343 36.913 190.055 36.913C190.782 36.913 191.355 36.6344 191.773 36.0773C192.19 35.5201 192.407 34.7463 192.407 33.7868C192.407 32.8737 192.19 32.1618 191.773 31.6511C191.355 31.1404 190.767 30.8927 190.024 30.8927ZM204.626 26.8844H205.942V37.9344H204.626V26.8844ZM200.509 31.0939H199.163V29.9332H200.509V28.7416C200.509 28.0916 200.695 27.6118 201.067 27.2713C201.438 26.9308 201.995 26.7606 202.723 26.7606C202.846 26.7606 202.986 26.7761 203.14 26.7916C203.295 26.8225 203.45 26.8535 203.574 26.8844V28.0297C203.45 27.9987 203.326 27.9677 203.202 27.9523C203.063 27.9368 202.939 27.9213 202.831 27.9213C202.506 27.9213 202.258 27.9832 202.088 28.107C201.902 28.2308 201.825 28.4785 201.825 28.8189V29.9332H203.373V31.0939H201.825V37.9344H200.509V31.0939ZM211.476 29.7166C212.683 29.7166 213.611 30.088 214.292 30.8308C214.958 31.5582 215.298 32.5797 215.298 33.8951C215.298 35.257 214.958 36.3094 214.292 37.0523C213.611 37.8106 212.667 38.182 211.46 38.182C210.237 38.182 209.278 37.8106 208.597 37.0678C207.901 36.3249 207.56 35.3035 207.56 33.9725C207.56 32.6725 207.901 31.6356 208.612 30.8618C209.309 30.1035 210.268 29.7166 211.476 29.7166ZM211.445 30.8308C210.671 30.8308 210.052 31.1094 209.603 31.6666C209.139 32.2392 208.922 32.9975 208.922 33.9416C208.922 34.932 209.139 35.6904 209.587 36.2475C210.036 36.8047 210.671 37.0678 211.476 37.0678C212.249 37.0678 212.853 36.7892 213.286 36.232C213.72 35.6749 213.952 34.9166 213.952 33.9261C213.952 32.982 213.72 32.2237 213.271 31.6666C212.822 31.1094 212.218 30.8308 211.445 30.8308ZM216.137 29.9487H217.592L219.418 36.5261L221.043 29.9487H222.482L224.169 36.5261L225.98 29.9487H227.342L224.788 37.9344H223.396L221.755 31.6201L220.13 37.9344H218.706L216.137 29.9487Z" fill="#D7D7D7"/>
<rect x="19.4299" y="64.4299" width="326.14" height="322.14" rx="13.3267" fill="#121212" fill-opacity="0.6"/>
<rect x="19.4299" y="64.4299" width="326.14" height="322.14" rx="13.3267" stroke="#242424" stroke-width="0.859789"/>
<rect x="40.4912" y="88.9339" width="268.254" height="13.7566" rx="6.87831" fill="url(#paint1_linear_4794_11064)" fill-opacity="0.12"/>
<rect x="40.4912" y="123.691" width="268.254" height="13.7566" rx="6.87831" fill="url(#paint2_linear_4794_11064)" fill-opacity="0.12"/>
<rect x="40.4912" y="158.447" width="268.254" height="13.7566" rx="6.87831" fill="url(#paint3_linear_4794_11064)" fill-opacity="0.12"/>
<rect x="40.4912" y="193.204" width="148.743" height="13.7566" rx="6.87831" fill="url(#paint4_linear_4794_11064)" fill-opacity="0.12"/>
<rect x="40.4912" y="239" width="91" height="127" rx="7.19339" fill="#292929"/>
<rect x="137.491" y="239" width="91" height="127" rx="7.19339" fill="#292929"/>
<rect x="232.491" y="239" width="91" height="127" rx="7.19339" fill="#292929"/>
</g>
<defs>
<filter id="filter0_i_4794_11064" x="-47.1502" y="-47.1502" width="460.3" height="500.3" filterUnits="userSpaceOnUse" color-interpolation-filters="sRGB">
<feFlood flood-opacity="0" result="BackgroundImageFix"/>
<feBlend mode="normal" in="SourceGraphic" in2="BackgroundImageFix" result="shape"/>
<feColorMatrix in="SourceAlpha" type="matrix" values="0 0 0 0 0 0 0 0 0 0 0 0 0 0 0 0 0 0 127 0" result="hardAlpha"/>
<feOffset dy="1.13286"/>
<feGaussianBlur stdDeviation="1.13286"/>
<feComposite in2="hardAlpha" operator="arithmetic" k2="-1" k3="1"/>
<feColorMatrix type="matrix" values="0 0 0 0 0.321569 0 0 0 0 0.317647 0 0 0 0 0.329412 0 0 0 1 0"/>
<feBlend mode="normal" in2="shape" result="effect1_innerShadow_4794_11064"/>
</filter>
<linearGradient id="paint0_linear_4794_11064" x1="183" y1="0" x2="183" y2="406" gradientUnits="userSpaceOnUse">
<stop stop-color="#1F1F1F"/>
<stop offset="0.69" stop-color="#111111"/>
</linearGradient>
<linearGradient id="paint1_linear_4794_11064" x1="174.618" y1="88.9339" x2="174.618" y2="102.691" gradientUnits="userSpaceOnUse">
<stop stop-color="white"/>
<stop offset="0.69" stop-color="#999999"/>
</linearGradient>
<linearGradient id="paint2_linear_4794_11064" x1="174.618" y1="123.691" x2="174.618" y2="137.447" gradientUnits="userSpaceOnUse">
<stop stop-color="white"/>
<stop offset="0.69" stop-color="#999999"/>
</linearGradient>
<linearGradient id="paint3_linear_4794_11064" x1="174.618" y1="158.447" x2="174.618" y2="172.204" gradientUnits="userSpaceOnUse">
<stop stop-color="white"/>
<stop offset="0.69" stop-color="#999999"/>
</linearGradient>
<linearGradient id="paint4_linear_4794_11064" x1="114.863" y1="193.204" x2="114.863" y2="206.96" gradientUnits="userSpaceOnUse">
<stop stop-color="white"/>
<stop offset="0.69" stop-color="#999999"/>
</linearGradient>
</defs>
</svg>
