<svg width="411" height="450" viewBox="0 0 411 450" fill="none" xmlns="http://www.w3.org/2000/svg">
<g filter="url(#filter0_ddi_4556_61757)">
<rect x="23.8652" width="363.509" height="402.009" rx="26.218" fill="url(#paint0_linear_4556_61757)" fill-opacity="0.7" shape-rendering="crispEdges"/>
<circle cx="47.1439" cy="35.4655" r="3.58137" fill="#1ADBBB"/>
<path d="M61.9985 31.6495V32.826C62.5948 31.8751 63.5295 31.3917 64.8027 31.3917C65.963 31.3917 66.8817 31.7946 67.5585 32.5681C68.2354 33.3578 68.59 34.4215 68.59 35.7591C68.59 37.1129 68.2515 38.1766 67.5747 38.9824C66.8978 39.7882 65.9953 40.175 64.8671 40.175C63.6745 40.175 62.7398 39.7237 62.079 38.8051V43.1726H60.7092V31.6495H61.9985ZM64.5932 32.5359C63.7874 32.5359 63.1588 32.826 62.7076 33.4062C62.2563 33.9864 62.0307 34.7761 62.0307 35.7753C62.0307 36.7906 62.2563 37.5803 62.7237 38.1604C63.1911 38.7406 63.8357 39.0307 64.6415 39.0307C65.4151 39.0307 66.0436 38.7406 66.4949 38.1604C66.9461 37.5803 67.1718 36.7906 67.1718 35.7914C67.1718 34.7761 66.93 33.9864 66.4788 33.4062C66.0275 32.826 65.399 32.5359 64.5932 32.5359ZM74.5977 31.4561L74.5815 32.8905C74.4848 32.8743 74.372 32.8743 74.227 32.8743C73.7918 32.8743 73.4051 32.9388 73.0827 33.0677C72.7604 33.1967 72.5187 33.3739 72.3253 33.5835C72.1319 33.8091 71.9868 34.0669 71.8579 34.3893C71.7451 34.7116 71.6645 35.0339 71.6323 35.3562C71.6 35.6786 71.5839 36.0492 71.5839 36.4521V39.9655H70.2141V31.6495H71.5195V33.4384C72.0674 32.1169 73.0827 31.4561 74.5977 31.4561ZM78.9882 31.4078C80.2452 31.4078 81.2122 31.7946 81.9213 32.5681C82.6143 33.3256 82.9689 34.3893 82.9689 35.7591C82.9689 37.1774 82.6143 38.2733 81.9213 39.0468C81.2122 39.8365 80.2291 40.2233 78.9721 40.2233C77.6989 40.2233 76.6997 39.8365 75.9906 39.063C75.2653 38.2894 74.9108 37.2257 74.9108 35.8397C74.9108 34.486 75.2653 33.4062 76.0067 32.6004C76.7319 31.8107 77.7311 31.4078 78.9882 31.4078ZM78.9559 32.5681C78.1501 32.5681 77.5055 32.8582 77.0381 33.4384C76.5546 34.0347 76.329 34.8244 76.329 35.8075C76.329 36.8389 76.5546 37.6286 77.022 38.2088C77.4894 38.789 78.1501 39.063 78.9882 39.063C79.794 39.063 80.4225 38.7729 80.8738 38.1927C81.325 37.6125 81.5668 36.8228 81.5668 35.7914C81.5668 34.8083 81.325 34.0186 80.8577 33.4384C80.3903 32.8582 79.7618 32.5681 78.9559 32.5681ZM88.1618 31.6495V32.7776H86.5018V37.6286C86.5018 37.9026 86.5018 38.0799 86.5018 38.1604C86.5018 38.2571 86.5341 38.37 86.5985 38.515C86.6469 38.6601 86.7436 38.7567 86.8725 38.789C87.0014 38.8373 87.1787 38.8534 87.4205 38.8534C87.6139 38.8534 87.8717 38.8373 88.1618 38.8051V39.9816C87.775 40.0299 87.4205 40.046 87.1143 40.046C86.7275 40.046 86.4051 40.0138 86.1473 39.9171C85.8894 39.8365 85.6799 39.7398 85.551 39.627C85.4221 39.5303 85.3254 39.3369 85.2609 39.063C85.1964 38.789 85.1481 38.5634 85.1481 38.37C85.132 38.1766 85.132 37.8704 85.132 37.4191V37.3546V37.2741V37.1935V32.7776H83.7299V31.6495H85.132V29.1837H86.5018V31.6495H88.1618ZM93.3259 31.4078C94.583 31.4078 95.5499 31.7946 96.259 32.5681C96.952 33.3256 97.3066 34.3893 97.3066 35.7591C97.3066 37.1774 96.952 38.2733 96.259 39.0468C95.5499 39.8365 94.5668 40.2233 93.3098 40.2233C92.0366 40.2233 91.0374 39.8365 90.3283 39.063C89.6031 38.2894 89.2485 37.2257 89.2485 35.8397C89.2485 34.486 89.6031 33.4062 90.3444 32.6004C91.0696 31.8107 92.0688 31.4078 93.3259 31.4078ZM93.2937 32.5681C92.4879 32.5681 91.8432 32.8582 91.3758 33.4384C90.8924 34.0347 90.6667 34.8244 90.6667 35.8075C90.6667 36.8389 90.8924 37.6286 91.3597 38.2088C91.8271 38.789 92.4879 39.063 93.3259 39.063C94.1317 39.063 94.7602 38.7729 95.2115 38.1927C95.6627 37.6125 95.9045 36.8228 95.9045 35.7914C95.9045 34.8083 95.6627 34.0186 95.1954 33.4384C94.728 32.8582 94.0995 32.5681 93.2937 32.5681ZM102.5 31.6495V32.7776H100.84V37.6286C100.84 37.9026 100.84 38.0799 100.84 38.1604C100.84 38.2571 100.872 38.37 100.936 38.515C100.985 38.6601 101.081 38.7567 101.21 38.789C101.339 38.8373 101.516 38.8534 101.758 38.8534C101.952 38.8534 102.209 38.8373 102.5 38.8051V39.9816C102.113 40.0299 101.758 40.046 101.452 40.046C101.065 40.046 100.743 40.0138 100.485 39.9171C100.227 39.8365 100.018 39.7398 99.8887 39.627C99.7598 39.5303 99.6631 39.3369 99.5986 39.063C99.5342 38.789 99.4858 38.5634 99.4858 38.37C99.4697 38.1766 99.4697 37.8704 99.4697 37.4191V37.3546V37.2741V37.1935V32.7776H98.0676V31.6495H99.4697V29.1837H100.84V31.6495H102.5ZM110.903 31.6495L107.341 41.0291C107.196 41.4159 107.067 41.706 106.971 41.9155C106.874 42.125 106.729 42.3507 106.535 42.6085C106.342 42.8664 106.116 43.0436 105.859 43.1565C105.601 43.2693 105.295 43.3176 104.94 43.3176C104.666 43.3176 104.328 43.2693 103.925 43.1726V41.9477C104.311 42.0767 104.618 42.125 104.811 42.125C105.262 42.125 105.585 41.8994 105.778 41.432L106.423 39.9171L103.119 31.6495H104.666L107.132 38.2733L109.469 31.6495H110.903ZM113.369 31.6495V32.826C113.965 31.8751 114.9 31.3917 116.173 31.3917C117.333 31.3917 118.252 31.7946 118.929 32.5681C119.606 33.3578 119.96 34.4215 119.96 35.7591C119.96 37.1129 119.622 38.1766 118.945 38.9824C118.268 39.7882 117.366 40.175 116.237 40.175C115.045 40.175 114.11 39.7237 113.449 38.8051V43.1726H112.079V31.6495H113.369ZM115.963 32.5359C115.158 32.5359 114.529 32.826 114.078 33.4062C113.627 33.9864 113.401 34.7761 113.401 35.7753C113.401 36.7906 113.627 37.5803 114.094 38.1604C114.561 38.7406 115.206 39.0307 116.012 39.0307C116.785 39.0307 117.414 38.7406 117.865 38.1604C118.316 37.5803 118.542 36.7906 118.542 35.7914C118.542 34.7761 118.3 33.9864 117.849 33.4062C117.398 32.826 116.769 32.5359 115.963 32.5359ZM128.74 37.3385C128.321 39.2725 127.112 40.2394 125.114 40.2394C123.889 40.2394 122.922 39.8688 122.229 39.0952C121.536 38.3377 121.198 37.2741 121.198 35.9203C121.198 34.5827 121.552 33.5029 122.261 32.6648C122.97 31.8268 123.905 31.4078 125.065 31.4078C126.339 31.4078 127.289 31.8429 127.902 32.7132C128.514 33.5835 128.837 34.6632 128.837 35.9848V36.1782H122.584L122.567 36.2749C122.567 37.1612 122.793 37.8542 123.26 38.3538C123.712 38.8696 124.356 39.1113 125.162 39.1113C125.758 39.1113 126.226 38.9824 126.58 38.6923C126.935 38.4183 127.209 37.9671 127.402 37.3385H128.74ZM127.418 35.0661C127.354 34.2765 127.112 33.664 126.693 33.2128C126.274 32.7615 125.71 32.5359 125.033 32.5359C124.356 32.5359 123.808 32.7615 123.373 33.2128C122.922 33.664 122.664 34.2926 122.584 35.0661H127.418ZM139.222 34.8083V36.162H134.533V34.8083H139.222ZM149.166 31.4078C150.423 31.4078 151.39 31.7946 152.099 32.5681C152.792 33.3256 153.147 34.3893 153.147 35.7591C153.147 37.1774 152.792 38.2733 152.099 39.0468C151.39 39.8365 150.407 40.2233 149.15 40.2233C147.877 40.2233 146.877 39.8365 146.168 39.063C145.443 38.2894 145.089 37.2257 145.089 35.8397C145.089 34.486 145.443 33.4062 146.184 32.6004C146.91 31.8107 147.909 31.4078 149.166 31.4078ZM149.134 32.5681C148.328 32.5681 147.683 32.8582 147.216 33.4384C146.732 34.0347 146.507 34.8244 146.507 35.8075C146.507 36.8389 146.732 37.6286 147.2 38.2088C147.667 38.789 148.328 39.063 149.166 39.063C149.972 39.063 150.6 38.7729 151.051 38.1927C151.503 37.6125 151.744 36.8228 151.744 35.7914C151.744 34.8083 151.503 34.0186 151.035 33.4384C150.568 32.8582 149.939 32.5681 149.134 32.5681ZM156.067 31.6495V32.9388C156.744 31.9396 157.695 31.4239 158.904 31.4239C159.871 31.4239 160.58 31.6817 161.015 32.1975C161.45 32.7132 161.676 33.4545 161.676 34.4376V39.9655H160.306V35.0661C160.306 34.6632 160.29 34.3409 160.257 34.1153C160.225 33.8897 160.161 33.6318 160.064 33.3739C159.951 33.1161 159.774 32.9227 159.516 32.7938C159.258 32.681 158.92 32.6165 158.517 32.6165C156.937 32.6165 156.148 33.6157 156.148 35.6141V39.9655H154.778V31.6495H156.067ZM165.087 28.4907V32.7938C165.683 31.8913 166.602 31.4239 167.843 31.4239C168.971 31.4239 169.889 31.8268 170.566 32.6165C171.243 33.4062 171.598 34.4537 171.598 35.7753C171.598 37.129 171.243 38.1927 170.55 38.9985C169.841 39.8043 168.922 40.2072 167.762 40.2072C166.441 40.2072 165.522 39.7237 165.006 38.7567V39.9655H163.717V28.4907H165.087ZM167.633 32.5843C166.747 32.5843 166.086 32.9066 165.667 33.5351C165.248 34.1798 165.038 34.9533 165.038 35.872C165.038 36.855 165.264 37.6286 165.731 38.2088C166.199 38.789 166.827 39.063 167.633 39.063C168.391 39.063 169.003 38.7729 169.47 38.1766C169.938 37.5803 170.179 36.7906 170.179 35.7914C170.179 34.8244 169.938 34.0347 169.486 33.4545C169.019 32.8743 168.407 32.5843 167.633 32.5843ZM176.929 31.4078C178.186 31.4078 179.153 31.7946 179.862 32.5681C180.555 33.3256 180.909 34.3893 180.909 35.7591C180.909 37.1774 180.555 38.2733 179.862 39.0468C179.153 39.8365 178.169 40.2233 176.912 40.2233C175.639 40.2233 174.64 39.8365 173.931 39.063C173.206 38.2894 172.851 37.2257 172.851 35.8397C172.851 34.486 173.206 33.4062 173.947 32.6004C174.672 31.8107 175.671 31.4078 176.929 31.4078ZM176.896 32.5681C176.09 32.5681 175.446 32.8582 174.978 33.4384C174.495 34.0347 174.269 34.8244 174.269 35.8075C174.269 36.8389 174.495 37.6286 174.962 38.2088C175.43 38.789 176.09 39.063 176.929 39.063C177.734 39.063 178.363 38.7729 178.814 38.1927C179.265 37.6125 179.507 36.8228 179.507 35.7914C179.507 34.8083 179.265 34.0186 178.798 33.4384C178.331 32.8582 177.702 32.5681 176.896 32.5681ZM189.906 38.8696V39.9493C189.615 40.046 189.309 40.1105 188.971 40.1105C188.181 40.1105 187.778 39.6915 187.762 38.8857C186.972 39.7559 185.973 40.2072 184.748 40.2072C183.926 40.2072 183.282 39.9977 182.798 39.5787C182.315 39.1597 182.089 38.5795 182.089 37.8542C182.089 36.3716 183.072 35.5013 185.038 35.2595C185.167 35.2273 185.345 35.2112 185.603 35.1951C186.537 35.0823 187.101 34.9533 187.327 34.8244C187.569 34.6471 187.698 34.357 187.698 33.938C187.698 33.0194 187.069 32.5681 185.812 32.5681C185.167 32.5681 184.668 32.6971 184.345 32.9549C184.007 33.2128 183.814 33.6479 183.749 34.2603H182.412C182.428 33.3578 182.75 32.6648 183.362 32.1814C183.975 31.6817 184.813 31.44 185.893 31.44C187.053 31.44 187.923 31.6979 188.503 32.2458C188.681 32.407 188.81 32.6326 188.906 32.9227C188.987 33.1967 189.035 33.4223 189.051 33.5996C189.051 33.7769 189.068 34.0508 189.068 34.4054C189.068 34.8083 189.051 35.4207 189.035 36.2426C189.003 37.0807 189.003 37.6931 189.003 38.096C189.003 38.4022 189.035 38.6117 189.116 38.7406C189.196 38.8696 189.341 38.9179 189.567 38.9179C189.648 38.9179 189.761 38.9018 189.906 38.8696ZM187.698 35.6624C187.601 35.7269 187.488 35.7914 187.391 35.8558C187.279 35.9042 187.134 35.9525 186.972 35.9848C186.811 36.017 186.698 36.0331 186.634 36.0492C186.57 36.0653 186.441 36.0815 186.215 36.1137C185.989 36.1459 185.86 36.162 185.86 36.162C185.522 36.1943 185.296 36.2265 185.2 36.2426C185.103 36.2587 184.91 36.3071 184.619 36.3877C184.329 36.4521 184.136 36.5488 184.023 36.6455C183.894 36.7422 183.781 36.8712 183.669 37.0645C183.556 37.2579 183.507 37.4836 183.507 37.7414C183.507 38.1604 183.652 38.4989 183.943 38.7567C184.233 38.9985 184.652 39.1274 185.167 39.1274C185.812 39.1274 186.408 38.934 186.924 38.5472C187.44 38.1604 187.698 37.6931 187.698 37.1774V35.6624ZM195.532 31.4561L195.516 32.8905C195.419 32.8743 195.306 32.8743 195.161 32.8743C194.726 32.8743 194.339 32.9388 194.017 33.0677C193.695 33.1967 193.453 33.3739 193.259 33.5835C193.066 33.8091 192.921 34.0669 192.792 34.3893C192.679 34.7116 192.599 35.0339 192.566 35.3562C192.534 35.6786 192.518 36.0492 192.518 36.4521V39.9655H191.148V31.6495H192.454V33.4384C193.002 32.1169 194.017 31.4561 195.532 31.4561ZM203.774 28.4907V39.9655H202.485V38.7406C201.953 39.7076 201.034 40.1911 199.745 40.1911C198.553 40.1911 197.618 39.8043 196.925 39.0146C196.232 38.2249 195.893 37.1451 195.893 35.7914C195.893 34.5343 196.216 33.5029 196.86 32.6648C197.505 31.8268 198.456 31.4078 199.681 31.4078C200.873 31.4078 201.776 31.859 202.404 32.7615V28.4907H203.774ZM199.858 32.5843C199.068 32.5843 198.44 32.8743 197.988 33.4384C197.537 34.0186 197.312 34.7922 197.312 35.7591C197.312 36.7745 197.537 37.5803 198.005 38.1766C198.472 38.7729 199.1 39.063 199.89 39.063C200.68 39.063 201.308 38.789 201.76 38.2088C202.211 37.6286 202.436 36.8389 202.436 35.8075C202.436 34.905 202.211 34.1314 201.792 33.519C201.373 32.9066 200.728 32.5843 199.858 32.5843ZM207.284 28.4907V30.1668H205.898V28.4907H207.284ZM207.284 31.6495V39.9655H205.898V31.6495H207.284ZM210.695 31.6495V32.9388C211.372 31.9396 212.323 31.4239 213.532 31.4239C214.499 31.4239 215.208 31.6817 215.643 32.1975C216.078 32.7132 216.304 33.4545 216.304 34.4376V39.9655H214.934V35.0661C214.934 34.6632 214.918 34.3409 214.885 34.1153C214.853 33.8897 214.789 33.6318 214.692 33.3739C214.579 33.1161 214.402 32.9227 214.144 32.7938C213.886 32.681 213.548 32.6165 213.145 32.6165C211.566 32.6165 210.776 33.6157 210.776 35.6141V39.9655H209.406V31.6495H210.695ZM225.565 31.6495V39.0791C225.565 39.7882 225.517 40.3522 225.452 40.739C225.372 41.1258 225.227 41.4965 225.017 41.8349C224.405 42.8503 223.309 43.3499 221.729 43.3499C220.795 43.3499 220.005 43.1726 219.36 42.7858C218.716 42.399 218.345 41.7705 218.232 40.9002H219.634C219.796 41.8349 220.521 42.2862 221.778 42.2862C222.632 42.2862 223.244 42.0767 223.631 41.6415C224.018 41.2225 224.211 40.5295 224.244 39.5626L224.26 38.5472C223.728 39.5626 222.841 40.0622 221.601 40.0622C220.488 40.0622 219.602 39.6915 218.941 38.9179C218.281 38.1604 217.942 37.129 217.942 35.8397C217.942 34.631 218.281 33.5996 218.925 32.7293C219.586 31.859 220.505 31.4239 221.681 31.4239C222.261 31.4239 222.777 31.5528 223.228 31.7946C223.679 32.0524 224.05 32.407 224.308 32.8582V31.6495H225.565ZM221.746 32.6326C221.004 32.6326 220.408 32.9066 219.989 33.4868C219.57 34.0669 219.36 34.8566 219.36 35.872C219.36 36.7745 219.57 37.5158 220.021 38.0638C220.456 38.6117 221.036 38.9018 221.778 38.9018C222.535 38.9018 223.132 38.6117 223.567 38.0315C224.002 37.4513 224.227 36.6455 224.227 35.6463C224.227 34.6955 224.002 33.9541 223.567 33.4223C223.132 32.8905 222.519 32.6326 221.746 32.6326ZM236.952 28.4585H238.322V39.9655H236.952V28.4585ZM232.665 32.8421H231.263V31.6334H232.665V30.3925C232.665 29.7156 232.858 29.216 233.245 28.8614C233.632 28.5069 234.212 28.3296 234.97 28.3296C235.098 28.3296 235.243 28.3457 235.405 28.3618C235.566 28.3941 235.727 28.4263 235.856 28.4585V29.6511C235.727 29.6189 235.598 29.5866 235.469 29.5705C235.324 29.5544 235.195 29.5383 235.082 29.5383C234.744 29.5383 234.486 29.6028 234.309 29.7317C234.115 29.8606 234.035 30.1185 234.035 30.473V31.6334H235.646V32.8421H234.035V39.9655H232.665V32.8421ZM244.084 31.4078C245.342 31.4078 246.308 31.7946 247.018 32.5681C247.711 33.3256 248.065 34.3893 248.065 35.7591C248.065 37.1774 247.711 38.2733 247.018 39.0468C246.308 39.8365 245.325 40.2233 244.068 40.2233C242.795 40.2233 241.796 39.8365 241.087 39.063C240.362 38.2894 240.007 37.2257 240.007 35.8397C240.007 34.486 240.362 33.4062 241.103 32.6004C241.828 31.8107 242.827 31.4078 244.084 31.4078ZM244.052 32.5681C243.246 32.5681 242.602 32.8582 242.134 33.4384C241.651 34.0347 241.425 34.8244 241.425 35.8075C241.425 36.8389 241.651 37.6286 242.118 38.2088C242.586 38.789 243.246 39.063 244.084 39.063C244.89 39.063 245.519 38.7729 245.97 38.1927C246.421 37.6125 246.663 36.8228 246.663 35.7914C246.663 34.8083 246.421 34.0186 245.954 33.4384C245.487 32.8582 244.858 32.5681 244.052 32.5681ZM248.939 31.6495H250.454L252.356 38.4989L254.048 31.6495H255.547L257.303 38.4989L259.189 31.6495H260.607L257.948 39.9655H256.497L254.789 33.3901L253.097 39.9655H251.614L248.939 31.6495Z" fill="#D7D7D7"/>
<rect x="44.0102" y="67.5987" width="323.219" height="314.265" rx="13.8778" fill="#121212" fill-opacity="0.6"/>
<rect x="44.0102" y="67.5987" width="323.219" height="314.265" rx="13.8778" stroke="#242424" stroke-width="0.895343"/>
<rect x="65.9434" y="93.116" width="279.347" height="14.3255" rx="7.16274" fill="url(#paint1_linear_4556_61757)" fill-opacity="0.12"/>
<rect x="65.9434" y="122.662" width="279.347" height="14.3255" rx="7.16274" fill="url(#paint2_linear_4556_61757)" fill-opacity="0.12"/>
<rect x="65.9434" y="152.209" width="279.347" height="14.3255" rx="7.16274" fill="url(#paint3_linear_4556_61757)" fill-opacity="0.12"/>
<rect x="65.9434" y="181.755" width="154.894" height="14.3255" rx="7.16274" fill="url(#paint4_linear_4556_61757)" fill-opacity="0.12"/>
<rect x="65.9434" y="231.894" width="89.5342" height="89.5342" rx="7.49085" fill="#292929"/>
<rect x="160.852" y="231.894" width="89.5342" height="89.5342" rx="7.49085" fill="#292929"/>
<rect x="255.758" y="231.894" width="89.5342" height="89.5342" rx="7.49085" fill="#292929"/>
</g>
<defs>
<filter id="filter0_ddi_4556_61757" x="-25.2348" y="-49.1" width="461.71" height="500.209" filterUnits="userSpaceOnUse" color-interpolation-filters="sRGB">
<feFlood flood-opacity="0" result="BackgroundImageFix"/>
<feColorMatrix in="SourceAlpha" type="matrix" values="0 0 0 0 0 0 0 0 0 0 0 0 0 0 0 0 0 0 127 0" result="hardAlpha"/>
<feMorphology radius="5.89853" operator="erode" in="SourceAlpha" result="effect1_dropShadow_4556_61757"/>
<feOffset dy="11.7971"/>
<feGaussianBlur stdDeviation="5.89853"/>
<feComposite in2="hardAlpha" operator="out"/>
<feColorMatrix type="matrix" values="0 0 0 0 0 0 0 0 0 0 0 0 0 0 0 0 0 0 0.9 0"/>
<feBlend mode="normal" in2="BackgroundImageFix" result="effect1_dropShadow_4556_61757"/>
<feColorMatrix in="SourceAlpha" type="matrix" values="0 0 0 0 0 0 0 0 0 0 0 0 0 0 0 0 0 0 127 0" result="hardAlpha"/>
<feMorphology radius="5.89853" operator="erode" in="SourceAlpha" result="effect2_dropShadow_4556_61757"/>
<feOffset dy="23.5941"/>
<feGaussianBlur stdDeviation="14.7463"/>
<feComposite in2="hardAlpha" operator="out"/>
<feColorMatrix type="matrix" values="0 0 0 0 0 0 0 0 0 0 0 0 0 0 0 0 0 0 0.8 0"/>
<feBlend mode="normal" in2="effect1_dropShadow_4556_61757" result="effect2_dropShadow_4556_61757"/>
<feBlend mode="normal" in="SourceGraphic" in2="effect2_dropShadow_4556_61757" result="shape"/>
<feColorMatrix in="SourceAlpha" type="matrix" values="0 0 0 0 0 0 0 0 0 0 0 0 0 0 0 0 0 0 127 0" result="hardAlpha"/>
<feOffset dy="1.17971"/>
<feGaussianBlur stdDeviation="1.17971"/>
<feComposite in2="hardAlpha" operator="arithmetic" k2="-1" k3="1"/>
<feColorMatrix type="matrix" values="0 0 0 0 0.321569 0 0 0 0 0.317647 0 0 0 0 0.329412 0 0 0 1 0"/>
<feBlend mode="normal" in2="shape" result="effect3_innerShadow_4556_61757"/>
</filter>
<linearGradient id="paint0_linear_4556_61757" x1="205.62" y1="0" x2="205.62" y2="402.009" gradientUnits="userSpaceOnUse">
<stop stop-color="#1F1F1F"/>
<stop offset="0.69" stop-color="#111111"/>
</linearGradient>
<linearGradient id="paint1_linear_4556_61757" x1="205.617" y1="93.116" x2="205.617" y2="107.441" gradientUnits="userSpaceOnUse">
<stop stop-color="white"/>
<stop offset="0.69" stop-color="#999999"/>
</linearGradient>
<linearGradient id="paint2_linear_4556_61757" x1="205.617" y1="122.662" x2="205.617" y2="136.988" gradientUnits="userSpaceOnUse">
<stop stop-color="white"/>
<stop offset="0.69" stop-color="#999999"/>
</linearGradient>
<linearGradient id="paint3_linear_4556_61757" x1="205.617" y1="152.209" x2="205.617" y2="166.534" gradientUnits="userSpaceOnUse">
<stop stop-color="white"/>
<stop offset="0.69" stop-color="#999999"/>
</linearGradient>
<linearGradient id="paint4_linear_4556_61757" x1="143.39" y1="181.755" x2="143.39" y2="196.08" gradientUnits="userSpaceOnUse">
<stop stop-color="white"/>
<stop offset="0.69" stop-color="#999999"/>
</linearGradient>
</defs>
</svg>
