<svg width="319" height="365" viewBox="0 0 319 365" fill="none" xmlns="http://www.w3.org/2000/svg">
<g opacity="0.02" clip-path="url(#clip0_5069_26246)">
<path d="M366.895 259.333C373.002 259.333 379.048 260.536 384.69 262.873C390.332 265.21 395.458 268.635 399.776 272.953C404.094 277.271 407.519 282.397 409.856 288.039C412.192 293.68 413.395 299.727 413.395 305.833V324.537C413.398 335.708 410.986 346.748 406.323 356.9C401.661 367.052 394.859 376.076 386.384 383.354C354.02 411.13 307.727 424.667 248 424.667C188.273 424.667 142.021 411.109 109.719 383.333C101.255 376.06 94.4621 367.045 89.8038 356.905C85.1455 346.764 82.732 335.737 82.7285 324.578V305.813C82.734 293.484 87.6355 281.662 96.3554 272.946C105.075 264.23 116.9 259.333 129.229 259.333H366.895ZM366.895 290.333H129.229C125.118 290.333 121.175 291.966 118.268 294.873C115.362 297.78 113.729 301.722 113.729 305.833V324.599C113.729 338.135 119.639 351.011 129.931 359.856C155.93 382.197 195.093 393.708 248 393.708C300.907 393.708 340.132 382.197 366.192 359.815C371.273 355.451 375.351 350.042 378.147 343.957C380.944 337.872 382.393 331.254 382.395 324.557V305.833C382.395 301.722 380.762 297.78 377.855 294.873C374.949 291.966 371.006 290.333 366.895 290.333ZM245.892 11.4986L248 11.3333C251.745 11.3335 255.364 12.6899 258.187 15.1518C261.01 17.6137 262.846 21.0145 263.355 24.7253L263.5 26.8333V42.3333H335.833C348.166 42.3333 359.993 47.2324 368.714 55.9529C377.434 64.6733 382.333 76.5008 382.333 88.8333V181.937C382.333 194.269 377.434 206.097 368.714 214.817C359.993 223.538 348.166 228.437 335.833 228.437H160.167C147.834 228.437 136.006 223.538 127.286 214.817C118.566 206.097 113.667 194.269 113.667 181.937V88.8333C113.667 76.5008 118.566 64.6733 127.286 55.9529C136.006 47.2324 147.834 42.3333 160.167 42.3333H232.5V26.854C232.5 23.1084 233.856 19.4896 236.318 16.6667C238.78 13.8439 242.181 12.008 245.892 11.4986ZM335.833 73.3333H160.167C156.056 73.3333 152.113 74.9663 149.206 77.8732C146.3 80.78 144.667 84.7225 144.667 88.8333V181.937C144.667 190.493 151.611 197.437 160.167 197.437H335.833C339.944 197.437 343.887 195.804 346.793 192.897C349.7 189.99 351.333 186.048 351.333 181.937V88.8333C351.333 84.7225 349.7 80.78 346.793 77.8732C343.887 74.9663 339.944 73.3333 335.833 73.3333ZM201.5 104.333C208.351 104.333 214.922 107.055 219.767 111.9C224.611 116.744 227.333 123.315 227.333 130.167C227.333 137.018 224.611 143.589 219.767 148.434C214.922 153.278 208.351 156 201.5 156C194.648 156 188.078 153.278 183.233 148.434C178.388 143.589 175.667 137.018 175.667 130.167C175.667 123.315 178.388 116.744 183.233 111.9C188.078 107.055 194.648 104.333 201.5 104.333ZM294.335 104.333C297.787 104.236 301.224 104.831 304.443 106.085C307.661 107.339 310.595 109.225 313.072 111.633C315.549 114.04 317.517 116.92 318.862 120.102C320.206 123.283 320.898 126.702 320.898 130.156C320.898 133.61 320.206 137.029 318.862 140.211C317.517 143.392 315.549 146.272 313.072 148.68C310.595 151.087 307.661 152.974 304.443 154.228C301.224 155.481 297.787 156.077 294.335 155.979C287.612 155.789 281.229 152.985 276.542 148.163C271.854 143.341 269.232 136.881 269.232 130.156C269.232 123.431 271.854 116.972 276.542 112.15C281.229 107.328 287.612 104.524 294.335 104.333Z" fill="white"/>
</g>
<defs>
<clipPath id="clip0_5069_26246">
<rect width="319" height="365" fill="white"/>
</clipPath>
</defs>
</svg>
