<svg width="313" height="365" viewBox="0 0 313 365" fill="none" xmlns="http://www.w3.org/2000/svg">
<g opacity="0.02" clip-path="url(#clip0_5069_26240)">
<path d="M313.958 18.1667C325.35 18.167 336.341 22.3658 344.832 29.9604C353.323 37.5549 358.717 48.0123 359.982 59.3334H386.082C395.118 59.3389 403.823 62.7406 410.468 68.8638C417.114 74.987 421.215 83.3844 421.959 92.3902L422.082 95.3542V157.104C422.083 174.191 415.546 190.631 403.811 203.051C392.076 215.471 376.033 222.93 358.974 223.897L354.651 224.021C347.791 245.407 334.996 264.404 317.755 278.798C300.515 293.193 279.539 302.392 257.271 305.325V337.208H293.354C310.437 337.212 326.872 343.752 339.288 355.487C351.703 367.221 359.159 383.261 360.126 400.317L360.25 404.104V414.396C360.249 418.129 358.895 421.736 356.439 424.548C353.983 427.36 350.591 429.186 346.891 429.689L344.812 429.833H138.938C135.204 429.838 131.595 428.489 128.779 426.037C125.963 423.585 124.132 420.195 123.624 416.495L123.5 414.396V404.104C123.499 387.021 130.034 370.584 141.764 358.164C153.495 345.745 169.532 338.284 186.588 337.311L190.396 337.208H226.417V305.325C204.157 302.385 183.19 293.182 165.957 278.788C148.725 264.394 135.935 245.401 129.078 224.021L128.543 224C110.801 224 93.7862 216.952 81.2408 204.407C68.6954 191.861 61.6475 174.846 61.6475 157.104V95.3542C61.6475 75.4707 77.7848 59.3334 97.6683 59.3334H123.768C125.034 48.0088 130.431 37.5485 138.926 29.9535C147.421 22.3585 158.418 18.162 169.813 18.1667H313.958ZM293.375 368.083H190.396C182.264 368.079 174.37 370.827 167.998 375.88C161.626 380.933 157.151 387.993 155.302 395.912L154.725 398.958H329.025C327.864 390.923 324.022 383.515 318.122 377.937C312.223 372.359 304.612 368.937 296.524 368.227L293.375 368.083ZM313.958 49.0417H169.813C165.719 49.0417 161.792 50.6681 158.897 53.5632C156.002 56.4583 154.375 60.3849 154.375 64.4792V187.938C154.728 210.915 164.103 232.831 180.476 248.955C196.849 265.079 218.906 274.116 241.885 274.116C264.865 274.116 286.922 265.079 303.295 248.955C319.668 232.831 329.043 210.915 329.395 187.938V64.4792C329.395 60.3849 327.769 56.4583 324.874 53.5632C321.979 50.6681 318.052 49.0417 313.958 49.0417ZM386.082 90.2084H360.27V192.775C368.321 191.631 375.748 187.796 381.342 181.895C386.937 175.994 390.37 168.374 391.084 160.274L391.228 157.104V95.3542C391.226 94.1949 390.833 93.0702 390.111 92.1623C389.39 91.2545 388.384 90.6168 387.255 90.3524L386.082 90.2084ZM123.5 90.2084H97.6683C96.3035 90.2084 94.9947 90.7505 94.0296 91.7155C93.0646 92.6806 92.5225 93.9894 92.5225 95.3542V157.104C92.5213 165.785 95.6548 174.174 101.347 180.728C107.038 187.282 114.905 191.56 123.5 192.775V90.2084Z" fill="white"/>
</g>
<defs>
<clipPath id="clip0_5069_26240">
<rect width="313" height="365" fill="white"/>
</clipPath>
</defs>
</svg>
