<svg width="18" height="18" viewBox="0 0 18 18" fill="none" xmlns="http://www.w3.org/2000/svg">
<path d="M5.10981 2.22266V3.88932M12.8876 2.22266V3.88932M2.33203 13.8893V5.55599C2.33203 5.11396 2.50763 4.69004 2.82019 4.37748C3.13275 4.06492 3.55667 3.88932 3.9987 3.88932H13.9987C14.4407 3.88932 14.8646 4.06492 15.1772 4.37748C15.4898 4.69004 15.6654 5.11396 15.6654 5.55599V13.8893M2.33203 13.8893C2.33203 14.3313 2.50763 14.7553 2.82019 15.0678C3.13275 15.3804 3.55667 15.556 3.9987 15.556H13.9987C14.4407 15.556 14.8646 15.3804 15.1772 15.0678C15.4898 14.7553 15.6654 14.3313 15.6654 13.8893M2.33203 13.8893V8.33377C2.33203 7.89174 2.50763 7.46782 2.82019 7.15526C3.13275 6.8427 3.55667 6.6671 3.9987 6.6671H13.9987C14.4407 6.6671 14.8646 6.8427 15.1772 7.15526C15.4898 7.46782 15.6654 7.89174 15.6654 8.33377V13.8893M8.9987 9.44488H9.00462V9.4508H8.9987V9.44488ZM8.9987 11.1115H9.00462V11.1175H8.9987V11.1115ZM8.9987 12.7782H9.00462V12.7841H8.9987V12.7782ZM7.33203 11.1115H7.33796V11.1175H7.33203V11.1115ZM7.33203 12.7782H7.33796V12.7841H7.33203V12.7782ZM5.66536 11.1115H5.67129V11.1175H5.66536V11.1115ZM5.66536 12.7782H5.67129V12.7841H5.66536V12.7782ZM10.6654 9.44488H10.6713V9.4508H10.6654V9.44488ZM10.6654 11.1115H10.6713V11.1175H10.6654V11.1115ZM10.6654 12.7782H10.6713V12.7841H10.6654V12.7782ZM12.332 9.44488H12.338V9.4508H12.332V9.44488ZM12.332 11.1115H12.338V11.1175H12.332V11.1115Z" stroke="white" stroke-width="1.54147" stroke-linecap="round" stroke-linejoin="round"/>
</svg>
