<svg width="295" height="365" viewBox="0 0 295 365" fill="none" xmlns="http://www.w3.org/2000/svg">
<g opacity="0.02" clip-path="url(#clip0_5069_26238)">
<path d="M128.69 -6.12517C131.629 -4.7121 134.109 -2.49776 135.844 0.262894C137.58 3.02355 138.501 6.21825 138.5 9.47917C138.5 28.6383 145.702 39.6722 154.728 53.1067L155.397 54.0762C163.061 65.4793 173.125 80.4142 173.125 101.812C173.125 123.649 162.115 142.901 145.333 154.327C149.742 158.02 153.643 162.568 157.013 168.015C168.001 185.79 173.125 212.959 173.125 251.97C173.125 291.488 167.816 338.948 159.16 376.85C154.866 395.686 149.534 413.068 143.186 426.11C140.024 432.597 136.169 438.921 131.414 443.884C126.659 448.755 119.341 453.949 109.646 453.949C99.9512 453.949 92.6338 448.755 87.9017 443.884C83.0821 438.604 79.1107 432.608 76.1292 426.11C69.7582 413.045 64.4259 395.686 60.1324 376.827C51.1287 335.802 46.448 293.947 46.167 251.946C46.167 212.936 51.2915 185.79 62.2792 168.015C65.4138 162.856 69.3575 158.234 73.9593 154.327C65.3902 148.509 58.3766 140.681 53.5318 131.526C48.687 122.372 46.1583 112.17 46.167 101.812C46.167 93.3178 46.167 78.7061 55.0079 59.847C63.6642 41.3803 80.1226 20.1668 110.362 -4.04766C112.91 -6.08629 115.983 -7.36301 119.226 -7.73059C122.469 -8.09817 125.75 -7.54164 128.69 -6.12517ZM80.792 101.789C80.792 109.442 83.832 116.804 89.2432 122.215C94.6544 127.627 101.994 130.667 109.646 130.667C117.299 130.667 124.638 127.627 130.049 122.215C135.46 116.804 138.5 109.465 138.5 101.812C138.5 91.6789 134.23 84.6616 125.989 72.4043L125.712 71.9888C120.426 64.1405 114.171 54.8379 109.739 42.9038C97.2043 55.6458 90.2793 66.218 86.3782 74.528C80.792 86.439 80.792 94.9337 80.792 101.789ZM91.7335 186.205C86.0088 195.485 80.792 214.505 80.792 251.97C80.792 288.926 85.8242 333.8 93.8803 369.141C97.9429 386.915 102.56 401.342 107.246 410.944C108.1 412.722 108.908 414.199 109.646 415.446C110.385 414.199 111.193 412.722 112.047 410.944C116.733 401.342 121.349 386.892 125.412 369.141C133.491 333.823 138.5 288.949 138.5 251.97C138.5 214.505 133.284 195.485 127.559 186.205C125.832 183.081 123.223 180.536 120.057 178.888C116.779 177.46 113.219 176.797 109.646 176.949C105.03 176.949 101.729 177.664 99.2356 178.888C96.0696 180.536 93.46 183.081 91.7335 186.205ZM230.834 290.334C218.604 288.283 206.709 284.587 195.47 279.346C196.146 266.254 196.338 253.142 196.047 240.035C206.458 247.03 218.207 252.177 230.834 255.04V188.375C230.834 179.192 234.482 170.385 240.975 163.891C247.469 157.398 256.276 153.75 265.459 153.75H357.792C357.791 134.376 352.372 115.388 342.146 98.9325C331.921 82.4766 317.298 69.2083 299.928 60.6267C282.558 52.0451 263.135 48.4922 243.852 50.3695C224.569 52.2468 206.195 59.4794 190.807 71.2502C186.191 58.4851 179.612 48.7208 175.041 41.9343L174.118 40.5493C194.857 25.9294 219.215 17.288 244.531 15.5683C269.847 13.8486 295.149 19.1168 317.675 30.7978C340.201 42.4788 359.085 60.1236 372.265 81.8062C385.446 103.489 392.417 128.376 392.417 153.75H473.209C482.392 153.75 491.199 157.398 497.692 163.891C504.186 170.385 507.834 179.192 507.834 188.375V396.125C507.834 405.308 504.186 414.115 497.692 420.609C491.199 427.102 482.392 430.75 473.209 430.75H265.459C256.276 430.75 247.469 427.102 240.975 420.609C234.482 414.115 230.834 405.308 230.834 396.125V290.334ZM265.459 291.788V396.125H473.209V188.375H388.031C380.839 216.191 365.181 241.084 343.222 259.611C321.262 278.138 294.088 289.382 265.459 291.788ZM351.883 188.375H265.459V257.002C284.853 254.827 303.244 247.238 318.528 235.102C333.811 222.965 345.37 206.772 351.883 188.375Z" fill="white"/>
</g>
<defs>
<clipPath id="clip0_5069_26238">
<rect width="295" height="365" fill="white"/>
</clipPath>
</defs>
</svg>
