<svg width="48" height="48" viewBox="0 0 48 48" fill="none" xmlns="http://www.w3.org/2000/svg">
<path d="M11.15 4.148C11.4046 4.27043 11.6195 4.46229 11.7699 4.70148C11.9203 4.94067 12 5.21747 12 5.5C12 7.16 12.624 8.116 13.406 9.28L13.464 9.364C14.128 10.352 15 11.646 15 13.5C15 15.392 14.046 17.06 12.592 18.05C12.974 18.37 13.312 18.764 13.604 19.236C14.556 20.776 15 23.13 15 26.51C15 29.934 14.54 34.046 13.79 37.33C13.418 38.962 12.956 40.468 12.406 41.598C12.132 42.16 11.798 42.708 11.386 43.138C10.974 43.56 10.34 44.01 9.5 44.01C8.66 44.01 8.026 43.56 7.616 43.138C7.19842 42.6805 6.85433 42.161 6.596 41.598C6.044 40.466 5.582 38.962 5.21 37.328C4.42989 33.7735 4.02435 30.147 4 26.508C4 23.128 4.444 20.776 5.396 19.236C5.6676 18.789 6.00929 18.3885 6.408 18.05C5.66555 17.5459 5.05788 16.8677 4.63811 16.0745C4.21834 15.2813 3.99925 14.3974 4 13.5C4 12.764 4 11.498 4.766 9.864C5.516 8.264 6.942 6.426 9.562 4.328C9.78282 4.15137 10.0491 4.04075 10.33 4.0089C10.611 3.97706 10.8953 4.02528 11.15 4.148ZM7 13.498C7 14.161 7.26339 14.7989 7.73223 15.2678C8.20108 15.7366 8.83696 16 9.5 16C10.163 16 10.7989 15.7366 11.2678 15.2678C11.7366 14.7989 12 14.163 12 13.5C12 12.622 11.63 12.014 10.916 10.952L10.892 10.916C10.434 10.236 9.892 9.43 9.508 8.396C8.422 9.5 7.822 10.416 7.484 11.136C7 12.168 7 12.904 7 13.498ZM7.948 20.812C7.452 21.616 7 23.264 7 26.51C7 29.712 7.436 33.6 8.134 36.662C8.486 38.202 8.886 39.452 9.292 40.284C9.366 40.438 9.436 40.566 9.5 40.674C9.564 40.566 9.634 40.438 9.708 40.284C10.114 39.452 10.514 38.2 10.866 36.662C11.566 33.602 12 29.714 12 26.51C12 23.264 11.548 21.616 11.052 20.812C10.9024 20.5413 10.6763 20.3208 10.402 20.178C10.118 20.0543 9.80952 19.9969 9.5 20.01C9.1 20.01 8.814 20.072 8.598 20.178C8.32369 20.3208 8.09759 20.5413 7.948 20.812ZM20 29.834C18.9404 29.6563 17.9097 29.336 16.936 28.882C16.9945 27.7477 17.0112 26.6116 16.986 25.476C17.888 26.082 18.906 26.528 20 26.776V21C20 20.2044 20.3161 19.4413 20.8787 18.8787C21.4413 18.3161 22.2044 18 23 18H31C30.9999 16.3214 30.5304 14.6763 29.6444 13.2505C28.7585 11.8247 27.4915 10.6751 25.9865 9.93156C24.4815 9.18803 22.7986 8.8802 21.1279 9.04285C19.4572 9.2055 17.8653 9.83215 16.532 10.852C16.132 9.746 15.562 8.9 15.166 8.312L15.086 8.192C16.8829 6.92529 18.9933 6.17658 21.1867 6.02758C23.3802 5.87858 25.5724 6.33503 27.5241 7.34711C29.4758 8.35918 31.112 9.88797 32.254 11.7666C33.396 13.6452 34 15.8015 34 18H41C41.7957 18 42.5587 18.3161 43.1213 18.8787C43.6839 19.4413 44 20.2044 44 21V39C44 39.7957 43.6839 40.5587 43.1213 41.1213C42.5587 41.6839 41.7957 42 41 42H23C22.2044 42 21.4413 41.6839 20.8787 41.1213C20.3161 40.5587 20 39.7957 20 39V29.834ZM23 29.96V39H41V21H33.62C32.9969 23.41 31.6402 25.5669 29.7376 27.1721C27.835 28.7773 25.4805 29.7515 23 29.96ZM30.488 21H23V26.946C24.6804 26.7576 26.2738 26.1 27.598 25.0485C28.9222 23.997 29.9238 22.594 30.488 21Z" fill="white"/>
</svg>
