<svg width="294" height="365" viewBox="0 0 294 365" fill="none" xmlns="http://www.w3.org/2000/svg">
<g opacity="0.02" clip-path="url(#clip0_5069_26244)">
<path d="M359.053 10.2408L420.779 71.9664C424.835 76.0232 428.053 80.8393 430.249 86.1397C432.445 91.4402 433.575 97.1212 433.575 102.858C433.575 108.596 432.445 114.277 430.249 119.577C428.053 124.877 424.835 129.693 420.779 133.75L370.606 183.923C380.942 185.489 390.374 190.709 397.189 198.636C404.005 206.563 407.752 216.671 407.75 227.125V329.063C407.75 340.649 403.147 351.761 394.954 359.954C386.761 368.147 375.649 372.75 364.062 372.75H101.937C90.3509 372.75 79.2388 368.147 71.0458 359.954C62.8528 351.761 58.25 340.649 58.25 329.063V66.9375C58.25 55.3509 62.8528 44.2388 71.0458 36.0458C79.2388 27.8528 90.3509 23.25 101.937 23.25H203.875C214.335 23.2496 224.448 27.0021 232.375 33.8253C240.303 40.6486 245.52 50.0897 247.077 60.4329L297.269 10.2408C301.326 6.18403 306.142 2.96598 311.442 0.770447C316.743 -1.42509 322.424 -2.55511 328.161 -2.55511C333.898 -2.55511 339.579 -1.42509 344.88 0.770447C350.18 2.96598 354.996 6.18403 359.053 10.2408ZM87.375 329.063C87.375 337.101 93.899 343.625 101.937 343.625L218.418 343.606L218.437 212.543H87.375V329.063ZM247.543 343.606H364.062C367.925 343.606 371.629 342.071 374.36 339.34C377.091 336.609 378.625 332.905 378.625 329.043V227.125C378.625 223.263 377.091 219.559 374.36 216.828C371.629 214.097 367.925 212.563 364.062 212.563H247.543V343.606ZM203.875 52.3556H101.937C98.0753 52.3556 94.3713 53.8899 91.6403 56.6209C88.9093 59.3519 87.375 63.0559 87.375 66.9181V183.418H218.437V66.9181C218.437 63.0559 216.903 59.3519 214.172 56.6209C211.441 53.8899 207.737 52.3556 203.875 52.3556ZM247.562 145.75V183.418H285.231L247.562 145.75ZM317.851 30.8419L256.145 92.5481C254.791 93.9005 253.718 95.5062 252.986 97.2737C252.253 99.0411 251.876 100.935 251.876 102.849C251.876 104.762 252.253 106.656 252.986 108.424C253.718 110.191 254.791 111.797 256.145 113.149L317.87 174.875C320.601 177.602 324.302 179.134 328.161 179.134C332.02 179.134 335.721 177.602 338.452 174.875L400.197 113.149C402.924 110.419 404.456 106.717 404.456 102.858C404.456 98.9993 402.924 95.298 400.197 92.5675L338.452 30.8225C335.721 28.0954 332.02 26.5637 328.161 26.5637C324.302 26.5637 320.601 28.0954 317.87 30.8225L317.851 30.8419Z" fill="white"/>
</g>
<defs>
<clipPath id="clip0_5069_26244">
<rect width="294" height="365" fill="white"/>
</clipPath>
</defs>
</svg>
