<svg width="48" height="48" viewBox="0 0 48 48" fill="none" xmlns="http://www.w3.org/2000/svg">
<path d="M36.984 4.66L43.342 11.018C43.7599 11.4359 44.0913 11.9319 44.3175 12.4779C44.5436 13.0239 44.66 13.6091 44.66 14.2C44.66 14.791 44.5436 15.3761 44.3175 15.9221C44.0913 16.4681 43.7599 16.9641 43.342 17.382L38.174 22.55C39.2387 22.7113 40.2102 23.249 40.9122 24.0655C41.6142 24.882 42.0002 25.9232 42 27V37.5C42 38.6935 41.5259 39.8381 40.682 40.682C39.8381 41.5259 38.6935 42 37.5 42H10.5C9.30653 42 8.16193 41.5259 7.31802 40.682C6.47411 39.8381 6 38.6935 6 37.5V10.5C6 9.30653 6.47411 8.16194 7.31802 7.31802C8.16193 6.47411 9.30653 6 10.5 6H21C22.0774 5.99997 23.1191 6.38648 23.9357 7.08931C24.7523 7.79213 25.2896 8.76461 25.45 9.83L30.62 4.66C31.0379 4.24213 31.5339 3.91066 32.0799 3.68451C32.6259 3.45836 33.211 3.34196 33.802 3.34196C34.393 3.34196 34.9781 3.45836 35.5241 3.68451C36.0701 3.91066 36.5661 4.24213 36.984 4.66ZM9 37.5C9 38.328 9.672 39 10.5 39L22.498 38.998L22.5 25.498H9V37.5ZM25.498 38.998H37.5C37.8978 38.998 38.2794 38.84 38.5607 38.5587C38.842 38.2774 39 37.8958 39 37.498V27C39 26.6022 38.842 26.2206 38.5607 25.9393C38.2794 25.658 37.8978 25.5 37.5 25.5H25.498V38.998ZM21 8.998H10.5C10.1022 8.998 9.72064 9.15604 9.43934 9.43734C9.15804 9.71865 9 10.1002 9 10.498V22.498H22.5V10.498C22.5 10.1002 22.342 9.71865 22.0607 9.43734C21.7794 9.15604 21.3978 8.998 21 8.998ZM25.5 18.618V22.498H29.38L25.5 18.618ZM32.74 6.782L26.384 13.138C26.2446 13.2773 26.134 13.4427 26.0586 13.6248C25.9832 13.8068 25.9443 14.0019 25.9443 14.199C25.9443 14.3961 25.9832 14.5912 26.0586 14.7733C26.134 14.9553 26.2446 15.1207 26.384 15.26L32.742 21.618C33.0233 21.8989 33.4045 22.0567 33.802 22.0567C34.1995 22.0567 34.5807 21.8989 34.862 21.618L41.222 15.26C41.5029 14.9788 41.6607 14.5975 41.6607 14.2C41.6607 13.8025 41.5029 13.4213 41.222 13.14L34.862 6.78C34.5807 6.4991 34.1995 6.34132 33.802 6.34132C33.4045 6.34132 33.0233 6.4991 32.742 6.78L32.74 6.782Z" fill="white"/>
</svg>
