<svg width="82" height="81" viewBox="0 0 82 81" fill="none" xmlns="http://www.w3.org/2000/svg">
<path d="M2.01562 40.5C2.01562 18.8315 19.5815 1.26562 41.25 1.26562C62.9185 1.26562 80.4844 18.8315 80.4844 40.5C80.4844 62.1685 62.9185 79.7344 41.25 79.7344C19.5815 79.7344 2.01562 62.1685 2.01562 40.5Z" stroke="#212121" stroke-width="2.53125"/>
<path d="M59.998 34.14V49.4062C59.9981 50.9628 59.4026 52.4603 58.3336 53.5917C57.2647 54.7231 55.8033 55.4025 54.2493 55.4906L53.9043 55.5H28.5918C27.0353 55.5001 25.5377 54.9046 24.4064 53.8356C23.275 52.7666 22.5955 51.3053 22.5074 49.7512L22.498 49.4062V34.14L40.5955 43.62C40.7969 43.7255 41.0208 43.7805 41.248 43.7805C41.4753 43.7805 41.6992 43.7255 41.9005 43.62L59.998 34.14ZM28.5918 25.5H53.9043C55.4147 25.4998 56.8715 26.0606 57.9919 27.0736C59.1123 28.0866 59.8165 29.4797 59.968 30.9825L41.248 40.7887L22.528 30.9825C22.6734 29.5393 23.3288 28.1953 24.3763 27.1921C25.4239 26.1889 26.7949 25.5922 28.243 25.5094L28.5918 25.5Z" fill="white"/>
</svg>
