<svg width="82" height="81" viewBox="0 0 82 81" fill="none" xmlns="http://www.w3.org/2000/svg">
<path d="M52.861 60.75H61.2465L61.25 45.9098C61.25 38.6244 59.683 33.0243 51.184 33.0243C47.9349 32.9035 44.8828 34.5827 43.2414 37.3941H43.1287V33.6972H35.0786V60.7491H43.4641V47.3667C43.4641 43.8377 44.1323 40.4199 48.4997 40.4199C52.8051 40.4199 52.861 44.4581 52.861 47.595V60.75Z" fill="white"/>
<path d="M20.75 25.1256C20.7505 27.8178 22.9295 29.9999 25.6171 29.9994C26.9076 29.9992 28.1453 29.4854 29.0577 28.571C29.9701 27.6567 30.4826 26.4167 30.4824 25.1238C30.4819 22.4316 28.3028 20.2495 25.6153 20.25C22.9278 20.2505 20.7495 22.4334 20.75 25.1256Z" fill="white"/>
<path d="M21.4156 60.75H29.8098V33.6972H21.4156V60.75Z" fill="white"/>
<path d="M1.76562 40.5C1.76562 18.8315 19.3315 1.26563 41 1.26563C62.6685 1.26563 80.2344 18.8315 80.2344 40.5C80.2344 62.1685 62.6685 79.7344 41 79.7344C19.3315 79.7344 1.76562 62.1685 1.76562 40.5Z" stroke="#212121" stroke-width="2.53125"/>
</svg>
