<svg width="295" height="365" viewBox="0 0 295 365" fill="none" xmlns="http://www.w3.org/2000/svg">
<g opacity="0.02" clip-path="url(#clip0_5069_26242)">
<path d="M221 15.8149C322.734 15.8149 405.204 98.2848 405.204 200.018C405.204 301.734 322.734 384.204 221 384.204C119.267 384.204 36.7969 301.734 36.7969 200.018C36.7969 98.2848 119.267 15.8149 221 15.8149ZM221 43.4399C200.297 43.2154 179.754 47.0993 160.561 54.867C141.368 62.6346 123.906 74.1317 109.187 88.6928C94.4667 103.254 82.7809 120.59 74.8056 139.697C66.8303 158.805 62.7238 179.304 62.7238 200.009C62.7238 220.714 66.8303 241.214 74.8056 260.321C82.7809 279.429 94.4667 296.765 109.187 311.326C123.906 325.887 141.368 337.384 160.561 345.151C179.754 352.919 200.297 356.803 221 356.579C262.107 355.948 301.316 339.176 330.162 309.884C359.009 280.592 375.177 241.13 375.177 200.018C375.177 158.907 359.009 119.445 330.162 90.153C301.316 60.8609 262.107 44.0705 221 43.4399ZM155.842 251.272C163.591 261.144 173.485 269.122 184.774 274.604C196.062 280.086 208.451 282.927 221 282.912C233.534 282.926 245.908 280.092 257.186 274.623C268.464 269.155 278.352 261.195 286.103 251.346C288.375 248.471 291.695 246.617 295.333 246.19C298.972 245.764 302.631 246.8 305.505 249.071C308.38 251.342 310.234 254.663 310.661 258.301C311.087 261.94 310.051 265.599 307.78 268.473C297.443 281.597 284.261 292.201 269.229 299.488C254.197 306.775 237.706 310.552 221 310.537C204.274 310.55 187.763 306.761 172.716 299.454C157.669 292.148 144.481 281.516 134.147 268.363C131.978 265.478 131.024 261.858 131.489 258.279C131.955 254.699 133.804 251.444 136.639 249.211C139.475 246.977 143.072 245.942 146.661 246.327C150.25 246.712 153.545 248.487 155.842 251.272ZM165.75 140.146C168.827 140.059 171.89 140.59 174.758 141.707C177.626 142.824 180.241 144.505 182.448 146.651C184.655 148.796 186.409 151.362 187.607 154.198C188.805 157.033 189.422 160.08 189.422 163.157C189.422 166.235 188.805 169.282 187.607 172.117C186.409 174.953 184.655 177.519 182.448 179.664C180.241 181.81 177.626 183.491 174.758 184.608C171.89 185.725 168.827 186.256 165.75 186.169C159.76 186 154.072 183.501 149.895 179.204C145.717 174.907 143.381 169.15 143.381 163.157C143.381 157.165 145.717 151.408 149.895 147.111C154.072 142.814 159.76 140.315 165.75 140.146ZM276.25 140.146C279.327 140.059 282.39 140.59 285.258 141.707C288.126 142.824 290.741 144.505 292.948 146.651C295.155 148.796 296.909 151.362 298.107 154.198C299.305 157.033 299.922 160.08 299.922 163.157C299.922 166.235 299.305 169.282 298.107 172.117C296.909 174.953 295.155 177.519 292.948 179.664C290.741 181.81 288.126 183.491 285.258 184.608C282.39 185.725 279.327 186.256 276.25 186.169C270.26 186 264.572 183.501 260.395 179.204C256.217 174.907 253.881 169.15 253.881 163.157C253.881 157.165 256.217 151.408 260.395 147.111C264.572 142.814 270.26 140.315 276.25 140.146Z" fill="white"/>
</g>
<defs>
<clipPath id="clip0_5069_26242">
<rect width="295" height="365" fill="white"/>
</clipPath>
</defs>
</svg>
