<svg width="154" height="47" viewBox="0 0 154 47" fill="none" xmlns="http://www.w3.org/2000/svg">
<g filter="url(#filter0_d_4556_61986)">
<path d="M26.2117 13.577L24.4704 7.84407C24.1269 6.7188 22.5397 6.7188 22.2081 7.84407L20.455 13.577H15.184C14.0351 13.577 13.5613 15.0576 14.497 15.721L18.8086 18.8006L17.1147 24.2612C16.7712 25.3627 18.0505 26.2511 18.9626 25.5523L23.3333 22.2357L27.7041 25.5641C28.6162 26.263 29.8954 25.3746 29.5519 24.273L27.8581 18.8125L32.1697 15.7328C33.1054 15.0576 32.6316 13.5889 31.4826 13.5889H26.2117V13.577Z" fill="url(#paint0_linear_4556_61986)"/>
</g>
<g filter="url(#filter1_d_4556_61986)">
<path d="M53.0456 13.577L51.3044 7.84407C50.9609 6.7188 49.3737 6.7188 49.042 7.84407L47.289 13.577H42.018C40.869 13.577 40.3952 15.0576 41.331 15.721L45.6426 18.8006L43.9487 24.2612C43.6052 25.3627 44.8845 26.2511 45.7965 25.5523L50.1673 22.2357L54.5381 25.5641C55.4502 26.263 56.7294 25.3746 56.3859 24.273L54.6921 18.8125L59.0036 15.7328C59.9394 15.0576 59.4656 13.5889 58.3166 13.5889H53.0456V13.577Z" fill="url(#paint1_linear_4556_61986)"/>
</g>
<g filter="url(#filter2_d_4556_61986)">
<path d="M79.8796 13.577L78.1384 7.84407C77.7949 6.7188 76.2077 6.7188 75.876 7.84407L74.123 13.577H68.852C67.703 13.577 67.2292 15.0576 68.165 15.721L72.4765 18.8006L70.7827 24.2612C70.4392 25.3627 71.7185 26.2511 72.6305 25.5523L77.0013 22.2357L81.3721 25.5641C82.2841 26.263 83.5634 25.3746 83.2199 24.273L81.5261 18.8125L85.8376 15.7328C86.7734 15.0576 86.2996 13.5889 85.1506 13.5889H79.8796V13.577Z" fill="url(#paint2_linear_4556_61986)"/>
</g>
<g filter="url(#filter3_d_4556_61986)">
<path d="M106.712 13.577L104.97 7.84407C104.627 6.7188 103.04 6.7188 102.708 7.84407L100.955 13.577H95.684C94.5351 13.577 94.0613 15.0576 94.997 15.721L99.3086 18.8006L97.6147 24.2612C97.2712 25.3627 98.5505 26.2511 99.4626 25.5523L103.833 22.2357L108.204 25.5641C109.116 26.263 110.395 25.3746 110.052 24.273L108.358 18.8125L112.67 15.7328C113.605 15.0576 113.132 13.5889 111.983 13.5889H106.712V13.577Z" fill="url(#paint3_linear_4556_61986)"/>
</g>
<g filter="url(#filter4_d_4556_61986)">
<path d="M133.546 13.577L131.804 7.84407C131.461 6.7188 129.874 6.7188 129.542 7.84407L127.789 13.577H122.518C121.369 13.577 120.895 15.0576 121.831 15.721L126.143 18.8006L124.449 24.2612C124.105 25.3627 125.384 26.2511 126.297 25.5523L130.667 22.2357L135.038 25.5641C135.95 26.263 137.229 25.3746 136.886 24.273L135.192 18.8125L139.504 15.7328C140.439 15.0576 139.966 13.5889 138.817 13.5889H133.546V13.577Z" fill="url(#paint4_linear_4556_61986)"/>
</g>
<defs>
<filter id="filter0_d_4556_61986" x="0.622365" y="0.980186" width="45.4213" height="45.5673" filterUnits="userSpaceOnUse" color-interpolation-filters="sRGB">
<feFlood flood-opacity="0" result="BackgroundImageFix"/>
<feColorMatrix in="SourceAlpha" type="matrix" values="0 0 0 0 0 0 0 0 0 0 0 0 0 0 0 0 0 0 127 0" result="hardAlpha"/>
<feMorphology radius="6.68882" operator="erode" in="SourceAlpha" result="effect1_dropShadow_4556_61986"/>
<feOffset dy="7.3577"/>
<feGaussianBlur stdDeviation="10.0332"/>
<feColorMatrix type="matrix" values="0 0 0 0 1 0 0 0 0 0.795556 0 0 0 0 0.278431 0 0 0 0.7 0"/>
<feBlend mode="normal" in2="BackgroundImageFix" result="effect1_dropShadow_4556_61986"/>
<feBlend mode="normal" in="SourceGraphic" in2="effect1_dropShadow_4556_61986" result="shape"/>
</filter>
<filter id="filter1_d_4556_61986" x="27.4563" y="0.980186" width="45.4213" height="45.5673" filterUnits="userSpaceOnUse" color-interpolation-filters="sRGB">
<feFlood flood-opacity="0" result="BackgroundImageFix"/>
<feColorMatrix in="SourceAlpha" type="matrix" values="0 0 0 0 0 0 0 0 0 0 0 0 0 0 0 0 0 0 127 0" result="hardAlpha"/>
<feMorphology radius="6.68882" operator="erode" in="SourceAlpha" result="effect1_dropShadow_4556_61986"/>
<feOffset dy="7.3577"/>
<feGaussianBlur stdDeviation="10.0332"/>
<feColorMatrix type="matrix" values="0 0 0 0 1 0 0 0 0 0.795556 0 0 0 0 0.278431 0 0 0 0.7 0"/>
<feBlend mode="normal" in2="BackgroundImageFix" result="effect1_dropShadow_4556_61986"/>
<feBlend mode="normal" in="SourceGraphic" in2="effect1_dropShadow_4556_61986" result="shape"/>
</filter>
<filter id="filter2_d_4556_61986" x="54.2903" y="0.980186" width="45.4213" height="45.5673" filterUnits="userSpaceOnUse" color-interpolation-filters="sRGB">
<feFlood flood-opacity="0" result="BackgroundImageFix"/>
<feColorMatrix in="SourceAlpha" type="matrix" values="0 0 0 0 0 0 0 0 0 0 0 0 0 0 0 0 0 0 127 0" result="hardAlpha"/>
<feMorphology radius="6.68882" operator="erode" in="SourceAlpha" result="effect1_dropShadow_4556_61986"/>
<feOffset dy="7.3577"/>
<feGaussianBlur stdDeviation="10.0332"/>
<feColorMatrix type="matrix" values="0 0 0 0 1 0 0 0 0 0.795556 0 0 0 0 0.278431 0 0 0 0.7 0"/>
<feBlend mode="normal" in2="BackgroundImageFix" result="effect1_dropShadow_4556_61986"/>
<feBlend mode="normal" in="SourceGraphic" in2="effect1_dropShadow_4556_61986" result="shape"/>
</filter>
<filter id="filter3_d_4556_61986" x="81.1224" y="0.980186" width="45.4213" height="45.5673" filterUnits="userSpaceOnUse" color-interpolation-filters="sRGB">
<feFlood flood-opacity="0" result="BackgroundImageFix"/>
<feColorMatrix in="SourceAlpha" type="matrix" values="0 0 0 0 0 0 0 0 0 0 0 0 0 0 0 0 0 0 127 0" result="hardAlpha"/>
<feMorphology radius="6.68882" operator="erode" in="SourceAlpha" result="effect1_dropShadow_4556_61986"/>
<feOffset dy="7.3577"/>
<feGaussianBlur stdDeviation="10.0332"/>
<feColorMatrix type="matrix" values="0 0 0 0 1 0 0 0 0 0.795556 0 0 0 0 0.278431 0 0 0 0.7 0"/>
<feBlend mode="normal" in2="BackgroundImageFix" result="effect1_dropShadow_4556_61986"/>
<feBlend mode="normal" in="SourceGraphic" in2="effect1_dropShadow_4556_61986" result="shape"/>
</filter>
<filter id="filter4_d_4556_61986" x="107.956" y="0.980186" width="45.4213" height="45.5673" filterUnits="userSpaceOnUse" color-interpolation-filters="sRGB">
<feFlood flood-opacity="0" result="BackgroundImageFix"/>
<feColorMatrix in="SourceAlpha" type="matrix" values="0 0 0 0 0 0 0 0 0 0 0 0 0 0 0 0 0 0 127 0" result="hardAlpha"/>
<feMorphology radius="6.68882" operator="erode" in="SourceAlpha" result="effect1_dropShadow_4556_61986"/>
<feOffset dy="7.3577"/>
<feGaussianBlur stdDeviation="10.0332"/>
<feColorMatrix type="matrix" values="0 0 0 0 1 0 0 0 0 0.795556 0 0 0 0 0.278431 0 0 0 0.7 0"/>
<feBlend mode="normal" in2="BackgroundImageFix" result="effect1_dropShadow_4556_61986"/>
<feBlend mode="normal" in="SourceGraphic" in2="effect1_dropShadow_4556_61986" result="shape"/>
</filter>
<linearGradient id="paint0_linear_4556_61986" x1="23.3333" y1="7.00012" x2="23.3333" y2="25.8122" gradientUnits="userSpaceOnUse">
<stop stop-color="#F4CE84"/>
<stop offset="1" stop-color="#CEA24C"/>
</linearGradient>
<linearGradient id="paint1_linear_4556_61986" x1="50.1673" y1="7.00012" x2="50.1673" y2="25.8122" gradientUnits="userSpaceOnUse">
<stop stop-color="#F4CE84"/>
<stop offset="1" stop-color="#CEA24C"/>
</linearGradient>
<linearGradient id="paint2_linear_4556_61986" x1="77.0013" y1="7.00012" x2="77.0013" y2="25.8122" gradientUnits="userSpaceOnUse">
<stop stop-color="#F4CE84"/>
<stop offset="1" stop-color="#CEA24C"/>
</linearGradient>
<linearGradient id="paint3_linear_4556_61986" x1="103.833" y1="7.00012" x2="103.833" y2="25.8122" gradientUnits="userSpaceOnUse">
<stop stop-color="#F4CE84"/>
<stop offset="1" stop-color="#CEA24C"/>
</linearGradient>
<linearGradient id="paint4_linear_4556_61986" x1="130.667" y1="7.00012" x2="130.667" y2="25.8122" gradientUnits="userSpaceOnUse">
<stop stop-color="#F4CE84"/>
<stop offset="1" stop-color="#CEA24C"/>
</linearGradient>
</defs>
</svg>
