<svg width="16" height="16" viewBox="0 0 16 16" fill="none" xmlns="http://www.w3.org/2000/svg">
<path d="M4.05718 15.9434C3.10566 15.9001 2.58876 15.7418 2.24496 15.6077C1.7894 15.4303 1.46462 15.2192 1.12272 14.8778C0.780813 14.5363 0.569204 14.2116 0.392784 13.756C0.258686 13.4122 0.100336 12.8953 0.057063 11.9438C0.00951051 10.9152 0 10.6066 0 8.00071C0 5.39483 0.0104616 5.08669 0.0565875 4.05718C0.0998603 3.10566 0.259161 2.58971 0.392308 2.24496C0.569679 1.7894 0.781288 1.46462 1.12224 1.12224C1.46367 0.780813 1.78845 0.568728 2.24448 0.392308C2.58828 0.25821 3.10518 0.0998603 4.05671 0.0565875C5.08574 0.00951051 5.39484 0 7.99976 0C10.6056 0 10.9138 0.0104616 11.9433 0.0565875C12.8948 0.0998603 13.4108 0.259161 13.7555 0.392308C14.2111 0.568728 14.5359 0.780813 14.8778 1.12224C15.2197 1.46367 15.4303 1.78893 15.6077 2.24448C15.7418 2.58828 15.9001 3.10518 15.9434 4.05671C15.9905 5.08622 16 5.39436 16 8.00024C16 10.6052 15.9905 10.9143 15.9434 11.9438C15.9001 12.8953 15.7408 13.4122 15.6077 13.756C15.4303 14.2116 15.2192 14.5363 14.8778 14.8778C14.5363 15.2192 14.2111 15.4303 13.7555 15.6077C13.4117 15.7418 12.8948 15.9001 11.9433 15.9434C10.9147 15.9905 10.6056 16 7.99976 16C5.39484 16 5.08574 15.991 4.05718 15.9434Z" fill="white"/>
<path d="M6.18603 7.94366C6.18603 6.97229 6.97326 6.18463 7.94464 6.18463C8.91601 6.18463 9.70367 6.97229 9.70367 7.94366C9.70367 8.91503 8.91601 9.70269 7.94464 9.70269C6.97326 9.70269 6.18603 8.91503 6.18603 7.94366M5.23513 7.94366C5.23513 9.44012 6.44817 10.6532 7.94464 10.6532C9.4411 10.6532 10.6541 9.44012 10.6541 7.94366C10.6541 6.4472 9.4411 5.23415 7.94464 5.23415C6.44817 5.23415 5.23517 6.44711 5.23517 7.94366M10.1282 5.12672C10.1282 5.25196 10.1653 5.37439 10.2348 5.47855C10.3044 5.58271 10.4032 5.66391 10.5189 5.71188C10.6346 5.75985 10.7619 5.77244 10.8847 5.74806C11.0076 5.72367 11.1204 5.66341 11.209 5.57489C11.2976 5.48637 11.3579 5.37357 11.3824 5.25075C11.4069 5.12793 11.3944 5.00061 11.3465 4.88489C11.2987 4.76917 11.2175 4.67025 11.1134 4.60063C11.0093 4.53101 10.8869 4.49382 10.7617 4.49377H10.7614C10.5936 4.49385 10.4326 4.56055 10.3139 4.67923C10.1952 4.79791 10.1284 4.95885 10.1282 5.12672M5.81286 12.2388C5.29841 12.2154 5.01879 12.1297 4.83296 12.0573C4.58661 11.9614 4.41083 11.8471 4.22602 11.6626C4.04121 11.478 3.92681 11.3024 3.83133 11.056C3.75889 10.8703 3.67319 10.5906 3.64981 10.0761C3.62423 9.51995 3.61912 9.35287 3.61912 7.94374C3.61912 6.53462 3.62465 6.368 3.64981 5.81134C3.67324 5.29688 3.75956 5.01773 3.83133 4.83144C3.92723 4.58508 4.04146 4.40931 4.22602 4.2245C4.41058 4.03969 4.58618 3.92529 4.83296 3.8298C5.0187 3.75736 5.29841 3.67167 5.81286 3.64828C6.36906 3.6227 6.53615 3.61759 7.94464 3.61759C9.35313 3.61759 9.52037 3.62304 10.077 3.64837C10.5915 3.6718 10.8707 3.75812 11.0569 3.82989C11.3033 3.92537 11.4791 4.04002 11.6639 4.22458C11.8487 4.40914 11.9627 4.58517 12.0586 4.83152C12.131 5.01726 12.2167 5.29697 12.2401 5.81142C12.2657 6.36809 12.2708 6.5347 12.2708 7.94383C12.2708 9.35295 12.2657 9.51957 12.2401 10.0762C12.2167 10.5907 12.1306 10.8703 12.0586 11.0561C11.9627 11.3025 11.8484 11.4783 11.6639 11.6627C11.4793 11.847 11.3033 11.9614 11.0569 12.0573C10.8712 12.1298 10.5915 12.2155 10.077 12.2389C9.52084 12.2644 9.35376 12.2696 7.94464 12.2696C6.53551 12.2696 6.3689 12.2644 5.81286 12.2389M5.76917 2.69895C5.20744 2.72453 4.82359 2.8136 4.48838 2.94404C4.14143 3.07874 3.84732 3.25946 3.55365 3.55267C3.25997 3.84588 3.07972 4.14003 2.94501 4.4874C2.81458 4.82283 2.72551 5.20646 2.69992 5.76819C2.67392 6.33081 2.66797 6.51068 2.66797 7.94366C2.66797 9.37663 2.67392 9.5565 2.69992 10.1191C2.72551 10.6809 2.81458 11.0645 2.94501 11.3999C3.07972 11.7469 3.26001 12.0416 3.55365 12.3346C3.84728 12.6277 4.141 12.8082 4.48838 12.9433C4.82423 13.0737 5.20744 13.1628 5.76917 13.1884C6.33209 13.214 6.51166 13.2203 7.94464 13.2203C9.37761 13.2203 9.55748 13.2144 10.1201 13.1884C10.6819 13.1628 11.0655 13.0737 11.4009 12.9433C11.7478 12.8082 12.0419 12.6279 12.3356 12.3346C12.6293 12.0414 12.8092 11.7469 12.9443 11.3999C13.0747 11.0645 13.1642 10.6809 13.1893 10.1191C13.2149 9.55608 13.2209 9.37663 13.2209 7.94366C13.2209 6.51068 13.2149 6.33081 13.1893 5.76819C13.1638 5.20642 13.0747 4.82262 12.9443 4.4874C12.8092 4.14045 12.6288 3.84635 12.3356 3.55267C12.0424 3.25899 11.7478 3.07874 11.4013 2.94404C11.0655 2.8136 10.6818 2.72411 10.1205 2.69895C9.55782 2.67324 9.37803 2.66699 7.94527 2.66699C6.51251 2.66699 6.3323 2.67294 5.76938 2.69895" fill="black"/>
</svg>
