<svg width="18" height="18" viewBox="0 0 18 18" fill="none" xmlns="http://www.w3.org/2000/svg">
<path d="M16.4047 6.3772V12.4083C16.4047 13.0232 16.1694 13.6149 15.7471 14.0618C15.3248 14.5088 14.7475 14.7772 14.1335 14.812L13.9972 14.8157H3.99725C3.38233 14.8158 2.79071 14.5805 2.34375 14.1582C1.89678 13.7359 1.62836 13.1585 1.59355 12.5446L1.58984 12.4083V6.3772L8.73947 10.1224C8.81901 10.164 8.90746 10.1858 8.99725 10.1858C9.08704 10.1858 9.17549 10.164 9.25503 10.1224L16.4047 6.3772ZM3.99725 2.96387H13.9972C14.594 2.9638 15.1695 3.18535 15.6121 3.58555C16.0547 3.98575 16.3329 4.53608 16.3928 5.12979L8.99725 9.00387L1.6017 5.12979C1.65912 4.55965 1.91803 4.02869 2.33188 3.63236C2.74573 3.23602 3.28738 3.0003 3.85947 2.96757L3.99725 2.96387Z" fill="white"/>
</svg>
