<svg width="135" height="139" viewBox="0 0 135 139" fill="none" xmlns="http://www.w3.org/2000/svg">
<circle cx="38.6325" cy="66.7233" r="38.6325" fill="#6D96FF"/>
<path d="M38.6367 19.3163C38.6367 8.6482 47.2849 0 57.953 0V0C68.6211 0 77.2692 8.64818 77.2692 19.3163V52.6807L60.8505 95.875L38.6367 105.361V19.3163Z" fill="#F0537D"/>
<path d="M97.9709 32.4872C107.21 27.1532 119.023 30.3186 124.357 39.5575V39.5575C129.691 48.7963 126.526 60.6099 117.287 65.944L57.9774 100.186C50.9276 103.992 46.1706 105.254 38.6612 105.362L38.6612 66.7297L97.9709 32.4872Z" fill="#FFD37C"/>
<path d="M38.6367 66.7275L78.124 89.5455C95.6902 99.6962 95.6765 125.058 78.0994 135.189C60.5223 145.321 38.5695 132.622 38.5902 112.333L38.6367 66.7275Z" fill="#2EF2F2" fill-opacity="0.58"/>
</svg>
