<svg width="16" height="16" viewBox="0 0 16 16" fill="none" xmlns="http://www.w3.org/2000/svg">
<path d="M12.6858 16H15.9986L16 10.1372C16 7.25903 15.3809 5.04665 12.0233 5.04665C10.7397 4.99892 9.53395 5.66229 8.88548 6.77299H8.84096V5.31248H5.6607V15.9997H8.97347V10.7128C8.97347 9.31861 9.23746 7.96837 10.9629 7.96837C12.6638 7.96837 12.6858 9.5637 12.6858 10.803V16Z" fill="white"/>
<path d="M0 1.92615C0.000190643 2.98975 0.861052 3.85181 1.92279 3.85162C2.43265 3.85152 2.9216 3.64854 3.28206 3.28731C3.64252 2.92609 3.84498 2.43622 3.84489 1.92546C3.84469 0.861867 2.98383 -0.000190866 1.9221 0C0.860362 0.000190981 -0.000190519 0.862559 0 1.92615Z" fill="white"/>
<path d="M0.262951 16H3.57917V5.31248H0.262951V16Z" fill="white"/>
</svg>
